<?xml version="1.0" encoding="UTF-8"?>
<svg id="b" data-name="Layer 2" xmlns="http://www.w3.org/2000/svg" viewBox="0 0 412.71 412.71">
  <g id="c" data-name="—ÎÓÈ_1">
    <g id="d" data-name="A">
      <circle cx="206.35" cy="206.35" r="206.35" transform="translate(-85.47 206.35) rotate(-45)" style="fill: #e5d6e3; stroke-width: 0px;"/>
      <g>
        <path d="m221.37,54.06s-14.24-5.76-42.74,3.58c-28.5,9.34-68.18,56.31-77.11,116.86-8.93,60.55,11.41,125.42,11.41,125.42l176.62-2.76s52.66-53.19,52.53-79.12c-.13-25.93-31.48-38.14-37.9-80.15s-32.52-92.42-82.82-83.84Z" style="fill: #ffc68d; stroke-width: 0px;"/>
        <path d="m287.75,138.7c-2.7-21.24-9.92-40.26-20.32-53.55-10.66-13.62-23.97-20.36-37.49-18.97l.38,3.86c25.2-2.58,48.23,27.16,53.58,69.17,3.06,24.03,15.09,38.35,24.75,49.85,7.91,9.41,14.73,17.54,14.55,28.23-.39,22.31-41.02,71.15-46.04,76.76l-14.07-7.55c9.77-10.15,45.12-48,44.14-66.93-1.15-22.11-33.57-46.34-34.95-47.36l-2.02-1.49-11.27,28.13,1.86.69c.22.08,21.96,8.27,21.72,25.49-.25,17.82-35.38,52.38-35.73,52.72l2.7,2.77c1.5-1.46,36.63-36.04,36.9-55.45.24-16.95-16.68-25.88-22.41-28.41l7.92-19.77c7.06,5.64,30.5,25.59,31.4,42.91,1.06,20.35-40.5,61.84-40.92,62.26l-3,2.98,22.27,9.03,5.85-6.18c1.62-1.77,39.06-45.04,39.51-70.53.21-12.13-7.05-20.77-15.45-30.78-9.83-11.7-20.96-24.96-23.88-47.86Z" style="fill: #f2b178; stroke-width: 0px;"/>
        <polygon points="273.93 162.72 301.67 160.67 301.43 156.8 273.69 158.85 273.93 162.72" style="fill: #f2ece7; stroke-width: 0px;"/>
        <path d="m257.44,83.14c-.71-.4-1.42-.81-2.14-1.18-10.72-5.49-24.98-10.56-37.13-8.65-1.74.27-3.2-.11-4.32-.89-15.34,4.59-30.47,15.86-40.11,36.64-20.66,44.53,9.78,217.52,9.78,217.52l49.36-14.67,7-58.02s18.54-.75,30.14-26.28c6.32-13.9,5.19-31.38,5.81-54.88.62-23.22.02-48.88-4.08-68.02-4.23-7.58-8.73-15.04-14.29-21.58Z" style="fill: #ff9b7d; stroke-width: 0px;"/>
        <path d="m213.06,155.93c-1.36.22-2.42,4.29-2.35,9.09s1.22,8.5,2.58,8.28c1.36-.22,2.42-4.29,2.35-9.09-.06-4.8-1.22-8.5-2.58-8.28Z" style="fill: #542f2c; stroke-width: 0px;"/>
        <path d="m268.98,156.32c-1.3.21-2.31,4.1-2.25,8.68.06,4.58,1.16,8.12,2.46,7.91,1.3-.21,2.31-4.1,2.25-8.68-.06-4.58-1.16-8.12-2.46-7.91Z" style="fill: #542f2c; stroke-width: 0px;"/>
        <path d="m198.7,247.31c-19.8-10.2-24.67-43.74-24.72-44.08l-.25-1.81-5.69.46h0c.09,1.29.18,2.58.27,3.86,0,0,0,0,0,0l2.12-.17c1.32,7.46,5.92,48.55,24.95,58.36,11.55,5.95,30.01,6.42,42.6,5.48l1.87-15.53s6.24-.26,13.75-5.46c-.68.18-35.02,9.13-54.91-1.12Z" style="fill: #c3735b; stroke-width: 0px;"/>
        <path d="m299.33,150.3v-1.94s-47.17.4-47.17.4l-.2,1.7c-.04.33-.41,3.54-.56,7.86,1.3,1.18,2.58,2.37,3.83,3.6-.02-3.55.17-6.9.39-9.31l39.82-.34c-.12,7.14-.95,21.47-3.96,26.15-1.93,3.01-8.82,5.14-16.76,5.18-4.58.03-8.72-.65-11.78-1.81-.07,1.14-.37,2.26-.89,3.28-.06.11-.14.21-.2.32-.02.04-.03.08-.05.11,3.93,1.43,8.7,2,12.93,1.98,1.76-.01,3.61-.12,5.45-.34,6.06-.74,12.06-2.74,14.56-6.63,4.53-7.05,4.6-27.85,4.59-30.2Z" style="fill: #f2ece7; stroke-width: 0px;"/>
        <path d="m220.87,70.77c-54.03,8.11-77.13,76.97-77.13,76.97l22.84,21.04s39.77-9.06,55.13-39.51c15.89-31.49,8.58-53.53,8.58-53.53,43.26.01,45.55,69.36,45.55,69.36l5.37-10.83s-6.32-71.59-60.35-63.49Z" style="fill: #ffc68d; stroke-width: 0px;"/>
        <path d="m183.96,155.92l-25.31,10.67,1.49,3.57,24.57-10.36c1.16,0,2.06-.01,4.91.2l-.63-3.86c-2.91-.21-3.82-.21-4.64-.21h-.4Z" style="fill: #f2ece7; stroke-width: 0px;"/>
        <path d="m245.33,151.52c-6.79.6-11.92,4.83-12.13,5.01l2.48,2.97s4.42-3.64,9.97-4.12c4.44-.39,5.53,2.92,5.63,3.28l3.75-1.01c-.63-2.36-3.46-6.68-9.7-6.13Z" style="fill: #f2ece7; stroke-width: 0px;"/>
        <path d="m206.35,412.71c51.56,0,98.69-18.91,134.86-50.17-1.91-22.1-5.48-41.02-11.97-48.69-14.22-16.83-54.09-28.35-75.66-33.55-.67-.16,3.11-11.68-.21-13.53-6.73-3.74-14.54-4.49-14.54-4.49,0,0-10.49,38.49-26.79,43.92-16.3,5.42-41.16-32.97-41.16-32.97,0,0-64.08-6.83-96.71,17.48-7.44,5.54-18.14,21.52-30.07,43.17,37.78,48.01,96.41,78.83,162.25,78.83Z" style="fill: #d6bd6e; stroke-width: 0px;"/>
        <path d="m212.83,361.07c-.59-1.9-1.78-3.58-3.88-3.38-1.45.14-2.51,1.43-3.18,2.73-.67,1.3-1.13,2.73-1.13,4.19,0,1.46.49,2.95,1.52,3.99,1.58,1.6,4.22,1.61,5.77-.06,1.76-1.9,1.62-5.16.91-7.47Z" style="fill: #bfc6d4; stroke-width: 0px;"/>
        <path d="m212.09,396.53c-.59-1.9-1.78-3.58-3.88-3.38-1.45.14-2.51,1.43-3.18,2.73-.67,1.3-1.13,2.73-1.13,4.19,0,1.46.49,2.95,1.52,3.99,1.58,1.6,4.22,1.61,5.77-.06,1.76-1.9,1.62-5.16.91-7.47Z" style="fill: #bfc6d4; stroke-width: 0px;"/>
        <path d="m103.27,355.57c-.36.53-4.03,10.25-9.12,23.99,1.11.72,2.22,1.42,3.35,2.12,5.11-13.8,8.66-23.23,9.1-24.13l-1.71-.9-1.61-1.08Z" style="fill: #bca258; stroke-width: 0px;"/>
        <path d="m246.24,301.86c-8.03,21.54-11.19,24.59-11.9,25.02-2.2-.23-8.49-8.64-12.26-13.7-2.61-3.49-4.79-6.37-6.68-8.59-1.08.69-2.2,1.24-3.35,1.62-.1.03-.2.06-.3.09,2.29,2.61,5.08,6.34,7.22,9.21,7.27,9.73,11.95,15.68,15.87,15.24,1.72-.19,4.92-.55,14.78-26.86,3.34-8.91,6.34-17.88,7.87-22.6-1.31-.33-2.57-.64-3.77-.93-1.47,4.52-4.28,12.92-7.48,21.52Z" style="fill: #bca258; stroke-width: 0px;"/>
        <path d="m318.45,379.62c.67-15.43.85-20.76.72-21.5l-3.82.64s-.01-.06-.01-.1c.07,1.06-.33,10.94-.88,23.48,1.34-.83,2.67-1.66,3.99-2.52Z" style="fill: #bca258; stroke-width: 0px;"/>
        <path d="m165.95,226.92l-53.96,4.69s-8.82,32.61-.49,44.5c8.06,11.49,27.18,28.42,35.84,46.48,8.66,18.06,2.21,50.75,2.21,50.75l54.39-9.06s7.4-22.76,4.55-48.52c-2.85-25.76-39.8-63.13-42.54-88.84Z" style="fill: #ffc68d; stroke-width: 0px;"/>
        <path d="m171.13,236.99s-6.26,23.26,20.83,55.29c4.79,5.66,12.56,7.37,19.09,22.68,6.53,15.31-.76,49.57,2.72,49.24,3.48-.33,10.51-31.52,4.37-52.19-6.15-20.67-42.92-49.92-47.01-75.03Z" style="fill: #ffc68d; stroke-width: 0px;"/>
        <path d="m188.16,150.98c-.09.84-2.21,20.74,3.37,29.32,3.28,5.04,12.34,6.79,19.73,6.75,1.76-.01,3.61-.12,5.45-.34,6.06-.74,12.06-2.74,14.56-6.63,4.53-7.05,4.6-27.85,4.59-30.2v-1.98s-47.5,1.4-47.5,1.4l-.19,1.68Zm3.7,2.09l40.1-1.18c-.12,7.15-.96,21.43-3.96,26.11-1.93,3.01-8.82,5.14-16.76,5.18-7.88.04-14.49-1.97-16.47-5-3.98-6.12-3.29-20.24-2.92-25.11Z" style="fill: #f2ece7; stroke-width: 0px;"/>
        <path d="m245.85,155.06c6.79,7.29,16.91,20.92,15.14,26.43-1.94,6.04-13.15,8.01-17.3,8.26l.21,3.87c.2-.01,1.68-.11,3.77-.46,5.36-.89,14.74-3.44,17.01-10.5,3.04-9.46-14.03-28.15-15.99-30.25l-2.84,2.65Z" style="fill: #c3735b; stroke-width: 0px;"/>
        <path d="m218.94,53.36c-2.47-.57-6.83-1.24-13.08-1.01,7.23.34,21.51,3.54,24.44,23.38l3.42.24c-1.48-10.04-4.46-15.36-11.69-20.62-1.02-.74-2.06-1.4-3.09-1.99Z" style="fill: #f2b178; stroke-width: 0px;"/>
        <g>
          <path d="m200.18,133.24c-28.77,28.28-53.04,34.83-53.28,34.89l-1.44.37-.02,1.48c-.03,1.93-.63,47.66,10.38,74.67,4.36,10.69,13.35,19.77,22.87,29.38,11.35,11.46,24.95,25.78,29.74,41.18.53-1.54,1.15-2.1,2.62-.24-5.12-16.51-18.36-32.31-29.61-43.67-9.24-9.33-17.97-18.14-22.04-28.12-9.65-23.67-10.11-63.69-10.1-71.72,5.78-1.83,27.7-10.02,53.58-35.46,29.85-29.34,27.47-69.62,27.36-71.32l-3.87.28c.03.4,2.38,40.19-26.2,68.29Z" style="fill: #f2b178; stroke-width: 0px;"/>
          <path d="m242.37,56.57c-7.21-.7-13.97.23-17.05,1.28-3.47-1.46-16.04-3.65-47.07,18.25-17,12-34.05,41.58-44.48,77.2-10.73,36.65-12.1,70.96-3.66,91.79,10.04,24.79,23.08,36.07,34.57,46.01,9.17,7.93,17.83,15.43,23.71,28.77,7.24,16.43,4.08,34.64.02,46.99,1.49-.32,2.92-.43,4.41-.73,3.9-12.8,6.49-31.08-.89-47.83-6.23-14.14-15.21-21.91-24.72-30.14-11.71-10.13-23.83-20.61-33.52-44.54-8.12-20.05-6.71-53.41,3.78-89.25,10.19-34.81,26.66-63.59,42.98-75.11,33.24-23.45,43.52-17.75,43.57-17.72l1.45,1.02.83-.99c1.69-.51,11.16-3.02,23.88.34,11.48,3.04,28.99,16.16,32.95,20.32-3.53-5.54-8.9-10.81-13.47-15.55-9.85-6.72-19.46-9.35-27.31-10.11Z" style="fill: #f2b178; stroke-width: 0px;"/>
        </g>
        <path d="m169.06,122.52c-22.85,38.12-22.63,47.7-22.53,48.67l3.86-.34c-.01-.37-.06-9.56,21.99-46.34,22.67-37.81,55.41-59.66,55.74-59.88l-2.12-3.23c-.34.22-33.8,22.53-56.94,61.13Z" style="fill: #f2b178; stroke-width: 0px;"/>
        <path d="m220.35,55.02l-3.76-1.24c-1.81-.77-17.28-1.61-35.49,7.13-16.63,7.98-39.76,24.59-55.49,58.42-14.66,31.54-21.47,68.91-19.68,108.09.9,19.83,3.75,36.92,7,50.65,1.89,2.36,3.93,4.89,5.8,6.96-10.69-40.42-16.76-105.66,10.4-164.07,14.99-32.24,36.86-48.27,52.56-56.03,17.77-8.78,37.13-9.07,38.53-8.86,0,0,.31-.97.14-1.05Z" style="fill: #f2b178; stroke-width: 0px;"/>
        <ellipse cx="156.49" cy="183.87" rx="17" ry="21.7" transform="translate(-57 71.09) rotate(-21.75)" style="fill: #ff9b7d; stroke-width: 0px;"/>
        <path d="m151.79,170.03l.03,3.88c2.81-.03,5.09.89,6.98,2.82,5.99,6.11,5.62,19.83,5.62,19.97l3.87.11c.02-.63.43-15.5-6.71-22.79-2.63-2.69-5.92-4.03-9.79-3.98Z" style="fill: #c3735b; stroke-width: 0px;"/>
        <path d="m155.36,184.98l-.16,1.93c.17.01.63.05,9.28-.54l-.25-3.87c-3.87.26-8.26.54-8.79.54l-.08,1.94Z" style="fill: #c3735b; stroke-width: 0px;"/>
        <path d="m225.64,155.04c-1.54-.92-3.39-1.17-5.18-.97-.04,0-.08,0-.13,0-.35.01-.68.07-1,.18-.04,0-.09.02-.13.03-2.23.52-3.72,2.54-2.55,4.77.96,1.83,3.24,2.79,5.14,3.27,2.01.51,4.87.87,6.33-1.01,1.14-1.47.56-3.15-.53-4.41-.53-.77-1.23-1.43-1.96-1.87Z" style="fill: #fff; stroke-width: 0px;"/>
        <path d="m282.32,154.08c-4.01,1.85-1.67,7.29.71,9.38,1.35,1.18,3.12,1.91,4.93,1.75,1.87-.17,3.56-1.51,3.17-3.55-.25-1.31-1.02-2.52-2.04-3.54-.98-2.75-4.04-5.31-6.78-4.05Z" style="fill: #fff; stroke-width: 0px;"/>
        <g style="opacity: .22;">
          <path d="m247.72,77.79c-.92.37-1.86.71-2.79,1.05,14.13,6.52,21.82,22.26,26,36.76,8.25-3.38,16.21-7.5,23.58-12.43-6.2-14.78-15.04-28.32-26.72-37.58-6.04,5.29-13.24,9.47-20.06,12.2Z" style="fill: #fff; stroke-width: 0px;"/>
          <path d="m176.98,71.86c-3.14-3.07-5.19-6.76-6.41-10.73-11.79,6.25-24.69,17.92-36.22,33.54,1.06,2.62,2.39,5.11,4.14,7.36,4.92,6.34,11.76,10.99,18.89,14.53,20.2,10.02,42.98,12.69,65.33,10.67,9.73-20.31,9.85-36.47,8.85-44.95-8.01,1.35-16.23,1.58-24.29.92-10.79-.89-22.33-3.55-30.29-11.32Z" style="fill: #fff; stroke-width: 0px;"/>
        </g>
        <path d="m234.86,208.48c-2.05.34-13.95-10.84-19.57-2.45-1.6,2.39-3.19,16,17.49,16.82,18.83.75,22.95-10.93,18.4-16.42-4.56-5.49-14.27,1.71-16.32,2.05Z" style="fill: #ff827b; stroke-width: 0px;"/>
        <path d="m241.11,214.43c-2.42.4-5.05.6-7.81.45-13.06-.72-21.55-8.52-21.91-8.85l2.65-2.84c.08.07,7.87,7.18,19.48,7.82,11.69.64,20.82-5.79,20.91-5.85l2.25,3.15c-.33.24-6.56,4.63-15.58,6.13Z" style="fill: #ed6662; stroke-width: 0px;"/>
      </g>
    </g>
  </g>
</svg>