<svg data-name="Layer 2" xmlns="http://www.w3.org/2000/svg" viewBox="0 0 412.71 412.71"><g data-name="—ÎÓÈ_1"><g data-name="D"><circle cx="206.35" cy="206.35" r="206.35" style="fill:#e5d6e3;stroke-width:0"/><path d="m257 174.17-2.88 39.94s9.77 3.18 19.75-1.13c9.98-4.31 7.66-18.63 7.66-18.63s3.02-.21 6.26-4.06c3.25-3.86 0-12.71 0-12.71s4.87-.68 9.98-6.13c5.1-5.45-6.4-17.2-6.4-17.2L257 174.17z" style="fill:#7f403b;stroke-width:0"/><path d="M196.18 91.49c-28.98.52-67.89 17.32-70.31 21.79-2.42 4.46-4.29 19.69-4.29 19.69 0 1.31 2.87 87 18.36 119.95 14.21 30.22 30.75 32.65 30.75 32.65l-11.86 116.69 80.24 1.57 15.88-192.92-1.34-80.32s-28.45-39.63-57.43-39.11z" style="fill:#ff9b7d;stroke-width:0"/><path d="m248.72 206.41.02 1.92-.12 1.8c-.04.56-3.99 55.85-36.41 69.7-18.81 8.04-46.85 3.42-47.07 3.38v.23c3.4 1.8 5.54 2.12 5.54 2.12l-1.78 17.54c5.83 1.07 19.61 2.81 32.46-1.75 53.59-19.01 51.15-89.15 51.15-89.15s1.18-.03 2.34-.04l.1-1.26-.07-4c-1.48-.38-3.48-.64-6.16-.51z" style="fill:#c3735b;stroke-width:0"/><ellipse cx="260.26" cy="183.52" rx="25.88" ry="22.42" transform="rotate(-69.46 260.275 183.522)" style="fill:#ff9b7d;stroke-width:0"/><path d="M256.35 173.97c-4.23 8.84-3.97 21.17-3.52 25.54 1.32-.22 2.64-.39 3.97-.54-.57-5.63-.75-27.54 11.57-31l-1.09-3.89c-4.75 1.33-8.43 4.66-10.94 9.89z" style="fill:#c3735b;stroke-width:0"/><path transform="rotate(-19.68 262.672 184.737)" style="fill:#c3735b;stroke-width:0" d="M255.39 182.72h14.65v4.04h-14.65z"/><path d="M140.56 172.57c-1.42 0-2.14 4.91-1.61 10.96.53 6.05 2.11 10.95 3.53 10.95s2.14-4.91 1.61-10.96c-.53-6.05-2.11-10.95-3.53-10.95z" style="fill:#542f2c;stroke-width:0"/><path d="M203.22 377.89c-36.97 5.1-40.79-18.27-41.22-21.25 0 0-3.63 18.92-9.11 49.05 17.05 4.56 34.97 7.01 53.47 7.01s38.11-2.68 55.89-7.67c.47-32.47.8-53.14.88-53.5.42-1.7-22.95 21.25-59.91 26.34z" style="fill:#293549;stroke-width:0"/><path d="M207.67 169.34c-1.42 0-2.14 4.91-1.61 10.96.53 6.05 2.11 10.95 3.53 10.95s2.14-4.91 1.61-10.96c-.53-6.05-2.11-10.95-3.53-10.95z" style="fill:#542f2c;stroke-width:0"/><path d="M147.67 153.56c-4.34.16-8.67.32-13.01.49-4.77.18-4.8 7.46 0 7.28 4.34-.16 8.67-.32 13.01-.49 4.77-.18 4.8-7.46 0-7.28zM212.14 150.44c-5.59.04-11.17.08-16.76.11-4.79.03-4.8 7.31 0 7.28 5.59-.04 11.17-.08 16.76-.11 4.79-.03 4.8-7.31 0-7.28z" style="fill:#85463f;stroke-width:0"/><path d="M161.42 217.43c-6.49-7.87 3.51-31.76 7.9-40.3l-3.6-1.85c-1.74 3.39-16.77 33.4-7.43 44.73 3.14 3.81 7.15 5.12 11.17 5.12 8.57 0 17.23-5.95 17.76-6.32l-2.32-3.31c-.16.11-16 11.02-23.49 1.94zM170.06 237.48l-1.03 3.91c.39.1 4.59 1.18 11.04 1.18 8.61 0 21.23-1.92 34.08-10.62l-2.27-3.35c-20.89 14.14-41.61 8.94-41.82 8.88zM189.12 247.97l-.86 1.83.89-1.82-.89 1.82-.89 1.82c.14.07 1.8.84 4.61.84 3.13 0 7.68-.96 13.15-4.93l-2.37-3.27c-8.28 6.01-13.43 3.81-13.64 3.71z" style="fill:#c3735b;stroke-width:0"/><path d="M282.73 99.8s8.95-16.6-2.41-28.97c-11.36-12.38-26.03-6.19-27.18-8.58-1.15-2.39 4.75-9.85-.43-11.96-5.18-2.11-9.2 0-9.2 0s1.87-20.44-26.57-21.49c-28.45-1.05-36.69 8.22-36.69 8.22s-3.94-8.05-8.77-7c-4.83 1.05-6.44 5.07-6.44 5.07s-17-6.47-32.56 6.82c-15.56 13.3-9.48 23.1-10.38 24.32s-13.06 1.92-15.03 7.35 2.68 9.62 2.68 9.62-15.01 9.27-14.47 22.92c.54 13.65 8.05 14.52 8.05 14.52s-16.1 15.4-11.45 28.35c4.65 12.95 20.04 11.53 19.5 12.32s-11.45 11.26-6.8 18.98c4.65 7.72 13.42 6.91 13.42 6.91s-1.43 5.18 2.33 6.76c3.76 1.57 6.26 1.36 6.26 1.36s-3.76-44.23-2.5-55.77c1.25-11.55 3.59-16.23 3.59-16.23s3.35 8.59 20.49 9.82c17.15 1.23 35.34-15.54 35.34-15.54s6.69 7.84 13.8 7.8c7.11-.03 11.33-2.28 11.33-2.28s5.61 5.11 12.93 6.54c7.32 1.43 9.62.61 9.62.61s-6.48 16.16 0 25.97c6.48 9.82 11.92 9.78 11.92 9.78s0 22.33 1.67 23.15c1.67.82 5.85 0 5.85 0l5.2-25.36s16.19-2.89 21.55 1.08c0 0 7.09.45 12.12-5.03 5.03-5.49.86-10.97.86-10.97s16.83-10.27 12.8-26.3c-4.03-16.03-20.42-22.79-20.42-22.79z" style="fill:#85463f;stroke-width:0"/><path d="M282.73 99.8s8.95-16.6-2.41-28.97c-1.8-1.96-3.68-3.45-5.57-4.58 2.33 2.98 3.65 6.68 3.43 10.97-.39 7.73-5.46 14.54-11.72 18.71-6.11 4.08-14.21 5.82-21.48 5.8-3.93 0-7.71-.83-11.32-2.35-1.66-.7-3.27-1.5-4.85-2.38-.46-.26-.92-.52-1.38-.79-.7.8-1.43 1.49-2.35 2.13-2.15 1.51-4.54 2.29-7.16 2.55-4.65.46-9.36-.89-13.66-2.55-4.15-1.6-8.13-3.6-12.25-5.27-2.07-.84-6.98-3-9.12-1.68-1.57.97-2.17 5.3-2.77 6.89-1.04 2.78-2.28 5.28-4.22 7.56-3.6 4.26-8.84 7.07-14.09 8.75-10.2 3.28-23.13 2.23-31.8-4.42-3.23-2.47-5.77-6.55-6.89-10.81-5.87-.71-11.2-2.57-15.95-6.47-1.62-1.33-2.94-2.76-4-4.27-3.96 4.05-8.2 10.13-7.91 17.5.54 13.65 8.05 14.52 8.05 14.52s-16.1 15.4-11.45 28.35c4.65 12.95 20.04 11.53 19.5 12.32s-11.45 11.26-6.8 18.98c4.65 7.72 13.42 6.91 13.42 6.91s-1.43 5.18 2.33 6.76c3.76 1.57 6.26 1.36 6.26 1.36s-3.76-44.23-2.5-55.77c1.25-11.55 3.59-16.23 3.59-16.23s3.35 8.59 20.49 9.82c17.15 1.23 35.34-15.54 35.34-15.54s6.69 7.84 13.8 7.8 11.33-2.28 11.33-2.28 5.61 5.11 12.93 6.54c7.32 1.43 9.62.61 9.62.61s-6.48 16.16 0 25.97c6.48 9.82 11.92 9.78 11.92 9.78s0 22.33 1.67 23.15c1.67.82 5.85 0 5.85 0l5.2-25.36s16.19-2.89 21.55 1.08c0 0 7.09.45 12.12-5.03 5.03-5.49.86-10.97.86-10.97s16.83-10.27 12.8-26.3c-4.03-16.03-20.42-22.79-20.42-22.79z" style="fill:#7f403b;stroke-width:0"/><path d="M142.28 298.91c-2.2 10.25.55 14.13.55 14.13s-53.1 17.5-87.57 33.84c28.58 30.72 66.4 52.71 109.05 61.54 4.45-107 6.38-122.85 6.38-122.85l-9.08-4.38c-1.22 0-17.13 7.47-19.33 17.72zM359.91 344.19c-36.7-18.31-80.16-34.06-80.16-34.06s4.53-17.55-1.88-23.35c-6.4-5.8-28.12-12.78-28.12-12.78s-7.31 60.49-14.79 136.72c49.39-6.85 93.18-31.17 124.95-66.53z" style="fill:#d6bd6e;stroke-width:0"/><path d="M231.21 50.54c-2.35-2.04-5.8 1.38-3.43 3.43 2.17 1.88 5.16 6.25 1.52 8.54-2.2 1.38-6.76.92-9.3.84-1.92-.06-2.91 2.08-2.1 3.65 1.85 3.56 3.99 6.31.57 9.88-2.79 2.91-7.39 3.38-11.16 3.85-3.06.38-3.1 5.24 0 4.85 5.71-.71 12.02-1.64 15.69-6.59 1.52-2.05 2.46-4.54 2.33-7.12-.07-1.36-.52-2.52-1.1-3.63 4.29-.11 9.07-.94 10.86-4.77 2.12-4.53-.4-9.92-3.88-12.95zM247.71 79.69c-.06.05-.14.12-.23.24-.16.09-.31.18-.47.27-.66.37-1.39.6-2.12.78-1.38.35-2.74.32-4.14.14-1.31-.17-2.41 1.24-2.43 2.43-.02 1.45 1.13 2.26 2.43 2.43 4.63.59 14.19-1.77 11.3-8.28-1.2-2.69-4.99-.64-4.34 1.99zM147.99 88.36c-.37-.06.43-1.9.52-2.15.28-.75-.03-1.84-.62-2.36-2.42-2.11-6.21-.18-9.02.11-2.11.21-4.48.23-6.24-1.14-2.23-1.74-1.78-4.53-1.5-7.01.35-3.1-4.51-3.07-4.85 0-.54 4.85.18 9.37 4.88 11.79 1.9.98 4.04 1.35 6.17 1.32 1.26-.01 2.52-.19 3.77-.39.28-.05 1.14-.11 1.94-.24-.17 2.23.63 4.2 3.67 4.73 3.05.53 4.37-4.14 1.29-4.68z" style="fill:#7f403b;stroke-width:0"/><path d="M176.71 41.66c-1.52.66-2.91 1.46-4.23 2.46-1.57 1.19-1.38 1.38-2.55-.21-1.41-1.91-2.68-3.32-4.95-4.2-10.63-4.11-23.09 4.53-27.96 13.53-1.49 2.75 2.7 5.2 4.19 2.45 2.31-4.27 5.68-7.68 10.06-9.84 4.34-2.13 11.06-3.85 14.48.51 1.82 2.32 3.57 5.1 7.03 3.61 1.94-.84 3.33-2.68 5.27-3.62 1.27-.61 7.13-2.86 8.2-1.04 1.57 2.7 5.77.26 4.19-2.45-2.67-4.59-9.72-2.94-13.72-1.21zM179.1 56.71c-1.27.32-2.04 1.74-1.69 2.98.35 1.29 1.71 2.02 2.98 1.69.14-.03.22-.05.24-.06.11 0 .23-.01.34-.01h.15c.1.02.21.05.31.08.08.02.16.05.24.08-.05-.01.01.02.2.12.08.05.12.08.16.1.1.1.21.19.3.3.9.95 2.52.91 3.43 0s.9-2.48 0-3.43c-1.71-1.8-4.26-2.47-6.65-1.87zM211.81 37.83c-2.89 1.11-1.63 5.8 1.29 4.68 4.56-1.74 9.46-1.05 13.13 2.27 2.31 2.09 5.75-1.33 3.43-3.43-4.86-4.4-11.67-5.88-17.85-3.52zM155.1 102.97c-1.77.18-3.36-.23-4.67-1.46-2.27-2.14-5.71 1.28-3.43 3.43 2.17 2.05 5.1 3.19 8.1 2.88 1.3-.13 2.43-1.02 2.43-2.43 0-1.21-1.11-2.56-2.43-2.43zM252.95 67.4c-3.06.61-1.76 5.29 1.29 4.68 3.63-.73 8.51-.42 9.6 3.89.76 3.03 5.45 1.74 4.68-1.29-1.78-7.05-9.33-8.53-15.57-7.28z" style="fill:#9e534d;stroke-width:0"/><path d="M161.95 328.09c-3.93-1.37-7.6 1.79-11.15 4.84-2.22 1.91-4.73 4.06-6.51 4.21-1.64-1.86-2.84-11.49-1.45-24.11l-3.97 1.33s-.04.01-.05.02c-.65 5.91-1.49 21.03 2.54 25.53.95 1.06 2.01 1.28 2.74 1.28 3.3 0 6.37-2.64 9.35-5.2 2.56-2.2 5.45-4.69 7.19-4.09 2.23.78 4.82 5.8 6.64 10.66.15-3.06.3-5.96.43-8.71-1.6-2.71-3.53-5-5.74-5.77zM264.37 337.24c-1.77.53-2.56-.26-4.53-3.44-1.7-2.75-4.04-6.51-8.88-6.51-2.83 0-5.46 1.76-7.75 4.19-.28 2.59-.57 5.25-.87 7.98 2.58-4.23 5.8-8.12 8.62-8.12 2.41 0 3.66 1.74 5.44 4.59 1.75 2.82 4.14 6.68 9.13 5.18 6.35-1.91 15.18-20.7 18.9-29.25-1.73-.65-3.01-1.12-3.8-1.41-5.02 11.45-12.55 25.67-16.27 26.79z" style="fill:#bca258;stroke-width:0"/></g></g></svg>