<?xml version="1.0" encoding="UTF-8"?>
<svg id="b" data-name="Layer 2" xmlns="http://www.w3.org/2000/svg" viewBox="0 0 412.71 412.71">
  <g id="c" data-name="—ÎÓÈ_1">
    <g id="d" data-name="E">
      <circle cx="206.35" cy="206.35" r="206.35" style="fill: #e5d6e3; stroke-width: 0px;"/>
      <g>
        <path d="m238.17,305.42c0-4.29,4.53-60.45,4.53-60.45l-73.86,4.01c0,.7-.94,56.75-4.23,59.81-3.29,3.05-37.59,10.1-37.59,10.1,0,0,1.51,39.61,6.56,80.61,22.63,8.53,47.15,13.21,72.77,13.21,6.37,0,12.67-.3,18.9-.87,24.89-43.62,46.51-89.62,46.51-89.62,0,0-33.59-12.51-33.59-16.8Z" style="fill: #ff9a83; stroke-width: 0px;"/>
        <path d="m62.41,346.72c-.48,1.49-.7,3.81-.72,6.77,11.44,11.25,24.17,21.18,37.97,29.53,7.99-31.57,15.34-60.53,15.34-60.53-1.23,0-47.66,8.84-52.59,24.23Z" style="fill: #ff9a83; stroke-width: 0px;"/>
        <path d="m182.98,74.14c-1.21-.97-12.85-4.12-13.33-23.27s16.2-31.79,40.47-31.51c24.15.27,41.7,14.54,40.73,29.81-.97,15.27-16.48,24.97-16.48,24.97h-51.39Z" style="fill: #314056; stroke-width: 0px;"/>
        <path d="m206.18,270.85c-17.78.35-32.94-12.89-37.43-17.25-.06,2.89-.16,6.92-.31,11.51,6.83,11.29,19.39,27.38,34.7,27.38,16.39,0,30.52-11.62,37.49-21.39.4-5.15.79-10.14,1.13-14.35-6.12,4.93-19.34,13.79-35.58,14.11Z" style="fill: #d67363; stroke-width: 0px;"/>
        <path d="m269.81,107.17c-8.54-17.59-26.65-35.35-60.48-34.1-33.83,1.25-60.77,31.01-63.59,53.88-.35,2.87-5.33,54.82,0,87.08,5.33,32.26,34.79,56.91,60.48,57.23,25.69.31,53.29-23.46,63-55.41,9.71-31.95,10.63-88.01.59-108.68Z" style="fill: #ff9a83; stroke-width: 0px;"/>
        <ellipse cx="138" cy="184.6" rx="16.84" ry="23.05" transform="translate(-7.81 6.11) rotate(-2.46)" style="fill: #ff9a83; stroke-width: 0px;"/>
        <path d="m135.45,199.5c0-.22-.19-21.97-2.26-29.04l4.89-1.43c2.27,7.75,2.46,29.51,2.47,30.43l-5.1.04Z" style="fill: #d67363; stroke-width: 0px;"/>
        <rect x="131.34" y="181.27" width="5.1" height="8.51" transform="translate(-80.07 266.57) rotate(-74.93)" style="fill: #d67363; stroke-width: 0px;"/>
        <ellipse cx="280.49" cy="184.6" rx="23.05" ry="16.84" transform="translate(84 456.89) rotate(-87.54)" style="fill: #ff9a83; stroke-width: 0px;"/>
        <path d="m283.04,199.5l-5.1-.04c0-.92.2-22.69,2.47-30.43l4.89,1.43c-2.07,7.07-2.26,28.82-2.26,29.04Z" style="fill: #d67363; stroke-width: 0px;"/>
        <rect x="280.36" y="183.06" width="7.84" height="5.1" transform="translate(-38.48 80.28) rotate(-15.07)" style="fill: #d67363; stroke-width: 0px;"/>
        <path d="m238.81,66.12c1.23.31,2.45.65,3.68,1,1.15-1.27,2.31-2.7,3.38-4.27-19.01-5.69-39.25-7.05-58.61-1.69-4.67,1.29-9.23,2.99-13.63,5.04,1.06,1.69,2.22,3.02,3.35,4.06,19.29-8.63,41.39-9.25,61.82-4.14Z" style="fill: #293747; stroke-width: 0px;"/>
        <ellipse cx="175.43" cy="166.32" rx="3.48" ry="10.01" style="fill: #314056; stroke-width: 0px;"/>
        <ellipse cx="242.69" cy="167.32" rx="3.48" ry="10.01" style="fill: #314056; stroke-width: 0px;"/>
        <path d="m203.28,207.23l-.29-5.09c4.57-.27,17.77-2.46,18.49-8.8.84-7.43-10.14-27.58-14.44-34.72l4.37-2.63c1.67,2.78,16.33,27.45,15.14,37.93-1.33,11.71-21.02,13.18-23.26,13.31Z" style="fill: #d67363; stroke-width: 0px;"/>
        <path d="m186.24,224.17s.02-5.76,22.41-6.06,22.43,6.06,22.43,6.06c0,0,2.88,15.41-22.54,16-25.42.59-22.31-16-22.31-16Z" style="fill: #ff6c6c; stroke-width: 0px;"/>
        <path d="m149.79,180.14s1.69-91.81,63.81-92.69c63.33-.9,56.64,92.79,56.64,92.79l3.4-.23,2.96-11.99,5.07-6.44s16.95-49.39-4.74-72.93c-21.68-23.53-48.84-26.54-68.92-27.09-20.08-.55-63.77,18.61-71.2,42.14s.47,57.85.47,57.85l6.85,7.16,1.26,11.42h4.4Z" style="fill: #314056; stroke-width: 0px;"/>
        <path d="m356.06,348.37c-17.46-8.91-53.63-16.69-54.59-17.16l-43.97,48.61s-1.33,12.07-2.55,27.12c39.29-9.48,74.19-30.2,101.11-58.57Z" style="fill: #ff9a83; stroke-width: 0px;"/>
        <g>
          <path d="m308.44,331.2l-44.89-13.08s-33.24,58.52-60.31,94.55c1.04.02,2.07.04,3.11.04,28.17,0,55.01-5.65,79.47-15.87,5.64-27.7,17.43-54.51,21.33-62.93.26-.56,8.35,1.27,8.53.87.4-.84-7.25-3.58-7.25-3.58Z" style="fill: #eb6085; stroke-width: 0px;"/>
          <path d="m158.76,407.18c-6.73-33.79-9.34-82.65-9.81-92.5-.02-.48,6.55-2.2,6.55-2.2-.02-.41-6.63.43-6.63.43,0,0-33.97,6.71-36.99,9.34-1.34,1.17-10.44,26.59-20.38,55.56,20.18,13.55,42.89,23.62,67.26,29.38Z" style="fill: #eb6085; stroke-width: 0px;"/>
        </g>
        <path d="m183.66,141.74c-5.68-.21-11.33-.1-17,.35-4.55.36-4.59,7.5,0,7.14,5.66-.45,11.32-.56,17-.35,4.6.17,4.59-6.97,0-7.14Z" style="fill: #314056; stroke-width: 0px;"/>
        <path d="m252.1,143.56c-6-.94-12.01-1.48-18.09-1.52-4.6-.03-4.6,7.11,0,7.14,5.43.04,10.82.43,16.19,1.27,4.5.7,6.43-6.18,1.9-6.89Z" style="fill: #314056; stroke-width: 0px;"/>
        <path d="m233.25,222.05c-4.63,1.34-14.48,3.85-24.25,4.2-10.12.37-20.87-2.76-25.34-4.25-.46,1.64-.89,3.29-1.39,4.92,4.64,1.54,14.8,4.46,25.05,4.46.62,0,1.24-.01,1.86-.03,10.1-.36,20.04-2.84,25.06-4.27-.35-1.67-.65-3.35-1-5.03Z" style="fill: #f46060; stroke-width: 0px;"/>
        <g>
          <path d="m152.69,93.64c2.93,6.83,8.09,12.11,14.64,15.57.98.52,1.98.99,2.99,1.43,1.03-1.43,2.1-2.81,3.23-4.15-5.46-2.25-10.51-5.45-13.82-10.47-2.81-4.25-4.31-9.12-5.22-14.12-1.54,1.15-3.02,2.34-4.42,3.56.63,2.79,1.46,5.53,2.6,8.18Z" style="fill: #293747; stroke-width: 0px;"/>
          <path d="m153.08,153.52c.34-1.65.71-3.33,1.12-5.05-7.28-.77-14.51-2.58-19.94-7.11.21,2.33.46,4.54.72,6.59,2.24,1.33,4.64,2.41,7.13,3.26,3.56,1.21,7.24,1.9,10.97,2.31Z" style="fill: #293747; stroke-width: 0px;"/>
          <path d="m135.82,107.31c.87,2.1,1.94,4.11,3.23,6,4.87,7.09,12.33,11.46,20.39,14.06.47.15.94.28,1.42.42.66-1.57,1.37-3.13,2.11-4.67-3.52-.99-6.93-2.28-10.12-4.07-6.83-3.85-11.46-9.91-13.62-17.43-.22-.78-.41-1.56-.58-2.34-.75,1.46-1.37,2.93-1.84,4.43-.37,1.18-.7,2.39-.99,3.61Z" style="fill: #293747; stroke-width: 0px;"/>
          <path d="m285.16,148.4c-5.34,1.18-10.65,2.51-15.92,3.97.21,1.76.39,3.48.53,5.14,4.67-1.31,9.37-2.51,14.1-3.6.41-1.64.85-3.48,1.28-5.51Z" style="fill: #293747; stroke-width: 0px;"/>
          <path d="m180.43,99.58c1.31-1.11,2.67-2.17,4.09-3.15-7.33-6.19-11.77-15.59-12.2-25.16-1.65.79-3.29,1.62-4.91,2.49,1.02,9.81,5.66,19.17,13.02,25.83Z" style="fill: #293747; stroke-width: 0px;"/>
          <path d="m157.16,137.82c.53-1.66,1.11-3.33,1.72-5-4.35-.18-8.61-1.06-12.72-2.54-4.07-1.47-8.24-3.52-11.6-6.29-.29-.24-.56-.49-.84-.74-.09,2.16-.12,4.31-.09,6.43,3.82,2.63,8.2,4.56,12.45,5.96,3.58,1.18,7.31,1.91,11.08,2.19Z" style="fill: #293747; stroke-width: 0px;"/>
          <path d="m263.32,125.89c8.57-2.32,16.55-6.91,22.81-13.2.34-.34.65-.7.98-1.05-.33-2.13-.77-4.23-1.33-6.28-6.09,7.72-14.75,13.26-24.29,15.75.66,1.58,1.27,3.17,1.83,4.78Z" style="fill: #293747; stroke-width: 0px;"/>
          <path d="m273.92,85.55c-1.34-1.31-2.7-2.55-4.07-3.72-3.36,9.72-7.85,19.51-15.31,26.36.99,1.43,1.92,2.91,2.79,4.43,7.93-6.98,12.91-16.97,16.59-27.06Z" style="fill: #293747; stroke-width: 0px;"/>
          <path d="m287.31,135.12c.25-2.23.44-4.54.55-6.88-5.98,5.16-13.18,8.89-20.84,10.84.37,1.68.7,3.35.99,5.01,6.92-1.73,13.49-4.79,19.3-8.96Z" style="fill: #293747; stroke-width: 0px;"/>
          <path d="m204.44,72.65c-.56-3.61-1.06-7.23-1.65-10.84-1.59.17-3.26.42-5.01.75.06.34.11.69.17,1.03.61,3.76,1.12,7.54,1.72,11.31.74,4.65,1.67,9.25,3.03,13.72,1.63-.34,3.31-.61,5.04-.8-1.56-4.93-2.5-10.08-3.29-15.18Z" style="fill: #293747; stroke-width: 0px;"/>
          <path d="m221.2,87.84c1.73.2,3.4.48,5.01.84.92-5.67,1.5-11.4,1.68-17.14.09-2.76.09-5.53,0-8.29-1.73-.28-3.44-.51-5.13-.7.12,3.16.12,6.32.01,9.48-.19,5.3-.72,10.58-1.58,15.81Z" style="fill: #293747; stroke-width: 0px;"/>
          <path d="m245.99,82.5c-.95,4.31-2.39,8.72-4.82,12.4,1.43.94,2.8,1.96,4.1,3.04,2.64-3.95,4.36-8.59,5.43-13.18,1.06-4.55,1.79-9.21,2.42-13.84-1.6-.77-3.21-1.48-4.82-2.12-.02.12-.03.25-.05.37-.59,4.46-1.31,8.94-2.28,13.34Z" style="fill: #293747; stroke-width: 0px;"/>
        </g>
        <g>
          <path d="m242.96,50.13c-5.94,4.79-12.83,8.26-20.16,10.08,2.44.97,4.85,2.02,7.24,3.12,7.76-2.93,14.78-7.59,20.74-13.35.03-.27.06-.54.08-.81.13-2.04-.08-4.05-.58-6.02-2.24,2.5-4.67,4.85-7.31,6.98Z" style="fill: #293747; stroke-width: 0px;"/>
          <path d="m198.96,27.83c6.66-.96,14.47-2.48,19-7.85-2.32-.33-4.73-.54-7.21-.59-2.55,1.43-5.57,2.12-8.37,2.69-4.84.99-9.8,1.51-14.76,1.57-2.9,1.32-5.5,2.93-7.77,4.8,6.36.49,12.74.3,19.1-.62Z" style="fill: #293747; stroke-width: 0px;"/>
          <path d="m197.15,53.39c12.03-3.77,22.47-11.67,30.16-21.57,1.89-2.43,3.61-4.97,5.2-7.59-1.52-.71-3.13-1.36-4.79-1.93-3.96,6.35-8.8,12.11-14.68,16.85-9.07,7.31-20.37,11.59-32.06,11.54-3.81-.02-7.62-.49-11.32-1.37-.01.52-.02,1.03,0,1.56.03,1.3.12,2.51.25,3.67,8.99,1.92,18.41,1.62,27.25-1.15Z" style="fill: #293747; stroke-width: 0px;"/>
        </g>
        <g style="opacity: .13;">
          <path d="m168.18,94.39c4.21,1.77,8.58,3.28,13.03,4.52,8.37-6.84,18.97-11.28,32.39-11.47,12.52-.18,22.3,3.35,29.93,9.11,4.66-1.92,9.16-4.23,13.43-6.91,4.17-2.61,8.04-5.51,11.51-8.98-8.86-7.22-18.31-11.7-27.61-14.5-1.19.73-2.4,1.44-3.64,2.09-10.03,5.32-21.47,8.15-32.84,7.54-8.9-.48-17.45-3.13-25-7.66-10.19,4.11-20.57,9.92-28.66,16.78,5.5,3.71,11.35,6.89,17.47,9.46Z" style="fill: #67a6f3; stroke-width: 0px;"/>
        </g>
      </g>
    </g>
  </g>
</svg>