<?xml version="1.0" encoding="UTF-8"?>
<svg id="b" data-name="Layer 2" xmlns="http://www.w3.org/2000/svg" viewBox="0 0 412.71 412.71">
  <g id="c" data-name="—ÎÓÈ_1">
    <g id="d" data-name="P">
      <circle cx="206.35" cy="206.35" r="206.35" transform="translate(-85.47 206.35) rotate(-45)" style="fill: #e5d6e3; stroke-width: 0px;"/>
      <path d="m146.59,263.48c.48-1.1,8.54-17.56,9.27-19.54.73-1.98-1.63-134.25,4.18-139.93,5.81-5.68,61.82-28.31,69.42-28.08,7.61.23,50.63,14.11,51.3,20.86s-.83,151.63-3.87,155.34c-3.04,3.72-27.75,17.32-27.75,17.32l2.9,59.81s-75.55,20-76.64,17.33c-1.09-2.67-28.82-83.11-28.82-83.11Z" style="fill: #f28f73; stroke-width: 0px;"/>
      <path d="m268.56,403.16c-4.24-63.88-7.77-117.05-7.78-117.34-.02-.73-30,29.3-43.32,32.69-13.32,3.39-63.68-34.62-64.16-35.59,0,0,1.23,56.4,2.69,123.59,16.12,4.04,32.99,6.2,50.37,6.2,21.68,0,42.57-3.35,62.2-9.55Z" style="fill: #d8dfeb; stroke-width: 0px;"/>
      <g>
        <path d="m179.22,348.01c.14,0,.28,0,.42-.02,5.15-.45,15.02-9.73,28.41-22.8,2.32-2.26,4.79-4.67,6.75-6.5-1.68-.11-3.66-.56-5.86-1.29-1.23,1.19-2.67,2.58-4.36,4.24-7.55,7.37-21.59,21.08-25.34,21.4-3.68-.18-15.27-18.28-20.22-26.01-2.1-3.28-3.78-5.89-5.15-7.91.06,2.93.13,6.07.2,9.41.25.4.51.79.76,1.19,12.45,19.43,19.04,28.3,24.4,28.3Z" style="fill: #bbc6d7; stroke-width: 0px;"/>
        <path d="m221.05,322.34c8.54,12.95,16.86,24.52,25.2,24.06,6.6-.38,13.08-6.74,17.86-12.92-.19-2.69-.37-5.29-.55-7.8-4.56,6.84-11.62,15.42-17.59,15.76-6.16.36-15.65-14.08-20.76-21.83-.86-1.3-1.6-2.43-2.26-3.4-1.67.9-3.23,1.6-4.63,2.04.84,1.22,1.82,2.7,2.74,4.09Z" style="fill: #bbc6d7; stroke-width: 0px;"/>
      </g>
      <path d="m153.29,249.54c-4.34.5-21.45,23.51-22.92,24.98-1.46,1.47-95.86,22.81-104.36,32.08,0,.01-.02.03-.03.04,30.01,53.87,83.45,92.88,146.54,103.29-9.71-81.46-19.23-160.39-19.23-160.39Z" style="fill: #293549; stroke-width: 0px;"/>
      <path d="m269.93,272.42c-2.21-.74-10.5-12.89-10.5-12.89l-11.38,4.6,2.11,41.17,6.23,101.28c48.37-12.05,89.99-41.16,118.1-80.58-.24-4.47-.62-7.65-1.18-8.56-8.43-13.71-101.18-44.29-103.39-45.03Z" style="fill: #293549; stroke-width: 0px;"/>
      <ellipse cx="148.17" cy="172.22" rx="19.19" ry="24.12" transform="translate(-35.03 37.86) rotate(-13.04)" style="fill: #f28f73; stroke-width: 0px;"/>
      <path d="m156.68,187.49l-4.94-.54c.75-6.96.84-25.42-7.66-27.22l1.03-4.86c14.37,3.04,11.9,29.6,11.57,32.62Z" style="fill: #c5735b; stroke-width: 0px;"/>
      <rect x="147.76" y="168.83" width="4.97" height="9.06" transform="translate(-39.74 301.95) rotate(-83.18)" style="fill: #c5735b; stroke-width: 0px;"/>
      <path d="m230.61,216.19c-11.95,0-20.88-2.24-21.52-2.4l1.24-4.82c.26.07,26.06,6.5,48.12-2.97l1.96,4.57c-10.14,4.35-20.82,5.62-29.8,5.62Z" style="fill: #c5735b; stroke-width: 0px;"/>
      <path d="m202.08,154.98c-.18,6.15-1.71,11.09-3.4,11.04-1.69-.05-2.92-5.07-2.73-11.22.18-6.15,1.71-11.09,3.4-11.04,1.69.05,2.92,5.07,2.73,11.22Z" style="fill: #5b312e; stroke-width: 0px;"/>
      <path d="m267.34,154.62c-.18,6.15-1.71,11.09-3.4,11.04-1.69-.05-2.92-5.07-2.73-11.22.18-6.15,1.71-11.09,3.4-11.04,1.69.05,2.92,5.07,2.73,11.22Z" style="fill: #5b312e; stroke-width: 0px;"/>
      <path d="m281.05,179.02c-.12-20.2,6.79-79.68,2.46-87.22-4.33-7.53-9.04-7.95-9.04-7.95,0,0,13.63-8.1,9.51-17.74-4.13-9.64-11.34-8.79-11.34-8.79,0,0,8.85-6.29,1.54-9.25-7.31-2.97-15.74-3.64-15.74-3.64,0,0-13.38-19-36.02-11.22-22.64,7.78-29.84,22.36-29.84,22.36,0,0-13.19-3.78-21,2.76-7.81,6.53-6.26,11.02-6.26,11.02,0,0-13.98,6.14-18.65,18.47-4.67,12.33,1,20.53,1,20.53v40.06s8.11,3.13,9.84,5.33c1.57,2,4.68,4.4,4.68,18.49,0,10.97-3.29,22.62-3.48,20.65,0,0,5.04,54.62,23.02,68.82,20.01,15.8,86.03,7.74,94.25-4.09,11.17-16.07,5.57-64.79,5.07-78.59h0Zm-19.56,49.44c-1.92,4.36-17.99,20.16-26.38,19.22-8.39-.94-31.42-15.57-33.08-20.03-1.66-4.47,4.3-18.28,5.86-19.34,2.66-1.8,16.48,1.79,28.81,1.21,11.94-.56,22.43-5.33,23.34-4.15,1.86,2.4,3.37,18.72,1.44,23.08Zm16.86-13.27c-1.2,1.61-7.71,9.19-7.71,9.19,0,0-1.63-28.47-7.28-33.11-5.65-4.63-44.39-2.15-57.91,2.4-13.52,4.55-13.24,28.36-13.24,28.36,0,0-18.76-8.33-22.07-19-3.32-10.68-.24-69.15.24-72.36.48-3.21,8.63-9.42,8.69-11.32.06-1.9.54-25.71,10-29.54,9.45-3.83,80.9-1.77,84.02,2.51,3.12,4.28,7.14,38.63,7.14,40.5,0,5.66-.11,35.54-.03,45.14-.06,3.19-.7,35.69-1.84,37.23Z" style="fill: #87463f; stroke-width: 0px;"/>
      <path d="m153.64,350.69c-1.38-2.49-5.22-2.74-15.84-2.83-3.46-.03-8.48-.07-10.45-.48-.65-6.82,1.48-44.96,3.33-73.2-.12.15-.23.27-.3.33-.19.19-1.92.71-4.8,1.48-.51,7.85-1.21,19.05-1.83,30.26-2.34,42.19-1.39,43.33-.47,44.43,1.55,1.87,5.01,2.06,14.48,2.13,3.43.03,8.83.07,11.13.52-.96,2.72-4.89,9.02-7.36,12.97-3.19,5.11-5.18,8.35-5.79,10.25-.3.92-.7,2.19,5.29,24.3.12.46.25.93.38,1.4,1.87.62,3.75,1.21,5.64,1.77-3.94-14.32-6.33-24.04-6.48-26.22.64-1.6,3.04-5.45,5.18-8.87,7.39-11.85,9.33-15.68,7.89-18.27Z" style="fill: #222c3a; stroke-width: 0px;"/>
      <path d="m278.11,275.18c5.48,24.6,12.31,56.96,11.97,60.46-.34,2.35-7.61,7.73-14.17,11.29l-4.3,2.33,4.42,2.1c5.52,2.62,11.97,6.02,13.96,7.51-.42,3.85-3.1,18.65-6.97,39.12,1.85-.74,3.68-1.51,5.5-2.3.57-3.04,1.11-5.9,1.61-8.57,5.41-29.05,5.18-29.43,4.51-30.54-.89-1.48-5-4.05-12.25-7.66,5.02-3.1,11.96-8.12,12.61-12.56.62-4.21-6.92-39.2-11.37-59.28-2.02-.7-3.88-1.34-5.52-1.9Z" style="fill: #222c3a; stroke-width: 0px;"/>
      <path d="m205.17,127.4c-4.07.31-8.15.63-12.22.94-4.44.34-4.48,7.31,0,6.96,4.07-.31,8.15-.63,12.22-.94,4.44-.34,4.48-7.31,0-6.96Z" style="fill: #5b312e; stroke-width: 0px;"/>
      <path d="m270.75,127.5c-4.26-.44-8.53-.63-12.81-.59-4.48.04-4.49,7.01,0,6.96,4.28-.04,8.55.15,12.81.59,4.45.46,4.42-6.51,0-6.96Z" style="fill: #5b312e; stroke-width: 0px;"/>
      <path d="m233.66,193.89l-1.32-4.8c5.06-1.39,19.51-6.96,19.59-14.02.09-7.76-12.92-21.91-17.94-26.71l3.43-3.6c2.01,1.92,19.61,19.06,19.48,30.36-.14,12.07-20.88,18.11-23.25,18.76Z" style="fill: #c5735b; stroke-width: 0px;"/>
      <path d="m229.04,221.87s-4.02,10-2.55,11.47,19.88.13,20.01-.93c.13-1.07-3.2-10.54-3.2-10.54h-14.26Z" style="fill: #87463f; stroke-width: 0px;"/>
      <g>
        <path d="m247.8,43.52c-1.59-1.11-3.69-1.3-5.57-1.18-2.1.14-4.1.65-6.01,1.51-.83.38-1.56.89-2.36,1.32,0,0-.01,0-.02,0-.67-1.22-1.06-2.51-2.1-3.51-1.34-1.3-3.29-1.74-5.1-1.75-3.58-.02-7.21,1.06-10.41,2.62-3.69,1.81-6.78,4.54-9.22,7.83-.8,1.08-.18,2.78.89,3.4,1.27.74,2.6.19,3.4-.89,2.1-2.82,5.07-5.08,8.31-6.45,1.58-.67,3.31-1.16,5.01-1.4,1.08-.15,3-.53,3.83.39.73.82,1.05,2.55,1.99,3.53,1.64,1.71,3.96,1.61,5.92.51,1.69-.96,3.28-1.84,5.25-2.1.76-.1,1.62-.16,2.38-.06.38.05.8.14,1.12.37,0-.05.02-.1.03-.18-.01.06-.01.12-.02.18.01,0,.02.01.03.02.05.04-.04.31-.06.24-.05,1.17.57,2.28,1.78,2.61,1.21.33,2.81-.41,3.06-1.74.4-2.12-.35-4.06-2.14-5.31Z" style="fill: #a45751; stroke-width: 0px;"/>
        <path d="m245.11,47.69c-.02.16-.03.24-.02.27,0-.09.02-.18.03-.26,0,0,0,0,0,0Z" style="fill: #a45751; stroke-width: 0px;"/>
      </g>
      <path d="m262.53,59.41c-.14-.37-.29-.76-.52-1.09-.49-.71-1.01-1.22-1.73-1.71-.19-.13-.39-.24-.6-.34-.4-.18-.81-.36-1.22-.49-.5-.16-1.01-.26-1.53-.36-.66-.13-1.32-.1-1.92.25-.52.3-1.01.89-1.14,1.49-.15.64-.11,1.35.25,1.92.34.52.85,1.02,1.49,1.14.61.12,1.21.26,1.79.47.07.04.13.07.2.11.07.06.14.13.2.2,0,.03.02.06.03.09,0,.05.03.09.04.14,0,0,0,0,0,.01,0,0,0,0,0,0,.03.12.07.24.13.36.1.31.27.57.51.8.43.43,1.14.76,1.76.73.64-.03,1.31-.24,1.76-.73.42-.45.8-1.12.73-1.76-.05-.42-.08-.84-.23-1.23Z" style="fill: #a45751; stroke-width: 0px;"/>
      <path d="m207.06,64.05c-3.62-1.11-7.59-.95-11.1.49-.82.34-1.61.72-2.36,1.17,0,0,0,0-.01,0-.03-.05-.06-.08-.07-.1-1.13-1.44-2.29-2.59-4.17-2.96-3.91-.78-7.2,1.7-10.02,4.07-2.93,2.47-5.28,5.45-6.69,9.04-.49,1.25.54,2.73,1.74,3.06,1.41.39,2.57-.48,3.06-1.74,1.1-2.81,3.29-5.07,5.57-6.97,1.37-1.14,4.55-3.99,6.22-1.99.91,1.09,1.59,2.25,3.08,2.67,1.89.53,3.27-.58,4.85-1.38,2.66-1.34,5.77-1.44,8.58-.57,3.07.94,4.38-3.86,1.32-4.79Z" style="fill: #a45751; stroke-width: 0px;"/>
      <g>
        <path d="m244.07,68.69c-4.18-4.19-11.27-5.03-16.24-1.76-1.09.71-1.65,2.23-.89,3.4.7,1.08,2.24,1.65,3.4.89.09-.06.96-.55,1.31-.73-.08.03-.13.05.03-.01.07-.03.12-.06.12-.06,0,0-.02.02-.05.03.02,0,.03-.01.05-.02.12-.04.23-.08.35-.12.26-.08.53-.16.8-.22.25-.06.51-.1.76-.15.01,0,.01,0,.03,0,.12,0,.25-.02.37-.03.58-.04,1.17-.03,1.75.03.03,0,.1.01.17.02.08.01.17.03.18.03.27.05.54.11.81.18s.53.15.79.24c.11.04.23.08.34.12,0,0,0,0,0,0,.49.26.98.5,1.44.81.09.06.19.13.28.2,0,0,.01.01.02.02.23.2.46.41.68.63.92.92,2.61.99,3.52,0,.91-.99.98-2.53,0-3.52Z" style="fill: #a45751; stroke-width: 0px;"/>
        <path d="m231.64,70.5s.06-.03.09-.04c-.02,0-.05.02-.07.02,0,0-.02,0-.03.01Z" style="fill: #a45751; stroke-width: 0px;"/>
      </g>
    </g>
  </g>
</svg>