<?xml version="1.0" encoding="UTF-8"?>
<svg id="b" data-name="Layer 2" xmlns="http://www.w3.org/2000/svg" viewBox="0 0 412.71 412.71">
  <g id="c" data-name="—ÎÓÈ_1">
    <g id="d" data-name="B">
      <circle cx="206.35" cy="206.35" r="206.35" transform="translate(-85.47 206.35) rotate(-45)" style="fill: #e5d6e3; stroke-width: 0px;"/>
      <g>
        <path d="m142.16,134.07c-4.99,1.46-11.65,33.49-7.76,36.42s10.54,3.84,10.54,3.84l5.75-35.23c-.76-1.26-4.14-6.31-8.52-5.03Z" style="fill: #ce885d; stroke-width: 0px;"/>
        <path d="m150.84,138.1l-.16,1c.11.18.16.28.16.28v-1.28Z" style="fill: #ce885d; stroke-width: 0px;"/>
      </g>
      <path d="m137.53,172.26c1.59.69,3.23,1.18,4.57,1.5,1.61-8.16,5.01-24.94,7.9-35.69-.82-1.14-2.2-2.72-3.95-3.59-3.05,10.65-6.74,28.75-8.52,37.78Z" style="fill: #a36140; stroke-width: 0px;"/>
      <path d="m150.84,138.1l-.16,1c.11.18.16.28.16.28v-1.28Z" style="fill: #ce885d; stroke-width: 0px;"/>
      <path d="m162.48,81.67s-29.44,107.43-25.29,132.26,33.37,39.19,33.37,39.19c0,0-4.97,37.34-4.97,38.16s11.19,31.19,12.85,31.39c1.66.21,67.56-39.81,67.56-39.81,0,0-.21-20.52,0-27.9.21-7.39,32.54-129.47,32.12-133.37s-5.8-44.32-28.6-51.09c-22.8-6.77-76.89-11.9-80-6.16-3.11,5.75-7.04,17.32-7.04,17.32Z" style="fill: #ce885d; stroke-width: 0px;"/>
      <path d="m190.69,188.11c-1-.24-24.36-6.06-23.62-19.53.68-12.27,22.78-33.01,25.3-35.33l3.25,3.46c-6.45,5.96-23.3,23.35-23.79,32.13-.44,7.95,14.28,13.29,19.99,14.68l-1.14,4.59Z" style="fill: #a36140; stroke-width: 0px;"/>
      <path d="m192.21,207.41c-15.23,0-26.59-4.44-27.35-4.75l1.79-4.38-.9,2.19.89-2.19c.28.11,28.46,11.08,54.77-2.36l2.19,4.2c-10.88,5.55-21.89,7.29-31.4,7.29Z" style="fill: #a36140; stroke-width: 0px;"/>
      <path d="m195.55,220.1c-3.67,0-5.72-1.01-5.87-1.08l2.18-4.2-1.09,2.1,1.05-2.12c.2.09,4.89,2.18,13.56-1.95l2.07,4.26c-4.92,2.34-8.94,3-11.9,3Z" style="fill: #a36140; stroke-width: 0px;"/>
      <path d="m252.34,197.09s-1.72,4.66-2.29,6.79c-8.34,31.02-21.85,41.57-31,45.25-23.12,9.3-55.22-.09-55.49-.17,4.1,2.73,7,4.15,7,4.15,0,0-.59,4.44-1.37,10.28,4.87,1.44,16.18,4.42,26.35,4.42,8.29,0,19.06,0,28.23-5.32,9.41-5.46,21.07-24.74,29.92-57.33,1.01.25,2.33.59,3.78.97.53-2.13,1.08-4.28,1.62-6.45-5.83-1.8-6.45-2.59-6.74-2.59Z" style="fill: #a36140; stroke-width: 0px;"/>
      <ellipse cx="269.63" cy="178.04" rx="24.28" ry="18.15" transform="translate(-11.66 337.03) rotate(-62.91)" style="fill: #ce885d; stroke-width: 0px;"/>
      <path d="m261.27,185.84c2.24-6.18,8.28-18.29,18.47-19.07l-.37-4.71c-6.54.5-12.49,4.49-17.23,11.54-2.16,3.21-4.13,7.34-5.34,10.63,1.49.53,2.98,1.06,4.46,1.61Z" style="fill: #a36140; stroke-width: 0px;"/>
      <path d="m274.12,180.23c-.82-.27-6.52-1.36-11.56-2.25l.84-4.65c11.69,2.08,12.37,2.44,12.74,2.64l-2.27,4.16c.05.03.13.07.24.11Z" style="fill: #a36140; stroke-width: 0px;"/>
      <path d="m166.06,140.02c-1.09,5.08-3.52,9.11-5.43,9.01-1.91-.1-2.57-4.3-1.48-9.38,1.09-5.08,3.52-9.11,5.43-9.01s2.57,4.3,1.48,9.38Z" style="fill: #293549; stroke-width: 0px;"/>
      <path d="m231.05,152.02c-1.09,5.08-3.52,9.11-5.43,9.01-1.91-.1-2.57-4.3-1.48-9.38,1.09-5.08,3.52-9.11,5.43-9.01,1.91.1,2.57,4.3,1.48,9.38Z" style="fill: #293549; stroke-width: 0px;"/>
      <path d="m175.79,112.65c-3.68-.57-7.37-1.07-11.06-1.53-2.56-.32-4.77,2.4-4.77,4.72,0,2.82,2.2,4.4,4.77,4.72,2.85.36,5.69.76,8.53,1.2,2.54.39,5.13-.64,5.87-3.3.62-2.24-.77-5.42-3.33-5.81Z" style="fill: #293549; stroke-width: 0px;"/>
      <path d="m237.14,123.62c-3.17-1.09-6.38-1.98-9.67-2.65-2.52-.52-5.16.73-5.87,3.3-.65,2.34.8,5.29,3.33,5.81,3.28.67,6.5,1.55,9.67,2.65,2.43.84,5.22-.96,5.87-3.3.72-2.6-.89-4.97-3.33-5.81Z" style="fill: #293549; stroke-width: 0px;"/>
      <path d="m298.77,91.03c-2.45-24.21-20.65-28.49-20.65-28.49,0,0,9.18.56,6.36-1.86-2.82-2.42-9.46,0-9.46,0,0,0-3.13-18.56-40.07-26.31-36.94-7.75-79.51,13.64-80.14,16.27-.63,2.63,1.72,2.63,1.72,2.63,0,0-9.08,13.79-10.02,28.2-.85,13.07-.42,50.22-.06,57.21.58.17,1.17.34,1.75.51l2.73-8.14s15.43-52.88,22.2-55.49c6.77-2.61,75.04,8.19,77.3,11.54,2.26,3.35-2.07,26.07,2.26,31.1,4.33,5.03,10.25,6.76,10.3,8.69.05,1.93-9.36,40.28-8.61,41.22.75.93,4.33,1.49,4.33,1.49,0,0,6.8-11.38,8.15-11.9,1.35-.51,9.04-2.71,9.04-2.71,0,0,25.31-39.76,22.87-63.97Z" style="fill: #293549; stroke-width: 0px;"/>
      <path d="m277.93,59.9c-1.65.32-2.91.78-2.91.78,0,0-.29-1.67-1.67-4.21-.14,5.03-1.43,16.88-9.96,22.47-6.11,4.01-12.36,5.78-16.76,6.58,2.16.62,3.52,1.17,3.81,1.6.3.45.48,1.25.59,2.31,4.4-1.12,9.72-3.08,15-6.55,8.58-5.63,11.23-16.01,11.91-22.98Z" style="fill: #1e2735; stroke-width: 0px;"/>
      <path d="m263.92,266.91c-5.06-4.04-17.08-6.32-17.08-6.32,0,0-55.82,32.21-59.15,30.27s-17.64-26.95-17.64-26.95c0,0-15.39-.64-22.14,3.36-6.74,4.01-10.2,17.17-10.2,17.17,0,0-79.21,17.51-106.62,30.89,36.43,58.46,101.29,97.38,175.25,97.38,69.57,0,131.09-34.43,168.47-87.17-36.16-19.76-105.32-39.32-105.32-39.32,0,0-.53-15.27-5.58-19.31Z" style="fill: #968ebc; stroke-width: 0px;"/>
      <path d="m185.66,288.74c-5.35,23.07-17.69,77.92-24.05,119.1,1.6.35,3.21.69,4.83,1.01,6.26-40.68,18.47-95.01,23.89-118.42-1.36.46-2.28.63-2.63.43-.48-.28-1.18-1.04-2.04-2.12Z" style="fill: #8782af; stroke-width: 0px;"/>
      <g>
        <path d="m134.49,285.17c4.27,9.07,10.22,19.63,15.32,24.42,2.34,2.2,4.49,3.21,6.61,3.11,5.72-.3,13.65-7.51,23.41-16.9,2.17-2.09,4.64-4.46,6.58-6.15-.81-.93-1.82-2.3-2.95-3.93-1.88,1.6-4.17,3.79-7.06,6.58-6.33,6.1-15.91,15.31-20.24,15.53-.02,0-.03,0-.05,0-1.59,0-6.1-3.62-13.27-17.27-1.78-3.39-2.91-6.42-4.1-9.33-.68,1.91-1.02,3.21-1.02,3.21,0,0-1.16.26-3.23.73Z" style="fill: #8782af; stroke-width: 0px;"/>
        <path d="m269.51,286.22s-.04-1.06-.18-2.69c-15.47,16.41-56.1,31.6-61.18,31.23-.02,0-1.67-.18-5.06-6.4-2.3-4.21-4.52-9.51-6.49-14.2-.91-2.18-1.65-3.92-2.29-5.35-1.87.83-3.43,1.45-4.58,1.8.74,1.66,1.57,3.64,2.32,5.42,5.69,13.57,10.15,23.2,15.76,23.59.12,0,.24.01.38.01,8.39,0,48.39-15.67,64.64-32.46-2.13-.62-3.31-.96-3.31-.96Z" style="fill: #8782af; stroke-width: 0px;"/>
      </g>
      <path d="m214.26,59.58c-26.41-6.93-38.74,9.39-43.24,17.97.77-1.04,1.48-1.73,2.11-1.97.8-.31,2.48-.43,4.8-.39,5.27-7.39,15.84-16.09,35.1-11.03,31.42,8.24,38.32,22.86,38.39,23.01l4.38-1.88c-.29-.68-7.61-16.8-41.55-25.7Z" style="fill: #1e2735; stroke-width: 0px;"/>
      <path d="m272,74.19c-.04-.32-.97-7.99-7.26-16.26-5.73-7.53-17.2-17.05-39.31-19.61-34.19-3.97-61.37,8.58-70.67,13.62.29,1.33,1.77,1.33,1.77,1.33,0,0-1.13,1.73-2.64,4.58l.02.03c.31-.2,31.16-19.5,70.96-14.88,38.67,4.48,42.57,32.11,42.7,33.21l4.43-2.03Z" style="fill: #1e2735; stroke-width: 0px;"/>
      <path d="m216.87,47.9c-33.55-6.3-54.41,14.5-62.26,22.33-.71.71-1.5,1.5-1.95,1.89-1.65,0-3.06-.5-4.19-1.11-.45,1.51-.84,3.08-1.17,4.67,1.79.79,3.89,1.29,6.21,1.14,1.29-.08,2.1-.88,4.48-3.26,7.37-7.34,26.94-26.84,57.99-21.02,36.98,6.94,42.94,29.87,43.18,30.83l4.65-1.07c-.26-1.09-6.73-26.86-46.94-34.4Z" style="fill: #1e2735; stroke-width: 0px;"/>
      <path d="m155.53,74.82l-4.71-.73c-.99,6.28,9.39,10.6,15.24,12.51.68-1.57,1.36-3.02,2.01-4.33-6.94-2.23-12.82-5.66-12.54-7.46Z" style="fill: #1e2735; stroke-width: 0px;"/>
      <path d="m284.77,119.51c-.79-.13-1.86-3.92-1.68-8.32l.38-9.07-4.8,7.73s-3.09,4.9-9.4,9.04c-5.15,3.37-13.77,1.31-15.59.39,3.08,3.1,6.64,4.8,8.32,6.19,3.47-.04,7.03-.76,9.91-2.64,2.85-1.87,5.11-3.86,6.82-5.6.61,3.2,2.03,6.39,5.24,6.93,1.77.3,4.84-.01,7.94-.5.68-1.69,1.34-3.4,1.96-5.13-3.79.71-7.58,1.23-9.09.97Z" style="fill: #1e2735; stroke-width: 0px;"/>
      <path d="m271.11,103.71c-.75-6.31-2.63-11.62-4.08-14.97-1.32-3.05-2.33-4.81-3.14-5.84-1.15,1.03-2.45,1.98-3.85,2.79.94,1.16,5.18,8.93,6.32,18.57,1.3,10.98-1.58,17.13-1.6,17.18l4.29,2.08c.15-.29,3.54-7.32,2.06-19.81Z" style="fill: #1e2735; stroke-width: 0px;"/>
      <path d="m282.88,112.06c.98-2.12,9.4-20.98,4.88-29.32-4.68-8.63-15.11-9.23-15.55-9.25l-1.68,4.26c.08,0,9.64.98,13.02,7.23,2.57,4.74-1.72,17.93-5.02,25.14l4.34,1.96Z" style="fill: #1e2735; stroke-width: 0px;"/>
      <path d="m288.38,68.46c-13.44,1.93-38.76,4.31-59.38-.97-23.78-6.09-31.94-24.74-34.27-32.32-11.87,2.43-22.38,6.22-29.63,9.47-.16,8,3.25,19.15,17.81,30.77,20.74,1.43,65.7,9,67.52,11.71.95,1.41.73,6.27.49,11.78,19.71.06,37-4.61,47.77-8.56-1.27-10.98-5.8-17.77-10.3-21.88Z" style="fill: #67a7f4; opacity: .19; stroke-width: 0px;"/>
    </g>
  </g>
</svg>