<?xml version="1.0" encoding="UTF-8"?>
<svg id="b" data-name="Layer 2" xmlns="http://www.w3.org/2000/svg" viewBox="0 0 412.71 412.71">
  <g id="c" data-name="—ÎÓÈ_1">
    <g id="d" data-name="I">
      <circle cx="206.35" cy="206.35" r="206.35" style="fill: #e5d6e3; stroke-width: 0px;"/>
      <g>
        <path d="m163.8,67.88s20.96-40.67,77.74-36.32c56.78,4.35,44,67.05,51.52,71.86,7.53,4.81,18.86-3.46,19.63-3.21s4.28,3.42,4.28,3.42c0,0-4.23,7.56-10.62,9.3,0,0,35.15,17.04,40.28,31.5,5.12,14.46.41,20.42.41,20.42l-3.32-.22-4.59-10.7s9.51,22.2-5.05,43.6c-14.56,21.39-56.82,35.65-73.51,33.96-16.69-1.69-113.35-.62-113.35-.62,0,0-16.61.53-28.32-6.27,0,0,5.9,5.74,2.04,7.64-3.85,1.9-31.56-6.18-37.94-31.23-6.38-25.05,3.86-40.45,3.86-40.45,0,0-6.83,14.26-9.25,9.39s4.16-18.36,11.08-28.1c6.92-9.74,26.64-29.03,31.33-43.62,4.69-14.59,18.17-31.55,28.61-35.17,10.44-3.62,15.15,4.82,15.15,4.82Z" style="fill: #e6edff; stroke-width: 0px;"/>
        <path d="m171.27,235.75c.04,1.6-.09,41.34-6.22,45.24-6.13,3.9-26.09,13.7-25.53,15.37.56,1.67,48.55,82.84,52.16,81.77,3.6-1.08,74.22-71.99,69.76-76.08s-16.8-11.45-20.19-16.61c-3.42-5.22-2.29-50.93-3.3-51.34s-66.68,1.66-66.68,1.66Z" style="fill: #ea967d; stroke-width: 0px;"/>
        <path d="m238.69,257.39c-.08-3.67-.13-7.27-.18-10.5-13.27,8.44-28.58,11.14-45.66,8-9.23-1.7-16.97-4.81-21.82-7.11-.13,3.35-.33,7.1-.63,10.84,7.84,9.4,21.2,22.27,36.21,22.27,14.92-1.27,23.9-12.78,32.09-23.5Z" style="fill: #c3735b; stroke-width: 0px;"/>
        <path d="m248.82,220.26l9.36-17.61.92-.29c.27-.09,27-8.75,28.14-25.96.65-9.83-8.91-16.98-27.65-20.67-.94-.19-1.33-.26-1.66-.38l1.6-4.47-.09-.03c.18.05.55.12,1.06.22,27.06,5.33,32.05,16.89,31.47,25.64-1.23,18.63-25.32,28.04-30.5,29.86l-4.56,8.58c12.91-1.23,51.66-7.59,54.49-39.68,1.42-16.12-3.23-28.31-13.82-36.24-7.93-5.94-16.3-7.16-16.38-7.17l.65-4.7c.38.05,38.05,5.8,34.27,48.53-1.57,17.74-13.11,31.03-33.38,38.45-14.99,5.48-29.29,5.83-29.89,5.84l-4.04.08Z" style="fill: #d7e0f4; stroke-width: 0px;"/>
        <g>
          <path d="m128.92,206.69c-1.59-12.34,7.88-17.43,8.27-17.64l-2.16-4.23c-4.45,2.27-12.44,9.89-10.82,22.47,1.21,9.37,9.45,17.94,15.79,23.27,4.28.4,7.23.31,7.23.31,0,0,.33,0,.93,0-4.89-3.47-17.88-13.62-19.24-24.17Z" style="fill: #d7e0f4; stroke-width: 0px;"/>
          <path d="m98.83,201.02c-3.27-10.19,3.18-19.29,5.94-23.18,1.13-1.59,1.6-2.25,1.52-3.3l-4.73.36c-.04-.59.16-.99.17-1.01-.09.17-.48.72-.83,1.21-2.89,4.08-10.58,14.93-6.58,27.38,3.51,10.93,19.46,22.74,27.9,28.36.61-2.44-3.28-6.23-3.28-6.23,2.32,1.35,4.84,2.41,7.38,3.24-7.43-4.85-24.22-16.7-27.47-26.82Z" style="fill: #d7e0f4; stroke-width: 0px;"/>
        </g>
        <path d="m139.08,123.98c-.14.74,2.66,62.53,6.15,98.17,2.31,23.6,38.4,33.97,61.69,33.05,23.97-.95,57.93-15.23,58.52-40.69.86-37.55-1.4-100.71-6.16-110.39-8-16.26-39.58-32.57-64.36-33-24.77-.43-53.05,38.22-55.83,52.86Z" style="fill: #ea967d; stroke-width: 0px;"/>
        <path d="m203.66,193.21c-2.41,0-4.75-.11-6.73-.25l.33-4.73c8.56.59,17.35-.22,18.56-1.71,1.36-5.21-3.85-17.49-13.95-32.87-.23-.35-.39-.59-.46-.7l4.04-2.5c.06.1.19.3.39.59,7.94,12.08,16.9,28.28,14.54,36.81-1.2,4.33-9.32,5.35-16.71,5.35Zm12.18-6.72h0s0,0,0,0Z" style="fill: #c3735b; stroke-width: 0px;"/>
        <path d="m128.24,172.26c.39,1.19-2.49,16.39,1.31,18.98s17.71.24,17.71.24l-4.16-21.73-14.86,2.51Z" style="fill: #ea967d; stroke-width: 0px;"/>
        <path d="m251.95,121.45c9.54,7.4,11.6,6.49,11.6,6.49l1.28,20.1c4.96,1.22,9.88,2.61,14.7,4.25-.05-17.22-2.29-43.29-14.26-55.85-18.75-19.67-59.13-47.49-89.19-26.65-30.07,20.84-46.93,52.25-45,58.97,1.93,6.72-11.65,46.17-11.65,46.17.93.06,23.08.13,26.24-8.76,3.15-8.89-.08-44.55-.08-44.55l22.84-34.87s32.67-10.43,49.54-3.01c16.87,7.42,24.45,30.31,33.99,37.7Z" style="fill: #e6edff; stroke-width: 0px;"/>
        <path d="m360.37,311.41c-15.7-16.07-96.2-36.12-96.2-36.12,0,0-.53-6.56-5.72-10.95-5.2-4.4-19.76-6.47-19.76-6.47,0,0-27.44,110.07-33.36,107.91-5.92-2.15-35.35-102.59-35.35-102.59-1.89-.01-17.11,4.16-19.64,5.78-2.52,1.62-1.98,13.51-1.98,13.51,0,0-82.41,15.9-100.09,35.47-1.84,2.04-4,6.56-6.39,13.03,37.68,49.66,97.33,81.74,164.47,81.74s125.53-31.4,163.27-80.17c-3.73-11.19-6.93-18.75-9.26-21.13Z" style="fill: #eb6085; stroke-width: 0px;"/>
        <g>
          <path d="m146.03,320.93c4.6.61,10.35-3.75,15.91-7.97,3.06-2.32,7.23-5.48,8.92-5.65,2.84,1.08,12.4,12.64,19.46,21.44-1.35-4.06-2.71-8.24-4.06-12.44-8.8-10.48-12.64-13.76-15.26-13.76-3.03,0-6.51,2.52-11.93,6.62-3.96,3-9.33,7.07-12.09,7.07-.03,0-.05,0-.08,0-1.08-1.4-2.19-7.8,1.08-33.7-.7.14-2.41.48-4.91,1-3.36,27.11-2.56,36.64,2.96,37.37Z" style="fill: #d84a76; stroke-width: 0px;"/>
          <path d="m264.17,275.29s-.07-.91-.43-2.28c-1.12,9.94-4.03,31.79-6.18,35.47-1.59-.21-5.8-3.22-8.38-5.05-5.12-3.65-9.56-6.8-13.07-6.37-2.25.27-5.19,3.12-10.6,10.92-1.4,5.09-2.84,10.21-4.28,15.21,5.95-9.45,13.07-20.2,15.57-21.42h.03c1.83,0,6.49,3.32,9.6,5.53,6.08,4.33,10.88,7.76,14.14,4.96,3.4-2.93,6.25-24.21,7.57-35.95-2.52-.66-3.97-1.02-3.97-1.02Z" style="fill: #d84a76; stroke-width: 0px;"/>
          <path d="m148.31,280.01c.44-3.42.47-3.81.38-4.32l-.25.04c-.11,1.54-.13,3.06-.13,4.28Z" style="fill: #8aa551; stroke-width: 0px;"/>
        </g>
        <path d="m207.58,363.48c-.92,1.67-1.69,2.51-2.26,2.3-.61-.22-1.47-1.49-2.51-3.56l1.06,50.47c.83,0,1.65.03,2.49.03.76,0,1.51-.02,2.26-.03l-1.03-49.2Z" style="fill: #d84a76; stroke-width: 0px;"/>
        <path d="m171,85.93c-4.24-4.08-5.44-13.8-5.59-20.73-1.09,1.67-1.61,2.68-1.61,2.68,0,0-1.02-1.82-3.15-3.41.05,6.66.98,18.26,6.49,24.29,1.13-1.16,2.43-2.1,3.86-2.82Z" style="fill: #d7e0f4; stroke-width: 0px;"/>
        <path d="m276.41,103.09c7.6,1.75,14.53,2.17,19.49,2.17,4.53,0,6.79-.71,7.03-.74v-.2c-3.29.86-6.87,1.01-9.86-.9-.75-.48-1.29-1.54-1.73-3.04-4.03-.22-8.81-.75-13.87-1.91-5.18-1.19-8.77-6.26-13.32-12.67-6.56-9.25-14.72-20.77-32.06-26.56-29.55-9.87-66.35,12.37-67.9,13.33l2.48,4.05c.36-.22,36.45-22.05,63.92-12.87,15.87,5.3,23.21,15.66,29.69,24.8,4.93,6.95,9.18,12.95,16.12,14.55Z" style="fill: #d7e0f4; stroke-width: 0px;"/>
        <path d="m310.47,111.58c-.05.06-4.75,6.35-22.13,13.42-8.86,3.61-18.07,4.86-25.23,2.97l.37,4.72c2.48.55,5.35.62,8.05.62,5.88,0,12.19-1.31,18.6-3.92,18.95-7.72,24.02-14.8,24.23-15.09l-3.88-2.73Z" style="fill: #d7e0f4; stroke-width: 0px;"/>
        <path d="m281.07,101.21l4.72-.47c-.21-2.11-5.6-51.76-44.07-59.9-30-6.35-61.23,13.67-77.74,26.71-.12.21-.18.33-.18.33,0,0-.03-.05-.08-.13-.21.17-.43.34-.64.51-.49.39-.81.65-.97.76.06-.04.11-.07.15-.09l2.27,4.16c.3-.16.55-.37,1.51-1.13,15.6-12.49,46.05-32.55,74.68-26.48,35.07,7.42,40.28,55.25,40.33,55.73Z" style="fill: #d7e0f4; stroke-width: 0px;"/>
        <path d="m302.73,118.38l-1.99,4.31c.38.18,40.16,25.25,41.45,48.13-.06-9.9-3.05-16.87-3.05-16.87l4.59,10.7,2.12.14c-4.64-26.43-41.52-45.66-43.12-46.4Z" style="fill: #d7e0f4; stroke-width: 0px;"/>
        <path d="m165,79.51c-.76.25-18.72,6.33-27.95,27.69-4.21,9.75-6.55,19.48-8.42,27.3-1.96,8.16-3.65,15.2-6.37,17.15-3.96,2.84-16.9.24-24.12-2.07l-1.98-.63-6.36,13.44.76,1.12c.26.38,6.36,9.3,11.51,12.39,4.44,2.67,9.99,4.01,16.59,4.01,2.81,0,5.83-.26,9.02-.75l.46-4.57c-9.87,1.62-18.12.56-23.63-2.75-3.07-1.85-7.19-7.04-9.25-9.89l3.43-7.25c5.56,1.59,20.23,5.18,26.34.81,4.16-2.98,5.86-10.08,8.22-19.9,1.83-7.64,4.11-17.15,8.16-26.52,8.35-19.32,24.91-25.01,25.07-25.07l-1.48-4.51Z" style="fill: #d7e0f4; stroke-width: 0px;"/>
        <path d="m161.89,75.25l.76-4.68c-.56-.09-13.92-2.13-24.94,8.48-6.47,6.23-8.7,16.04-10.66,24.71-1.35,5.94-2.62,11.56-5,14.95-2.88,4.09-7.43,6.68-12.24,9.42-5.04,2.87-10.26,5.83-14.27,10.84-5.43,6.77-11.58,19.42-15.25,26.99-.91,1.86-1.83,3.77-2.27,4.56.02.02.03.04.05.05.16-.15.39-.33.73-.46l.33.84c1.86-.24,4.41-4.21,6.08-7.17-.93,2.04-2.05,5.01-2.92,8.82.49-.92,1.18-2.33,2.27-4.58,3.35-6.9,9.59-19.74,14.69-26.09,3.44-4.3,8.26-7.03,12.92-9.68,5.06-2.87,10.29-5.85,13.78-10.81,2.92-4.15,4.3-10.21,5.75-16.63,1.91-8.4,3.88-17.09,9.32-22.34,9.27-8.92,20.43-7.29,20.89-7.22Z" style="fill: #d7e0f4; stroke-width: 0px;"/>
        <path d="m236.64,204.84c-1.26-3.06-16.29-2.63-31.83-2.26-15.54.37-31.57.69-32.26,5.02-1.38,8.65,10.23,20.18,34.19,18.64,23.95-1.54,32.6-14.86,29.91-21.4Z" style="fill: #ff6e6e; stroke-width: 0px;"/>
        <path d="m204.85,207.36c-14.9.59-30.74,1.18-30.9,2.01-.19.99,14.12,9.93,32.09,9.7,17.97-.23,29.11-12.11,28.93-12.68-.19-.6-16.86.46-30.12.98Z" style="fill: #293549; stroke-width: 0px;"/>
        <path d="m228.75,206.3c.4,1.46.87,3.17,1.27,4.75-4.9,3.57-13.21,7.89-23.98,8.02-11.56.15-21.61-3.5-27.25-6.38.12-1.39.26-2.83.4-4.11,5.92-.45,15.99-.83,25.66-1.21,8.24-.32,17.8-.85,23.9-1.07Z" style="fill: #fff; stroke-width: 0px;"/>
        <ellipse cx="168.36" cy="159.05" rx="2.27" ry="9.83" style="fill: #293549; stroke-width: 0px;"/>
        <path d="m241.2,157.54c0,5.43-1.02,9.83-2.27,9.83s-2.27-4.4-2.27-9.83,1.02-9.83,2.27-9.83,2.27,4.4,2.27,9.83Z" style="fill: #293549; stroke-width: 0px;"/>
        <path d="m174.52,132.81c-5.97.47-11.9,1.17-17.82,2.05-2.55.38-3.91,3.58-3.31,5.84.72,2.72,3.31,3.69,5.84,3.31,5.08-.76,10.18-1.31,15.3-1.72,6.05-.47,6.1-9.97,0-9.49Z" style="fill: #4a5560; stroke-width: 0px;"/>
        <path d="m245.82,132.7c-5.94-1.03-11.93-1.74-17.95-2.08-6.1-.34-6.08,9.15,0,9.49,5.18.29,10.31.85,15.43,1.74,5.97,1.04,8.54-8.11,2.52-9.15Z" style="fill: #4a5560; stroke-width: 0px;"/>
        <g style="opacity: .4;">
          <path d="m241.54,31.56c-1.93-.15-3.82-.24-5.67-.29.44,9.61-1.66,19.52-4.94,28.32-3.16,8.48-7.47,16.85-13.11,24.1.05.02.1.04.15.06,13.15,5.78,20.66,20.97,27.85,30.89,18.79-12.79,33.28-32.18,37.62-54.12-5.81-14.29-17.35-27.07-41.89-28.96Z" style="fill: #e3f0ff; stroke-width: 0px;"/>
          <path d="m145.59,121.63l10.31-15.74c-12.08-2.03-23.72-7.46-32.31-16.12-1.44,2.83-2.65,5.69-3.54,8.46-1,3.1-2.67,6.41-4.76,9.8,4.33,5,9.54,9.33,15.61,12.83,4.81,2.77,9.9,5.03,15.17,6.82-.26-3.67-.48-6.04-.48-6.04Z" style="fill: #e3f0ff; stroke-width: 0px;"/>
        </g>
        <path d="m230.02,211.04c-.19-.75-.39-1.52-.6-2.29-5.13,2-13.85,4.7-23.85,4.87-11.21.19-21.42-1.5-26.63-2.61-.05.56-.11,1.12-.15,1.67,1.29.66,2.83,1.36,4.55,2.05,5.4.91,12.67,1.76,20.48,1.76.59,0,1.19,0,1.79-.01,9.19-.16,17.21-2.29,22.65-4.23.62-.41,1.21-.81,1.75-1.2Z" style="fill: #e8e6e2; stroke-width: 0px;"/>
      </g>
    </g>
  </g>
</svg>