<?xml version="1.0" encoding="UTF-8"?>
<svg id="b" data-name="Layer 2" xmlns="http://www.w3.org/2000/svg" viewBox="0 0 412.71 412.71">
  <g id="c" data-name="—ÎÓÈ_1">
    <g id="d" data-name="L">
      <circle cx="206.35" cy="206.35" r="206.35" transform="translate(-85.47 206.35) rotate(-45)" style="fill: #e5d6e3; stroke-width: 0px;"/>
      <g>
        <path d="m158.8,64.38s-.24-39.83,79.75-32.17c79.99,7.66,37.84,80.12,42.24,89.13,4.41,9.01,39.62,24.61,47.92,56.4,8.3,31.8-24.86,69.16-32.05,70.94-2.53.63.94-5.77-1.54-5.06-2.48.71-3.75,4.53-6.46,5.06-2.71.53-120.89.52-132.04-4.1-4.23-1.75-10.57-3.42-17-6.32-3.59-1.62-10.79-15.75-14.07-18.36-1.25-.99-1.09,9.22-2.22,8.04-4.64-4.84-8.76-9.49-9.83-18.56-3.27-27.58,23.66-63.86,23.42-65.35-.24-1.49-13.87-46.8-7.92-60.67,5.95-13.88,29.81-18.97,29.81-18.97Z" style="fill: #85463f; stroke-width: 0px;"/>
        <g>
          <path d="m263,155.39l-2.61,3.54c.2.15,20.29,15.24,20.32,40.03.02,13.36-7.89,30.89-22.38,49.82,1.86,0,3.69.02,5.47.02,9.85-13.38,21.33-32.67,21.3-49.85-.03-26.98-21.21-42.89-22.11-43.56Z" style="fill: #753b36; stroke-width: 0px;"/>
          <path d="m246.42,248.69c-.34-.19-.66-.37-1.02-.57,5.5-6.02,19.79-23.72,14.06-39.79-6.55-18.38-11.5-21.94-12.05-22.29l-2.43,3.66s4.37,3.36,10.33,20.1c5.93,16.64-14.8,37.06-15.01,37.27l-1.59,1.54c2.59.03,5.16.05,7.69.08Z" style="fill: #753b36; stroke-width: 0px;"/>
        </g>
        <path d="m163.92,236.74c-.3,0-.65-.06-1.02-.23-1.5-.69-23.06-15.87-26.12-30.76-2.27-11.06,5.04-25.92,9.88-35.76,1.6-3.24,2.97-6.05,3.42-7.57.59-2.02-.52-9.5-1.59-16.74-1.98-13.31-4.69-31.55-2.02-43.93,4.36-20.22,15.22-27.37,15.68-27.66l2.37,3.7-1.18-1.85,1.19,1.84c-.1.06-9.81,6.6-13.76,24.9-2.5,11.6.14,29.38,2.07,42.36,1.53,10.3,2.29,15.81,1.47,18.62-.55,1.88-1.94,4.7-3.69,8.27-4.57,9.3-11.48,23.35-9.52,32.93,2.4,11.7,19.58,24.93,23.16,27.33,1.39-.31,4.32-.91,10.72-2.16-5.32-4.48-14.33-12.94-15.74-19.98-1.99-9.9,5.39-18.69,5.7-19.05l3.34,2.85c-.06.07-6.3,7.55-4.74,15.34,1.34,6.68,13.32,16.95,17.83,20.34l3.94,2.97-4.85.94c-5.61,1.09-14.76,2.89-15.85,3.17-.19.07-.42.12-.69.12Zm-.38-4.37c-.19.03-.39.09-.59.18.1-.04.25-.1.59-.18Z" style="fill: #753b36; stroke-width: 0px;"/>
        <path d="m144.51,153.93l-3.62-2.49c-.82,1.19-19.96,29.27-20.89,50.75-.38,8.72,1.66,16.53,4.27,22.85.3-2.55.55-5.71,1.27-5.14.73.58,1.65,1.72,2.68,3.17-2.36-5.79-4.17-12.87-3.83-20.69.87-20.22,19.93-48.17,20.12-48.45Z" style="fill: #753b36; stroke-width: 0px;"/>
        <path d="m174.27,207.66c.39,1.12,3.88,28.01,2.23,31.22-1.65,3.21-10.69,15.62-10.68,16.37,0,.75,30.18,59.02,39.73,57.21,9.55-1.8,47.02-55.04,47.02-55.04,0,0-12.13-1.76-13.74-10.94-1.61-9.18.58-38.08.58-38.08l-65.15-.74Z" style="fill: #ffa286; stroke-width: 0px;"/>
        <path d="m238.54,223.45c.17-4.01.39-7.73.56-10.46-6.39,3.23-19.35,8.91-31.05,8.58-15.19-.43-27.58-6.9-33.23-10.42.39,2.85.91,7.09,1.33,11.43,6.93,8.69,17.94,19.71,30.79,20.53,12.41.8,24.39-10.99,31.6-19.65Z" style="fill: #c3735b; stroke-width: 0px;"/>
        <path d="m167.61,82.68c-1.68,3.6-.86,13.51-3.48,24.54-1.42,5.98-7.5,18.37-7.5,18.37,0,0-5.27,65.56,12.44,81.36,27.33,24.38,64.46,16.23,80.85-1.49,15.33-16.57,24.68-70.3,15.95-102.35-5.43-19.96-18.89-36.44-42.82-37.72-23.94-1.28-52.9,11.86-55.44,17.29Z" style="fill: #ffa286; stroke-width: 0px;"/>
        <ellipse cx="148.62" cy="142.99" rx="13.3" ry="20.1" transform="translate(-1.67 1.75) rotate(-.67)" style="fill: #ffa286; stroke-width: 0px;"/>
        <path d="m146.28,131.11c-.05,4.19-.35,15.58-.57,23l4.39.13c.42-14.48.56-20.62.56-23.33-1.46.07-2.92.14-4.38.2Z" style="fill: #c3735b; stroke-width: 0px;"/>
        <rect x="142.96" y="138.59" width="4.39" height="6.66" transform="translate(-42.62 219.06) rotate(-66.69)" style="fill: #c3735b; stroke-width: 0px;"/>
        <path d="m182.14,135.38c-.24,3.83-1.65,6.9-3.15,6.87-1.49-.03-2.51-3.16-2.27-6.99s1.65-6.9,3.15-6.87c1.49.03,2.51,3.16,2.27,6.99Z" style="fill: #4f2d2b; stroke-width: 0px;"/>
        <path d="m245.08,139.64c-.24,3.83-1.65,6.9-3.15,6.87-1.49-.03-2.51-3.16-2.27-6.99s1.65-6.9,3.15-6.87c1.49.03,2.51,3.16,2.27,6.99Z" style="fill: #4f2d2b; stroke-width: 0px;"/>
        <path d="m189.57,109.23c-4.35-.68-8.71-1.05-13.11-1-5.17.06-5.09,8.1.09,8.04,3.68-.05,7.34.16,10.97.73,2.14.34,4.32-.62,4.91-2.86.51-1.93-.71-4.57-2.86-4.91Z" style="fill: #85463f; stroke-width: 0px;"/>
        <path d="m245.77,112.85c-4.87-.83-9.78-1.42-14.7-1.77-5.16-.37-5.04,7.67.09,8.04,4.22.3,8.4.8,12.57,1.51,5.07.86,7.14-6.9,2.05-7.77Z" style="fill: #85463f; stroke-width: 0px;"/>
        <path d="m179.02,154.79c-.83,0-1.69-.01-2.57-.07-11.08-.69-19.41-7.53-22.87-18.75-2.37-7.7-1.77-15.93,1.33-18.35,1.29-1,3.68-2.86,27.4,4.13,11.24,3.31,22.08,7.1,22.19,7.14l1.78.62-.34,1.85c-.04.24-4.54,23.16-26.91,23.42Zm-21.47-33.64c-1.01,1.05-1.88,7.25.43,14.17,1.76,5.28,6.54,14.26,18.74,15.02,17.29,1.09,22.95-12.83,24.44-17.95-18.83-6.49-40.24-12.47-43.61-11.24Zm-.07.03s0,0,0,0h0Z" style="fill: #eb6085; stroke-width: 0px;"/>
        <path d="m204.67,134.36l-3.79-2.22c.13-.22,3.22-5.43,10.65-4.85,4.81.38,7.09,3.36,7.68,5.06l-4.15,1.43c-.06-.15-.85-1.88-3.87-2.12-4.57-.36-6.43,2.57-6.51,2.69Z" style="fill: #eb6085; stroke-width: 0px;"/>
        <path d="m186.95,179.08c6.61-7.34,15.73,2.55,19.47,2.42,3.74-.14,9.33-5.95,15.83-5.02s6.1,6.5,6.1,6.5c0,0,.1,12.87-22.12,13.13-19.53.23-22.85-13.06-19.28-17.03Z" style="fill: #ff7d6c; stroke-width: 0px;"/>
        <path d="m374.25,326.34c-13.03-34.01-24.64-59.21-29.46-61.05-15.09-5.78-84.86-16.53-84.86-16.53,0,0,2.7-12.12-3.35-15.85-6.06-3.73-17.61-5.08-17.61-5.08,0,0-28.47,83.47-33.88,80.72-5.41-2.76-28.82-81.95-28.82-81.95,0,0-17.73-1.53-19.32,4.64-1.59,6.17-1.53,16.27-1.53,16.27,0,0-69.77,8.39-88.58,37.46-4.14,6.41-9.53,29.64-14.94,58.22,37.8,42.64,92.99,69.53,154.46,69.53,69.22,0,130.47-34.08,167.9-86.37Z" style="fill: #ecf3ff; stroke-width: 0px;"/>
        <path d="m94.79,379.97c1.42.91,2.85,1.81,4.29,2.69,1.22-29.92,2.59-63.21,2.61-63.8l-4.39-.18c-.02.57-1.32,32.04-2.51,61.29Z" style="fill: #d0e0f7; stroke-width: 0px;"/>
        <path d="m326.99,323.36l-3.91,2.01s-.06-.12-.1-.22c.56,1.82,3.47,21.16,7.12,46.35,1.35-1.01,2.68-2.04,4-3.08-3.56-24.48-6.52-43.91-7.11-45.05Z" style="fill: #d0e0f7; stroke-width: 0px;"/>
        <path d="m205.1,308.54c-.38-.19-.84-.76-1.38-1.64-.35,21.01-.94,62.94-.94,105.77,1.19.02,2.38.05,3.57.05.27,0,.55,0,.82-.01,0-43.61.61-86.29.96-106.88-1.31,2.04-2.35,3.06-3.03,2.72Z" style="fill: #d0e0f7; stroke-width: 0px;"/>
        <path d="m170,80.12c.52-.4,49.89-16.92,74.5,1.21,40.9,30.12,16.96,101.76,16.96,101.76,0,0,33.85-77.49,8.14-106.81-25.72-29.32-97.04-6-97.45-5.34-.41.65-2.14,9.19-2.14,9.19Z" style="fill: #85463f; stroke-width: 0px;"/>
        <path d="m245.54,159.75c-1.21.01-2.47-.05-3.79-.19-26.13-2.81-27.05-28.55-27.05-28.81l-.05-1.92,1.9-.3c.12-.02,12.22-1.92,24.66-3.27,26.15-2.83,28.31-.57,29.48.64,3.11,3.24,1.72,11.79-1.42,18.18-2.39,4.86-9.26,15.5-23.73,15.67Zm-26.28-27.2c.71,5.45,4.36,20.64,22.96,22.64,13.76,1.49,20.38-7.51,23.09-13,3.24-6.56,3.05-12.2,2.25-13.2-3.14-1.93-27.04.3-48.3,3.56Z" style="fill: #eb6085; stroke-width: 0px;"/>
        <path d="m221,145.27c-1.78-.63-3.46-1.22-4.88-2.78-1.49-1.62-1.91-5.71-1.85-9.48-1.46-.13-2.92-.27-4.38-.42-.1,4.19.32,9.96,3,12.87,2.17,2.36,4.66,3.24,6.66,3.95,2.68.95,3.32,1.25,3.34,3.38.02,1.91-.8,3.65-2.45,5.17-2.96,2.72-8.27,4.32-12.91,3.89-3.38-.32-5.69-1.33-6.88-3.01-1.45-2.04-.83-4.61-.83-4.61l-4.24-1.14c-.05.18-1.16,4.49,1.44,8.23,1.96,2.81,5.36,4.46,10.1,4.91.73.07,1.47.1,2.21.09,5.25-.06,10.7-2,14.09-5.12,2.57-2.37,3.91-5.29,3.87-8.45-.06-5.28-3.5-6.5-6.27-7.48Z" style="fill: #e5826c; stroke-width: 0px;"/>
        <path d="m209.74,188.32c-.28,0-.55,0-.84,0-16.62-.01-26.45-6.68-26.86-6.97l2.5-3.62c.09.06,9.19,6.18,24.36,6.19,14.91,0,21.05-5.22,21.11-5.28l2.94,3.27c-.28.26-7.03,6.21-23.21,6.4Z" style="fill: #ed645a; stroke-width: 0px;"/>
        <path d="m152.29,165.39c-.43,3.29-3.03,5.82-5.81,5.66-2.78-.16-4.69-2.95-4.27-6.24.43-3.29,3.03-5.82,5.81-5.66,2.78.16,4.69,2.95,4.27,6.24Z" style="fill: #d6dde9; stroke-width: 0px;"/>
        <path d="m173.09,128.77c-.14-.57-.41-1.07-.8-1.49-.32-.47-.73-.85-1.25-1.12-.35-.14-.7-.29-1.05-.43-.78-.2-1.56-.19-2.34.03-.35.15-.7.3-1.04.46-.66.4-1.17.93-1.56,1.59l-.12.25c-.32.51-.48,1.05-.5,1.64-.12.59-.09,1.17.1,1.75.14.57.41,1.07.8,1.49.32.47.73.85,1.25,1.12.35.14.7.29,1.05.43.78.2,1.56.19,2.34-.03.35-.15.7-.3,1.04-.46.66-.4,1.17-.93,1.56-1.59l.12-.25c.32-.51.48-1.05.5-1.64.12-.59.09-1.17-.1-1.75Z" style="fill: #fff; stroke-width: 0px;"/>
        <path d="m235.84,136.33c-.22-.74-.6-1.38-1.15-1.93-.3-.23-.6-.45-.9-.68-.69-.39-1.43-.58-2.22-.57h-.13c-.61-.01-1.17.12-1.69.4-.54.18-1.01.49-1.4.93-.42.4-.72.88-.89,1.42-.27.53-.39,1.09-.36,1.7.06.39.11.78.17,1.17.22.74.6,1.38,1.15,1.93.3.23.6.45.9.68.69.39,1.43.58,2.22.57h.13c.61.01,1.17-.12,1.69-.4.54-.18,1.01-.49,1.4-.93.42-.4.72-.88.89-1.42.27-.53.39-1.09.36-1.7-.06-.39-.11-.78-.17-1.17Z" style="fill: #fff; stroke-width: 0px;"/>
        <path d="m281.54,248.79c1.87,0,3.59-.02,5.17-.03.32-.52.65-1.05.97-1.59,9.83-15.99,30.27-49.26,28.27-69.04-1.96-19.45-19.18-28.17-30.57-33.94-3.81-1.93-7.41-3.75-8.37-5.08-.74-1.06-.76-6.59-.78-11.47-.07-18.16-.2-51.96-28.32-64.66-36.79-16.62-81.89,8.63-83.79,9.72l2.17,3.82c.45-.26,45.06-25.22,79.8-9.53,25.54,11.54,25.66,42.3,25.73,60.68.03,8,.11,11.94,1.61,14.02,1.58,2.2,5.09,3.97,9.95,6.43,10.54,5.34,26.46,13.4,28.19,30.46,1.85,18.31-18.07,50.72-27.65,66.3-.95,1.55-1.74,2.83-2.4,3.92Z" style="fill: #753b36; stroke-width: 0px;"/>
        <path d="m188.19,48.39c-17.76,8.02-30.18,17.92-30.7,18.34l2.75,3.43c.49-.39,49.56-39.23,89.44-23.4,16.53,6.56,27.4,17.86,32.33,33.59,2.77,8.85,2.79,16.7,2.61,20.15,1.2-5.02,2.35-10.58,2.96-16.29-.36-1.61-.79-3.28-1.32-4.99-3.65-11.79-12.68-27.7-34.96-36.54-17.56-6.97-39.38-4.99-63.11,5.72Z" style="fill: #753b36; stroke-width: 0px;"/>
        <g>
          <path d="m158.85,278.95c2.14,1.32,4.86-.36,12.41-5.41,3.56-2.38,9.46-6.33,11.24-6.51,2.17,1.53,8.11,11.34,13.2,20.38-2.08-5.86-4.28-12.42-6.44-19.02-3.74-5.3-5.02-5.54-5.84-5.69-2.74-.49-6.74,1.93-14.6,7.18-2.57,1.72-5.93,3.97-7.66,4.78-1.38-3.79-3.84-16.78-5.72-28.85-.02,1.04-.01,1.68-.01,1.68,0,0-1.49.18-4.08.57,4.56,29.06,6.62,30.33,7.51,30.88Z" style="fill: #d0e0f7; stroke-width: 0px;"/>
          <path d="m259.93,248.75s.17-.78.34-2.01c-.22.48-.5,1.11-.89,1.96-7.68,17.03-11.19,23.47-12.76,25.6-.74-.88-1.77-2.37-2.59-3.55-3.62-5.25-8.13-11.77-13.69-10.36-.65.17-1.81.46-4.01,2.82-2.29,6.13-4.69,12.41-7.03,18.28,4.87-8.45,9.95-16.23,12.13-16.84,2.61-.67,6.6,5.13,8.99,8.6,2.6,3.76,4.16,6.03,6.38,6.01,2.26-.03,4.27-1.43,16.59-28.75.18-.39.35-.78.51-1.14-2.52-.4-3.97-.62-3.97-.62Z" style="fill: #d0e0f7; stroke-width: 0px;"/>
        </g>
        <path d="m167.3,83.36c.74-1.71,1.74-2.5,2.97-3.35-4.54-3.82-9.08-12.34-11.25-17.15-.13.97-.12,1.53-.12,1.53,0,0-1.24.62-3.12,1.86,2.43,5.21,6.73,12.92,11.52,17.12Z" style="fill: #753b36; stroke-width: 0px;"/>
        <path d="m241.48,32.54c-3.38,4.5-7.77,8.36-12.15,11.12-8.55,5.37-18.92,7.29-28.87,7.82-10.62.56-22.46-.89-31.35-6.43-4.26,3.74-6.76,7.67-8.23,11.01,9.26,8.63,20.36,15.04,32.4,18.43,11.44-1.82,25.3-2.65,37.27.47,8.39-2.12,16.43-5.73,23.44-10.73,5.63-4.02,10.77-9.08,14.82-14.69,1.18-1.64,2.76-3.79,4.18-6.14-7.09-5.25-17.24-9.14-31.52-10.86Z" style="fill: #ff8e85; opacity: .12; stroke-width: 0px;"/>
        <path d="m328.71,177.75c-2.37-9.07-6.93-16.82-12.34-23.48-9.35,5.59-18.89,10.88-28.69,15.63-4.36,2.11-8.78,4.1-13.26,5.97,7.86,12.65,8.2,28.66,1.04,44.77,17.6-5.02,35.71-12.15,51.49-21.46.72-.43,1.44-.87,2.16-1.3,1.24-6.71,1.31-13.54-.41-20.13Z" style="fill: #ff8e85; opacity: .12; stroke-width: 0px;"/>
        <path d="m136.22,201.16c.27-4.89,1.89-9.26,3.92-13.54-7.55-2.02-14.91-4.71-21.53-8.32-1.77,4.65-3.26,9.47-4.22,14.28,7.27,5.8,15.02,11.3,23.11,15.8-.98-2.48-1.45-5.18-1.28-8.22Z" style="fill: #ff8e85; opacity: .12; stroke-width: 0px;"/>
      </g>
    </g>
  </g>
</svg>