<svg data-name="Layer 2" xmlns="http://www.w3.org/2000/svg" viewBox="0 0 412.71 412.71"><g data-name="—ÎÓÈ_1"><g data-name="R"><circle cx="206.35" cy="206.35" r="206.35" transform="rotate(-45 206.351 206.346)" style="fill:#e5d6e3;stroke-width:0"/><ellipse cx="131.67" cy="118.45" rx="40.75" ry="38.93" transform="rotate(-14.34 131.7 118.475)" style="fill:#87463f;stroke-width:0"/><path d="M112.01 153.02c1.67.85 3.41 1.6 5.21 2.22 1.1-12.14 6.04-43.56 28.24-73.81-1.81-.59-3.68-1.06-5.59-1.39-21.16 29.67-26.52 59.48-27.86 72.98z" style="fill:#7a3c37;stroke-width:0"/><path d="M228.37 44.88c-120.74 1.4-131.73 145.25-88.22 190.05 43.51 44.8 113.14 9.82 113.14 9.82l43.69-90.2 9.43-35.98s1.01-15.08-9.67-32.68c-7.17-11.81-18.52-22.81-27.53-28.5-20.04-12.67-40.83-12.5-40.83-12.5z" style="fill:#87463f;stroke-width:0"/><path d="M293.16 125.97s9.68 78.55-1.32 108.62c-9.33 25.5-33.75 33.89-33.75 33.89s-4.54 29.26 1.12 33.78c5.65 4.52 52 3.17 52 3.17s-7.46 69.86-64.21 72.8c-56.75 2.94-90.44-72.93-90.44-72.93s22.3-3.87 25.92-8.16c3.62-4.3-7.2-170.34-5.39-181.19s49.97-54.94 70.54-53.59c20.57 1.36 41.15 32.33 44.09 37.31s1.45 26.3 1.45 26.3z" style="fill:#f79776;stroke-width:0"/><path d="M230.31 156.66c.14 5.91-.9 10.71-2.31 10.72s-2.67-4.77-2.81-10.67c-.14-5.91.9-10.71 2.31-10.72s2.67 4.77 2.81 10.67zM285.33 156.66c.14 5.91-.9 10.71-2.31 10.72s-2.67-4.77-2.81-10.67c-.14-5.91.9-10.71 2.31-10.72s2.67 4.77 2.81 10.67z" style="fill:#473231;stroke-width:0"/><path d="m264.82 204.75-1.9-5.01c5.12-1.95 18.36-8.62 18.14-16.02-.24-8.31-16.56-21.25-20.59-24.01l2.99-4.45c.23.15 22.59 15.63 22.95 28.3.36 12.5-19.35 20.33-21.6 21.18zM258.09 268.49s2.33-.8 5.81-2.65v-.42c-.35.03-34.36 3.35-49.75-6.33-15.34-9.65-25.97-43.11-26.08-43.45l-.75-2.4-6.41 1.14c-.07.02-.13.04-.2.05l.27 5.89c.99-.24 1.95-.48 2.78-.68 2.83 8.2 7.38 45.8 19.01 58.58 7.44 8.18 28.8 14.28 40.76 14.28 3.84 0 8.78-.41 12.9-.84-.36-10.03 1.68-23.16 1.68-23.16z" style="fill:#c5735b;stroke-width:0"/><path d="M236.04 134.13c-4.35.07-8.69.31-13.02.73-4.76.46-4.81 7.96 0 7.5 4.33-.42 8.67-.66 13.02-.73 4.82-.07 4.83-7.57 0-7.5zM286.12 123.82c-3.9.35-7.8.7-11.7 1.06-2.02.18-3.75 1.59-3.75 3.75 0 1.89 1.72 3.93 3.75 3.75 3.9-.35 7.8-.7 11.7-1.06 2.02-.18 3.75-1.59 3.75-3.75 0-1.89-1.72-3.93-3.75-3.75z" style="fill:#723d39;stroke-width:0"/><path d="M259.4 222.74c-20.38 0-34.64-11.78-35.36-12.39l3.45-4.1-1.73 2.05 1.72-2.05c.2.16 19.86 16.31 44.8 9.36l1.44 5.16c-5.02 1.4-9.82 1.97-14.32 1.97zM249.08 234.05c-4.97 0-8.13-2.57-8.3-2.71l3.43-4.11-1.71 2.06 1.69-2.08c.14.11 3.35 2.59 8.23.9l1.75 5.06c-1.84.64-3.55.88-5.08.88z" style="fill:#c5735b;stroke-width:0"/><path d="M170.84 171.82s33.43-3.62 55.48-41.93c22.05-38.31 21.52-54.64 21.52-54.64s42.14 25.27 45.98 56.73c2.15 17.57 2.91 39.83 2.91 39.83s19.24-51.73 3.41-80.56c-22.22-40.46-43.49-41.09-71.7-35.65-28.21 5.44-61.08 54.87-70.66 74.28-9.58 19.41 0 35.2 0 35.2l13.05 6.73z" style="fill:#87463f;stroke-width:0"/><path d="m242.82 61.8-1.57-.31-1.02 1.24c-.13.16-13.7 16.8-36.55 52.89-20.35 32.14-35.11 53.86-38.1 58.23l-9.11 2.46c.68-8.13 3.12-28.7 11.24-50.66 13.83-37.42 36.72-60.94 68.02-69.89 13.98-4 26.57-1.36 37.33 4.28-1.32-.98-2.6-1.87-3.85-2.66-6.71-4.24-13.5-7.04-19.57-8.89-5.12-.04-10.26.66-15.38 2.13-32.61 9.33-57.38 34.68-71.62 73.32-10.68 28.96-11.73 54.76-11.76 55.84l-.13 3.63 18.14-4.89.56-.81c.16-.23 15.98-23.21 38.77-59.21 19.09-30.15 31.6-46.56 35.14-51.07 6.01 1.5 28.13 7.9 46.08 24.62 8.87 8.26 15.69 25.06 16.32 40.56l.67-14.03s.43-4.53-.76-10.4c-2.71-7.99-6.92-14.78-12.57-20.05-22.03-20.52-49.11-26.1-50.25-26.32z" style="fill:#7a3c37;stroke-width:0"/><path d="m217.08 48.03-1-2.47c-3.18.31-6.29.72-9.31 1.24-39.64 19.54-91.15 68.84-81.25 133.48 3.78 24.69 12.62 41.89 26.28 51.1 8.77 5.91 17.57 7.16 23.44 7.16 4.08 0 6.27-.13 6.53-.2l-.24-5.55c-.13.03-13.93 2.83-26.82-5.92-12.32-8.36-20.36-24.31-23.9-47.41-10.14-66.22 47.53-115.76 86.26-131.44z" style="fill:#7a3c37;stroke-width:0"/><ellipse cx="169.59" cy="190.47" rx="21.91" ry="26.57" transform="rotate(-17.1 169.573 190.438)" style="fill:#f79776;stroke-width:0"/><path d="M177.18 206.39v-.35c.03-4.66-.59-27.93-15.4-28.25l.12-5.35c15.36.33 20.73 17.59 20.64 33.64v.13l-5.35.19z" style="fill:#c5735b;stroke-width:0"/><path transform="rotate(-87.82 173.19 192.29)" style="fill:#c5735b;stroke-width:0" d="M170.5 186.33h5.36v11.93h-5.36z"/><path d="M287.17 304.81s-4.57 53.3-44.56 56.81c-39.99 3.51-76.6-59.09-76.6-59.09s-88.63 10.62-104.44 36.45c-1.57 2.57-2.17 6.84-1.98 12.41C97 389.24 148.94 412.7 206.36 412.7s112.42-24.86 150.04-64.69c-2.37-20.52-4.72-36.09-6.17-37.63-4.38-4.65-63.06-5.57-63.06-5.57z" style="fill:#8375af;stroke-width:0"/><path d="M210.32 412.66c-12.16-66.2-25.5-136.58-27.22-136.43-3.26.29-18.79 21.22-18.79 21.22S69.17 309.3 57.68 335.58c-1.09 2.5-1.49 6.78-1.32 12.47 37.62 39.81 90.91 64.66 150.01 64.66 1.32 0 2.64-.03 3.96-.05zM362.95 340.73c-6.94-17.67-15.11-36.35-19.33-38.2-8.18-3.6-61.64-2.71-61.64-2.71s-3.62-16.78-7.04-18.73c-4.33-2.46-18.91-4.91-17.92-3.83 0 0-2.9 26.96 3.92 54.3 5.16 20.66 11.06 44.24 17.05 68.36 33.18-12.28 62.33-32.85 84.96-59.19z" style="fill:#293549;stroke-width:0"/><path d="M174.17 212.22c-2.61.01-11.21 14-8.2 15.66s13.8 2.19 14.21 1.02c.41-1.16-3.4-16.69-6.01-16.68z" style="fill:#eaedf4;stroke-width:0"/><path d="M222.99 45.04c-5.87.28-11.46.92-16.8 1.86 31.9.96 40.76 31.25 41.15 32.66 0 0 .56-2.74 1.15-2.97.51-.2 3.26 1.25 3.26 1.25-.09-.32-6.06-23.29-28.76-32.8z" style="fill:#7a3c37;stroke-width:0"/><g style="opacity:.12"><path d="M226.33 129.89c6.1-10.59 10.46-19.49 13.59-26.84-29.88-1.11-63.6-29.95-74.52-40.05-12.75 8.58-22.77 19.68-30.31 32.21 12.14 11.85 41.54 35.53 87.2 41.12 1.38-2.03 2.73-4.17 4.03-6.44zM297.56 85.77c-4.71-8.03-11.47-15.87-18.1-21.72 2.02 8.04 1.34 19.22-9.44 28.35 9.51 8.96 19.22 20.8 22.73 34.01 8.05-4.08 13.66-7.84 13.66-7.84s.91-16.19-8.84-32.81z" style="fill:#ffc2be;stroke-width:0"/></g></g></g></svg>