<?xml version="1.0" encoding="UTF-8"?>
<svg id="b" data-name="Layer 2" xmlns="http://www.w3.org/2000/svg" viewBox="0 0 412.71 412.71">
  <g id="c" data-name="—ÎÓÈ_1">
    <g id="d" data-name="S">
      <circle cx="206.35" cy="206.35" r="206.35" transform="translate(-85.47 206.35) rotate(-45)" style="fill: #e5d6e3; stroke-width: 0px;"/>
      <path d="m177.85,239.58s.79,25.57-1.85,29.53-38.76,22.67-38.76,22.67c0,0,56.21,54.31,67.65,54.05,11.44-.26,71.03-53.78,71.56-54.84s-29.79-17.66-31.9-22.15c-2.11-4.48-3.43-33.48-3.43-33.48l-63.28,4.22Z" style="fill: #d0726e; stroke-width: 0px;"/>
      <path d="m241.99,249.7c-.31-4.15-.54-8.08-.69-10.77-8.05,4.51-21.03,9.18-31.43,11.06-10.38,1.87-24.84-.76-31.92-4.07.02,3.48,0,7.89-.2,11.97,7.35,7.34,20.47,22.71,30.52,22.71,10.54-.88,24.97-18.84,33.72-30.9Z" style="fill: #ad4b4b; stroke-width: 0px;"/>
      <path d="m145.33,136.39s.94,93.5,13.59,101.47c12.65,7.97,36.09,16.64,51.32,15.23,15.23-1.41,43.59-14.76,48.74-27.89,5.16-13.12,6.09-102.88,5.16-107.33-.94-4.45-40.69-38.14-63.36-33.66-22.67,4.48-51.41,26.1-52.47,33.22s-2.98,18.95-2.98,18.95Z" style="fill: #d0726e; stroke-width: 0px;"/>
      <path d="m204.06,194.23c-7.34,0-16.32-1.46-17.56-8.42-1.81-10.1,12.6-34.67,14.25-37.43l3.6,2.15c-4.26,7.15-15.03,27.29-13.73,34.55,1.03,5.75,15.49,5.37,22.33,4.28l.66,4.14c-.99.16-4.95.73-9.55.73Z" style="fill: #ad4b4b; stroke-width: 0px;"/>
      <path d="m196.38,213.05c-9.78,0-16.07-1.42-16.6-1.54l.95-4.08c.25.06,25.55,5.71,54.4-6.38l1.62,3.87c-15.56,6.52-29.95,8.14-40.38,8.14Z" style="fill: #ad4b4b; stroke-width: 0px;"/>
      <path d="m205.07,223.35c-2.3,0-3.85-.33-3.99-.36l.9-4.09c.06.01,6.12,1.27,11.64-1.88l2.08,3.64c-3.84,2.2-7.81,2.7-10.64,2.7Z" style="fill: #ad4b4b; stroke-width: 0px;"/>
      <path d="m307.91,134.59c1.1-17.65-21.51-28.13-21.51-28.13,0,0,4.05-3.31,5.33-5.7,1.29-2.39-4.96-3.68-6.8-5.52-1.84-1.84,11.03-16.55-1.49-27.4-12.52-10.85-45.4-8.09-45.4-8.09,0,0,15.26-12.32,9.38-15.44-5.88-3.13-22.06,15.44-22.06,15.44,0,0,1.48-8.9-2.46-10.72-3.94-1.81-5.67,9.61-6.22,10.15-.54.54-3.81-11.97-18.68-17.05-14.87-5.08-44.76,12.78-42.4,21.31,1.07,3.87,5.81,3.61,10.66,2.18-15.98,7.41-42.78,21.78-45.69,35.81-4.17,20.13,10.15,26.47,9.25,28.65-.91,2.18-12.69,9.79-13.78,17.95-1.09,8.16,3.45,13.96,3.45,13.96,0,0-3.45,7.8-1.81,14.14,1.63,6.35,13.6,10.52,14.87,10.52s0,7.07,1.99,14.87c1.99,7.8,14.8,5.41,14.8,5.41l-1.92-34.97v-26.29s4.35-.73,7.8-1.81c3.45-1.09,3.08-12.87,8.34-21.22,5.26-8.34,27.02-16.32,27.92-17.05.91-.73-5.08,15.78,2.18,21.03,7.25,5.26,31.71-18.13,31.71-18.13,0,0-1.24,7.25,4.38,11.98,4.66,3.92,6.57-6,7.2-10.45-.26,4.47.32,15.49,10.03,23.31,13.06,10.52,17.44,9.07,17.5,10.15.07,1.09-1.91,53.52-1.91,53.52,0,0,32.67-1.04,39.47-15.24,6.8-14.2-10.48-24.34-10.48-24.34,0,0,15.26-5.22,16.36-22.87Z" style="fill: #4c3a39; stroke-width: 0px;"/>
      <path d="m180.71,135.18c-5.31-.1-10.54.32-15.79,1.11-2.26.34-3.46,3.16-2.93,5.16.63,2.4,2.93,3.26,5.16,2.93,4.49-.68,9.02-.9,13.56-.82,5.4.1,5.4-8.29,0-8.38Z" style="fill: #4c3a39; stroke-width: 0px;"/>
      <path d="m239.2,132.6c-5.13.08-10.25.15-15.38.23-5.39.08-5.41,8.47,0,8.38,5.13-.08,10.25-.15,15.38-.23,5.39-.08,5.41-8.47,0-8.38Z" style="fill: #4c3a39; stroke-width: 0px;"/>
      <path d="m367.63,315.17c-8.31-16.22-108.22-39.12-108.22-39.12,0,0-26.85,46.15-54.51,47.56-27.66,1.41-44.35-44.44-44.35-44.44,0,0-97.61,30.47-108.21,43.03-2.07,2.46-3.89,7.92-5.46,15.11,37.85,46.03,95.23,75.4,159.48,75.4,67.54,0,127.49-32.45,165.14-82.6-1.12-6.78-2.4-12.08-3.86-14.94Z" style="fill: #d6bd6e; stroke-width: 0px;"/>
      <path d="m137.33,172.54s-3.1,18,0,19.65c3.1,1.65,12,0,12,0l1.01-21.41-13.01,1.76Z" style="fill: #d0726e; stroke-width: 0px;"/>
      <path d="m262.27,165.92v19.03s12,2.07,14.69-2.28c2.69-4.34-1.41-16.96-1.41-16.96l-13.28.21Z" style="fill: #d0726e; stroke-width: 0px;"/>
      <ellipse cx="170.17" cy="161.21" rx="4.03" ry="7.32" style="fill: #4c3a39; stroke-width: 0px;"/>
      <ellipse cx="235.33" cy="158.4" rx="4.03" ry="7.32" style="fill: #4c3a39; stroke-width: 0px;"/>
      <polygon points="141.41 186.49 145.33 186.49 144.77 171.53 141.41 171.99 141.41 186.49" style="fill: #ad4b4b; stroke-width: 0px;"/>
      <polygon points="269.57 165.81 266.15 165.86 266.15 179.45 270.07 179.45 269.57 165.81" style="fill: #ad4b4b; stroke-width: 0px;"/>
    </g>
  </g>
</svg>