<svg data-name="Layer 2" xmlns="http://www.w3.org/2000/svg" viewBox="0 0 412.71 412.71"><g data-name="—ÎÓÈ_1"><g data-name="T"><circle cx="206.35" cy="206.35" r="206.35" style="fill:#e5d6e3;stroke-width:0"/><path d="M274.58 82.64s2.69 115.35-8.72 132.82-23.19 18.87-23.19 18.87-3.18 27.69-1.72 30.62c1.46 2.94 24.88 15.22 24.88 15.22s-32.48 89.34-45.96 92.25c-13.47 2.91-64.37-103.38-64.37-103.38s15.15-5.38 17.38-9.89c2.23-4.51-1.01-135.59.78-148.89 1.79-13.3 18.21-45.82 47.77-54.01 29.56-8.2 53.14 21.43 53.15 26.39z" style="fill:#ffb899;stroke-width:0"/><path d="M242.67 234.33s2.14-.26 5.47-1.9l2.61-3.34c-4.76 1.8-31.91 5.2-48.26-5.14-16.14-10.21-23.76-47.35-23.83-47.74l-.49-2.46-3.18.72c-.82.28-.85.67-1.67.95.01 1.54.03 3.08.04 4.62.53-.18 1.05-.35 1.52-.52 2.06 9.03 5.25 58.36 20.65 68.1 10.65 6.73 32.98 10.65 45.05 11.54.25-8.99 2.07-24.83 2.07-24.83z" style="fill:#e28b6d;stroke-width:0"/><path d="M216.34 140.52c-.07 5.38-1.23 9.77-2.59 9.82-1.36.05-2.4-4.28-2.32-9.65.07-5.38 1.23-9.77 2.59-9.82s2.4 4.28 2.32 9.65zM269.04 141.71c-.07 5.38-1.23 9.77-2.59 9.82s-2.4-4.28-2.32-9.65c.07-5.38 1.23-9.77 2.59-9.82s2.4 4.28 2.32 9.65z" style="fill:#513b36;stroke-width:0"/><path d="M335.13 288.31c-6.15-9.89-89.64-20.76-89.64-20.76s-19.08 55.5-24.1 60.76c-5.02 5.26-45.26-67.1-45.26-67.1s-97.64 27.35-102.91 32.61c-1.77 1.77-10.49 29.92-16.41 54.73 37.59 39.52 90.69 64.16 149.54 64.16s107.92-22.81 145.2-59.74c-5.14-26.82-14.22-61.11-16.42-64.66z" style="fill:#8375af;stroke-width:0"/><path d="M232.04 65.05c-1.28 14.78-42.44 35.57-50.92 47.54-5.4 7.63-6.08 21.36-6.08 21.36s-.69 113.38 2.45 126.82c1.52 6.51 18.75 10.8 21.89 34.31 3.15 23.51-20.98 62.23-23.97 61.81-2.98-.42-1.2-8.78-2.49-8.74-1.3.04-20.15 17.82-36.32 15.26-16.18-2.56 10.74-42.15 4.26-57.24-6.49-15.09-33-8.72-49.76-35.91-16.77-27.19 24.71-81.3 26.16-91.73 1.46-10.43-5.13-55.12 9.73-83.14 14.86-28.02 52.43-59 94.23-59.3 41.29-.3 61.31 24.62 68.73 51.61s-2.33 90.67 1.3 99.88c3.62 9.22 38.6 37.85 37.24 58.66-1.36 20.81-7.7 32.7-6.01 36.54 1.69 3.83 17.01 11.61 16.25 27.21-.76 15.6-23.49 41.29-26.57 42.18-3.08.88-.85-9.57-1.86-8.76-1.01.81-5.59 11.09-11.57 10.78-5.98-.31-16.49-4.1-17.63-7.18-1.14-3.07.54-60.31-5.01-64.26-5.55-3.95-36.14-14.18-37.11-16.62-.98-2.44 3.18-32.28 3.18-32.28s13.65-4.69 23.13-22.84c8.36-16.01 10.06-83.04 9.61-97.33-.44-14.29-11.75-31.93-22.81-38.72-11.06-6.78-20.06-9.93-20.06-9.93z" style="fill:#db6346;stroke-width:0"/><path d="M214.74 187.17c5.15-8.09 18.31.75 20.19.88 2 .14 14.56-4.18 17.83 3.24 3.48 7.91-6.82 14-21.05 13.04-14.22-.96-20.2-12.08-16.97-17.16z" style="fill:#ff7b7b;stroke-width:0"/><path d="M169.18 169.27c-1.26-.35-2.24.43-2.7 1.53a250.43 250.43 0 0 0-11.97 36.63c-2.83 11.66-5.25 23.77-4.69 35.82.32 6.81 1.69 13.44 4.39 19.71.47 1.09 2.07 1.33 3 .79 1.13-.66 1.26-1.91.79-3-4.54-10.53-4.5-22.47-2.93-33.64 1.68-11.97 4.72-23.82 8.38-35.32 2.14-6.71 4.56-13.32 7.25-19.82.45-1.1-.49-2.41-1.53-2.7zM292.06 119.84c0 .75.3 1.3.75 1.65.1-10.29-.28-20.09-1.6-27.97-1.5-3.56-3.3-7-5.38-10.26-7.26-11.34-17.68-20.11-30.05-25.41-8.06-3.45-16.83-5.97-25.68-5.31-.26.02-.49.09-.71.17-2.79-2.92-5.98-5.4-9.43-7.48 7.75-3.54 16.48-6.24 24.99-6.07-4.23-1.23-8.78-2.11-13.68-2.6-5.15 1.32-10.17 3.27-14.85 5.5-.43.2-.71.48-.89.8a51.083 51.083 0 0 0-9.12-3.26 57.83 57.83 0 0 0-5.21-1.04c-4.06.96-8.05 2.18-11.94 3.62.26.11.57.16.92.15 6.69-.26 13.42.76 19.61 3.01-4.21 3.28-8.72 6.14-13.21 9.01-5.1 3.26-10.09 6.68-14.93 10.33-9.61 7.27-18.69 15.2-27.75 23.14-4.23 3.71-8.47 7.44-12.24 11.63a62.474 62.474 0 0 0-9.71 14.38c-5.16 10.52-9.25 22.11-10.81 33.76-.89 6.7-.4 13.57-1.72 20.21-.41 2.09-1.05 4.18-1.95 6.13 0 1.89-.07 3.46-.22 4.6-.17 1.2-.87 2.99-1.95 5.24 8.39-6.43 9.11-18.04 9.56-27.91.27-6.01 1.1-11.85 2.65-17.67 1.53-5.72 3.55-11.33 5.82-16.79 2.23-5.36 4.88-10.6 8.41-15.22 3.45-4.51 7.62-8.44 11.84-12.22 8.95-8 18.02-15.92 27.48-23.32 5.31-4.15 10.81-8.04 16.48-11.69 5.66-3.64 11.36-7.19 16.59-11.45.09-.07.16-.16.23-.25 3.45 1.68 6.67 3.79 9.55 6.32-.3.5-.42 1.08-.19 1.62 1.64 3.93-1.21 7.4-3.82 10.07-2.89 2.95-5.91 5.8-9.1 8.42-6.64 5.46-14.19 9-22.15 12.07-7.49 2.89-15.15 5.65-21.82 10.21-6.47 4.43-11.45 10.32-14.07 17.77-2.91 8.29-2.84 17.4-1.89 26.03.13 1.18.92 2.19 2.19 2.19 1.09 0 2.33-1.01 2.19-2.19-.85-7.7-1.05-15.68 1.18-23.18 2.19-7.35 6.97-13.14 13.33-17.32 6.83-4.49 14.58-7.12 22.13-10.1 4.05-1.59 8.08-3.28 11.89-5.39 3.74-2.07 7.2-4.58 10.48-7.3 3.56-2.96 7.09-6.16 10.15-9.63 2.07-2.34 3.84-5.3 4.16-8.4 1.55 1.93 2.96 4.02 4.15 6.29.12.22.22.45.33.68 1.12.43 3.12 1.24 5.73 2.44a42.928 42.928 0 0 0-5.89-11.03c6.49.02 12.84 1.73 18.89 4.09 6.13 2.39 12.02 5.63 17.12 9.8 9.28 7.59 16.3 17.85 20.05 29.24 2.12 6.43 3.18 13.12 3.1 19.88z" style="fill:#c6553e;stroke-width:0"/><path d="M239.35 195.66c-17.2.59-27.74-7.28-28.31-7.71l2.66-3.49c.16.12 16.29 12.04 40.74 4.02l1.37 4.17c-5.99 1.96-11.5 2.84-16.46 3.01z" style="fill:#ef6565;stroke-width:0"/><path d="m219.76 114.72-11.97.41c-4.23.15-4.01 6.73.23 6.58l11.97-.41c4.23-.15 4.01-6.73-.23-6.58zM270.49 114.61c-4.37-.43-8.72-.41-13.08.07-4.19.46-3.99 7.04.23 6.58 4.37-.48 8.71-.5 13.08-.07 1.78.18 3.22-1.79 3.18-3.4-.05-1.97-1.64-3-3.4-3.18z" style="fill:#db6346;stroke-width:0"/><path d="M326.66 235.88c-.75-2-1.7-4.02-2.8-6.06-.02 0-.04-.02-.06-.02-4.17-1.65-8.48-2.92-12.56-4.79a75.175 75.175 0 0 1-10.82-6.09c-6.61-4.49-12.53-10.18-16.87-16.92-4.85-7.52-7.19-15.87-7.56-24.79-.25-5.99.13-11.98.11-17.97-.01-4.61-.08-9.51-1.8-13.83-.49 11.12-1.29 23.44-2.51 34.57.63 7.35 2.44 14.41 6.04 21.01 7.86 14.4 22.02 24.7 37.2 30.3 3.89 1.43 7.95 2.64 11.62 4.6z" style="fill:#c6553e;stroke-width:0"/><ellipse cx="164.96" cy="153.45" rx="17.06" ry="23.6" transform="rotate(-15.57 164.998 153.474)" style="fill:#ffb899;stroke-width:0"/><path d="M162.45 144.04c3.17 3.21 4.59 11.34 4.22 24.18 0 .25-.01.45-.02.64 1.47-.14 2.93-.26 4.4-.35v-.15c.26-9.11-.02-21.87-5.49-27.4-1.77-1.79-3.92-2.67-6.39-2.63l.08 4.39c1.26-.02 2.27.4 3.19 1.33z" style="fill:#e28b6d;stroke-width:0"/><path transform="rotate(-86.04 163.735 154.667)" style="fill:#e28b6d;stroke-width:0" d="M161.54 149.92h4.39v9.49h-4.39z"/><path d="M221.07 167.73c-10.73.37-24.09-.87-27.66-2.68-2.26-1.15-3.87-3.95-4.94-8.57-2.15-9.3-1.67-25.44.85-28.78.92-1.22 3.02-2.46 12.03-3.25 8.39-.73 30.96-1.17 34.5 2.14 4.38 4.09 2.13 34.51-.67 38.16-1.41 1.84-7.22 2.74-14.12 2.98zm-28.29-37.3c-1.23 2.35-2.22 17.13.23 26.11.99 3.64 2.08 4.44 2.39 4.6 6.06 3.08 32.82 2.64 36.37.81 1.75-3.58 3.14-28.74 1.08-32.14-4.2-2.3-36.27-1.81-40.07.62zm39.13 31.44zm-39.22-31.38zM297.04 128.14c-3.54-3.3-26.11-2.87-34.5-2.14-9.02.79-11.12 2.02-12.04 3.25-2.05 2.72-2.75 13.92-1.78 23.01 1.63.33 3.19.89 4.62 1.68-1.31-8.8-.44-19.95.62-21.96 3.8-2.42 35.87-2.92 40.07-.62 2.06 3.4.67 28.56-1.08 32.14-3.12 1.61-24.11 2.14-33.3.16 0 1.42-.32 2.84-.92 4.14 5.74 1.12 15.38 1.76 23.51 1.48 6.9-.24 12.71-1.14 14.12-2.98 2.8-3.65 5.05-34.07.67-38.16z" style="fill:#fff;stroke-width:0"/><path d="M251.47 139.63c.01-.07.02-.13.03-.19 0-.26.02-.53 0-.79-.02-.75.07-1.47.26-2.15-1.32-1.71-3.55-3.2-6.95-2.76-5.48.71-9.42 4.88-9.59 5.06l3.21 2.99s3.08-3.2 6.94-3.7c2.57-.34 3.36 1.67 3.53 2.27l2.55-.67s0-.05.01-.07z" style="fill:#fff;stroke-width:0"/><path transform="rotate(-1.97 182.657 136.954)" style="fill:#fff;stroke-width:0" d="M175.15 134.63h14.38v4.39h-14.38z"/><path style="fill:#fff;stroke-width:0" d="m302.95 142.61-28.51-.11.13-4.39 28.41.11-.03 4.39z"/><path d="M246.51 174.59c-2.15.07-4.06-.21-5.35-.89l2.06-3.88c1.49.79 7.65.47 11.84-2.04 2.03-1.21 3.06-2.62 3.07-4.16 0-2.16-1.64-3.59-4.54-5.94-3.77-3.04-9.65-6.56-9.83-14.35l4.54-.64c.13 5.76 4.51 8.73 8.04 11.58 3.04 2.46 6.19 4.99 6.17 9.37-.01 3.15-1.81 5.89-5.2 7.92-3.04 1.82-7.24 2.91-10.8 3.04z" style="fill:#e28b6d;stroke-width:0"/><path d="M207.25 133.8c-1.09-1.11-2.56-1.52-4.03-1.38-.06 0-.13-.02-.19-.02-1.65 0-3.63.69-4.81 1.85-1.48 1.45-1.94 3.81-.87 5.63 1.95 3.34 7.56 2.37 9.88-.07 1.59-1.67 1.67-4.35.03-6.02zM263.75 136.21c-.1-.38-.29-.74-.45-1.1-.21-.38-.49-.69-.85-.92-.32-.29-.69-.49-1.12-.59a2.44 2.44 0 0 0-1.31-.06c-.44.02-.85.15-1.22.39-.2.13-.39.29-.57.45-.05.04-.1.07-.14.11-.36.23-.64.54-.85.92-.63.97-.81 2.35-.45 3.45.11.26.22.52.33.79.21.38.49.69.85.92.21.2.45.35.73.42.39.21.82.3 1.27.28h.63l.88-.12c.43-.1.8-.3 1.12-.59.54-.42 1.03-1.02 1.18-1.71.11-.5.2-1.02.15-1.53-.04-.37-.07-.76-.17-1.12z" style="fill:#fff;stroke-width:0"/><path d="M180.84 325.76c-1.83-9.94-9.47-17.84-16.68-24.36-4.15-3.75-8.56-7.23-13.17-10.41-3.93-2.71-8.11-5.07-11.94-7.93-3.41-2.56-6.68-5.77-8.1-9.88-1.8-5.17-1.01-10.87-.08-16.14 1.12-6.36 2.81-12.6 4.54-18.82 1.83-6.54 3.66-13.07 5.49-19.6.76-2.72-3.47-3.89-4.23-1.17-3.17 11.3-6.72 22.58-9.18 34.06-1.16 5.42-2.29 11.15-1.92 16.72.34 5.04 2.13 9.54 5.42 13.37 2.98 3.46 6.85 6.09 10.66 8.54 4.26 2.74 8.52 5.47 12.52 8.59 4.26 3.31 8.33 6.91 12.09 10.79 3.38 3.49 6.47 7.32 8.55 11.75 2.38 5.07 2.59 10.59 1.04 15.93-1.4 4.81-3.9 9.21-6.52 13.47 2-1.49 3.29-2.49 3.6-2.5.63-.02.53 1.94.61 4.02 4.82-8.02 9.07-16.83 7.31-26.41zM320.63 300.96c-.55-5.71-2.38-11.19-5.12-16.22-5.73-10.5-15.08-18.34-25.01-24.71-4.98-3.2-10.32-5.83-15.25-9.1-4.65-3.08-7.56-7.31-8.74-12.76-1.32-6.06-.54-12.34.46-18.38 1.09-6.6 2.29-13.16 1.81-19.83-1.01 4.69-2.17 8.51-3.49 11.05a61.19 61.19 0 0 1-1.69 3.02c-1.11 6.96-2.66 13.91-1.99 20.96.53 5.45 2.19 10.73 5.79 14.95 3.74 4.39 9.22 6.91 14.11 9.75 10.15 5.91 20.33 12.69 27.19 22.43 3.23 4.59 5.72 9.7 6.94 15.2 1.2 5.43.82 10.95-.48 16.32-2.94 12.19-9.54 23.55-9.44 36.37 2.36-2.84 4.01-6.17 4.57-6.62.18-.15.26.08.28.52 1.39-9.03 5.57-17.54 8.08-26.29 1.55-5.4 2.51-11.06 1.97-16.68z" style="fill:#c6553e;stroke-width:0"/><g style="opacity:.31"><path d="M267 90.75c6.69-5.05 12.72-10.85 17.63-17.34-2.9-6.03-6.6-11.7-11.2-16.72-.53.38-1.07.74-1.63 1.1-9.31 5.92-20.69 8.91-31.48 10.66-.08.01-.16.02-.24.04 3.35 1.59 7.5 3.74 12 6.5 5.33 3.27 10.71 9.06 14.91 15.77zM141.67 94.18c11.85 8.76 25.6 14.81 39.97 17.73 8.52-10.85 41.45-28.36 48.91-42.33-6.99.46-13.82 0-21-1.87-12.11-3.17-25.36-9.75-34.44-19.13-17.87 9.62-32.84 23.63-42.61 37.8 2.88 2.79 5.94 5.41 9.16 7.79z" style="fill:#ff846c;stroke-width:0"/></g></g></g></svg>