<?xml version="1.0" encoding="UTF-8"?>
<svg id="b" data-name="Layer 2" xmlns="http://www.w3.org/2000/svg" viewBox="0 0 412.71 412.71">
  <g id="c" data-name="—ÎÓÈ_1">
    <g id="d" data-name="V">
      <circle cx="206.35" cy="206.35" r="206.35" style="fill: #e5d6e3; stroke-width: 0px;"/>
      <path d="m132.9,136.58s-19.62-17.14,7.55-57.43c27.16-40.29,86.1-41.67,96.92-33.38,0,0,58.56,8.03,75.6,55.89s-21.31,89.94-19.67,97.75c1.64,7.81,39.34,39.28,39.67,67.81.33,28.52-31.8,35.05-31.8,35.05l-74.74-2.95-93.76-11.8s-12.33-10.66-8.8-26.07c3.53-15.41,20.04-34.54,20.04-34.54l-11-90.32Z" style="fill: #85463f; stroke-width: 0px;"/>
      <g style="opacity: .17;">
        <path d="m177.45,49.8c-2.5,12.55-1.34,25.24,7.69,35.95,9.39,11.14,24.32,15.57,38.01,18.66,18.76,4.23,38.61,5.15,57.61,1.94,10.81-1.83,20.62-5.41,30.25-9.62-5.23-11.88-13.1-21.08-21.78-28.17-18.7,6.56-38.51,8.32-58.33,5.14-10.1-1.62-21.12-6-25.79-15.78-2.54-5.33-2.22-10.32-1.16-15.29-8.41,1.15-17.55,3.43-26.51,7.16Z" style="fill: #ff8585; stroke-width: 0px;"/>
      </g>
      <path d="m213.54,72.39c-.98-.33-36.06-9.83-62.94,20.65-26.88,30.49-24.45,120.7-12.13,135.8,12.42,15.22,30.49,15.08,30.49,15.08.98,2.29-2.95,30.71-3.93,31.36-.98.66-18.03,5.57-18.03,5.57,0,0,34.09,67.2,44.58,64.91,10.49-2.29,49.83-56.39,49.83-56.39l-8.2-73.08s5.9-31.47,8.2-31.8c2.29-.33,26.88-20,24.91-26.55-1.97-6.56-25.68-7.03-25.68-7.03,0,0-19.39-12.06-26.06-31.63-6.67-19.57-1.04-46.9-1.04-46.9Z" style="fill: #ff9b7d; stroke-width: 0px;"/>
      <path d="m161.84,178.94c-2.14-.46-20.93-4.78-21.79-15.53-.81-10.08,20.96-27.23,25.33-30.57l2.85,3.73c-10.02,7.65-23.94,20.92-23.49,26.46.49,6.18,13.55,10.34,18.09,11.31l-.98,4.59Z" style="fill: #c3735b; stroke-width: 0px;"/>
      <path d="m144.88,134.71c-.7,5.22-2.38,9.45-3.76,9.45-1.38,0-1.94-4.23-1.24-9.45s2.38-9.45,3.76-9.45c1.38,0,1.94,4.23,1.24,9.45Z" style="fill: #4f3836; stroke-width: 0px;"/>
      <path d="m198.49,141.26c-.7,5.22-2.38,9.45-3.76,9.45-1.38,0-1.94-4.23-1.24-9.45s2.38-9.45,3.76-9.45c1.38,0,1.94,4.23,1.24,9.45Z" style="fill: #4f3836; stroke-width: 0px;"/>
      <path d="m149.99,111.19c-3.75-.3-7.46-.82-11.15-1.55-4.43-.88-6.32,5.91-1.87,6.8,4.3.85,8.65,1.45,13.02,1.8,4.52.36,4.5-6.69,0-7.05Z" style="fill: #723b37; stroke-width: 0px;"/>
      <path d="m204.57,118.32c-4.99-1.49-10.05-2.61-15.2-3.35-4.44-.64-6.35,6.15-1.87,6.8,5.15.74,10.21,1.86,15.2,3.35,4.35,1.3,6.21-5.5,1.87-6.8Z" style="fill: #723b37; stroke-width: 0px;"/>
      <path d="m230.98,218.01l-10.99-9.1c-.58,1.41-11.76,37.41-52.72,34.94,1.07.09,1.68.08,1.68.08.58,1.36-.35,8.1-1.59,18.97,56.71-3.84,63.47-44.51,63.62-44.88Z" style="fill: #c3735b; stroke-width: 0px;"/>
      <path d="m273.98,145.32s-64.11,54.12-63.91,57.92c.2,3.79,26.56,35.55,27.56,35.55s65.83-55.66,65.51-57.92c-.33-2.26-29.16-35.55-29.16-35.55Z" style="fill: #293549; stroke-width: 0px;"/>
      <path d="m206.35,412.71c56.88,0,108.39-23.02,145.71-60.24-5.32-26.27-13.82-63.43-15.17-64.26-4.68-2.88-95.04-15.12-95.04-15.12,0,0-45.79,63.26-51.35,62.75s-30.75-61.53-30.75-61.53c-1.44-.36-78.45,16.42-82.77,22.9-1.43,2.14-8.09,33.64-12.84,58.67,37.01,35.21,87.08,56.82,142.2,56.82Z" style="fill: #8375af; stroke-width: 0px;"/>
      <path d="m298.31,325.89c-.81-.48-2.04-1.2-33.27,4.48-31.47,5.73-32.11,6.8-32.74,7.85-.72,1.2-1.02,1.7,3.57,44.94.15,1.39,1.85,16.82,2.98,27,1.76-.28,3.52-.58,5.26-.9-1.39-10.31-3.42-25.24-3.57-26.59-1.46-13.79-3.83-36.1-3.97-41.64,7.68-2.28,50.75-10.15,59.02-10.79,1.09,3.26,7.63,37.11,11.72,56.12,1.83-1.03,3.64-2.07,5.43-3.16-6.85-28.65-13.39-56.7-14.43-57.31Z" style="fill: #7065a0; stroke-width: 0px;"/>
      <path d="m224.63,180.29c-.54,7.02,15.84,5.98,19.24,10.83,3.39,4.85,2.75,24.73,1.29,26.35-1.45,1.62-18.91,19.56-20.21,25.38-1.29,5.82,17.93,101.26,20.98,102.28,3.05,1.02,41.67-10.95,43.02-11.51.6-.25-26.84-94.57-25.99-96.98.85-2.41,33.44-42.23,34.15-51.16.71-8.93-26.51-34.21-34.1-34.32-3.58-.05-2.37,5.51-2.37,5.51,0,0-12.85-3.23-14.41.74s1.56,9.07,1.56,9.07c0,0-10.91-1.56-11.9.99-.99,2.55,3.68,8.6,3.68,8.6,0,0-14.59-.43-14.95,4.2Z" style="fill: #ff9b7d; stroke-width: 0px;"/>
      <path d="m228.71,290.91c-1.61-8.92-7.73-41.4-6.39-47.41,1.39-6.25,6.48-13.86,6.78-14.27l2.68,3.2c-1.85,2.55-3.89,7.69-4.88,12.1-.78,3.5.51,16.84,5.11,42.28l-3.3,4.11Z" style="fill: #c3735b; stroke-width: 0px;"/>
      <path d="m284.62,172.24c-2.38-4.76-14.65-12.93-24.03-18.57-4.66-1.35-10.09-2.87-19.95-2.75-1.13.52-1.33.92-1.77,1.97-.62,1.49-.91,3.08-1.04,4.45-.12-.04-.2-.07-.21-.07-2.23-.56-9.05,4.22-9.1,4.27-.8.8-1.2,1.22-.08,9.73-2.73.74-6.34,2.7-7.11,6.64-1.04,5.33,3.04,9.31,3.74,9.98l3.23-2.89c-2-1.93-2.75-4.18-2.35-6.19.37-1.88,3.27-2.94,4.68-3.34,5.03,1.68,17.81,6.66,20.9,11.02,3.21,4.53,5,19.68,5.42,25.14l4.68-.36c-.16-2.14-1.74-21.1-6.27-27.49-4.02-5.67-17.52-10.77-22.15-12.39-.35-2.67-.66-5.47-.74-6.89,1.24-.75,3.48-2,4.55-2.49,4.55,1.64,24.49,9.83,28.72,17,4.83,8.19,4.07,23.38,4.06,23.53l4.69.26c.04-.68.85-16.75-4.71-26.18-4.33-7.33-19.48-14.29-27.34-17.5.01-1.14.15-2.81.72-4.28,1.06-.71,5.62-.8,9.88-.19,8.57,4.95,25.21,15.34,27.38,19.68,2.52,5.03,2.37,15.6,2.1,19.24l4.69.35c.04-.59,1.03-14.47-2.58-21.69Z" style="fill: #c3735b; stroke-width: 0px;"/>
      <path d="m145.99,187.41c3.26-2.03,12.78,4.78,22.53,3.75,9.75-1.03,19.13-9.09,24.32-6.73,5.19,2.36,1.63,24.44-21.66,27.02-24.98,2.78-28.97-21.68-25.2-24.04Z" style="fill: #4f3836; stroke-width: 0px;"/>
      <path d="m148.57,187.11c0,2.32.32,6.42,3,8.1,3.62,2.28,30.84-.13,33.78-2.28,1.74-1.27,2.03-5.26,1.98-8.34-5.18,1.58-11.9,5.83-18.8,6.56-7.85.83-15.55-3.42-19.96-4.05Z" style="fill: #fff; stroke-width: 0px;"/>
    </g>
  </g>
</svg>