<svg data-name="Layer 2" xmlns="http://www.w3.org/2000/svg" viewBox="0 0 2490 608.95"><g data-name="Layer 1"><path d="M634.25 390.9c.23.05.26.23.08.56-.13.26-.28.28-.49.08l-4.49-4.49c2.13-7.57 2.15-15.44.03-23.6-.21-.82-.74-1.21-1.59-1.18-4.44.18-5.82-.92-4.1-3.33-.08-3.31-2.97-6.98-8.67-11.05-1.77-1.26-3.41-1.49-4.92-.69-1.18.62-1.31 2.26-.26 3.05s1.62 2.13 1.69 4c-.74-.9-1.36-1.41-1.87-1.56-.67-.2-1.31.39-1.18 1.08 2.44 12.59 6.54 22.75 12.29 30.42l13.98 10.69c5 5.13 15.34 14.11 22.8 11.29 12.26-4.64 24.24-10.18 35.91-16.59 5.41-2.95 11.05-4.92 16.93-5.9 2.13-.33 4.23.69 5.26 2.59 1.62 2.97 1.36 6.36-1.9 7.85-20.16 9.05-37.73 18.44-59.55 25.49-4.57 1.49-8.67.69-12.28-2.41-9.21-7.82-17.95-15-26.29-21.54-.97-.77-1.56-.54-1.74.69-.9 6-4.16 11.8-9.82 17.42-.36.36-.85.59-1.33.64-2.18.28-2.87-1.08-2.13-4.08 2.69.85 4.33-.33 4.92-3.54.69-1.87.87-3.69.54-5.41-.18-.97-.59-1.1-1.26-.36-1.28 1.41-1.44 3.13-.44 5.1-1.72 2.03-3.39 3.13-5.05 3.26-3.62 7.31-8.39 13.62-14.31 18.93-.85.77-.61 2.13.41 2.62 17.11 7.93 37.58 13.77 51.84 26.01 5.54 4.74 1.95 14.8.39 20.39-4.23 15.36-8.59 32.34-13.08 50.91-.59 2.41-.03 4.44 1.72 6.1 9.64 9.18 24.11 9.95 36.04 9.57 16.9-.54 30.11-.18 39.63 1.13.79.1 1.36.51 1.69 1.23.92 1.97.77 3.85-.49 5.57-.51.74-1.21 1.13-2.1 1.2l-27.75 2.39c-18.13-.36-36.24-.46-54.37-.31-90.67.77-181.36 0-272.05.1-2.44 0-5.28-1.21-8.54-3.59-.23-.18-.46-.33-.64-.46-2.08-1.64-1.18-4.98 1.44-5.36 21.52-3.21 43.99-1.36 65.76-2.59 1.03-.05 1.92-.44 2.69-1.13 13.23-12.29 25.26-24.55 36.06-36.83 1.57-1.77 3.57-3.1 5.8-3.8 19.7-6.23 39.37-11.57 58.45-21.34 1.03-.51.97-.8-.18-.85-2.39-.08-4.8.15-7.18.69-9.98 2.33-41.91-4.9-41.34-18.8 1.1-26.8 19.36-50.89 42.29-61.07 14.95-6.64 27.98-5.51 39.11 3.39.79.64 1.39.49 1.79-.44 4.59-10.23 13.03-17.65 24.67-16 1.77.23 1.79.13.08-.31-.13-.03-.26-.05-.39-.05-.33.03-.59-.05-.82-.23-2.1-1.62-4.49-2.54-7.16-2.77-18.88-1.77-36.83-1.54-53.84.74-25.42 3.41-54.94 8.31-88.51 14.75-7.28 1.39-14.23-4.13-19.54-7.72-18.24-12.39-35.6-24.44-52.07-36.14-1.67-1.2-2.39-2.82-2.15-4.85 3.77-31.44 7.54-62.97 11.28-94.54 1.21-10.08 4.72-18.49 10.49-25.24 29.42-34.29 57.68-67.97 84.74-101 22.6-27.57 46.65-55.02 69.99-84.15 2.85-3.56 6.36-6.05 10.59-7.46 36.16-12.13 72.35-24.49 108.57-37.04C644.2-1 648.9 0 652.41 4.06c21.83 25.26 43.11 49.73 63.84 73.46 9.41 10.8 8.18 25.31 11.8 36.98a2572.44 2572.44 0 0 0 16.65 51.73c.72 2.15.85 4.46.39 6.69-4.74 22.47-9.18 44.47-13.31 65.99-.54 2.74-.87 5.57-1.03 8.49a5.24 5.24 0 0 1-3.23 4.59c-7.82 3.18-15.67 6.36-23.6 9.52-5.36 2.13-10.26 5.8-12.44 11.31-3.23 8.13-6 18.7.28 26.47 10.98 13.67 16.39 34.57 1.39 47.94-14.83 13.18-38.52 15.59-57.68 13.06-1-.13-1.51.31-1.51 1.33l.33 29.29M367.7 337.64c.41-.33 1.23-.18 2.44.46.85.44 1.64.33 2.33-.31 9.88-9.1 20.78-18.31 32.7-27.62 6.52-5.1 14.98-7.9 20.03-14.88 1.82-2.54 3.57-5.13 5.23-7.8 5.72-9.23 15.26-16.72 24.52-22.67 3.41-2.21 9.41-10.9 14.31-7.13.69.54.74 1.54.13 2.18-7.49 7.54-14.88 14.13-22.19 19.8-3.62 2.82-6.26 5.93-7.9 9.31-7.62 15.77-22.44 23.88-34.91 35.29-10.9 10-22.49 19.21-34.75 27.62a2.012 2.012 0 0 0-.21 3.16c.72.67 1.64 1.13 2.74 1.39 11.05 11.11 23.21 20.34 36.45 27.73 6.69 3.74 10.03 2.97 16.83 1.69 23.75-4.49 46.65-8.39 68.69-11.72 25.11-3.82 49.91-4.62 74.46-2.44 1.72.15 3.41-.51 4.57-1.8l11.44-12.59c.77-.82 1.79-1.36 2.92-1.49l3.36-.36c1.33-.13 1.67-.8 1-1.95-8.13-14.29-15.29-29.55-21.49-45.76 9.85-11.41 17.54-19.78 23.08-25.06 5.41-5.18 15.08-13.52 28.98-24.98 4.31-3.59 7.49-3 11.39.61.28 3.13-.9 5.8-3.57 7.98a383.216 383.216 0 0 0-43.86 41.96 4.004 4.004 0 0 0-.72 4.21c4.8 11.77 10.59 22.55 17.34 32.37 1 1.46 1.33 1.31 1.05-.41-.41-2.41-1.44-4.39-1.69-7.03-1.1-10.64-1.23-20.06-.44-28.24 1.67-17.36 25.01-28.14 39.73-30.32 5.87-.85 11.16 1.36 16.75 2.49 1.33.26 2.59-.74 2.64-2.1.67-17.77 5.03-36.57 13.05-56.4 2.59-2.08 6.26-4.74 11.05-8 2.8-1.92 5.23-1.85 7.31.18.61 3.74-.13 7.26-2.21 10.57-2.26 3.56-5.39 7.59-9.36 12.03-4.69 5.26-7.44 17.36-8.52 24.9-.9 6.21-2.1 12.41-3.67 18.59-1.39 5.54 2 8.13 6.87 9.18 1.15.23 1.31-.05.44-.85l-.59-.54c-.72-.64-.87-1.39-.46-2.26 1.67-3.56 2.67-7.64 3-12.23.77-10.36 5.34-17.42 15.29-21.7 7.41-3.21 14.54-5.95 21.39-8.26 2.05-.69 3.57-2.41 4.05-4.51 4.46-19.8 8.82-38.96 13.11-57.45.54-2.31.1-5.18-1.28-8.64 2.54-1.44 3.16-3.9 1.85-7.41-3.28-8.69-8.16-23.44-14.65-44.24-2.21-7.05-4.03-15.18-5.49-24.44-.82-5.21-2.57-9.52-5.74-13.16-20.65-23.47-41.06-46.78-61.27-69.97a6.072 6.072 0 0 0-6.49-1.72l-105.8 36.81a8.459 8.459 0 0 0-3.85 2.67c-47.58 57.27-96.72 116.19-147.43 176.72-6.67 7.98-13.85 14.65-14.88 25.65-1.97 21.24-4.85 45.68-8.67 73.3-.62 4.49-.77 9.21-.46 14.21.08 1 .54 1.26 1.41.72l8.59-5.34m243.38-19.03c-.79 5.59.33 10.85 3.44 15.77 4.21 6.67 7.64 10.77 10.31 12.29 11.52 6.59 23.24 8.18 35.19 4.8 6.95-1.97 22.49-7.18 26.7-13.62 1.77-2.72 3.49-5.46 5.1-8.21.9-1.51 1.26-3.21 1.13-5.03-.18-2.13-.69-3.92-1.59-5.39-2.74-11.11-8.36-19.01-16.83-23.65-14.8-8.18-35.7-10.54-49.83-.8-7.77 5.36-12.31 13.28-13.62 23.83m-30.78 66.51c1.49 1.92 3 3.85 4.54 5.82 1.69 2.18 3.57 3.67 5.62 4.44 7.85 3 14.36 1.05 19.57-5.87.9-1.18.9-2.8.05-4l-14.23-20.03c-1.23-1.59-2.28-2.23-3.16-1.92-9.03 3.08-14.21 9.41-15.52 18.98-.23 1.62.82 2.46 3.13 2.59m-28.91 26.39c.26 2.26 1.49 4.41 3.72 6.46.56.54 1.23.8 2.03.77 3.18-.1 6.52.44 10.03 1.64 2.77.95 4.92.62 6.49-1 6.85-6.98 9.41-12.98 7.67-18.01l-9.54-9.18c-.59-.59-1.31-.82-2.15-.67-9.41 1.69-22.42 8.67-18.24 19.98m-75.07 23.93c10.72-13.88 29.16-27.52 46.96-26.57 3.49.18 7.05.31 10.72.39 1.92.03 2.13-.56.62-1.77-7.49-6.03-21.36-3.03-29.47.39-13.03 5.46-34.32 22.03-35.5 38.4-.13 1.67.21 1.77 1.05.31 2.15-3.74 2.97-7.69 5.62-11.13m100 2.28c.23-.39.36-.82.39-1.31.03-.26-.03-.49-.15-.72-.28-.51-.64-.62-1.08-.31-.54.39-.87.9-1.03 1.51l-.26 1.08c-.23.92-.77 1.54-1.67 1.85-4.85 1.72-9.57 2.21-14.16 1.51-1.26-.18-1.85.33-1.77 1.59a3176.5 3176.5 0 0 1 1.9 46.01c.28 7.93-.79 11.34-6.28 16.34-11.82 10.75-22.85 20.11-33.09 28.03-2.67 2.08-4.1 4.74-4.31 8.03-.05 1 .74 1.85 1.74 1.85l96.54 1c.72 0 .92-.33.61-.97-1.31-2.9-1.79-5.8-1.44-8.72 2.64-20.72 7.85-42.17 15.59-64.3.95-2.67-.26-5.64-2.8-6.93a854.308 854.308 0 0 0-41.7-19.34 28.72 28.72 0 0 1-6.67-4.03c-.74-.61-.87-1.33-.38-2.18m-73.15 104.47c-.18-9.29 3.36-15.31 10.72-21.08 10.93-8.57 21.65-17.34 32.37-25.93.77-.64 1.08-1.67.74-2.59-3.57-10.41-1.13-23.44-.51-34.27.08-1.77-.41-1.95-1.51-.54-14.72 18.98-32.01 34.42-55.04 42.86a432.409 432.409 0 0 1-34.32 10.9c-1.03.28-1.85.82-2.49 1.67-3.62 4.87-6.8 9.98-11.36 13.98-6.39 5.62-12.85 11.18-19.36 16.72-1.57 1.33-1.36 1.74.64 1.26 3.16-.74 6.39-1.62 9.62-1.67 22.85-.33 45.76-.18 68.76.46 1.21.03 1.77-.56 1.74-1.77zM1637.37 556.02c-10.1-.23-19.85-.46-29.26-.72-8.95-.23-18.7-.28-29.21-.15-64.81.9-128.88-.72-194.41.46-4.05.08-7.36-1.8-9.95-5.64-.08-6.54 3.31-12.93 10.13-19.16 11.41-10.44 21.7-21.75 30.85-33.93.85-1.1 1.95-1.8 3.33-2.03 10.31-1.77 20.62-3.85 30.93-6.21 12.46-2.85 23.67-8.21 35.68-11.62 4.13-1.18 4.05-1.67-.23-1.44-11.7.56-21.7 1.03-32.09-4.03-9.57-4.64-13.39-11.95-11.41-21.9 2.64-13.21 8.44-25.03 17.39-35.5 6.93-8.08 16.77-12.11 26.08-16.85 15.49-7.93 30.57-6.93 45.17 3.95 1.05.8 1.8.56 2.23-.69 1.13-3.21 2.72-6.26 4.74-9.16.49-.69 1.13-1.18 1.92-1.46 1.64-.59 3.31-1.26 4.98-2 1.41-.64 1.33-1.05-.18-1.28-11.57-1.67-20.52-1.92-26.83-.77-11.05 1.97-21.93 5.39-32.6 10.18-8.21 3.69-16.42 7.16-25.31 8.67-9.67 1.67-19.29 3.33-28.83 4.95-2.54.44-5.1-.26-7.08-1.87-16.72-13.77-33.47-27.49-50.24-41.22-5.46-4.49-8.77-7.9-8.67-15.36.13-9.67.15-18.59.08-26.72-.05-5.16 1.08-10.03 3.36-14.59 12.05-24.06 26.31-44.5 44.53-65.33 11-12.57 20.98-26.21 29.93-40.96 2.8-4.64 6.82-8.44 12.03-11.39 30.68-17.49 66.43-33.62 97.16-49.63 17.36-9.05 35.65-18.36 54.84-27.98 11-5.51 19.7-10.98 26.08-16.39 11.18-9.52 20.44-24.65 34.47-33.11 30.78-18.57 60.99-36.78 90.64-54.63 2.87-1.72 6.52-1.44 9.03.74 37.01 31.73 74.12 62.71 111.31 92.95 7.82 6.39 4.75 12.21 2.03 22.39-5.33 19.98-10.8 39.88-16.36 59.76-.28 1-1.13 2.18-2.54 3.56a15.107 15.107 0 0 1-3.46 2.54c-40.19 21.03-76.3 47.47-112.95 70.17-15.98 9.87-33.98 19.13-50.89 27.49-1.46.72-3.16 1.26-5.03 1.64-1.28.28-1.74 1.87-.8 2.77 1.95 1.9 4.28 3.23 5.51 5.69 4.46 9.16 9.13 21.36 4.26 31.21-8.75 17.75-32.65 23.39-50.63 25.78-2.85.39-4.98-.49-7.67-1.03-1.05-.2-1.95.05-2.69.8l-7.28 7.1a4.392 4.392 0 0 0-.56 5.64c6.18 9 13.85 16.95 22.95 23.85a5.763 5.763 0 0 0 6.16.51c11.98-6.28 24.03-12 36.14-17.13 4.03-1.72 7.87-1.33 11.52 1.1.72.49 1.15 1.23 1.28 2.23.41 3.16-.85 5.33-3.74 6.59l-48.47 20.98c-2.74 1.18-5.9.74-8.18-1.15l-24.7-20.59c-.82-.69-2.05-.44-2.56.51-4.08 7.62-12.23 23.83-23.57 18.75-.85-.39-1.51-.18-2.03.59-5.39 8.18-13 14.67-22.83 19.49-1.64.8-1.51 3.16.18 3.8 10.41 3.87 52.02 20.29 51.55 32.47-.23 5.62-1.1 11.82-2.64 18.62-3.64 15.95-5.93 29.93-6.85 41.96-.72 9.36 3.82 19.21 14.23 19.59 7.05.28 13.98 1.51 20.72 3.74.77.23 1.36.85 1.59 1.64.8 2.87-.56 5.39-3.46 6.54-3.13 1.23-6.05 1.95-8.8 2.18m-259.76-203.31 51.55 43.99c1 .85 2.31 1.23 3.59 1.05 17.13-2.54 32.85-6.82 47.17-12.85 11.82-5 20.85-8.16 27.11-9.52 18.9-4.13 35.86-2.03 53.71-.51 1.92.15 3.72-1.05 4.28-2.9 2.8-9.18 8.95-15.65 18.47-19.39 1.1-.44 1.36-1.15.8-2.18-6-10.98-11.98-22.55-17.95-34.68-2.1-4.28-1.77-8.52.97-12.7 13.11-19.88 29.83-37.01 50.19-51.37 3.28-2.33 5.57-1.59 6.87 2.23l.33 1.03c1.36 3.95.31 7.08-3.16 9.41-17.7 11.95-33.52 27.55-41.32 46.4-.33.85-.36 1.69-.05 2.54 3.69 9.98 7.54 17.59 11.57 22.8 5.21 6.72 7.39 5.85 6.57-2.62a63.7 63.7 0 0 0-1.72-9.67c-1.85-7.26-1.74-14.75.31-22.47 5.28-19.75 36.96-32.88 55.25-28.42 4.95 1.21 9.64 2.8 14.11 4.77 2.33 1.05 3.74.33 4.23-2.21 2.62-14.16 6.03-27.24 10.26-39.27 2.26-6.44 5.46-11.59 9.62-15.44 4.18-3.85 8.57-6.05 11.23-11.54 4.26-8.69 11.1-15.88 14.41-23.9l5.33-8.8c1.33-2.18.85-3.85-1.46-5-16.54-8.23-33.96-15.36-52.24-21.39-.39-.13-.67-.36-.9-.69-.31-.46-.36-.95-.18-1.46.28-.77.8-1.1 1.59-.97 2.92.39 5.69 1.03 8.34 1.9 13.9 4.54 28.26 9.95 43.06 16.21.8.33 1.36.1 1.72-.67l25.14-53.76c.39-.85.54-1.72.46-2.62-.23-2.95-.2-5.05.05-6.36 2.51-12.72 7.82-23.49 15.95-32.32l21.78-21.67c1.31-1.31 1.28-2.59-.1-3.85l-20.06-18.08c-1.95-1.74-4.77-2.03-7-.69-28.34 17.03-55.63 33.34-81.82 48.91-7.23 4.28-15.03 11.34-23.36 21.13-7.64 9-17.16 16.77-27.44 22.19-41.14 21.65-88.95 46.17-143.45 73.58-6.44 3.23-13.49 7.03-21.16 11.41a22.375 22.375 0 0 0-7.57 7.1c-11.39 17.21-22.93 32.78-36.47 48.76-10.41 12.29-20.39 25.47-29.96 39.6-3.41 5.05-5.51 9.36-6.31 12.9-2.77 12.41-3.54 26.42-2.33 42.04m384.31-270.38c-3.18 2.33-5.74 5.05-7.69 8.18-.31.51-.18.85.41 1l1.05.26c.8.2 1.62-.1 2.08-.77l4.93-7.03 36.86-27.88c.13-.1.15-.23.08-.39-1.56-2.62-3.77-4.69-6.62-6.26-.13-.08-.26-.05-.33.05l-30.76 32.83m-7.93 30.03c-4.9 18.19-12.13 35.09-21.7 50.73-1.23 2.03.2 4.62 2.56 4.62 4.54.03 9.13-.44 13.75-1.44 15.52-3.31 31.21-6.87 47.06-10.75-3.56 3.92-9.08 7.05-16.49 9.34-14.54 4.49-29.29 9.62-44.24 15.41-1.82.72-2.36 3.05-1.03 4.49.85.92 1.92 1.51 3.26 1.77 17.95 3.41 34.55-2.54 51.5-8.28.64-.2 1.31.18 1.44.85l.18.87c.13.61-.18 1.23-.74 1.51-10.03 4.98-20.01 11.44-31.14 12.77-10.05 1.2-19.93.36-29.65-2.54-3.36-1-5.8.26-7.31 3.72-5.98 13.65-14.16 25.67-24.55 36.11-2.33 2.33-5.74 6.74-6.39 9.57-3.51 15.11-7.49 29.52-11.98 43.29-.54 1.67-.15 1.92 1.2.82 12.54-10.36 28.98-17.95 43.73-25.11 8.44-4.08 16.59-8.69 24.49-13.88 20.03-13.13 39.5-26.03 58.35-38.68 13.13-8.8 27.57-15.36 40.88-24.11 3-1.95 4.92-4.46 5.77-7.57 4.49-16.06 9.21-32.04 14.13-47.94.79-2.49.82-5.46.08-8.87 1.49-1.51 2.21-3.26 2.13-5.23-.02-.74-.41-1.44-1-1.87-17.75-13.39-34.37-27.03-49.86-40.91-3.28-2.92-7.49-5.33-11.28-7.39-1.28-.69-2.85-.59-4 .28-7.44 5.54-13.95 11.21-21.8 16.34-6.8 4.44-13.7 9.57-20.75 15.44-5.13 4.28-4.69 10.98-6.62 16.62m-144.96 199.62c-.64.44-.72 1.33-.28 2.72.28.85.03 1.46-.74 1.87-1.44.74-1.95 1.95-1.54 3.59 5.69 22.31 25.91 26.6 45.99 26.93 6.46.1 10.41-2.95 16-4.98 4.03-1.46 7.64-3.64 10.85-6.49 10.59-9.46 11.52-19.98 2.82-31.52-8.13-12.46-20.59-19.24-37.37-20.31-13.72-.87-24.9 4-33.5 14.62-3.1 3.85-3.85 8.36-2.23 13.57m-10.52 38.06c3.59 11.31 11.18 19.26 22.8 23.9 1.28.51 2.67-.33 2.85-1.69.64-4.98.59-10.34-.13-16.11-.44-3.36-4.18-7.18-11.29-11.44-3.72-3.23-8.46-1.46-14.23 5.33m-22.01 38.98c1.62 3.41 3.77 4.85 6.46 4.31.59-.13 1.15-.05 1.69.23.49.26.97.36 1.44.33 1.36 2.92 3.16 4.95 5.36 6.05.9.44 1.2.18.95-.77-.51-1.87-1.59-3.56-3.26-5.03-.67-1.67-.92-2.97-.74-3.95.2-1.1.85-1.49 1.9-1.1l12.41 4.36c.9.31 1.87.36 2.8.15 2.59-.64 4.36-2.23 5.36-4.8.64-1.67 1.13-3.33 1.41-4.95.36-1.97-.1-3.51-1.39-4.64-7.62-6.64-14.72-12.72-21.31-18.29-2.72-1.67-5.13-1.62-7.21.2-4.95 4.36-13.82 13.77-11.18 20.98 1 2.74 2.77 5.03 5.31 6.9m-34.7 22.6c1.74.03 4.44-.69 8.1-2.21 3.62-1.49 8.52-1.97 14.72-1.46 1.33.13 2.21.82 2.64 2.13.28.9.85 1.51 1.72 1.9 1.82.77 3.03.13 3.67-1.92 1.36-4.39.62-7.54-2.21-9.46-1.46-4.87-3.72-8.23-6.8-10.08-2.82-1.72-6.16-1.97-9.98-.77-10.26 3.21-15.29 10.23-15.11 21.08.03 1.15.97 2.08 2.15 2.1.08 0 .44-.44 1.08-1.31m-90.49 32.19c2.03-7.28 5.77-13.67 11.21-19.16 14.52-14.7 37.96-25.08 58.53-18.29 3.64 1.2 3.9.69.74-1.51-11.13-7.77-22.47-5.05-34.42-.8-14.21 5.08-25.37 14.67-33.47 28.75-1.82 3.16-3.05 6.54-3.74 10.16-.08.39.08.64.46.72l.62.15s.05 0 .08-.03m125.34 2.1c-5.77-2.67-10.69-5.82-14.77-9.46-.64-.59-1.33-.64-2.08-.15-6.1 4.03-12.39 5.23-18.88 3.56-1.87-.49-3.74.82-3.95 2.77-1.72 16.95-3.31 33.42-4.72 49.4-.28 3.21-1.62 5.9-4 8.08-11.67 10.57-24.83 21.42-39.47 32.52-3.1 2.33-4.51 5.26-4.28 8.72.08 1.1 1 1.97 2.13 2l115.01.23c1.26 0 1.62-.56 1.1-1.69a15.79 15.79 0 0 1-1.41-5.98c-.9-23.24 3.82-45.6 9.18-68.48.54-2.39-.56-4.85-2.72-6.03-9.13-4.92-19.52-10.08-31.14-15.49m-55.55 14.67c-20.88 27.11-61.76 40.7-93.85 44.6a7.294 7.294 0 0 0-5.39 3.46c-5.05 8.21-10.44 15.13-18.36 21.39-4.74 3.72-9.16 7.54-13.23 11.46-2.44 2.31-1.97 3.18 1.33 2.64 2.23-.39 4.36-.95 6.67-.92 23.19.23 47.6.31 73.22.23 1.03 0 1.82-.87 1.77-1.9-.39-7.57 2.28-13.72 8-18.47 13.52-11.21 25.7-21.01 36.6-29.42a6.865 6.865 0 0 0 2.72-5.39c.18-9.49.92-18.47 2.23-26.96.38-2.49-.18-2.72-1.72-.74z" style="fill:#2a3b77;stroke-width:0"/><path d="M730.53 173.84c-4.72 2.13-9.31 5.44-13.77 9.88.18-2.72.26-5.28.23-7.69 0-2.31-.36-4.62-1.05-6.9-7.13-23.14-12.7-46.45-16.7-69.92-.87-5.16-2.95-9.54-6.23-13.13a5701.524 5701.524 0 0 1-51.89-57.53c-2.39-2.69-5.13-3.1-8.23-1.28a487.117 487.117 0 0 1-46.19 24.21c-9.16 4.18-22.24 6.87-39.24 8.08-3-.59-6.1-1.13-9.34-1.64-1.46-.23-3.05 1.08-4.8 3.95-4.03 4.31-7.95 9.18-11.82 14.65-4.69 6.62-8.46 11.62-11.31 15a3499.336 3499.336 0 0 0-33.93 40.88c-14.21 17.36-29.24 34.01-43.93 52.66-14.57 18.49-31.67 38.47-51.3 59.96-2.85 3.13-4.41 6.28-4.95 10.54-1.49 11.7-2.05 23.98-1.67 36.88.18 6.33-2.08 21.42-6.74 45.19l-8.59 5.33c-.87.54-1.33.28-1.41-.72-.31-5-.15-9.72.46-14.21 3.82-27.62 6.69-52.07 8.67-73.3 1.03-11 8.21-17.67 14.88-25.65 50.71-60.53 99.85-119.44 147.43-176.72 1-1.23 2.33-2.15 3.85-2.67l105.8-36.81c2.31-.8 4.87-.1 6.49 1.72 20.21 23.19 40.63 46.5 61.27 69.97 3.18 3.64 4.92 7.95 5.74 13.16 1.46 9.26 3.28 17.39 5.49 24.44 6.49 20.8 11.36 35.55 14.65 44.24 1.31 3.51.69 5.97-1.85 7.41zM1762.87 69.37l3.87-10c.51-1.33 0-2.85-1.23-3.56-8.39-5-17.47-13.23-27.57-7.57-13.82 7.75-26.93 15.31-39.32 22.72-15.98 9.57-26.49 20.01-37.86 32.96-4.03 4.59-9.08 8.98-15.16 13.16a524.685 524.685 0 0 1-70.05 40.63c-8.69 4.18-17.52 7-26.31 11.26-.87.44-.92.95-.15 1.54.49.39 1.08.54 1.72.46 2.39-.2 4.54-.54 6.49-1 6.03-1.36 6.49-.31 1.39 3.18-3.49 2.39-7.52 4.49-12.08 6.28-28.55 11.21-54.32 23.9-77.35 38.11-8.49 5.21-17.18 12.52-23.03 20.54-14.39 19.83-29.32 43.27-44.78 70.38-4.85 8.46-10.62 16.42-17.31 23.88a6.77 6.77 0 0 0-1.72 4.72l.26 9.82-5.05 5.82c-1.2-15.62-.44-29.62 2.33-42.04.8-3.54 2.9-7.85 6.31-12.9 9.57-14.13 19.54-27.31 29.96-39.6 13.54-15.98 25.08-31.55 36.47-48.76 1.92-2.92 4.51-5.36 7.57-7.1 7.67-4.39 14.72-8.18 21.16-11.41 54.5-27.42 102.31-51.94 143.45-73.58 10.29-5.41 19.8-13.18 27.44-22.19 8.34-9.8 16.13-16.85 23.36-21.13 26.19-15.57 53.48-31.88 81.82-48.91 2.23-1.33 5.05-1.05 7 .69l20.06 18.08c1.39 1.26 1.41 2.54.1 3.85l-21.77 21.67z" style="fill:#f9f9f1;stroke-width:0"/><path d="M716.76 183.71 692.47 215c-2.08-2.03-4.51-2.1-7.31-.18-4.8 3.26-8.46 5.93-11.05 8l-36.29 35.32c-.56.56-1.36.77-2.13.59l-1.87-.41c-3.9-3.62-7.08-4.21-11.39-.61-13.9 11.46-23.57 19.8-28.98 24.98-5.54 5.28-13.23 13.65-23.08 25.06-17.08 11.44-35.75 19.21-56.02 23.29-37.88 7.64-72.84 14.16-104.82 19.54-9.67 1.64-24.88 3.21-37.37 5.85-1.1-.26-2.03-.72-2.74-1.39-.97-.87-.87-2.41.21-3.16a314.513 314.513 0 0 0 34.75-27.62c12.47-11.41 27.29-19.52 34.91-35.29 1.64-3.39 4.28-6.49 7.9-9.31 7.31-5.67 14.7-12.26 22.19-19.8.62-.64.56-1.64-.13-2.18-4.9-3.77-10.9 4.93-14.31 7.13-9.26 5.95-18.8 13.44-24.52 22.67-1.67 2.67-3.41 5.26-5.23 7.8-5.05 6.98-13.52 9.77-20.03 14.88-11.93 9.31-22.83 18.52-32.7 27.62-.69.64-1.49.74-2.33.31-1.21-.64-2.03-.8-2.44-.46 4.67-23.78 6.92-38.86 6.74-45.19-.39-12.9.18-25.19 1.67-36.88.54-4.26 2.1-7.41 4.95-10.54 19.62-21.49 36.73-41.47 51.3-59.96 14.7-18.65 29.73-35.29 43.93-52.66 11.21-13.72 22.52-27.34 33.93-40.88 2.85-3.39 6.62-8.39 11.31-15 3.87-5.46 7.8-10.34 11.82-14.65 11.64 5.64 23.7 10.21 36.16 13.67 5.72 1.62 9.46 4.46 11.23 8.54 3.36 7.8 6.87 17.26 13.72 23.21 13 11.31 25.24 23.14 36.75 35.47 8.08 8.69 18.13 15.08 27.24 22.85 1.03.9 1.33.69.92-.59-1.79-5.59-10.88-12.39-15.44-16.39-8.46-7.44-15.21-16.36-22.26-25.08-8.23-10.16-19.59-18.93-25.67-29.75-3-5.36-5.74-11.49-8.23-18.39a8.78 8.78 0 0 0-5.69-5.39l-34.6-10.46c17.01-1.2 30.09-3.9 39.24-8.08a484.704 484.704 0 0 0 46.19-24.21c3.1-1.82 5.85-1.41 8.23 1.28a5470.03 5470.03 0 0 0 51.89 57.53c3.28 3.59 5.36 7.98 6.23 13.13 4 23.47 9.57 46.78 16.7 69.92.69 2.28 1.05 4.59 1.05 6.9.02 2.41-.05 4.98-.23 7.69m-201.79 3.05a2.27 2.27 0 0 0-3.22-.19l-29.8 26.55a2.28 2.28 0 0 0-.19 3.22l.1.11a2.27 2.27 0 0 0 3.22.19l29.8-26.55a2.28 2.28 0 0 0 .19-3.22l-.1-.11z" style="fill:#d3e3f4;stroke-width:0"/><path d="M1361.12 551.3c-.95 2.46-2.8 3.69-5.49 3.72-76.51.69-170.77.49-282.77-.56-2.33-.03-6.59-.05-12.82-.13-2.92-.03-4.9-1.26-5.9-3.69-.13-1.59.15-2.95.9-4.08.46-.72 1.1-1.15 1.95-1.33 4.69-.97 9.41-1.03 14.11-.18 1 .18 1.85-.13 2.49-.92 2.46-3.05 4.8-6.57 7.93-9 11.34-8.87 21.31-18.83 29.91-29.85 1.26-1.62 2.85-2.72 4.8-3.36 9.88-3.21 19.93-6.41 30.11-9.59 12.65-3.95 23.8-9.49 35.78-14.13.23-.08.33-.26.26-.51h-.03c-.03-.15-.13-.2-.28-.18-14.52 3.36-28.65 2.54-42.4-2.51-6.54-2.39-14.21-8.33-13.16-16.36 4.05-31.01 19.31-53.45 50.37-61.94 8.69-2.39 17.98-1.49 27.85 2.64 1.08.46 1.92.2 2.56-.8 5.44-8.46 13.11-15.29 22.98-20.49.49-.26.39-1-.15-1.1-11.67-2.54-22.57-6.21-32.7-11.03a29.59 29.59 0 0 1-7.82-5.39c-15.44-14.77-32.16-30.78-50.14-48.01-4.05-3.9-8.57-6.85-13.57-8.85-18.08-7.28-34.34-14.95-48.78-23.01-4.08-2.28-7.46-5.28-10.13-8.98-.54-.74-1.13-.8-1.77-.15-8.05 8.05-15.49 16.26-22.31 24.62-2.33 2.87-2.97 6.05-.72 9.18 34.37 47.42-19.26 64.94-54.73 62.02-.77-.05-1.49.41-1.77 1.13l-6.77 17.72a6.684 6.684 0 0 0 3.69 8.59c4.95 2.03 9.9 3.9 14.88 5.62 6.69 2.28 10.26 6.75 10.39 14.03.15 9.34.67 18.16 1.54 26.49.39 3.82-1.28 5.33-5.05 4.49-.56-.13-1.13-.23-1.72-.28a5.676 5.676 0 0 1-5.03-5.21l-1.67-22.36c-.13-1.62-.9-2.74-2.36-3.41L967.52 402c-1.05-.49-1.54-.15-1.46 1 .77 10.23-11.52 14.36-19.75 16.23-5 1.15-10 10.82-12.93 15.36-.69 1.05-.18 2.49 1.03 2.85 14.23 4.23 27.19 10.93 38.91 20.06 8.77 6.85 5.44 14.8 4.13 23.75-2.33 16.39-4.95 31.57-7.8 45.58-1 4.87.33 8.39 4 10.57 8 4.69 17.83 6.87 29.49 6.54 13.41-.38 25.34-.18 35.75.56 4.31.31 6.28 2.26 5.93 5.87-.59 2.62-2.13 3.97-4.64 4.05-23.85.85-53.55 1.26-89.13 1.23-72.1-.03-143.78-.36-215.03-1-3.23.67-5.26.36-6.1-.9-1.97-3-.62-7.05 2.74-8.26 2.23-.8 4.64-1.26 7.18-1.33 1.03-.03 1.9.28 2.64.97.54.49 1.1.59 1.74.33.59-.26 1.08-.64 1.44-1.15 2.31-3.36 4.59-6.64 7.77-9.26 11.95-9.72 22.75-19.9 32.37-30.55 1.15-1.26 2.59-2.21 4.23-2.72 11.31-3.51 22.42-6.69 33.32-9.54 13.62-3.54 25.88-9.72 38.5-16.11 1.1-.56 1.05-.72-.18-.49-3.16.64-6.49 1.28-10 1.97-14.95 2.87-28.73.18-41.37-8.1-7.75-5.08-6.23-15.52-3.82-23.06 5.46-17.03 14.21-29.96 26.19-38.81 15.11-11.16 43.73-20.78 57.4-3.05.72.95 1.41.92 2.08-.08 3.31-5.08 7.93-9.52 13.88-13.29 1.05-.67.97-1.08-.28-1.26-23.26-3.23-39.57-4.41-48.96-3.54-24.49 2.26-48.42 4.67-71.79 7.21-5.33.59-12.62-1.69-21.85-6.85-8.18-4.56-17.39-10.57-27.65-17.98-3.72-2.69-6.34-5.9-7.82-9.62-6.57-16.36-10-35.75-16.44-52.32-.31-.8-.18-1.49.41-2.1 8.28-8.44 16.39-16.93 24.31-25.44 14.88-15.98 32.91-31.65 54.07-47.01 34.52-25.06 71.48-50.45 106.72-76.61 9.59-7.13 18.93-13.03 31.37-16.03 49.91-12.06 85.33-25.49 138.94-46.22 1.05-.41 1.54-1.18 1.46-2.33-.36-4.33.13-12.46 5.16-14.52 22.55-9.29 44.22-18.62 65.02-28.03 3.49-1.59 7.41-2.97 11.29-2.97 9.95-.03 21.03.92 33.21 2.82 10.29 1.59 20.49 4.36 30.68 8.31 36.93 14.36 72.58 28.21 106.93 41.52 17.7 6.85 36.01 12.52 54.02 18.65 10.34 3.49 19.83 17.08 26.65 25.49 2.64 3.23 3.33 6.69 2.08 10.36-1.95 5.72-4.1 11.31-6.44 16.82-13.72 32.19-27.57 64.48-41.58 96.87-3.59 8.34-6.69 17.11-9.28 26.37-.28 1-.13 1.92.46 2.8 8.98 13.08 19.24 32.29 7.57 47.3-11.29 14.52-41.96 17.47-58.84 16.9-1.23-.05-1.9.54-1.97 1.8-.28 4.08-.13 8.44.44 13.06 1.26 10.34 8.08 20.44 19.72 14.26 3.92-2.08 8.03-1.67 11.95.15 2.13 1 2.95 2.64 2.44 4.92-1.26 5.64-8.59 7.54-13.39 9.52-11.69 4.9-21.31-2.74-29.47-9.98-1.69-1.51-4.39-.59-4.8 1.64-1.26 6.72-4.05 12.16-8.39 16.29-7.13 6.85-18.11 6-22.62 15.95-.44.92.03 2.03.97 2.36 13.41 4.92 26.06 10.34 37.96 16.23 4.9 2.44 9.62 5.33 14.16 8.67 4.05 2.95 5.62 6.64 5.03 11.41-2.44 20.03-5.1 39.32-7.98 57.86-1.85 12 11.95 18.29 21.62 19.11 12.8 1.08 25.57 1.69 38.34 1.87 1 .03 1.9.54 2.41 1.39.61 1.03.38 2.7-.69 4.98M1089.8 91.94c8.95 9 18.57 16.9 28.91 23.7.69.46 1.36.41 2-.18a539.987 539.987 0 0 1 31.65-27.31c5.85-4.64 12.31-10.77 19.39-18.34l12.98-9.54c1.03-.74.9-1.18-.36-1.31-13.93-1.26-30.96-3.77-43.14 1.82-16.82 7.75-35.81 15.47-56.94 23.14-1.82.67-2.08 3.1-.46 4.16l5.98 3.87m30.16 48.19c-13.67 26.7-27.37 52.96-41.09 78.84-1.1 2.08-1.54 3.9-1.33 5.49.28 2.03 1.05 3.87 2.33 5.49-.56 11.41-.9 22.36-1.03 32.83-.05 3.39 1.33 5.74 4.31 7.34 16.88 9.05 33.93 16.95 51.17 23.67 1.21.46 2.54.44 3.69-.08 6.98-3.1 12.06-7.41 15.26-12.98l10.21 8.62-15.42 9.31c-1.18.72-1.41 2.36-.46 3.39 5.41 5.87 10.39 12.21 16.34 17.62 8.69 7.9 17.49 15.95 26.39 24.16 10.59 9.8 18.29 15.42 23.03 16.85 6.05 1.82 11.93 3.95 17.62 6.41.59.9 1.23 1.33 1.97 1.33.95.03 1.39-.46 1.28-1.41-.08-.46-.23-.9-.49-1.31-.13-1.46.18-2.44.92-2.9 4.26-2.74 8.41-5.74 12.44-9.05.33-.26.69-.44 1.1-.54l3.85-.95c1.1-.28 1.39-.92.9-1.92-.97-2.05-2.1-4.08-3.39-6.08-9.41-14.82-17.26-30.32-23.52-46.5 11.85-16.34 26.78-30.8 44.76-43.4.95-.51 2.15-.51 3.62 0 4.82 1.74 4.98 9.62 1.49 12.75-9.72 8.82-19.31 16.95-28.73 24.37-3.13 2.49-5.59 5.49-7.39 9-.39.77-.44 1.67-.1 2.49 4.59 11.49 11.7 21.75 18.13 32.11 5.05 8.13 6.39 7.57 3.98-1.69a729.15 729.15 0 0 0-5-18.19c-4.54-15.75 5.77-24.57 17.62-33.29 9.98-7.34 26.72-8.13 38.32-6.21.61.1 1.18-.28 1.31-.9l8.36-42.94c4.85-11.36 9.8-21.57 22.19-18.08.85.23 1.28.8 1.31 1.69.05 1.72-.36 3.62-1.21 5.69-5.31 6.8-9.23 13.29-11.77 19.49-3.54 8.62-6.39 20.08-8.57 34.42-.08.49.1.97.44 1.33l11.31 11.9c.18.18.28.15.33-.1 2.74-14.8 7.59-29.6 14.57-44.37 6.69-14.13 13.75-30.49 21.19-49.09l19.44-45.14c-10.16-13.59-24.03-27.8-39.78-25.55-6.74.97-22.55 5.67-47.45 14.06-.9.28-2.77.31-5.67.05-1.33-.82-2.1-2-2.31-3.51-.18-1.41.51-2.21 2.03-2.41 1.44.18 2.36.2 2.74.05 11.72-4.67 24.06-9.1 37.01-13.29 1.15-.39 1.15-.8.05-1.28-6.59-2.9-13.46-4.8-20.08-7.41a5538.542 5538.542 0 0 0-99.54-38.4c-6.69-2.49-13.36-4.74-19.95-6.74a5.282 5.282 0 0 0-4.72.87c-2.87 2.23-5.54 4.46-7.98 6.72a2661.043 2661.043 0 0 1-58.35 52.14c-2.26 1.97-3.92 4.23-5 6.77-1.2 2.85-2.1 5.64-2.69 8.44m-213.01 54.25c5.46 1.69 10.98 3.39 16.59 5.05 5.31 1.59 10.98 2.46 16.95 2.59 14.39.33 28.32.36 42.55 2.95.39.54.41 1.23.03 2.08-2.49 1.26-5.23 1.85-8.26 1.82-13.46-.18-26.93-.28-40.4-.26-4.49 0-13.31-1.87-26.44-5.59-12.85-1.77-24.9-2.21-36.11-1.31-.97.08-1.33.59-1.1 1.54.2.87.92 1.9 2.18 3.05 4.13 14.95 8.59 29.88 13.34 44.76 3.59 11.26 3.33 31.06 9.98 47.99.13.64.15 1.31.08 2.05-.1.87-.54 1.51-1.31 1.95-2.41 1.36-4.03 1.33-4.85-.1-1.2-5.21-2.54-10.34-4.03-15.41-1.36-4.62-2.62-9.77-3.74-15.49-2.85-14.34-7.44-27.93-13.8-40.83l-12.21-30.73c-.26-.67-1.13-.9-1.69-.44-9.98 8.23-19.19 15.16-27.57 20.78-23.72 15.9-47.09 33.14-70.12 51.68-1.23 1-1.05 1.49.51 1.49h26.91c.74.87.08 1.77-2 2.72-9.34 1.72-18.72 3.31-28.16 4.77-4.74.74-8.26 2.49-10.52 5.28-6.46 8-11.8 13.77-16.03 17.34-1.9 1.62-1.97 3.8-.21 6.59l3.67 11.11c.77 10.13 2.31 25.21 9.23 32.91 6.77 7.52 17.39 13.85 26.57 19.93 8.77 5.8 13.9 7.93 22.52 7.08 19.24-1.9 38.47-3.8 57.71-5.67 23.6-2.28 46.91-.74 69.92 4.62 1.05.23 1.92-.05 2.64-.85l18.93-21.67a3.3 3.3 0 0 0 .41-3.77c-4.93-8.95-9.82-18.01-14.72-27.16a58.807 58.807 0 0 1-4.62-11.44c-.23-.82-.2-1.64.13-2.44 3.8-9.49 16.57-21.9 27.96-34.6l29.21-25.39c3.18 3.56 4.39 7.34 3.62 11.29-.54 2.74-1.9 4.98-4.03 6.69-15.75 12.62-31.44 25.31-42.81 41.14a5.375 5.375 0 0 0-.39 5.62l15.65 29.14c.67 1.23 1.23 1.2 1.72-.1 1.23-3.18 2.69-4.36 2.44-8.31-.61-9.41-.59-18.75.1-28.01.39-5.1 2.46-9.36 6.23-12.75 15.75-14.11 35.11-16.21 55.63-14.57 1 .08 1.54.59 1.67 1.59.23 2 1.36 3.36 3.39 4.05a2.1 2.1 0 0 1 1.41 2.26c-.15 1.13.33 1.8 1.49 1.97 1.82.28 2.1-.23.85-1.59-1.85-1.97-3.72-4.82-3.72-7.49-.03-15.65 2.69-37.7 16.18-44.65 6.74-3.49 24.21-9.21 26.85-15.67 5.05-12.34 10.64-23.8 16.77-34.37 6.69-11.57 13.13-23.6 19.31-36.09 1.51-1.8 2.67-3.9 3.44-6.33l6.18-11.64c.44-.85.33-1.59-.36-2.23-10.18-9.49-20.11-19.85-29.75-31.06a2.595 2.595 0 0 0-2.97-.69c-48.4 20.72-98.33 37.65-149.84 50.81-3.64.92-7.18 2.64-10.1 4.64-16.03 10.85-32.34 22.62-48.94 35.32-1.44 1.1-1.26 1.64.54 1.67l39.32.41m122.03 101.72c-.23-.1-.46-.18-.69-.2-.67-.08-.77.13-.31.61l1.41 1.51c1.05 1.13 1.87.97 2.46-.44 6.9-16.36 17.36-30.01 31.39-40.91.72-.54 1.15-1.26 1.31-2.16.9-4.9.95-9.57.2-14.06-.15-1-.69-1.31-1.64-.9-12.39 5.28-27.67 12.49-30.91 26.8-2.13 9.31-2.82 18.95-2.08 28.96a.791.791 0 0 1-1.15.77m241.48 29.62c2.59 6.85 7.21 12.49 13.85 16.9 5.69 3.77 12 5.8 18.93 6.13 19.72.87 44.27-.97 44.91-26.01.03-.69-.13-1.33-.41-1.95-.33-.69-.56-1.36-.72-1.95-6.87-27.34-29.16-35.32-54.79-32.37-10.23 1.21-17.88 7.03-22.9 17.49-1.72 3.56-2.21 6.64-1.51 9.29.95 3.51 1.82 7.67 2.64 12.46m-308.14-.82c10.82 31.83 32.32 42.14 64.45 30.96 5.57-1.95 9.98-5.16 13.29-9.59 2.36-3.16 3.31-6.85 2.87-11.05-.44-4.18-1.56-8.05-3.36-11.59-2.1-11.29-9.18-17.47-18.49-24.57-10.93-8.34-22.93-9.85-36.01-4.54-7.75 3.16-16.08 7.75-20.16 14.67-1.98 3.39-2.85 8.62-2.59 15.72m308.62 30.75c2.33 3.54 6.67 4.92 13 4.16 3.03-.39 4.23-1.85 3.59-4.44-.28-1.18-1.13-2.16-2.23-2.64-4.39-1.92-8.57-5.26-12.54-9.98-6.18 2.57-6.8 6.87-1.82 12.9m-314.5 9.67c.8 8.75 4.74 16.13 11.8 22.19 2.64 2.26 6.69 1.36 8.13-1.8 3.03-6.62 7.64-16.82 5.28-23.7-1.2-3.59-4.33-4.92-9.34-3.97-.31-1.31-1.85-2.8-4.59-4.44-5.51-3.28-10.18-2.54-14 2.23-.44.51-.33 1.28.18 1.72 2.95 2.38 3.8 4.97 2.54 7.77m290.54 26.88c3.97 2.39 9.05 1.56 15.21-2.51.39-.26.77-.36 1.1-.33.23.03.46.1.67.23.8.49.97 1.13.59 1.95l-3.74 8c-.18.36-.44.69-.74.95-4.13 3.26-7.16 7.28-9.1 12.08-.87 2.13-.26 2.74 1.87 1.9 1.92-.8 3.49-2.13 4.69-4.03a3.12 3.12 0 0 1 2.16-1.49c5.9-1.23 12.88-1.23 13.13-9.31.2-6.05.39-12.62-2.77-18.06-4-6.85-7.59-13.77-10.77-20.78-.46-1.03-1.49-1.85-2.33-2.54-.05-.59-.18-1.05-.36-1.39-.44-.74-.95-.8-1.51-.15-4.51 5.1-9.23 10.1-14.16 15-5.54 5.49 3.08 16.75 6.08 20.47m40.81-28.39-5.95 6.18c-.1.13-.1.31.03.44l.03.03c1.74 1.69 4.56 1.62 6.28-.18l.15-.13c1.72-1.8 1.69-4.62-.08-6.31l-.03-.03c-.13-.13-.33-.13-.44 0m-354.17 25.75c1.18 5.41 3.49 8.44 6.95 9.1a4.62 4.62 0 0 0 4.92-2.28c1.46-2.64 3.59-2.21 4.95-4.54 2.92-5.05 2.92-9.26 0-12.59a17.302 17.302 0 0 1-2.67-4.08 181.4 181.4 0 0 1-2.08-4.54c-.23-1.8-.67-3.1-1.26-3.95-.56-.8-1.23-.87-1.97-.23-5.62 4.92-10.03 10.1-13.23 15.57-.56.95-.54 1.87.05 2.77 1.23 1.9 2.67 3.49 4.33 4.77m349.4-8.15c.75-.62-.64-3.47-3.08-6.34-2.45-2.88-5.04-4.67-5.78-4.04-.75.62.64 3.47 3.08 6.34 2.45 2.88 5.04 4.67 5.78 4.04m-66.91 26.95c3.26.1 4.62.41 4.08.92 2.44 1.95 5 3.64 7.72 5.05 2.69 1.41 4.54 2.9 5.59 4.51 1.28 2.03 2.1 4.41 2.46 7.1.46 3.62 1.46 3.77 3 .46 3.16-6.74 5.26-13.34 6.31-19.78.28-1.59.1-3.1-.49-4.56-.9-2.21-2.08-3.36-3.56-3.46l-8.41-11.41c-.59-.82-1.33-.95-2.18-.41-6.67 4.31-15.39 9.29-16.85 17.57-.15.85 0 1.64.44 2.39.69 1.18 1.33 1.72 1.9 1.62m-315.27 6.39c1.77 7.21 6.21 10.72 13.31 10.59.8-.03 1.56-.36 2.1-.97 4.18-4.72 9.16-6.77 14.98-6.13 3.33.39 4.98-.74 4.9-3.36-1.41-9.36-6.54-16.21-15.34-20.59-1.82-.9-3.69-.97-5.59-.18-7.72 3.28-17.34 11.16-14.36 20.65m-85.59 30.24c9.54-21.26 30.21-36.32 53.6-38.01 4.56-.33 9.75 1.33 14.39 1.72 1.36.13 1.49-.23.41-1.08-2.74-2.08-5.72-3.28-8.87-3.67-26.6-3.08-51.63 15.16-60.71 40.27-.08.28 0 .46.26.56l.69.31c.1.05.18.03.23-.1m322.73.41c8.26-16.93 21.06-28.24 38.4-33.91 8.36-2.74 17.95-2.49 26.78-2.74 2.59-.08 2.62-.46.13-1.15-15.52-4.39-29.98-3.18-42.94 6.39-9.67 7.13-21.39 19.62-23.49 31.03-.54 2.9-.18 3.03 1.13.39m-208.38-9.05c-.14-.83-1.55-1.29-3.15-1.01-1.58.28-2.76 1.18-2.61 2.02.14.83 1.55 1.29 3.15 1.01 1.58-.28 2.76-1.18 2.61-2.02m353.19 22.23c-14.08-6.08-27.83-12.18-41.27-18.29-4.92-2.26-18.57-1.49-17.7 6.64a665.19 665.19 0 0 1 3.23 48.06c.08 2.23-.77 4.41-2.36 6-11.16 11.21-22.47 21.85-33.91 31.88-2.95 2.59-4.82 5.49-5.64 8.69-.28 1.05.13 1.59 1.23 1.62l101.8.67c1.85.03 2.26-.74 1.21-2.26-1-1.44-1.59-3.69-1.62-5.41-.26-24.24 3.64-45.27 7.8-67.28.44-2.21-.64-4.41-2.62-5.46-3.26-1.72-6.64-3.36-10.16-4.87m-383.77 39.4c-.26 1.08-.82 2.08-1.67 2.82-13.85 12.46-27.62 24.11-41.29 34.91-1.97 1.56-2.92 3.51-2.9 5.85.03 1.15.64 1.74 1.8 1.74l102.44.44c.97 0 1.62-1 1.23-1.9-1.08-2.41-1.28-4.85-1.08-7.46 1.46-18.95 4.64-39.32 9.54-61.09.82-3.67-.49-6.31-3.95-7.9-8.77-4.03-17.83-8.21-27.19-12.54-10.88-5.03-16.36-10.98-30.6-9.08-1.69.23-2.62 1.18-2.77 2.9-1.08 13.39-1.85 27.37-2.28 41.94-.1 3.15-.54 6.28-1.28 9.39m312.03-40.32c-19.59 30.91-50.5 45.35-86.05 53.5-1.9.44-3.44 1.49-4.59 3.16-6.85 9.8-14.34 17.13-22.47 22.03-3 1.82-5.9 3.67-8.75 5.54-1.46.95-1.31 1.41.41 1.44l83.28.23c1 .03 1.54-.46 1.62-1.46.18-1.87.31-3.8.41-5.77.33-6.18 4.85-11.06 9.23-14.93 9.52-8.39 19.34-16.93 29.44-25.62 1.08-.95 1.51-2.1 1.33-3.51-1.46-10.93-2.21-22.29-2.18-34.11 0-2.08-.56-2.26-1.69-.49m-324.63 5.87c-16.9 27.03-56.45 42.14-87.18 47.09-1.82.31-4.67 1.62-5.69 3.18-8.64 13-18.21 19.36-30.8 27.11-3.21 1.97-2.92 2.9.85 2.77 24.44-.69 49.89-.64 76.38.1.95.03 1.46-.41 1.59-1.36.9-7.1 3.18-12.41 6.85-15.93 10.05-9.62 22.42-19.72 37.06-30.34a5.347 5.347 0 0 0 2.23-4.56c-.23-8.41.15-17.47 1.2-27.19.41-3.88-.41-4.18-2.49-.87z" style="fill:#2a3b77;stroke-width:0"/><path d="M1762.87 69.37c-8.13 8.82-13.44 19.59-15.95 32.32-.26 1.31-.28 3.41-.05 6.36.08.9-.08 1.77-.46 2.62l-25.14 53.76c-.36.77-.92 1-1.72.67-14.8-6.26-29.16-11.67-43.06-16.21-2.64-.87-5.41-1.51-8.34-1.9-.8-.13-1.31.2-1.59.97-.18.51-.13 1 .18 1.46.23.33.51.56.9.69 18.29 6.03 35.7 13.16 52.24 21.39 2.31 1.15 2.8 2.82 1.46 5l-5.33 8.8a249.074 249.074 0 0 1-53.86 29.24c-16.88 6.59-33.65 12.41-49.94 19.75-16.93 7.62-33.85 15-50.81 22.16-18.8 7.93-34.42 14.9-46.86 20.88-35.83 17.26-71.33 35.19-106.44 53.83-8.82 4.69-16.98 10.26-25.44 15.72l-.26-9.82c-.05-1.74.56-3.44 1.72-4.72 6.69-7.46 12.46-15.42 17.31-23.88 15.47-27.11 30.39-50.55 44.78-70.38 5.85-8.03 14.54-15.34 23.03-20.54 23.03-14.21 48.81-26.91 77.35-38.11 4.56-1.8 8.59-3.9 12.08-6.28 5.1-3.49 4.64-4.54-1.39-3.18-1.95.46-4.1.8-6.49 1-.64.08-1.23-.08-1.72-.46-.77-.59-.72-1.1.15-1.54 8.8-4.26 17.62-7.08 26.31-11.26a522.525 522.525 0 0 0 70.05-40.63c6.08-4.18 11.13-8.57 15.16-13.16 11.36-12.95 21.88-23.39 37.86-32.96 12.39-7.41 25.49-14.98 39.32-22.72 10.1-5.67 19.19 2.56 27.57 7.57 1.23.72 1.74 2.23 1.23 3.56l-3.87 10z" style="fill:#d3e3f4;stroke-width:0"/><path d="M1762.69 83.96c-.72-.13-.97-.69-.77-1.64l30.75-32.83c.08-.1.2-.13.33-.05 2.85 1.56 5.05 3.64 6.62 6.26.08.15.05.28-.08.39l-36.85 27.88zM1171.68 69.81c-11.95-.51-23.44 1.87-34.44 7.13-5.31 2.54-9.39 4.33-12.29 5.33-8.28 2.9-14.44 5.98-23.83 7.05-3.8.44-7.59 1.31-11.39 2.62l-5.98-3.87c-1.62-1.05-1.36-3.49.46-4.16 21.13-7.67 40.11-15.39 56.94-23.14 12.18-5.59 29.21-3.08 43.14-1.82 1.26.13 1.39.56.36 1.31l-12.98 9.54z" style="fill:#f9f9f1;stroke-width:0"/><path d="m547.45 59.55 34.6 10.46c2.64.8 4.74 2.8 5.69 5.39 2.49 6.9 5.23 13.03 8.23 18.39 6.08 10.82 17.44 19.59 25.67 29.75 7.05 8.72 13.8 17.65 22.26 25.08 4.57 4 13.65 10.8 15.44 16.39.41 1.28.1 1.49-.92.59-9.1-7.77-19.16-14.16-27.24-22.85a491.896 491.896 0 0 0-36.75-35.47c-6.85-5.95-10.36-15.42-13.72-23.21-1.77-4.08-5.51-6.93-11.23-8.54a213.987 213.987 0 0 1-36.16-13.67c1.74-2.87 3.33-4.18 4.8-3.95 3.23.51 6.34 1.05 9.34 1.64z" style="fill:#130d14;stroke-width:0"/><path d="m1867.18 119.08-11.39 4.59c-6.28-2.49-12.31-5.16-17.49-9.54-9.36-7.95-18.9-15.85-29.14-22.62-4.82-3.18-9.28-6.59-13.36-10.21a2.42 2.42 0 0 0-2.67-.36c-1.26.59-2.33 1.54-3.18 2.82a6.83 6.83 0 0 1-1.9 1.85c-6.54 4.23-13.23 8.54-20.03 12.93-6.16 3.97-9.21 9.18-11.08 16.11a1.755 1.755 0 0 1-2.64 1.03c-.28-.18-.39-1.28-.31-3.31 1.92-5.64 1.49-12.34 6.62-16.62 7.05-5.87 13.95-11 20.75-15.44 7.85-5.13 14.36-10.8 21.8-16.34 1.15-.87 2.72-.97 4-.28 3.8 2.05 8 4.46 11.28 7.39 15.49 13.88 32.11 27.52 49.86 40.91.59.44.98 1.13 1 1.87.08 1.98-.64 3.72-2.13 5.23zM1298.41 132.26c-.82-1.28-1.69-2.67-3.05-3.44-10.16-5.67-19.57-12.39-29.73-17.44-22.6-11.26-45.5-22.78-68.69-34.55a3.697 3.697 0 0 0-4.28.69c-22.7 23.06-46.96 43.94-72.76 62.61.59-2.8 1.49-5.59 2.69-8.44 1.08-2.54 2.74-4.8 5-6.77 19.78-17.16 39.24-34.55 58.35-52.14 2.44-2.26 5.1-4.49 7.98-6.72a5.252 5.252 0 0 1 4.72-.87c6.59 2 13.26 4.26 19.95 6.74 32.68 12.23 65.86 25.03 99.54 38.4 6.62 2.62 13.49 4.51 20.08 7.41 1.1.49 1.1.9-.05 1.28-12.95 4.18-25.29 8.62-37.01 13.29-.38.15-1.31.13-2.74-.05z" style="fill:#f9f9f1;stroke-width:0"/><path d="M1171.68 69.81c-7.08 7.57-13.54 13.7-19.39 18.34a543.8 543.8 0 0 0-31.65 27.31c-.64.59-1.31.64-2 .18-10.34-6.8-19.95-14.7-28.91-23.7 3.8-1.31 7.59-2.18 11.39-2.62 9.39-1.08 15.54-4.16 23.83-7.05 2.9-1 6.98-2.8 12.29-5.33 11-5.26 22.49-7.64 34.45-7.13zM1298.41 132.26c-1.51.2-2.21 1-2.03 2.41.2 1.51.97 2.69 2.31 3.51-.59.49-.69 1.08-.31 1.74.28.49.67.8 1.21.97 3.1.97 6.28 1.46 9.54 1.46 7.67-.03 15.03.26 22.13.85 20.19 1.67 40.29 3.8 60.32 6.41l-19.44 45.14c-1.59.59-2.54.44-2.85-.46-.36-1.08-1.92-1.05-2.23.05-2.21 7.82-10.21 13.21-15.98 18.26-.64.56-1.03 1.26-1.15 2.1-.92 5.74-2.69 7.9-5.28 6.46.85-2.08 1.26-3.97 1.21-5.69-.03-.9-.46-1.46-1.31-1.69-12.39-3.49-17.34 6.72-22.19 18.08-19.57 8.49-39.73 11.85-60.53 10.08-25.78-13.65-48.58-25.7-74.02-33.29-.95-.28-1.97.2-2.36 1.1l-.28.64c-.23.54.03 1.18.59 1.41a755.789 755.789 0 0 1 62.51 27.39c4.33 2.15 8.87 3.39 13.57 3.69 2.9 1.1 5.98 1.92 9.18 2.49 1.56.28 2.62 1.08 3.1 2.39.28.72.05 1.51-.56 1.95-1.51 1.1-2.44 2.67-2.8 4.64-17.98 12.59-32.91 27.06-44.76 43.4-4.64 3.16-10.1 5.44-16.42 6.82-18.72 4.08-31.83-5.16-46.17-15.23l-10.21-8.62-73.41-50.78a11.174 11.174 0 0 1-2.33-5.49c-.2-1.59.23-3.41 1.33-5.49 13.72-25.88 27.42-52.14 41.09-78.84 25.8-18.67 50.06-39.55 72.76-62.61a3.7 3.7 0 0 1 4.28-.69c23.19 11.77 46.09 23.29 68.69 34.55 10.16 5.05 19.57 11.77 29.73 17.44 1.36.77 2.23 2.16 3.05 3.44m60.09 47.83c-15.88 3.05-31.88 6.8-47.99 11.23-1.95.54-2.97 1.82-3.05 3.82-.03.8.54 1.49 1.33 1.59 5.62.77 10.98.44 16.03-.97 13.8-3.85 26.8-8.1 39.01-12.75 4.62-1.74 4.49-2.95-.41-3.62-.49-.08-2.13.15-4.92.69zM1855.79 123.67l-60.12 31.85c-15.85 3.87-31.55 7.44-47.06 10.75-4.62 1-9.21 1.46-13.75 1.44-2.36 0-3.8-2.59-2.56-4.62 9.57-15.65 16.8-32.55 21.7-50.73-.08 2.03.03 3.13.31 3.31 1 .64 2.33.13 2.64-1.03 1.87-6.93 4.93-12.13 11.08-16.11 6.8-4.39 13.49-8.69 20.03-12.93.74-.49 1.39-1.1 1.9-1.85.85-1.28 1.92-2.23 3.18-2.82.87-.44 1.95-.28 2.67.36 4.08 3.62 8.54 7.03 13.36 10.21 10.23 6.77 19.77 14.67 29.14 22.62 5.18 4.39 11.21 7.05 17.49 9.54z" style="fill:#d3e3f4;stroke-width:0"/><path d="M1761.92 82.32c-.2.95.05 1.51.77 1.64l-4.93 7.03c-.46.67-1.28.97-2.08.77l-1.05-.26c-.59-.15-.72-.49-.41-1 1.95-3.13 4.52-5.85 7.7-8.18z" style="fill:#472835;stroke-width:0"/><path d="M315.18 553.38c-15.54 2.77-31.14 1.72-45.71 1.74-78.69.13-157.3.18-235.81.15l-29.8-.95c-1.62-.05-2.9-1.33-2.98-2.95l-.18-3.23c-.08-1.69.74-2.62 2.44-2.77l22.44-1.92c1-.08 1.8.26 2.44 1l2.64 3.21c.44.54 1.31.18 1.26-.51-.31-4.05 1.23-8.16 4.28-10.9 12.98-11.69 24.65-23.49 34.98-35.37 1.69-1.95 3.87-3.23 6.52-3.87 14.88-3.49 32.75-5.93 46.01-9.75a247.93 247.93 0 0 0 27.21-9.49c.77-.33.74-.46-.1-.44-3.74.1-7.59.33-11.54.67-12.75 1.1-24.24-2.15-34.47-9.72-8.03-5.95-3.85-20.31-1.15-28.24 9.08-26.75 27.11-41.7 54.12-44.81 9.08-1.05 17.36.77 24.85 5.41.9.56 1.59.36 2.05-.59 2.03-4.33 5.21-8.03 9.54-11.08.49-.36.64-.82.44-1.39-.13-.31-.31-.49-.59-.54-.23-.03-.46 0-.69.08-3.36 1.15-6 1.56-7.95 1.18-8.18-1.62-16.34-2.03-24.42-1.23-12.44 1.18-25.08 2.16-37.52 4.08-16.7 2.59-33.21 4.92-49.55 7.03-.87.13-1.69-.03-2.46-.41a26.925 26.925 0 0 1-6.57-4.64c-14.54-13.98-29.8-29.98-45.73-48.04a4.12 4.12 0 0 1-.77-4.23c3.51-9.08 7.67-18.47 12.52-28.19 4.23-8.52 1.18-14.72-1.54-23.16-7.77-24.11-17.03-43.53-28.29-64.89a9.568 9.568 0 0 1-.21-8.46c2.74-5.93 5.54-11.21 8.44-15.9 21.11-34.14 41.11-65.94 59.99-95.44 1-1.56 2.41-2.33 4.26-2.31 8.21.1 16.08-.67 24.37.44 8.62 1.15 17.24.18 26.01 1.31 4.95.64 10.03 1 15.23 1.08 8.59.1 17.39 1.51 25.9 2.97 17.01 2.95 28.8-3.62 44.71-6.18 15.93-2.59 29.62-4.16 41.14-4.74 5.62-.28 8.8 3.95 12.34 7.98 15 17.16 29.32 34.83 42.91 53.02 5.77 7.72 11.41 16.21 16.95 25.44 5.46 9.1 10.93 17.9 16.44 26.39.59.9 1.33 1.1 2.26.56l2.54-1.44c.92-.51 1.85-.51 2.74.03 1.62.92 2.26 2.44 1.87 4.56-.46 2.51-1.08 4.98-1.87 7.39-3.05 9.34 6.67 18.49 3.03 26.93-7.28 16.72-15.39 33.86-24.29 51.4-.39.8-.31 1.51.26 2.21 8.44 9.85 12.54 21.08 12.31 33.68-.36 21.39-40.73 30.06-54.32 29.39-3.33-.15-6.59-.33-9.77-.54-1.05-.08-1.67.41-1.85 1.46l-3.33 21.44c-.18 1.15.31 2.33 1.26 3l22.39 15.93c.64.46 1.31.51 2.03.18 3.74-1.85 8.26-2.9 11.98-4.82 12.95-6.69 26.19-12.46 39.76-17.31 3.44-1.23 5.95-.2 7.57 3.08.28.56.46 1.18.51 1.82.28 2.95-.97 5-3.72 6.1-10.72 4.28-21.7 9.08-32.93 14.36-8.26 3.87-17.11 6.36-25.7 9.52-2.15.77-4.54.39-6.34-1.05-8.75-7.03-18.36-13.7-28.91-20.01-.85-.51-1.95 0-2.08 1-2.21 16.18-26.16 16.7-31.42 30.62-.28.69-.08 1.18.61 1.49 20.13 9 35.45 19.21 45.99 30.62 2.39 2.59 2.97 5.59 1.72 9.05-9.21 25.52-22.57 45.5-33.21 68.97-.64 1.41.36 3 1.9 3.05l76.66 2.21c.77.03 1.46.49 1.77 1.2 1.36 3.31.1 5.67-3.79 7.08M25.31 240.47c2.69 4.03 5.95 8.1 9.8 12.18 7.77 8.23 16.42 17.06 25.93 26.44 1.92 1.9 2.21 4.03.85 6.36l-29.42 50.53c.56 3.05 1.54 5.33 2.92 6.85 9.88 10.85 20.47 22.42 31.83 34.75 3.8 4.13 7.26 8.95 13.39 8.05 20.34-3 40.68-6.1 61.07-9.31 18.18-2.87 33.52-2.44 50.78.97 3.1.62 6.18 1.77 9.18 3.49.36.2.69.15.98-.15l.62-.62c.23-.23.18-.67-.13-.82-6.87-3.46-14.18-4.59-20.85-8.67-4.23-2.56-8.03-5.33-11.41-8.33a487.182 487.182 0 0 0-22.75-18.75c-.23-.18-.2-.56.05-.72l10.08-6.08c.51-.33.98-.26 1.36.2 12.18 13.54 27.26 24.93 45.19 34.19 1.33.69 2.98.51 4.1-.49l15.83-13.65a3.255 3.255 0 0 0 .67-4.1l-17.95-29.98a8.002 8.002 0 0 1 .39-8.8l18.34-25.21c8.9-8.36 18.67-17.49 29.26-27.42 2.31-2.18 6.05-5.16 9.54-4.67 2.33.33 3.85 1.39 4.49 3.21 1.77 4.39 1.31 7.57-1.44 9.54-18.75 13.41-33.93 29.16-45.55 47.24-1.67 2.59-1.74 5.13-.23 7.62 4.85 8.03 9.77 16.18 14.8 24.47.36.59.9.97 1.59 1.15 1 .23 1.85-.08 2.54-.92.54-.69.77-1.46.64-2.31-.56-3.92-1.39-7.77-2.46-11.49-1.62-5.59-2.36-11.39-2.23-17.36.1-4.56 1.54-8.82 4.28-12.75 6.52-9.23 12.9-17.08 23.83-20.8 10.34-3.51 20.36-5.26 30.57-.72 1.18.54 2.57-.18 2.82-1.44 4.05-18.95 11.62-35.96 22.72-50.99 1.21-1.67 2.05-3.56 2.49-5.69 5.77-3 6.72-7.52 2.82-13.54-12.41-19.19-24.65-39.24-38.32-56.66-11.39-14.49-23.39-28.88-36.01-43.19-1.67-1.87-3.77-2.69-6.26-2.46-15.03 1.41-30.5 3.54-46.4 6.44-4.64.85-8.92 3.18-12.8 6.95-.72.69-1.72 1.05-2.72.97-7.13-.64-13.72-3.13-20.93-3.95-8.62-1-17.44-2.03-26.47-3.1-20.03-2.39-39.81-3.1-59.35-2.21-.87.03-1.49.44-1.87 1.23a84.657 84.657 0 0 1-3.95 7.39c-19.24 31.96-38.29 62.61-57.14 91.97a8.26 8.26 0 0 0 .1 9.13l10.8 16.01m281.69 49.86 9.36 3.77c.54.2 1.13-.03 1.33-.56l2.05-5.05c11.88-29.39 19.34-54.09 16.67-55.17l-1.62-.64c-2.67-1.08-14.47 21.88-26.34 51.27l-2.03 5.03c-.21.54.03 1.13.56 1.36m-58.5 28.85c-.08 8.75 1.49 15.36 4.69 19.85 2.15 3 4.21 6 6.13 9.03 2.13 3.31 5.9 5.57 11.26 6.72 9.95 2.13 20.36 3.77 30.21-.03.64-.23 1.13-.67 1.46-1.26 1.87-3.21 4.21-5.67 6.98-7.39 6.59-4.03 19.29-16.26 16.47-25.08.21-3.64-.69-6.8-2.67-9.49-13.18-17.88-36.65-26.49-57.17-16.52-10.52 5.1-16.31 13.16-17.36 24.16m-9.59 41.47c-1.26 3.13-.95 6.82.92 11.05 3.33 7.52 9.46 21.08 19.29 16.65.9-.39 1.44-1.08 1.67-2.03 2.31-9.95 1.95-19.01-1.05-27.19-3.72-3.72-7.13-6.23-10.26-7.59-.74-.33-1.62-.26-2.28.18-3.36 2.13-6.1 5.1-8.28 8.93m-18.6 27.57c2.13 3.33 4.9 6.9 8.28 10.72 2.33 2.64 3.46 5.49 3.36 8.57-.08 1.67 1.44 2.95 3.08 2.64 1.41-.28 2.26-1.15 2.49-2.62.23-1.36-.15-2.56-1.15-3.56-2.49-2.46-6.23-4.69-7.13-8.26-.26-.95.1-1.44 1.1-1.41 2.59.03 5.18.41 7.72 1.1 1.49.41 2.44 1.36 2.87 2.82.49 1.62 1.26 1.8 2.36.49.44-.54.56-1.13.41-1.82a3.36 3.36 0 0 0-.87-1.59c-8.28-8.62-9.72-15.26-13.46-24.78l-.56-3.39c-.18-1-.69-1.23-1.54-.67-3.9 2.54-7.28 5.69-10.13 9.46-3 3.97-1.95 8.05 3.18 12.28m-29.16 20.8c5.46 3.74 10.59 7.77 15.34 12.08 2.72 2.49 3.18 5.23 4.49 8.44.46 1.1 1.95 1.28 2.64.28 4.49-6.49 6.62-13.23 6.39-20.19-.08-7.98-3.49-13.8-10.29-17.47-7.72-4.16-17.24 4.8-20.93 10.36-1.92 2.9-1.13 5.08 2.36 6.49m-80.61 33.27c.23.13.41.08.54-.15 2.46-4.44 4.87-8.31 7.23-11.59 9.03-12.65 22.62-20.44 40.81-23.39 5.64-.92 12 1.05 17.72 1.62 3.15.33 3.31-.18.41-1.51-10.05-4.64-20.29-5.08-30.7-1.26-17.39 6.33-29.47 18.26-36.21 35.78-.1.23-.03.41.2.51m122.88 80.97a4074.51 4074.51 0 0 1 27.08-52.76c.62-1.15.21-2.59-.92-3.26l-48.4-28.85c-1.05-.62-2.13-.74-3.28-.41-4.15 1.28-12.67 2.51-12.8 8.08-.39 16.54-.72 32.14-.95 46.81-.05 3.8-1.85 7.03-5.39 9.69-15.52 11.72-30.11 22.52-43.81 32.42-2.23 1.62-3.67 3.49-4.28 5.64-.49 1.62.13 2.44 1.82 2.46l81.66 1c.77 0 1.26-.36 1.49-1.1 2.08-7 4.67-13.59 7.77-19.72m-106.05 21.34c.54.2 1.13-.1 1.26-.67 1.33-5.98 2.8-14.67 7.95-18.62A663.145 663.145 0 0 1 179.72 495c.92-.56 1.46-1.56 1.49-2.64l.87-33.65c.05-2.08-.44-2.23-1.46-.41-6.82 11.98-15.44 21.16-25.83 27.57-21.29 13.16-48.09 17.42-73.12 22.08-1.49.28-2.59 1.08-3.33 2.39-7.36 12.85-19.39 22.13-31.11 31.21-1.8 1.39-1.56 2.05.72 2.03 25.16-.39 50.35-.31 75.61.23 1.31.03 2.59.28 3.82.74z" style="fill:#2a3b77;stroke-width:0"/><path d="M1102.81 147.16c-.49.74-1.05 1.08-1.72.97-.8-.13-1.15-1.08-.64-1.72 2.21-2.77 1.67-5.39-1-7.72-8.1-7.08-14.65-17.93-20.83-26.7-.85-1.18-2.41-1.54-3.67-.85-15.67 8.54-30.98 16.06-47.86 22.06-31.37 11.13-59.63 22.42-84.82 33.88-13.93 6.33-27.7 13.65-41.32 21.98-2.41 1.46-2.21 2.28.61 2.41 3 .15 4.77 1.13 5.31 2.9l-39.32-.41c-1.8-.03-1.97-.56-.54-1.67 16.59-12.7 32.91-24.47 48.94-35.32 2.92-2 6.46-3.72 10.1-4.64 51.5-13.16 101.44-30.08 149.84-50.81 1.03-.44 2.23-.15 2.97.69 9.64 11.21 19.57 21.57 29.75 31.06.69.64.8 1.39.36 2.23l-6.18 11.64zM323.8 225.49l-3.21-.13c.54-1.08.59-1.9.1-2.46-15.57-18.9-29.96-38.11-43.22-57.66-9.41-13.88-19.95-26.57-29.34-40.14-2.64-3.8-6.23-4.8-10.75-2.97-23.06 9.31-43.01 18.01-59.84 26.06-3.13 1.49-6.98 1.87-10.23.85-15.77-5-33.86-11.05-54.27-18.16-5.92-2.08-12.29-3.31-19.03-3.74-4-.26-7.57 2.13-9.62 5.33-11.98 18.9-24.44 38.47-37.37 58.71-6.64 10.44-13.31 21.85-19.95 34.24-2.15 4-2.74 9.03-1.77 15.06l-10.8-16a8.26 8.26 0 0 1-.1-9.13c18.85-29.37 37.91-60.02 57.14-91.97 1.41-2.33 2.72-4.8 3.95-7.39.39-.8 1-1.2 1.87-1.23 19.54-.9 39.32-.18 59.35 2.21 9.03 1.08 17.85 2.1 26.47 3.1 7.21.82 13.8 3.31 20.93 3.95 1 .08 2-.28 2.72-.97 3.87-3.77 8.16-6.1 12.8-6.95 15.9-2.9 31.37-5.03 46.4-6.44 2.49-.23 4.59.59 6.26 2.46 12.62 14.31 24.62 28.7 36.01 43.19 13.67 17.42 25.91 37.47 38.32 56.66 3.9 6.03 2.95 10.54-2.82 13.54z" style="fill:#f9f9f1;stroke-width:0"/><path d="M1102.81 147.16c-.77 2.44-1.92 4.54-3.44 6.33-18.49 12.65-41.42 24.65-68.79 36.06-18.7 7.8-31.32 12.62-37.88 14.49-1.46.41-4.69.72-9.72.92-14.23-2.59-28.16-2.62-42.55-2.95-5.98-.13-11.64-1-16.95-2.59-5.62-1.67-11.13-3.36-16.59-5.05-.54-1.77-2.31-2.74-5.31-2.9-2.82-.13-3.03-.95-.61-2.41 13.62-8.34 27.39-15.65 41.32-21.98 25.19-11.46 53.45-22.75 84.82-33.88 16.88-6 32.19-13.52 47.86-22.06 1.26-.69 2.82-.33 3.67.85 6.18 8.77 12.72 19.62 20.83 26.7 2.67 2.33 3.21 4.95 1 7.72-.51.64-.15 1.59.64 1.72.67.1 1.23-.23 1.72-.97z" style="fill:#d3e3f4;stroke-width:0"/><path d="M1867.18 119.08c.74 3.41.72 6.39-.08 8.87-4.92 15.9-9.64 31.88-14.13 47.94-.85 3.1-2.77 5.62-5.77 7.57-13.31 8.75-27.75 15.31-40.88 24.11a6484.143 6484.143 0 0 1-58.35 38.68c-7.9 5.18-16.06 9.8-24.49 13.88-14.75 7.16-31.19 14.75-43.73 25.11-1.36 1.1-1.74.85-1.2-.82 4.49-13.77 8.46-28.19 11.98-43.29.64-2.82 4.05-7.23 6.39-9.57 10.39-10.44 18.57-22.47 24.55-36.11 1.51-3.46 3.95-4.72 7.31-3.72 9.72 2.9 19.59 3.74 29.65 2.54 11.13-1.33 21.11-7.8 31.14-12.77.56-.28.87-.9.74-1.51l-.18-.87c-.13-.67-.8-1.05-1.44-.85-16.95 5.74-33.55 11.7-51.5 8.28-1.33-.26-2.41-.85-3.26-1.77-1.33-1.44-.8-3.77 1.03-4.49 14.95-5.8 29.7-10.93 44.24-15.41 7.41-2.28 12.93-5.41 16.49-9.34l60.12-31.85 11.39-4.59z" style="fill:#a3bbe8;stroke-width:0"/><path d="M320.6 225.36c.23.61.05 1.08-.51 1.39-17.34 9-34.22 20.06-50.65 33.19-.64-1.82-2.15-2.87-4.49-3.21-3.49-.49-7.23 2.49-9.54 4.67-10.59 9.93-20.36 19.06-29.26 27.42-21.42 9.95-41.81 19.36-61.22 28.26-19.57 8.95-44.45 16.75-74.66 23.39-8.11 1.8-14-1.67-21.7-2.62-12.39-1.54-24.42-2.15-36.09-1.87l29.42-50.53c1.36-2.33 1.08-4.46-.85-6.36-9.52-9.39-18.16-18.21-25.93-26.44-3.85-4.08-7.11-8.16-9.8-12.18-.98-6.03-.39-11.05 1.77-15.06 6.64-12.39 13.31-23.8 19.95-34.24 12.93-20.24 25.39-39.81 37.37-58.71 2.05-3.21 5.62-5.59 9.62-5.33 6.74.44 13.11 1.67 19.03 3.74 20.42 7.1 38.5 13.16 54.27 18.16 3.26 1.03 7.1.64 10.23-.85 16.83-8.05 36.78-16.75 59.84-26.06 4.51-1.82 8.11-.82 10.75 2.97 9.39 13.57 19.93 26.26 29.34 40.14 13.26 19.54 27.65 38.75 43.22 57.66.49.56.43 1.38-.1 2.46z" style="fill:#d3e3f4;stroke-width:0"/><path d="M1391.59 149.62c-20.03-2.62-40.14-4.74-60.32-6.41-7.1-.59-14.47-.87-22.13-.85-3.26 0-6.44-.49-9.54-1.46-.54-.18-.92-.49-1.21-.97-.39-.67-.28-1.26.31-1.74 2.9.26 4.77.23 5.67-.05 24.9-8.39 40.7-13.08 47.45-14.06 15.75-2.26 29.62 11.95 39.78 25.54z" style="fill:#f9f9f1;stroke-width:0"/><path d="M1099.38 153.5a632.044 632.044 0 0 1-19.31 36.09c-6.13 10.57-11.72 22.03-16.77 34.37-2.64 6.46-20.11 12.18-26.85 15.67-13.49 6.95-16.21 29.01-16.18 44.65 0 2.67 1.87 5.51 3.72 7.49 1.26 1.36.97 1.87-.85 1.59-1.15-.18-1.64-.85-1.49-1.97.13-1-.46-1.92-1.41-2.26-2.03-.69-3.16-2.05-3.39-4.05-.13-1-.67-1.51-1.67-1.59-20.52-1.64-39.88.46-55.63 14.57-3.77 3.39-5.85 7.64-6.23 12.75-.69 9.26-.72 18.59-.1 28.01.26 3.95-1.2 5.13-2.44 8.31-.49 1.31-1.05 1.33-1.72.1l-15.65-29.14c-.95-1.8-.8-3.97.39-5.62 11.36-15.82 27.06-28.52 42.81-41.14 2.13-1.72 3.49-3.95 4.03-6.69.77-3.95-.44-7.72-3.62-11.29l21.24-9.49c2.56-1.15 2.92-4.67.62-6.31-8.03-5.64-20.03-10.75-23.9-20.24-.85-2.05.08-4.39 2.08-5.33 2.46-1.2 4.92-2.33 7.39-3.44.18-.08.28-.23.28-.41 0-.23.03-.46.1-.69.03-.18-.05-.28-.23-.31l-1.56-.08c.39-.85.36-1.54-.03-2.08 5.03-.2 8.26-.51 9.72-.92 6.57-1.87 19.19-6.69 37.88-14.49 27.36-11.41 50.29-23.42 68.79-36.06zM730.53 173.84c1.39 3.46 1.82 6.33 1.28 8.64-4.28 18.49-8.64 37.65-13.11 57.45-.49 2.1-2 3.82-4.05 4.51-6.85 2.31-13.98 5.05-21.39 8.26-9.95 4.28-14.52 11.34-15.29 21.7-.33 4.59-1.33 8.67-3 12.23-.41.87-.26 1.62.46 2.26l.59.54c.87.8.72 1.08-.44.85-4.87-1.05-8.26-3.64-6.87-9.18 1.56-6.18 2.77-12.39 3.67-18.59 1.08-7.54 3.82-19.65 8.52-24.9 3.98-4.44 7.1-8.46 9.36-12.03 2.08-3.31 2.82-6.82 2.21-10.57l24.29-31.29c4.46-4.44 9.05-7.74 13.77-9.87zM1358.5 180.09c2.8-.54 4.44-.77 4.92-.69 4.9.67 5.03 1.87.41 3.62-12.21 4.64-25.21 8.9-39.01 12.75-5.05 1.41-10.41 1.74-16.03.97-.8-.1-1.36-.8-1.33-1.59.08-2 1.1-3.28 3.05-3.82 16.11-4.44 32.11-8.18 47.99-11.23z" style="fill:#a3bbe8;stroke-width:0"/><path d="M1878.52 400.18c1.05-1.21 1.64-2.31 1.72-3.26.05-.8-.28-1.05-1.03-.72-1.13.51-2.13 1.82-3 3.92-6.51 9.23-11.08 18.52-22.39 22.6-1.62.59-1.64 1.23-.13 1.97 13.13 6.39 26.75 12.95 40.83 19.7 5.57 2.67 17.06 9.08 15.77 16.23-4.05 22.7-10.28 45.3-15.11 65.53-1.92 8.05 5.8 11.77 11.75 14.03 7.8 2.95 23.06 4.54 45.81 4.82 1.79.03 3.41 1.05 4.16 2.67 1 2.18 0 4.23-2.95 6.21-.69.46-1.51.72-2.36.72l-66.09.97-182.46-.28c-4.87-.15-9.75-.2-14.62-.18-3.85.03-6.41-1.69-7.67-5.16-3.1-8.52 7.16-16.34 12.82-20.88 9.64-7.72 18.19-16.54 25.62-26.47 1.31-1.77 4.31-3.44 6.41-4.16 13.39-4.64 27.91-7.39 39.86-12.06 7.82-3.03 15.95-6.9 24.39-11.62a.39.39 0 0 0 .18-.44c-.08-.18-.23-.26-.41-.23-19.03 4.03-35.04 4.44-49.76-10.57-2.18-2.23-3.16-4.92-2.92-8.08 2.18-29.83 20.03-57.58 50.86-63.17 8.95-1.62 17.9.18 26.85 5.44 1 .59 1.77.33 2.26-.72 1.56-3.28 3.31-6.52 5.23-9.72 1.92-3.16 4.93-4.41 7.77-6.52.64-.46.46-1.46-.31-1.69-3.05-.9-5.51-.13-7.33 2.31a4.64 4.64 0 0 1-2 1.54c-2.87 1.13-9.13 3.44-12.26 2.31-2.26-.8-3.54-3.21-2.92-5.52 4.03-15.34 18.65-14.41 31.96-13.77-.28.64-.03 1.26.72 1.85.87.72 2.21.33 2.59-.72.59-1.56.46-2.39-.41-2.44l15.9-18.83c.64-.77.79-1.62.41-2.56-7.77-19.62-9.28-37.52 3.74-55.07 13.31-17.98 31.19-25.01 53.66-21.08 2 .36 3.05-.49 3.18-2.51.51-9.21 1.15-18.47 1.9-27.73 1.08-13 7.67-20.42 19.26-28.06 14.44-9.54 28.29-18.36 41.58-26.47 3.46-2.13 6.31-1.46 8.54 1.95l.74 1.1c1.67 2.59 1.23 4.72-1.33 6.39a200.74 200.74 0 0 1-20.06 11.64c-9.98 5.05-36.45 21.01-38.01 32.24-1.23 8.85-2.18 18.11-2.85 27.73-.39 5.44 1.87 9.9 6.26 13.13 1.08.8 2.62.23 2.92-1.08 2.18-9.21 4.31-17.8 6.44-25.78 3.23-12.18 14.13-19.65 26.39-25.96 10.85-5.57 21.52-10.8 31.96-15.7 4.13-1.92 7.51-1.03 10.16 2.69 1.1 1.56.85 3.9-.77 6.95a5.667 5.667 0 0 1-3.08 2.64c-19.16 6.69-34.68 14.21-46.55 22.55-4.16 2.92-7.21 7.28-9.16 13.11-2.82 8.44-5.51 16.57-8.1 24.39-.31.9-.08 1.9.59 2.56 8.08 8.28 13.62 17.36 16.59 27.29 9.21 30.68-33.73 42.65-56.78 41.06-.79-.05-1.15.33-1.08 1.13.85 6.93-.28 14.29-3.39 22.11-.56 1.44-.21 2.59 1.05 3.49l16.57 11.34c.77.54 1.51.51 2.26-.08 6.85-5.57 12.67-11.75 17.52-18.54 5.9-8.31 12.95-15.31 20.49-21.26a4.48 4.48 0 0 1 5.85.23c2.41 2.26 3 5.77.77 8.36-8.95 10.36-17.7 20.49-26.29 30.37-4.49 5.16-9.54 9.93-15.11 14.29-2.33 1.82-5.51 1.46-8 .18-9.31-4.77-17.75-10.34-25.37-16.72-.92-.8-1.39-.56-1.41.64-.05 4.46-1.98 8.8-5.8 12.98-.49.51-1.18.77-1.85.69-.39-.05-.77-.16-1.18-.28m-10.87-91.92c1.36 10.49 5.77 19.59 13.26 27.32 2.95 3.05 7.08 5.57 12.34 7.49 3.87 1.41 7.85 1.56 11.95.41 7.21-2 14.18-3.87 20.9-5.62.92-.23 1.77-.72 2.44-1.41 4.33-4.44 8.59-8.85 12.77-13.21 4.95-5.1 6.69-10.54 5.23-16.36-1.15-4.9-2.18-9.64-5.72-13.29-9.77-10.13-22.08-18.83-36.8-18.54-16.39.28-29.16 8.31-38.37 24.11-1.92 3.26-.05 6.26 2 9.11m-3.59 16.98c-1.03-4.59-1.95-9.29-2.74-14.08-.18-1.1-.41-1.1-.64 0-2.05 9.67-.95 20.03 3.36 28.85.41.85 1.08 1.2 2.03 1.08 1.56-.23 2.67-1.08 3.31-2.59.44-1 .36-1.95-.21-2.85-1.77-2.85-3-6.1-3.74-9.72-.03-.18-.15-.26-.33-.2-.23.05-.46.03-.67-.05a.623.623 0 0 1-.36-.44m23.03 42.06c4.44-4.03 10.54-13.59 2.85-17.36-3.95-1.95-8.18-3.44-12.67-4.49-3.1-.72-5.77 2.31-4.64 5.28 2.23 5.95 6.26 11.46 12.05 16.57.82.72 1.62.72 2.41 0m-35.62 12.36c2.72 3.21 6.9 5.16 12.52 5.8.87.1 1.62.46 2.23 1.08l3.95 3.95c.77.8 1.62.9 2.56.31 3.33-2.08 5.98-4.62 7.9-7.67.49-.8.62-1.62.39-2.51-.59-2.13-1.44-4.03-2.59-5.69-3.9-5.67-8.93-12.29-15.08-19.9-6.46 2.69-11.28 8.54-14.44 17.54-1.1 3.18-.26 5.54 2.56 7.1m-10.88 6.85c.05.1.13.2.21.28.54.54 1.18.9 1.92 1.08 3.54.87 6.51 2.95 8.95 6.26.39.54 1.15.59 1.62.13l.67-.64c.67-.64.67-1.72.03-2.36-9.62-9.52-22.83-10.18-28.19 4.51-1.54 4.21-.41 7.8 3.41 10.75.98.77 1.23.56.79-.59-1.92-4.95-.69-9.05 3.67-12.31 2.64-1.97 4.64-4.33 6-7.08.28-.59.59-.59.92-.02m-93.46 54.12.59.28c.08.03.15 0 .2-.08 5.9-12.64 14.85-22.31 26.83-29.03 12.34-6.9 25.42-8.57 39.24-4.95.1.03.18 0 .21-.1l.23-.67c.21-.56.03-.97-.54-1.21-11.28-4.49-20.98-5.41-29.11-2.77-18.08 5.87-30.7 18.52-37.91 37.91-.1.28-.03.49.26.62m98.96-15.19c-.32-.36-1.4.13-2.43 1.07-1.02.93-1.61 1.98-1.28 2.32.32.36 1.39-.13 2.43-1.07 1.02-.93 1.61-1.98 1.28-2.32m49.47 34.37-55.14-25.55c-2.95-1.36-6.33.59-6.62 3.82-1.46 16.98-2.46 34.62-3.03 52.96-.15 4.92-2.85 8.16-6.41 11.23-14.24 12.23-27.31 23.03-39.22 32.39-2.23 1.77-3.33 4.03-3.31 6.8 0 1 .51 1.51 1.51 1.54 26.8.49 53.76.67 80.87.59 6.69-.03 13.23-.28 19.65-.74.9-.08 1.15-.51.77-1.33-1.33-2.82-1.79-6.44-1.39-10.88 2.08-22.26 8.36-42.81 14.62-65.81a4.27 4.27 0 0 0-2.31-5.03m-78.18.03c-20.44 27.96-49.04 40.63-82.2 47.63-2.9.62-6.36 1.97-7.9 4.64-8.21 14.11-19.21 20.29-30.44 30.29-1.41 1.26-1.15 1.8.72 1.67 21.11-1.56 42.5-.69 63.02-.56 2.23 0 4.05.64 6.18.82 2.18.2 3.33-.77 3.49-2.95.59-8.77 3.72-14.85 10.62-20.36 12.34-9.85 24.19-18.8 35.55-26.85a4.12 4.12 0 0 0 1.72-3.51c-.39-9.52.54-19.26 2.72-29.26 1.31-5.95.15-6.46-3.46-1.54z" style="fill:#2a3b77;stroke-width:0"/><path d="M1716.01 185.3c-3.31 8.03-10.16 15.21-14.41 23.9-2.67 5.49-7.05 7.69-11.23 11.54-4.16 3.85-7.36 9-9.62 15.44-4.23 12.03-7.64 25.11-10.26 39.27-.49 2.54-1.9 3.26-4.23 2.21-4.46-1.97-9.16-3.56-14.11-4.77-18.29-4.46-49.96 8.67-55.25 28.42-2.05 7.72-2.16 15.21-.31 22.47.85 3.31 1.41 6.52 1.72 9.67.82 8.46-1.36 9.34-6.57 2.62-4.03-5.21-7.87-12.82-11.57-22.8-.31-.85-.28-1.69.05-2.54 7.8-18.85 23.62-34.44 41.32-46.4 3.46-2.33 4.51-5.46 3.16-9.41l-.33-1.03c-1.31-3.82-3.59-4.56-6.87-2.23-20.36 14.36-37.09 31.5-50.19 51.37-2.74 4.18-3.08 8.41-.97 12.7 5.98 12.13 11.95 23.7 17.95 34.68.56 1.03.31 1.74-.8 2.18-9.52 3.74-15.67 10.21-18.47 19.39-.56 1.85-2.36 3.05-4.28 2.9-17.85-1.51-34.8-3.62-53.71.51-6.26 1.36-15.29 4.51-27.11 9.52-14.31 6.03-30.03 10.31-47.17 12.85a4.57 4.57 0 0 1-3.59-1.05l-51.55-43.99 5.05-5.82c8.46-5.46 16.62-11.03 25.44-15.72 35.11-18.65 70.61-36.57 106.44-53.83 12.44-5.98 28.06-12.95 46.86-20.88 16.95-7.16 33.88-14.54 50.81-22.16 16.29-7.33 33.06-13.16 49.94-19.75a249.074 249.074 0 0 0 53.86-29.24z" style="fill:#a3bbe8;stroke-width:0"/><path d="M515.07 186.88c.84.94.76 2.37-.19 3.22l-29.8 26.55c-.93.84-2.39.76-3.22-.19l-.1-.11c-.84-.94-.76-2.37.19-3.22l29.8-26.55a2.27 2.27 0 0 1 3.22.19l.1.11z" style="fill:#130d14;stroke-width:0"/><path d="M1372.14 194.76c-7.44 18.59-14.49 34.96-21.19 49.09-6.98 14.77-11.82 29.57-14.57 44.37-.05.26-.15.28-.33.1l-11.31-11.9c-.33-.36-.51-.85-.44-1.33 2.18-14.34 5.03-25.8 8.57-34.42 2.54-6.21 6.46-12.7 11.77-19.49 2.59 1.44 4.36-.72 5.28-6.46.13-.85.51-1.54 1.15-2.1 5.77-5.05 13.77-10.44 15.98-18.26.31-1.1 1.87-1.13 2.23-.05.31.9 1.26 1.05 2.85.46z" style="fill:#a3bbe8;stroke-width:0"/><path d="M868.54 231.21c-7.21-2.16-16.03-.82-26.52 4-18.21 8.36-36.55 17.03-55.02 26.01-1.97.95-3.31 2.9-3.49 5.08s.36 3.77 1.64 4.82c.77.62.9 1.33.39 2.15-.31.49-.69.72-1.18.72h-26.91c-1.57 0-1.74-.49-.51-1.49 23.03-18.54 46.4-35.78 70.12-51.68 8.39-5.62 17.59-12.54 27.57-20.78.56-.46 1.44-.23 1.69.44l12.21 30.73zM907.91 203.02c-10.46 2.05-20.65 2.69-30.57 1.95-.85-.05-1.67.1-2.44.44l-2.03.9c-1.26-1.15-1.97-2.18-2.18-3.05-.23-.95.13-1.46 1.1-1.54 11.21-.9 23.26-.46 36.11 1.31z" style="fill:#f9f9f1;stroke-width:0"/><path d="M907.91 203.02c13.13 3.72 21.95 5.59 26.44 5.59 13.46-.03 26.93.08 40.4.26 3.03.03 5.77-.56 8.26-1.82l1.56.08c.18.03.26.13.23.31-.08.23-.1.46-.1.69 0 .18-.1.33-.28.41-2.46 1.1-4.92 2.23-7.39 3.44-2 .95-2.92 3.28-2.08 5.33 3.87 9.49 15.88 14.59 23.9 20.24 2.31 1.64 1.95 5.16-.62 6.31l-21.24 9.49-29.21 25.39-47.24 10.46c-.85.18-1.39.69-1.67 1.51l-2.69 8.34c-6.64-16.93-6.39-36.73-9.98-47.99-4.74-14.88-9.21-29.8-13.34-44.76l2.03-.9c.77-.33 1.59-.49 2.44-.44 9.93.75 20.11.1 30.57-1.95z" style="fill:#d3e3f4;stroke-width:0"/><path d="M1261.83 241.96v.95c-4.69-.31-9.23-1.54-13.57-3.69-20.26-10-41.09-19.13-62.51-27.39-.56-.23-.82-.87-.59-1.41l.28-.64c.39-.9 1.41-1.39 2.36-1.1 25.44 7.59 48.24 19.65 74.02 33.29z" style="fill:#130d14;stroke-width:0"/><path d="M674.1 222.82c-8.03 19.83-12.39 38.63-13.05 56.4a2.224 2.224 0 0 1-2.64 2.1c-5.59-1.13-10.88-3.33-16.75-2.49-14.72 2.18-38.06 12.95-39.73 30.32-.79 8.18-.67 17.59.44 28.24.26 2.64 1.28 4.62 1.69 7.03.28 1.72-.05 1.87-1.05.41-6.75-9.82-12.54-20.6-17.34-32.37-.59-1.44-.31-3.05.72-4.21a383.216 383.216 0 0 1 43.86-41.96c2.67-2.18 3.85-4.85 3.57-7.98l1.87.41c.77.18 1.57-.03 2.13-.59l36.29-35.32zM320.6 225.36l3.21.13c-.44 2.13-1.28 4.03-2.49 5.69-11.11 15.03-18.67 32.04-22.72 50.99a2.038 2.038 0 0 1-2.82 1.44c-10.21-4.54-20.24-2.8-30.57.72-10.93 3.72-17.31 11.57-23.83 20.8-2.74 3.92-4.18 8.18-4.28 12.75-.13 5.98.62 11.77 2.23 17.36 1.08 3.72 1.9 7.57 2.46 11.49.13.85-.1 1.62-.64 2.31-.69.85-1.54 1.15-2.54.92-.69-.18-1.23-.56-1.59-1.15-5.03-8.28-9.95-16.44-14.8-24.47-1.51-2.49-1.44-5.03.23-7.62 11.62-18.08 26.8-33.83 45.55-47.24 2.74-1.97 3.21-5.16 1.44-9.54 16.44-13.13 33.32-24.19 50.66-33.19.56-.31.74-.77.51-1.39z" style="fill:#a3bbe8;stroke-width:0"/><path d="M868.54 231.21c6.36 12.9 10.95 26.49 13.8 40.83 1.13 5.72 2.39 10.88 3.74 15.49 1.49 5.08 2.82 10.21 4.03 15.41-8.8 5.18-17.34 9.1-25.62 11.75-13.77 4.39-30.14 9.16-49.09 14.26-16.08 4.31-32.14 3.33-48.24 4.77-5.59.49-12.7-.46-17.85-2.92-6.08-2.9-12.16-5.9-18.18-9l-3.67-11.11c6.52-7.21 13.05-14.29 19.65-21.24 1.44-1.51 4.67-2.72 9.72-3.59 5-.87 8.39-1.54 10.1-1.97 4.69-1.2 9.41-2.54 14.21-3.97.8-.23 1.28-.59 1.51-1.08.33-.69.23-1.39-.28-2.13 2.08-.95 2.74-1.85 2-2.72.49 0 .87-.23 1.18-.72.51-.82.39-1.54-.39-2.15-1.28-1.05-1.82-2.64-1.64-4.82s1.51-4.13 3.49-5.08c18.47-8.98 36.81-17.65 55.02-26.01 10.49-4.82 19.31-6.16 26.52-4z" style="fill:#d3e3f4;stroke-width:0"/><path d="m1079.81 229.95 73.41 50.78c-3.21 5.56-8.28 9.87-15.26 12.98-1.15.51-2.49.54-3.69.08-17.23-6.72-34.29-14.62-51.17-23.67-2.97-1.59-4.36-3.95-4.31-7.34.13-10.47.46-21.42 1.03-32.83zM1322.36 231.88l-8.36 42.94c-.13.62-.69 1-1.31.9-11.59-1.92-28.34-1.13-38.32 6.21-11.85 8.72-22.16 17.54-17.62 33.29 1.72 5.93 3.39 12 5 18.19 2.41 9.26 1.08 9.82-3.98 1.69-6.44-10.36-13.54-20.62-18.13-32.11-.33-.82-.28-1.72.1-2.49 1.8-3.51 4.26-6.52 7.39-9 9.41-7.41 19.01-15.54 28.73-24.37 3.49-3.13 3.33-11-1.49-12.75-1.46-.51-2.67-.51-3.62 0 .36-1.97 1.28-3.54 2.8-4.64.61-.44.85-1.23.56-1.95-.49-1.31-1.54-2.1-3.1-2.39-3.21-.56-6.28-1.39-9.18-2.49v-.95c20.8 1.77 40.96-1.59 60.53-10.08zM307 290.33c-.54-.23-.77-.82-.56-1.36l2.03-5.03c11.88-29.39 23.67-52.35 26.34-51.27l1.62.64c2.67 1.08-4.8 25.78-16.67 55.17l-2.05 5.05c-.21.54-.79.77-1.33.56l-9.36-3.77z" style="fill:#a3bbe8;stroke-width:0"/><path d="M2188.55 554.48c-2.23.31-4.59.74-6.85.74h-72c-34.22-.03-71.2-.18-110.93-.46-11.7-.08-13.47-11.57-6.72-18.8 15.16-16.29 27.75-31.44 37.78-45.53 1.59-2.23 3.64-3.92 6.16-5.05 2.05-.95 4.21-1.62 6.46-2 21.01-3.67 41.6-8.16 61.81-13.46 14.72-3.87 27.29-11.46 37.73-22.8.95-1.03.74-1.36-.59-1-30.03 8.21-57.94 3.03-83.72-15.52-8.03-5.8-6.33-14.49-2.44-22.03 13.31-25.91 33.19-44.37 59.61-55.43 21.34-8.93 44.78-6.82 58.63 13.67 1.74 2.59 2.74 5.59 4.21 8.26.49.9 1.1 1.03 1.9.39 9.51-7.93 19.9-10.41 31.16-7.46 1.26.33 1.64-.1 1.18-1.31-.69-1.87-.64-3.67.1-5.41 7.57-17.24 21.72-28.26 40.91-21.13a.933.933 0 0 0 1.26-.9c-.39-10.98.41-20.11 7.85-29.11 13.05-15.8 33.39-19.8 53.68-13.08 1.31.44 2.72-.36 3.05-1.69 2.15-8.95 4.49-18.19 7.03-27.65 2.18-8.23 6.64-13.82 13.34-16.72 12.11-5.26 28.14-10.75 48.09-16.42 1.15-.33 2.41-.26 3.54.2 6.51 2.67 6.8 6.28.82 10.88-.51.41-1.13.69-1.77.87-16.24 4.36-35.55 8.77-49.32 17.34-3.1 1.95-5.13 5.95-5.93 9.39-2.08 9-4.49 17.67-7.23 26.06-.46 1.39-.13 2.56.98 3.51l7.39 6.31c1.1.92 1.87.72 2.36-.64 6.36-17.31 12.47-28.19 31.45-34.45 12.85-4.26 25.49-7.33 37.88-9.26 3.67-.56 6.31.85 7.9 4.21.79 1.74-.21 3.8-3 6.16-.67.56-1.44.92-2.26 1.08a604.894 604.894 0 0 0-32.98 7.28c-9.57 2.39-18.39 6.59-23.78 15.29a501.7 501.7 0 0 0-9.26 15.65c-.44.74-.39 1.64.08 2.33 11.67 17.18 21.65 47.12-6.51 54.89-20.8 5.74-40.55 5.26-61.07 1.1-1.36-.28-1.77.23-1.23 1.51l8.03 19.01c1.41 3.36 3.95 4.95 7.62 4.74 15.77-.92 33.55-2.97 53.37-6.18 15.93-2.59 34.14 5.23 45.83 16.08 3 2.8 3.16 5.72.41 8.8l-.82.95c-1.98 2.23-4.21 2.51-6.69.9-13.44-8.67-24.49-17.13-41.88-14.44-14.03 2.18-30.45 3.97-49.19 5.39-.95.08-1.49.59-1.62 1.54-.23 1.85.61 3 2.51 3.46 17 4.13 30.62 8.93 40.91 14.39 9.1 4.8 14.65 12.21 16.67 22.19 1.82 9.05 3.16 17.49 3.98 25.26.33 3.31-1.15 5.05-4.46 5.26-3.85.23-6.31-1.44-7.41-5.05-1.82-5.98-3.23-12.75-4.26-20.26-1.15-8.36-5.85-14.26-14.11-17.7-12.67-5.31-25.11-9.77-37.32-13.39-3.49-1.03-6.31-3.23-7.67-6.64-2.9-7.18-6.26-13.98-10.13-20.36-1.21-2.03-2.85-2.46-4.93-1.33-7.41 4.08-15.62 4.08-24.62.03-.9-.41-1.56-.18-1.98.72a74.575 74.575 0 0 1-6.8 11.46c-5.57 7.77-12.52 7.77-21.01 8.59-2.49.23-2.62.9-.36 2 17.36 8.46 33.96 15.95 47.63 29.44a6.385 6.385 0 0 1 1.51 6.64c-7.16 19.7-15.95 38.22-26.34 55.53a5.4 5.4 0 0 0 1.54 7.21c9.08 6.39 17.57 13.77 25.44 22.13 2.1 2.23 4.26 3.18 6.98 4.33.85.36 1.39 1.2 1.36 2.13-.13 4.74-2.98 7.16-8.57 7.18-17.06.1-35.06.54-53.96 1.28-2.16.08-4.49-1.05-6.54-.36-1.72.56-1.72 1.15-.03 1.77 9.46 3.41 19.57 10.39 14.98 20.34-.36.8-.98 1.28-1.85 1.41-11 1.62-22.16 1.64-33.45.03-2.03-.28-3.56-2.03-3.54-4.08.05-5.46 2.16-10.36 6.31-14.72 2.16-2.26 5.51-2.72 8.05-4.51 1.21-.84 1.08-1.18-.35-.95m76.46-222.7c2.39 11.26 5.72 19.44 10.05 24.55 2.9 3.41 7.39 5.57 13.47 6.46 3.77.56 7.44 1.49 10.95 2.74 5.1 1.82 10.39 2.44 15.8 1.8 8.28-.97 16.52-2.62 24.75-4.9 2.39-.67 4.18-2.05 5.39-4.18.85-1.56 1.21-3.44 1.05-5.64-.49-6.59-1.64-12.65-3.49-18.21-9.36-19.01-23.7-29.21-43.01-30.6-9.21-.67-16.82 1.03-22.9 5.05-7.59 5.08-11.62 12.72-12.05 22.93m-38.52 43.11c7.26 7.93 15.98 14.62 26.14 20.08 2.05 1.1 3.67 1.1 4.85 0 1.31-1.2 1.87-3 1.49-4.74-2.08-9.69-3.1-19.31-3.08-28.85.03-1.92 1.69-3.77 5.05-5.49l8.23 11.05c.87 1.15 1.44 1.03 1.69-.41.26-1.36-.18-2.72-1.28-4.03-5.16-6.16-11.64-14.57-19.77-16.03-10.95-1.97-19.11 1.15-24.44 9.39-4.18 6.49-3.82 12.85 1.13 19.03M2167 380c1.61 1.26 2.13.9 1.56-1.05-5.31-18.62-27.24-24.34-43.29-18.77-12.8 4.44-23.88 10.52-33.19 18.21-8.13 6.75-16.62 15.82-25.44 27.29-.33.44-.28 1.05.13 1.39l.59.51c.18.15.36.15.54.03 5.98-4.74 11.95-9.9 17.95-15.47 5.03-4.64 10.44-5.87 16.24-3.69 1.82.69 3.87-.1 4.75-1.87 3.08-6.28 6.36-11 13.44-13.08 18.42-5.46 33.98-3.28 46.73 6.51m11.23 17.62c5-1.26 8.54-.8 10.62 1.33.59.59 1.26 1.08 2.03 1.41 3.9 1.82 7.51 4.1 10.85 6.85.41.33.61.74.61 1.28v.85c.03.67.59 1.2 1.26 1.18 3.85-.18 6.9-1.67 9.16-4.49 1.67-2.1 3.72-3.67 6.13-4.69 4.87-2.08 8.54-5.69 13.21-8.26.9-.49.98-1.72.18-2.33l-12.41-9.41c-2.16-3.1-4.46-4.98-6.95-5.62-6.64-1.69-13.39-2.51-19.77.51-9.49 4.51-14.46 11.64-14.9 21.39m15.77 25.07c.21-.29-1.07-1.62-2.89-2.98-1.82-1.36-3.44-2.23-3.66-1.96-.21.29 1.07 1.62 2.89 2.98 1.82 1.36 3.44 2.23 3.66 1.96m23.01 98.92c.13-3.62.9-6.82 2.28-9.62 8.95-18.34 17.7-36.32 26.21-53.94 1.28-2.67.61-4.69-2-6.05l-50.01-26.19c-2-1.03-4.36-1.1-6.44-.2-3.87 1.69-7.75 1.59-11.62-.28-1.21-.59-2.59.44-2.36 1.77a640.85 640.85 0 0 1 6.85 55.99c.23 3.13-.87 5.8-3.31 8-16.95 15.36-34.06 29.39-51.3 42.06-2.85 2.1-4.93 4.85-6.18 8.21-.36.92-.05 1.41.95 1.44 41.29 1.1 82.2 1.1 122.75-.05 1.46-.03 1.59-.46.39-1.31-8.18-5.64-18.03-10.75-25.29-17.57-.64-.62-.95-1.36-.92-2.26m-108.75 20.34c1.95-6.57 4.72-14 9.9-18.62 14.62-13.06 32.32-24.06 47.4-37.93a6.274 6.274 0 0 0 1.92-6c-2.41-11.26-3.82-23.16-4.21-35.73a5.99 5.99 0 0 0-.69-2.64 1.01 1.01 0 0 0-1.74-.1c-11.05 16.06-21.98 29.83-41.17 36.29-19.59 6.59-45.19 12.67-76.82 18.19-2.18.39-3.75 1.44-4.72 3.16-5.67 9.93-11.13 17.57-16.39 22.88-7.13 7.21-13.93 13.93-20.42 20.11-.69.69-.23 1.87.74 1.87l104.16.05c.92 0 1.74-.62 2.03-1.51m81.84 28.52c-.23.18-.44.39-.56.62-.69 1.15-.36 1.74 1 1.77l10.44.15c2.08.03 2.39-.72.9-2.18l-4.87-4.87c-.9-.9-1.98-1.28-3.23-1.1-2.41.33-3.44 1.77-3.1 4.31.05.51-.16 1.03-.56 1.31z" style="fill:#2a3b77;stroke-width:0"/><path d="M1028.92 296.1c.56.28 1.21-.15 1.15-.77-.74-10-.05-19.65 2.08-28.96 3.23-14.31 18.52-21.52 30.91-26.8.95-.41 1.49-.1 1.64.9.74 4.49.69 9.16-.2 14.06-.15.9-.59 1.62-1.31 2.16-14.03 10.9-24.49 24.55-31.39 40.91-.59 1.41-1.41 1.56-2.46.44l-1.41-1.51c-.46-.49-.36-.69.31-.61.23.02.46.1.69.2z" style="fill:#a3bbe8;stroke-width:0"/><path d="M1946.54 306.87c-.67 1.92-1.26 1.33-1.79-1.77-.13-.8-.44-1.49-.87-2.13-5.95-8.28-13.49-14.16-22.62-17.65-4.54-1.74-11.18-2.18-19.93-1.28-16.24 1.64-27.47 9.72-33.68 24.21-2.05-2.85-3.92-5.85-2-9.1 9.21-15.8 21.98-23.83 38.37-24.11 14.72-.28 27.03 8.41 36.8 18.54 3.54 3.64 4.57 8.39 5.72 13.29zM782.37 276.71c.51.74.62 1.44.28 2.13-.23.49-.72.85-1.51 1.08-4.8 1.44-9.52 2.77-14.21 3.97-1.72.44-5.1 1.1-10.1 1.97-5.05.87-8.28 2.08-9.72 3.59-6.59 6.95-13.13 14.03-19.65 21.24-1.77-2.8-1.69-4.98.21-6.59 4.23-3.56 9.57-9.34 16.03-17.34 2.26-2.8 5.77-4.54 10.52-5.28 9.44-1.46 18.82-3.05 28.16-4.77z" style="fill:#f9f9f1;stroke-width:0"/><path d="M947.8 278.74c-11.39 12.7-24.16 25.11-27.96 34.6-.33.8-.36 1.62-.13 2.44 1.13 3.95 2.67 7.77 4.62 11.44 4.9 9.16 9.8 18.21 14.72 27.16.67 1.2.51 2.72-.41 3.77l-18.93 21.67c-.72.8-1.59 1.08-2.64.85-23.01-5.36-46.32-6.9-69.92-4.62-19.24 1.87-38.47 3.77-57.71 5.67-8.62.85-13.75-1.28-22.52-7.08-9.18-6.08-19.8-12.41-26.57-19.93-6.92-7.69-8.46-22.78-9.23-32.91 6.03 3.1 12.11 6.1 18.18 9 5.16 2.46 12.26 3.41 17.85 2.92 16.11-1.44 32.16-.46 48.24-4.77 18.95-5.1 35.32-9.88 49.09-14.26 8.28-2.64 16.82-6.57 25.62-11.75.82 1.44 2.44 1.46 4.85.1.77-.44 1.2-1.08 1.31-1.95.08-.74.05-1.41-.08-2.05l2.69-8.34c.28-.82.82-1.33 1.67-1.51l47.24-10.46z" style="fill:#a3bbe8;stroke-width:0"/><path d="M1946.54 306.87c1.46 5.82-.28 11.26-5.23 16.36-4.18 4.36-8.44 8.77-12.77 13.21a5.11 5.11 0 0 1-2.44 1.41c-6.72 1.74-13.7 3.62-20.9 5.62-4.1 1.15-8.08 1-11.95-.41-5.26-1.92-9.39-4.44-12.34-7.49-7.49-7.72-11.9-16.82-13.26-27.32 6.21-14.49 17.44-22.57 33.68-24.21 8.75-.9 15.39-.46 19.93 1.28 9.13 3.49 16.67 9.36 22.62 17.65.44.64.74 1.33.87 2.13.54 3.1 1.13 3.69 1.79 1.77m-42.11 9.1c.49.69 1.33.95 2.59.74-3.23.54-4.62 2.18-4.13 4.95.15.8.59 1.39 1.33 1.74.39.18.61.51.64.95.13 2.36 2.28 4.16 4.85 4.08 5.28-.18 9.13-2.31 11.57-6.41.67-1.1.62-2.18-.18-3.21-.92-1.23-1.15-2.21-.72-2.95.54-3.77-1.13-5.9-5.03-6.36.85-1.31.18-2.23-1.95-2.77-7.31-1.85-12.57.33-15.75 6.57-1.44 2.8-1.51 5.67-.23 8.57.74 1.67 1.59 1.74 2.54.18.74-1.2.98-2.51.67-3.97-.23-1.05.13-1.82 1.08-2.31.79-.44 1.72-.36 2.72.2z" style="fill:#56adfc;stroke-width:0"/><path d="M1682.13 304.1c-12.57-7.77-24.6-11.98-36.06-12.62-9.49-.54-18.11 1.82-25.83 7.1-2.05 1.41-4.05 3.49-6 6.26-1.64 2.33-3.39 4.69-5.21 7.13-1.62-5.21-.87-9.72 2.23-13.57 8.59-10.62 19.78-15.49 33.5-14.62 16.78 1.08 29.24 7.85 37.37 20.31zM1346.96 318.85c-.18.1-.33.28-.46.51-.23.44-.46.44-.69 0-2.74-5.54-6.57-10.72-11.49-15.54-8.93-8.72-23.62-9.95-35.78-9.8-7.62.08-14 2.33-19.21 6.72-6.69 5.67-9.67 14-8.93 24.98-.82-4.8-1.69-8.95-2.64-12.46-.69-2.64-.2-5.72 1.51-9.29 5.03-10.46 12.67-16.29 22.9-17.49 25.62-2.95 47.91 5.03 54.79 32.37zM691.31 319.21c-7.57-10.08-13-15.8-16.36-17.16-10.77-4.33-21.98-6.08-33.62-5.18-9.05.69-16.47 4.54-22.24 11.52a312.43 312.43 0 0 0-8.05 10.21c1.31-10.54 5.85-18.47 13.62-23.83 14.13-9.75 35.03-7.39 49.83.8 8.46 4.64 14.08 12.54 16.83 23.65z" style="fill:#f9f9f1;stroke-width:0"/><path d="m226.13 288.82-18.34 25.21a8.02 8.02 0 0 0-.39 8.8l17.95 29.98c.8 1.36.51 3.08-.67 4.1l-15.83 13.65c-1.13 1-2.77 1.18-4.1.49-17.93-9.26-33.01-20.65-45.19-34.19-.39-.46-.85-.54-1.36-.2l-10.08 6.08c-.26.15-.28.54-.05.72 7.72 5.98 15.31 12.23 22.75 18.75 3.39 3 7.18 5.77 11.41 8.33 6.67 4.08 13.98 5.21 20.85 8.67.31.15.36.59.13.82l-.62.62c-.28.31-.62.36-.98.15-3-1.72-6.08-2.87-9.18-3.49-17.26-3.41-32.6-3.85-50.78-.97-20.39 3.21-40.73 6.31-61.07 9.31-6.13.9-9.59-3.92-13.39-8.05a8703.92 8703.92 0 0 1-31.83-34.75c-1.39-1.51-2.36-3.8-2.92-6.85 11.67-.28 23.7.33 36.09 1.87 7.69.95 13.59 4.41 21.7 2.62 30.21-6.64 55.09-14.44 74.66-23.39 19.42-8.9 39.81-18.31 61.22-28.27zM1163.42 289.35c14.34 10.08 27.44 19.31 46.17 15.23 6.31-1.39 11.77-3.67 16.42-6.82 6.26 16.18 14.11 31.68 23.52 46.5 1.28 2 2.41 4.03 3.39 6.08.49 1 .2 1.64-.9 1.92l-3.85.95c-.41.1-.77.28-1.1.54a132.41 132.41 0 0 1-12.44 9.05c-.74.46-1.05 1.44-.92 2.9-1.36-.46-2.28 0-2.77 1.39-5.69-2.46-11.57-4.59-17.62-6.41-4.74-1.44-12.44-7.05-23.03-16.85-8.9-8.21-17.7-16.26-26.39-24.16-5.95-5.41-10.93-11.75-16.34-17.62-.95-1.03-.72-2.67.46-3.39l15.41-9.31z" style="fill:#a3bbe8;stroke-width:0"/><path d="M325.7 321.03c-.23.44-.56.72-.95.8-.62.13-1.21-.18-1.49-.74-2.8-6.05-7.1-11.31-12.88-15.77-4.33-3.33-9.85-5.13-16.57-5.39-11.82-.44-21.36 1.28-28.6 5.13-2.82 1.51-5.77 3.87-8.85 7.08-2.54 2.64-5.15 5-7.87 7.05 1.05-11 6.85-19.06 17.36-24.16 20.52-9.98 43.99-1.36 57.17 16.52 1.98 2.69 2.87 5.85 2.67 9.49zM1039.51 323.62a77.465 77.465 0 0 1-6.21-7.16c-11.39-15.08-33.14-16.7-50.17-10.85-9.05 3.13-16 9.57-20.88 19.29-.26-7.1.61-12.34 2.59-15.72 4.08-6.93 12.41-11.52 20.16-14.67 13.08-5.31 25.08-3.8 36.01 4.54 9.31 7.11 16.39 13.29 18.49 24.57z" style="fill:#f9f9f1;stroke-width:0"/><path d="M1682.13 304.1c8.69 11.54 7.77 22.06-2.82 31.52-3.21 2.85-6.82 5.03-10.85 6.49-5.59 2.03-9.54 5.08-16 4.98-20.08-.33-40.29-4.62-45.99-26.93-.41-1.64.1-2.85 1.54-3.59.77-.41 1.03-1.03.74-1.87-.44-1.39-.36-2.28.28-2.72 1.82-2.44 3.56-4.8 5.21-7.13 1.95-2.77 3.95-4.85 6-6.26 7.72-5.28 16.34-7.64 25.83-7.1 11.46.64 23.49 4.85 36.06 12.62m-43.14 20.8 1.03-12.57c0-.18-.13-.33-.28-.33h-.08c-1.59-.13-3.03 1.82-3.23 4.36l-.31 4c-.2 2.54.9 4.69 2.46 4.82h.08c.18.03.33-.1.33-.28m16.72-6.8c1.05-.15 1.82-1.05 1.85-2.1.08-2.64-1.64-4-5.13-4.08-1.85-.03-2.46.82-1.87 2.54.95 2.8 2.67 4.03 5.15 3.64zM1346.96 318.85c.15.59.39 1.26.72 1.95.28.61.44 1.26.41 1.95-.64 25.03-25.19 26.88-44.91 26.01-6.93-.33-13.23-2.36-18.93-6.13-6.64-4.41-11.26-10.05-13.85-16.9-.74-10.98 2.23-19.31 8.93-24.98 5.21-4.39 11.59-6.64 19.21-6.72 12.16-.15 26.85 1.08 35.78 9.8 4.93 4.82 8.75 10 11.49 15.54.23.44.46.44.69 0 .13-.23.28-.41.46-.51m-46.53 8.98c4.36 7.36 17.98 11.11 20.03-.69.69-3.95-.9-6.82-1.56-10.52-1.39-7.69-10.67-8.64-16.9-6.44-.85.31-1.1.87-.72 1.69.13.28.2.61.23.95.08.95-.1 1.87-.54 2.72-1.77 3.51-2.21 7.28-1.31 11.36.03.13.08.23.2.31.23.15.44.36.56.62zM691.31 319.21c.9 1.46 1.41 3.26 1.59 5.39.13 1.82-.23 3.51-1.13 5.03-1.62 2.74-3.33 5.49-5.1 8.21-4.21 6.44-19.75 11.64-26.7 13.62-11.95 3.39-23.67 1.8-35.19-4.8-2.67-1.51-6.1-5.62-10.31-12.29-3.1-4.92-4.23-10.18-3.44-15.77 2.72-3.59 5.41-7 8.05-10.21 5.77-6.98 13.18-10.82 22.24-11.52 11.64-.9 22.85.85 33.62 5.18 3.36 1.36 8.8 7.08 16.36 17.16m-23.7 5.15c3.26 1.1 3.44-.67.54-5.36 1.41.15 1.87-.31 1.41-1.41-.13-.28-.33-.51-.61-.67l-13.93-7.41c-.74-.41-1.57-.64-2.44-.69-4.23-.28-7.92.1-11.03 1.1a5.461 5.461 0 0 0-3.64 6.41c1.74 7.75 4.28 21.29 15.52 20.19 5.98-.62 14.67-4.93 14.18-12.16zM325.7 321.03c2.82 8.82-9.87 21.06-16.47 25.08-2.77 1.72-5.1 4.18-6.98 7.39-.33.59-.82 1.03-1.46 1.26-9.85 3.8-20.26 2.15-30.21.03-5.36-1.15-9.13-3.41-11.26-6.72-1.92-3.03-3.98-6.03-6.13-9.03-3.21-4.49-4.77-11.11-4.69-19.85 2.72-2.05 5.33-4.41 7.87-7.05 3.08-3.21 6.03-5.57 8.85-7.08 7.23-3.85 16.77-5.57 28.6-5.13 6.72.26 12.23 2.05 16.57 5.39 5.77 4.46 10.08 9.72 12.88 15.77.28.56.87.87 1.49.74.39-.08.72-.36.95-.79m-33.65 2.9c-.79 0-1.15-.61-1.08-1.82.1-1.26-.46-1.97-1.72-2.16l-1.33-.18c-1.31-.18-1.95.36-1.92 1.67.03 1.77.59 3.33 1.72 4.64 2.21 2.56 6.26 2.03 7.1-.95.1-.33-.26-1.13-1.1-2.33-.13-.18-.28-.2-.46-.08-.23.13-.36.31-.41.56-.08.44-.36.67-.79.64zM1039.51 323.62c1.8 3.54 2.92 7.41 3.36 11.59.44 4.21-.51 7.9-2.87 11.05-3.31 4.44-7.72 7.64-13.29 9.59-32.14 11.18-53.63.87-64.45-30.96 4.87-9.72 11.82-16.16 20.88-19.29 17.03-5.85 38.78-4.23 50.17 10.85 1.9 2.49 3.98 4.87 6.21 7.16m-41.75 7.57.51 1.59c-1.51 6.05.69 8.85 6.62 8.36 5.21-.41 8.64-4.23 10.34-11.44.62-.13.28-2.1-1-5.93-8.93-4.08-16.39-1.8-22.42 6.85-.64.9-.49 1.62.46 2.15l1.05.59c.85.46 1.64.41 2.41-.13a9.19 9.19 0 0 0 2.03-2.05z" style="fill:#56adfc;stroke-width:0"/><path d="M2342.98 334.39c-5.46-4.23-10.64-8.1-15.54-11.62-9.8-7.1-20.47-10.41-31.98-9.9-6.23.28-11.93 2.26-17.08 5.93-4.9 3.51-9.34 7.82-13.36 12.98.44-10.21 4.46-17.85 12.05-22.93 6.08-4.03 13.7-5.72 22.9-5.05 19.31 1.38 33.65 11.59 43.01 30.6z" style="fill:#f9f9f1;stroke-width:0"/><path d="m1915.35 309.51 5.03 6.36c-.44.74-.21 1.72.72 2.95.79 1.03.85 2.1.18 3.21-2.44 4.1-6.28 6.23-11.57 6.41-2.56.08-4.72-1.72-4.85-4.08-.03-.44-.26-.77-.64-.95-.74-.36-1.18-.95-1.33-1.74-.49-2.77.9-4.41 4.13-4.95 1.62-1.69 2.8-3.33 3.54-4.92.46-1 .15-1.51-.95-1.54l-1.26-.03c-1.21-.03-1.92.54-2.15 1.74-.21 1.18-.79 2.51-1.77 4-1-.56-1.92-.64-2.72-.2-.95.49-1.31 1.26-1.08 2.31.31 1.46.08 2.77-.67 3.97-.95 1.56-1.79 1.49-2.54-.18-1.28-2.9-1.21-5.77.23-8.57 3.18-6.23 8.44-8.41 15.75-6.57 2.13.54 2.8 1.46 1.95 2.77z" style="fill:#2a3b77;stroke-width:0"/><path d="M570.36 307.74c6.21 16.21 13.36 31.47 21.49 45.76.67 1.15.33 1.82-1 1.95l-3.36.36c-1.13.13-2.15.67-2.92 1.49l-11.44 12.59a5.512 5.512 0 0 1-4.57 1.8c-24.54-2.18-49.35-1.39-74.46 2.44-22.03 3.33-44.94 7.23-68.69 11.72-6.8 1.28-10.13 2.05-16.83-1.69-13.23-7.39-25.39-16.62-36.45-27.73 12.49-2.64 27.7-4.21 37.37-5.85 31.98-5.39 66.94-11.9 104.82-19.54 20.26-4.08 38.93-11.85 56.02-23.29z" style="fill:#a3bbe8;stroke-width:0"/><path d="M668.15 319c-.49-.38-1-.64-1.51-.8-1-.31-1.33.03-.95 1.03l1.92 5.13c.49 7.23-8.21 11.54-14.18 12.16-11.23 1.1-13.77-12.44-15.52-20.19-.62-2.77.95-5.54 3.64-6.41 3.1-1 6.8-1.39 11.03-1.1.87.05 1.69.28 2.44.69l13.93 7.41c.28.15.49.39.61.67.46 1.1 0 1.57-1.41 1.41m-14.36-.74c-.15 2.18.08 4.33.69 6.49.33 1.15 1 1.41 2 .8l2.92-1.74c1.03-.61 1.08-1.31.13-2.05l-4.18-3.28c-.51-.41-.77-.95-.79-1.59-.23-6.59-10.1-7.33-11.7-1.31-.28 1.05.05 1.36 1.05.87l4.23-2.03c2.72-1.31 5.85.82 5.64 3.85zM1299.87 327.21a.401.401 0 0 1-.2-.31c-.9-4.08-.46-7.85 1.31-11.36.44-.85.61-1.77.54-2.72-.03-.33-.1-.67-.23-.95-.39-.82-.13-1.39.72-1.69 6.23-2.21 15.52-1.26 16.9 6.44.67 3.69 2.26 6.57 1.56 10.52-2.05 11.8-15.67 8.05-20.03.69-.13-.26-.33-.46-.56-.62m10.26-11.21c.39-.08.72-.15 1.03-.2 1.2-.26 1.49-.9.8-1.9-1.26-1.92-2.9-2.67-4.87-2.23-1.56.33-2.13 2.26-1.03 3.41.46.49 1 .77 1.59.9.85.18 1.67.18 2.49.02m-1.62 4.69c.05-.72 0-1.33-.18-1.82-.85-2.33-1.59-2.31-2.26.08-.1.33.18 1.05.82 2.13.97 1.64 1.51 1.51 1.61-.39m2.44-.23c-.41.8-.39 1.54.1 2.28.51.74 1.67.56 1.9-.31.39-1.41.26-2.69-.36-3.85-.69-1.28-1.1-1.2-1.2.26a3.83 3.83 0 0 1-.44 1.62z" style="fill:#2a3b77;stroke-width:0"/><path d="M1915.35 309.51c3.9.46 5.57 2.59 5.03 6.36l-5.03-6.36z" style="fill:#acc9b8;stroke-width:0"/><path d="M1864.41 325.67c.21.08.44.1.67.05.18-.05.31.03.33.2.74 3.62 1.98 6.87 3.74 9.72.56.9.64 1.85.21 2.85-.64 1.51-1.74 2.36-3.31 2.59-.95.13-1.62-.23-2.03-1.08-4.31-8.82-5.41-19.19-3.36-28.85.23-1.1.46-1.1.64 0 .79 4.8 1.72 9.49 2.74 14.08.05.21.18.36.36.44z" style="fill:#5f7a70;stroke-width:0"/><path d="M1907.01 316.72c-1.26.2-2.1-.05-2.59-.74.98-1.49 1.56-2.82 1.77-4 .23-1.2.95-1.77 2.15-1.74l1.26.03c1.1.03 1.41.54.95 1.54-.74 1.59-1.92 3.23-3.54 4.92zM653.79 318.26c.21-3.03-2.92-5.16-5.64-3.85l-4.23 2.03c-1 .49-1.33.18-1.05-.87 1.59-6.03 11.47-5.28 11.7 1.31.03.64.28 1.18.79 1.59l4.18 3.28c.95.74.9 1.44-.13 2.05l-2.92 1.74c-1 .62-1.67.36-2-.8-.61-2.15-.85-4.31-.69-6.49zM1307.64 315.98c-.59-.13-1.13-.41-1.59-.9-1.1-1.15-.54-3.08 1.03-3.41 1.97-.44 3.62.31 4.87 2.23.69 1 .41 1.64-.8 1.9-.31.05-.64.13-1.03.2-.82.16-1.64.16-2.49-.02zM1638.99 324.9c0 .18-.15.31-.33.28h-.08c-1.56-.13-2.67-2.28-2.46-4.82l.31-4c.2-2.54 1.64-4.49 3.23-4.36h.08c.15 0 .28.15.28.33l-1.03 12.57zM1655.71 318.11c-2.49.39-4.21-.85-5.16-3.64-.59-1.72.03-2.56 1.87-2.54 3.49.08 5.21 1.44 5.13 4.08-.03 1.05-.8 1.95-1.85 2.1z" style="fill:#f9f9f1;stroke-width:0"/><path d="M2342.98 334.39c1.85 5.57 3 11.62 3.49 18.21.15 2.21-.21 4.08-1.05 5.64-1.21 2.13-3 3.51-5.39 4.18-8.23 2.28-16.47 3.92-24.75 4.9-5.41.64-10.7.03-15.8-1.8a57.361 57.361 0 0 0-10.95-2.74c-6.08-.9-10.57-3.05-13.47-6.46-4.33-5.1-7.67-13.29-10.05-24.55 4.03-5.16 8.46-9.46 13.36-12.98 5.16-3.67 10.85-5.64 17.08-5.93 11.52-.51 22.19 2.8 31.98 9.9 4.9 3.51 10.08 7.39 15.54 11.62m-34.16-.8c-5 .69-7.36 4-7.1 9.93.13 3 1.64 5.05 4.54 6.13 6.46 2.39 11.8.85 16-4.64 1.49-1.95.9-4.74-1.26-5.93-.26-.13-1.05 0-2.36.39 1.87-3.28 1.18-5.54-2.08-6.74-4.75-1.77-7.31-1.49-7.75.87z" style="fill:#56adfc;stroke-width:0"/><path d="M668.15 319c2.9 4.69 2.72 6.46-.54 5.36l-1.92-5.13c-.39-1-.05-1.33.95-1.03.51.15 1.03.41 1.51.8z" style="fill:#acc9b8;stroke-width:0"/><path d="M1308.51 320.7c-.1 1.9-.64 2.03-1.62.38-.64-1.08-.92-1.8-.82-2.13.67-2.39 1.41-2.41 2.26-.08.18.49.23 1.1.18 1.82z" style="fill:#5f7a70;stroke-width:0"/><path d="M1310.95 320.47c.26-.49.41-1.03.44-1.62.1-1.46.51-1.54 1.2-.26.62 1.15.74 2.44.36 3.85-.23.87-1.39 1.05-1.9.31-.49-.74-.51-1.49-.1-2.28z" style="fill:#acc9b8;stroke-width:0"/><path d="M292.84 323.29c.05-.26.18-.44.41-.56.18-.13.33-.1.46.08.85 1.21 1.21 2 1.1 2.33-.85 2.97-4.9 3.51-7.1.95-1.13-1.31-1.69-2.87-1.72-4.64-.03-1.31.61-1.85 1.92-1.67l1.33.18c1.26.18 1.82.9 1.72 2.16-.08 1.2.28 1.82 1.08 1.82.43.02.72-.21.79-.64z" style="fill:#f9f9f1;stroke-width:0"/><path d="M1014.22 323.77c-2.8.69-5.54 1.1-8.21 1.28-4.85.28-6.64 1.77-8.26 6.13-.62.85-1.28 1.51-2.03 2.05-.77.54-1.56.59-2.41.13l-1.05-.59c-.95-.54-1.1-1.26-.46-2.15 6.03-8.64 13.49-10.93 22.42-6.85z" style="fill:#2a3b77;stroke-width:0"/><path d="M1014.22 323.77c1.28 3.82 1.62 5.8 1 5.93-6.95-4.85-12.62-3.82-16.95 3.08l-.51-1.59c1.62-4.36 3.41-5.85 8.26-6.13 2.67-.18 5.41-.59 8.21-1.28z" style="fill:#f9f9f1;stroke-width:0"/><path d="M1015.23 329.7c-1.69 7.21-5.13 11.03-10.34 11.44-5.93.49-8.13-2.31-6.62-8.36 4.33-6.9 10-7.93 16.95-3.08z" style="fill:#2a3b77;stroke-width:0"/><path d="m2318.64 339.47-.44 1.46c-.33 1.13-.67 1.13-1-.03-.95-3.28-3.74-5.72-8.39-7.31.44-2.36 3-2.64 7.75-.87 3.26 1.21 3.95 3.46 2.08 6.75z" style="fill:#f9f9f1;stroke-width:0"/><path d="M2308.82 333.6c4.64 1.59 7.44 4.03 8.39 7.31.33 1.15.67 1.15 1 .03l.44-1.46c1.31-.39 2.1-.51 2.36-.39a3.982 3.982 0 0 1 1.26 5.93c-4.21 5.49-9.54 7.03-16 4.64-2.9-1.08-4.41-3.13-4.54-6.13-.26-5.93 2.1-9.23 7.1-9.93z" style="fill:#2a3b77;stroke-width:0"/><path d="M1272.71 342.75c.18 5.13-.41 9.44-1.82 12.9-4.98-6.03-4.36-10.34 1.82-12.9zM1612.75 344.7c.31 4.56-1.41 9.46-6.95 8.44-2.13-.39-4.56-1.44-7.28-3.1 5.77-6.8 10.52-8.57 14.24-5.33z" style="fill:#f9f9f1;stroke-width:0"/><path d="M1272.71 342.75c3.97 4.72 8.16 8.05 12.54 9.98 1.1.49 1.95 1.46 2.23 2.64.64 2.59-.56 4.05-3.59 4.44-6.33.77-10.67-.62-13-4.16 1.41-3.46 2-7.77 1.82-12.9zM1612.75 344.7c7.1 4.26 10.85 8.08 11.29 11.44.72 5.77.77 11.13.13 16.11-.18 1.36-1.56 2.21-2.85 1.69-11.62-4.64-19.21-12.59-22.8-23.9 2.72 1.67 5.16 2.72 7.28 3.1 5.54 1.03 7.26-3.87 6.95-8.44zM1889.93 349.94c7.7 3.77 1.59 13.34-2.85 17.36-.79.72-1.59.72-2.41 0-5.8-5.1-9.82-10.62-12.05-16.57-1.13-2.97 1.54-6 4.64-5.28 4.49 1.05 8.72 2.54 12.67 4.49z" style="fill:#56adfc;stroke-width:0"/><path d="M2260.93 355.89c-17.59-6.69-29.08-.36-34.45 19.01-4.95-6.18-5.31-12.54-1.13-19.03 5.33-8.23 13.49-11.36 24.44-9.39 8.13 1.46 14.62 9.87 19.77 16.03 1.1 1.31 1.54 2.67 1.28 4.03-.26 1.44-.82 1.56-1.69.41l-8.23-11.05zM623.68 358.94c-4.8 2.85-8.85 1.28-12.16-4.69-.08-1.87-.64-3.21-1.69-4-1.05-.8-.92-2.44.26-3.05 1.51-.8 3.16-.56 4.92.69 5.69 4.08 8.59 7.74 8.67 11.05zM259.73 359.14c-4.46-1.1-7.85-1.15-10.18-.13-2.74 1.2-6.28 1.74-10.64 1.64 2.18-3.82 4.92-6.8 8.28-8.93a2.4 2.4 0 0 1 2.28-.18c3.13 1.36 6.54 3.87 10.26 7.59zM972.26 358.04l-6.8 3.28c-.77.39-1.36.92-1.8 1.67-1.39 2.39-3.82 3.16-7.28 2.33 1.26-2.8.41-5.39-2.54-7.77-.51-.44-.62-1.21-.18-1.72 3.82-4.77 8.49-5.51 14-2.23 2.74 1.64 4.28 3.13 4.59 4.44z" style="fill:#f9f9f1;stroke-width:0"/><path d="M611.52 354.24c3.31 5.98 7.36 7.54 12.16 4.69-1.72 2.41-.33 3.51 4.1 3.33.85-.03 1.39.36 1.59 1.18 2.13 8.16 2.1 16.03-.03 23.6-1.87-.33-3.44-1.05-4.64-2.1-.31-.69-1.62-.95-3.95-.77-5.74-7.67-9.85-17.82-12.29-30.42-.13-.69.51-1.28 1.18-1.08.51.15 1.13.67 1.87 1.57zM2260.93 355.89c-3.36 1.72-5.03 3.56-5.05 5.49-.03 9.54 1 19.16 3.08 28.85.38 1.74-.18 3.54-1.49 4.74-1.18 1.1-2.8 1.1-4.85 0-10.16-5.46-18.88-12.16-26.14-20.08 5.36-19.36 16.85-25.7 34.45-19.01z" style="fill:#56adfc;stroke-width:0"/><path d="M1863.33 355.01c-1.72 7.1-3.67 13.16-5.87 18.16-1.08 2.44-3.08 4.62-6 6.49-2.82-1.56-3.67-3.92-2.56-7.1 3.15-9 7.98-14.85 14.44-17.54zM1256.88 358.27c-1.56 3.1-3.41 6.1-5.51 9-2.23 3.1-3.54 6.1-3.87 9.03-.59 4.95-.77 10.23-.56 15.9-3-3.72-11.62-14.98-6.08-20.47 4.92-4.9 9.64-9.9 14.16-15 .56-.64 1.08-.59 1.51.15.18.33.31.79.36 1.38z" style="fill:#f9f9f1;stroke-width:0"/><path d="M1863.33 355.01c6.16 7.62 11.18 14.23 15.08 19.9 1.15 1.67 2 3.56 2.59 5.69.23.9.1 1.72-.39 2.51-1.92 3.05-4.56 5.59-7.9 7.67-.95.59-1.79.49-2.56-.31l-3.95-3.95c-.61-.62-1.36-.97-2.23-1.08-5.62-.64-9.8-2.59-12.52-5.8 2.92-1.87 4.93-4.05 6-6.49 2.21-5 4.16-11.05 5.87-18.16zM972.26 358.04c5-.95 8.13.39 9.34 3.97 2.36 6.87-2.26 17.08-5.28 23.7-1.44 3.16-5.49 4.05-8.13 1.8-7.05-6.05-11-13.44-11.8-22.19 3.46.82 5.9.05 7.28-2.33.44-.74 1.03-1.28 1.8-1.67l6.8-3.28zM259.73 359.14c3 8.18 3.36 17.23 1.05 27.19-.23.95-.77 1.64-1.67 2.03-9.82 4.44-15.95-9.13-19.29-16.65-1.87-4.23-2.18-7.93-.92-11.05 4.36.1 7.9-.44 10.64-1.64 2.33-1.03 5.72-.98 10.18.13zM1256.88 358.27c.85.69 1.87 1.51 2.33 2.54 3.18 7 6.77 13.93 10.77 20.78 3.16 5.44 2.97 12 2.77 18.06-.26 8.08-7.23 8.08-13.13 9.31-.95.18-1.67.69-2.16 1.49-1.2 1.9-2.77 3.23-4.69 4.03-2.13.85-2.74.23-1.87-1.9 1.95-4.8 4.98-8.82 9.1-12.08.31-.26.56-.59.74-.95l3.74-8c.39-.82.2-1.46-.59-1.95-.2-.13-.44-.2-.67-.23-.33-.03-.72.08-1.1.33-6.16 4.08-11.23 4.9-15.21 2.51-.2-5.67-.03-10.95.56-15.9.33-2.92 1.64-5.93 3.87-9.03 2.1-2.9 3.95-5.9 5.51-9z" style="fill:#56adfc;stroke-width:0"/><path d="M2166.98 379.97c-12.75-9.8-28.32-11.98-46.73-6.52-7.08 2.08-10.36 6.8-13.44 13.08a3.785 3.785 0 0 1-4.75 1.87c-5.8-2.18-11.21-.95-16.24 3.69-6 5.57-11.98 10.72-17.95 15.47-.18.13-.36.13-.54-.03l-.59-.51c-.41-.33-.46-.95-.13-1.39 8.82-11.46 17.31-20.54 25.44-27.29 9.31-7.69 20.39-13.77 33.19-18.21 16.06-5.57 37.99.15 43.29 18.77.57 1.95.05 2.31-1.56 1.05zM1589.59 360.94c-6.59 9.52-10.95 18.88-13.08 28.08-2.54-1.87-4.31-4.16-5.31-6.9-2.64-7.21 6.23-16.62 11.18-20.98 2.08-1.82 4.49-1.87 7.21-.21z" style="fill:#f9f9f1;stroke-width:0"/><path d="M1589.59 360.94c6.59 5.57 13.7 11.64 21.31 18.29 1.28 1.13 1.74 2.67 1.39 4.64-.28 1.62-.77 3.28-1.41 4.95-1 2.56-2.77 4.16-5.36 4.8-.92.2-1.9.15-2.8-.15l-12.41-4.36c-1.05-.39-1.69 0-1.9 1.1-.18.97.08 2.28.74 3.95-.77-.77-1.54-1.28-2.28-1.54-.49-.18-.72 0-.74.51 0 .28 0 .54-.03.77-.46.03-.95-.08-1.44-.33-.54-.28-1.1-.36-1.69-.23-2.69.54-4.85-.9-6.46-4.31 2.13-9.21 6.49-18.57 13.08-28.08z" style="fill:#56adfc;stroke-width:0"/><path d="m595.8 365.45-15.54 19.65c-2.31-.13-3.36-.97-3.13-2.59 1.31-9.57 6.49-15.9 15.52-18.98.87-.31 1.92.33 3.16 1.92z" style="fill:#f9f9f1;stroke-width:0"/><path d="M1287.74 363.81c.1-.13.31-.13.44 0l.03.03c1.77 1.69 1.8 4.51.08 6.31l-.15.13c-1.72 1.8-4.54 1.87-6.28.18l-.03-.03a.325.325 0 0 1-.03-.44l5.95-6.18z" style="fill:#472835;stroke-width:0"/><path d="M1839.94 364.66c.87.05 1 .87.41 2.44-.39 1.05-1.72 1.44-2.59.72-.74-.59-1-1.2-.72-1.85.82-.69 1.8-1.13 2.9-1.31z" style="fill:#acc9b8;stroke-width:0"/><path d="m595.8 365.45 14.23 20.03c.85 1.21.85 2.82-.05 4-5.21 6.93-11.72 8.87-19.57 5.87-2.05-.77-3.92-2.26-5.62-4.44-1.54-1.97-3.05-3.9-4.54-5.82l15.54-19.65z" style="fill:#56adfc;stroke-width:0"/><path d="M229.37 370.53c-.54 3.16-2 6.05-4.39 8.75-.56.61-.95 1.39-1.13 2.18-.69 3.26-1.87 5.51-3.54 6.77-5.13-4.23-6.18-8.31-3.18-12.29 2.85-3.77 6.23-6.93 10.13-9.46.85-.56 1.36-.33 1.54.67l.56 3.39zM945.64 370.63l-6.67 13.59a4.54 4.54 0 0 0-.46 2v1.56c0 1.15-.56 1.82-1.67 2.03-1.1.18-2.18.1-3.28-.26-1.67-1.28-3.1-2.87-4.33-4.77-.59-.9-.61-1.82-.05-2.77 3.21-5.46 7.62-10.64 13.23-15.57.74-.64 1.41-.56 1.97.23.59.85 1.03 2.15 1.26 3.95z" style="fill:#f9f9f1;stroke-width:0"/><path d="M1233.7 365.71c.26.41.41.85.49 1.31.1.95-.33 1.44-1.28 1.41-.74 0-1.39-.44-1.97-1.33.49-1.39 1.41-1.85 2.77-1.39z" style="fill:#acc9b8;stroke-width:0"/><path d="M229.37 370.53c3.74 9.52 5.18 16.16 13.46 24.78.44.44.72.97.87 1.59.15.69.03 1.28-.41 1.82-1.1 1.31-1.87 1.13-2.36-.49-.44-1.46-1.39-2.41-2.87-2.82-2.54-.69-5.13-1.08-7.72-1.1-1-.03-1.36.46-1.1 1.41.9 3.56 4.64 5.8 7.13 8.26 1 1 1.39 2.21 1.15 3.56-.23 1.46-1.08 2.33-2.49 2.62-1.64.31-3.15-.97-3.08-2.64.1-3.08-1.03-5.93-3.36-8.57-3.39-3.82-6.15-7.39-8.28-10.72 1.67-1.26 2.85-3.51 3.54-6.77.18-.8.56-1.56 1.13-2.18 2.39-2.69 3.85-5.59 4.39-8.75zM945.64 370.63c.69 1.56 1.39 3.08 2.08 4.54.69 1.49 1.59 2.85 2.67 4.08 2.92 3.33 2.92 7.54 0 12.59-1.36 2.33-3.49 1.9-4.95 4.54a4.62 4.62 0 0 1-4.92 2.28c-3.46-.67-5.77-3.69-6.95-9.1 1.1.36 2.18.44 3.28.26 1.1-.2 1.67-.87 1.67-2.03v-1.56c0-.69.15-1.36.46-2l6.67-13.59z" style="fill:#56adfc;stroke-width:0"/><path d="M1282.96 381.41c-.74.63-3.33-1.16-5.78-4.04-2.45-2.87-3.83-5.71-3.08-6.34.74-.63 3.33 1.16 5.78 4.04 2.45 2.87 3.84 5.71 3.09 6.34z" style="fill:#472835;stroke-width:0"/><path d="M2219.84 381.3c-16.18-2.26-30.06 3.18-41.63 16.29.44-9.75 5.41-16.88 14.9-21.39 6.39-3.03 13.13-2.21 19.77-.51 2.49.64 4.8 2.51 6.95 5.62z" style="fill:#f9f9f1;stroke-width:0"/><path d="m2219.84 381.3 12.41 9.41c.79.61.72 1.85-.18 2.33-4.67 2.56-8.34 6.18-13.21 8.26-2.41 1.03-4.46 2.59-6.13 4.69-2.26 2.82-5.31 4.31-9.16 4.49-.67.03-1.23-.51-1.26-1.18v-.85c0-.54-.21-.95-.61-1.28a50.915 50.915 0 0 0-10.85-6.85c-.77-.33-1.44-.82-2.03-1.41-2.08-2.13-5.62-2.59-10.62-1.33 11.56-13.11 25.44-18.54 41.62-16.29z" style="fill:#56adfc;stroke-width:0"/><path d="m629.35 387.05 4.49 4.49c.21.2.36.18.49-.08.18-.33.15-.51-.08-.56.62 1.03.77 2.36.49 3.97l-13.98-10.69c2.33-.18 3.64.08 3.95.77 1.21 1.05 2.77 1.77 4.64 2.1z" style="fill:#acc9b8;stroke-width:0"/><path d="M1839.66 386.54c-1.36 2.74-3.36 5.1-6 7.08-4.36 3.26-5.59 7.36-3.67 12.31.44 1.15.18 1.36-.79.59-3.82-2.95-4.95-6.54-3.41-10.75 5.36-14.7 18.57-14.03 28.19-4.51.64.64.64 1.72-.03 2.36l-.67.64c-.46.46-1.23.41-1.62-.13-2.44-3.31-5.41-5.39-8.95-6.26a3.96 3.96 0 0 1-1.92-1.08c-.08-.08-.15-.18-.21-.28-.33-.57-.64-.57-.92.02zM1241.16 398.62c-2.64-2.08-5-3.44-7.08-4.08-2.13-.67-4.49 0-7.05 1.97a49.273 49.273 0 0 0-10.98 11.85c-.56.1-1.2-.44-1.9-1.62-.44-.74-.59-1.54-.44-2.39 1.46-8.28 10.18-13.26 16.85-17.57.85-.54 1.59-.41 2.18.41l8.41 11.41zM1570.46 400.59l-9.16-6.62a5.679 5.679 0 0 0-7.54.8c-5.13 5.67-9.72 7.62-11.95 16.85-.64.87-1 1.31-1.08 1.31-1.18-.03-2.13-.95-2.15-2.1-.18-10.85 4.85-17.88 15.11-21.08 3.82-1.2 7.16-.95 9.98.77 3.08 1.85 5.33 5.21 6.8 10.08zM220 409.64c-2.33-6.13-6.21-10.75-11.62-13.82-.74-.44-1.51-.44-2.28-.03-6.26 3.36-11.23 7.77-14.95 13.23-3.49-1.41-4.28-3.59-2.36-6.49 3.69-5.57 13.21-14.52 20.93-10.36 6.8 3.67 10.21 9.49 10.29 17.47zM581.28 401.36 569 395.95c-1.13-.49-1.64-.13-1.57 1.1.13 1.87-.13 3.8-.72 5.77-.44 1.36-1.28 2.15-2.57 2.36-.95.13-1.57-.26-1.79-1.21l-.46-1.69c-.41-1.56-1.31-1.92-2.67-1.08-3.33 2.03-5.95 5.44-7.87 10.29-4.18-11.31 8.82-18.29 18.24-19.98.85-.15 1.56.08 2.15.67l9.54 9.18z" style="fill:#f9f9f1;stroke-width:0"/><path d="M1589.15 394.15c1.67 1.46 2.74 3.16 3.26 5.03.26.95-.05 1.2-.95.77-2.21-1.1-4-3.13-5.36-6.05.03-.23.03-.49.03-.77.03-.51.26-.69.74-.51.74.26 1.51.77 2.28 1.54z" style="fill:#acc9b8;stroke-width:0"/><path d="M1570.46 400.59c2.82 1.92 3.56 5.08 2.21 9.46-.64 2.05-1.85 2.69-3.67 1.92-.87-.39-1.44-1-1.72-1.9-.44-1.31-1.31-2-2.64-2.13-6.21-.51-11.11-.03-14.72 1.46-3.67 1.51-6.36 2.23-8.1 2.21 2.23-9.23 6.82-11.18 11.95-16.85 1.95-2.15 5.21-2.49 7.54-.8l9.16 6.62z" style="fill:#56adfc;stroke-width:0"/><path d="M936.07 414.88c-2.36-5.9-5.72-10.69-10.08-14.41-1.36-1.15-2.72-1.9-4.13-2.23-1.26-.28-2.67.03-4.21.95-6.59 3.97-12.21 9.16-16.88 15.57-2.97-9.49 6.64-17.36 14.36-20.65 1.9-.8 3.77-.72 5.59.18 8.8 4.39 13.93 11.23 15.34 20.59z" style="fill:#f9f9f1;stroke-width:0"/><path d="M1241.16 398.62c1.49.1 2.67 1.26 3.56 3.46.59 1.46.77 2.97.49 4.56-1.05 6.44-3.16 13.03-6.31 19.78-1.54 3.31-2.54 3.16-3-.46-.36-2.69-1.18-5.08-2.46-7.1-1.05-1.62-2.9-3.1-5.59-4.51-2.72-1.41-5.28-3.1-7.72-5.05.54-.51-.82-.82-4.08-.92 3-4.54 6.64-8.49 10.98-11.85 2.56-1.97 4.93-2.64 7.05-1.97 2.08.64 4.44 2 7.08 4.08zM220 409.64c.23 6.95-1.9 13.7-6.39 20.19-.69 1-2.18.82-2.64-.28-1.31-3.21-1.77-5.95-4.49-8.44-4.74-4.31-9.88-8.34-15.34-12.08 3.72-5.46 8.7-9.88 14.95-13.23.77-.41 1.54-.41 2.28.03 5.41 3.08 9.28 7.69 11.62 13.82zM581.28 401.36c1.74 5.03-.82 11.03-7.67 18.01-1.57 1.62-3.72 1.95-6.49 1-3.51-1.2-6.85-1.74-10.03-1.64-.79.03-1.46-.23-2.03-.77-2.23-2.05-3.46-4.21-3.72-6.46 1.92-4.85 4.54-8.26 7.87-10.29 1.36-.85 2.26-.49 2.67 1.08l.46 1.69c.23.95.85 1.33 1.79 1.21 1.28-.2 2.13-1 2.57-2.36.59-1.97.85-3.9.72-5.77-.08-1.23.44-1.59 1.57-1.1l12.29 5.41z" style="fill:#56adfc;stroke-width:0"/><path d="M1878.52 400.18c-.28.2-1.05.18-2.31-.05.87-2.1 1.87-3.41 3-3.92.74-.33 1.08-.08 1.03.72-.08.95-.67 2.05-1.72 3.26z" style="fill:#acc9b8;stroke-width:0"/><path d="M936.07 414.88c.08 2.62-1.56 3.74-4.9 3.36-5.82-.64-10.8 1.41-14.98 6.13-.54.62-1.31.95-2.1.97-7.1.13-11.54-3.39-13.31-10.59 4.67-6.41 10.29-11.59 16.88-15.57 1.54-.92 2.95-1.23 4.21-.95 1.41.33 2.77 1.08 4.13 2.23 4.36 3.72 7.72 8.52 10.08 14.41z" style="fill:#56adfc;stroke-width:0"/><path d="M605.5 406.77c-.26-.51-.64-.74-1.15-.67-1-1.97-.85-3.69.44-5.1.67-.74 1.08-.62 1.26.36.33 1.72.15 3.54-.54 5.41z" style="fill:#5f7a70;stroke-width:0"/><path d="M1451.32 443.81s-.05.05-.08.03l-.62-.15c-.39-.08-.54-.33-.46-.72.69-3.62 1.92-7 3.74-10.16 8.1-14.08 19.26-23.67 33.47-28.75 11.95-4.26 23.29-6.98 34.42.8 3.16 2.21 2.9 2.72-.74 1.51-20.57-6.8-44.01 3.59-58.53 18.29-5.44 5.49-9.18 11.88-11.21 19.16zM1746.86 440.01c7.21-19.39 19.83-32.04 37.91-37.91 8.13-2.64 17.82-1.72 29.11 2.77.56.23.74.64.54 1.21l-.23.67c-.03.1-.1.13-.21.1-13.82-3.62-26.91-1.95-39.24 4.95-11.98 6.72-20.93 16.39-26.83 29.03-.05.08-.13.1-.2.08l-.59-.28c-.28-.13-.36-.34-.26-.62zM110.33 441.78c6.74-17.52 18.83-29.44 36.21-35.78 10.41-3.82 20.65-3.39 30.7 1.26 2.9 1.33 2.74 1.85-.41 1.51-5.72-.56-12.08-2.54-17.72-1.62-18.18 2.95-31.78 10.75-40.81 23.39-2.36 3.28-4.77 7.16-7.23 11.59-.13.23-.31.28-.54.15-.23-.1-.31-.28-.2-.51zM868.8 406.98c-23.39 1.69-44.06 16.75-53.6 38.01-.05.13-.13.15-.23.1l-.69-.31c-.26-.1-.33-.28-.26-.56 9.08-25.11 34.11-43.35 60.71-40.27 3.16.39 6.13 1.59 8.87 3.67 1.08.85.95 1.2-.41 1.08-4.64-.39-9.82-2.05-14.39-1.72zM476.28 435.42c-2.64 3.44-3.46 7.39-5.62 11.13-.85 1.46-1.18 1.36-1.05-.31 1.18-16.36 22.47-32.93 35.5-38.4 8.1-3.41 21.98-6.41 29.47-.39 1.51 1.2 1.31 1.8-.62 1.77-3.67-.08-7.23-.2-10.72-.39-17.8-.95-36.24 12.7-46.96 26.57zM1137.93 445.4c-1.31 2.64-1.67 2.51-1.13-.39 2.1-11.41 13.82-23.9 23.49-31.03 12.95-9.57 27.42-10.77 42.94-6.39 2.49.69 2.46 1.08-.13 1.15-8.82.26-18.42 0-26.78 2.74-17.34 5.67-30.14 16.98-38.4 33.91z" style="fill:#f9f9f1;stroke-width:0"/><path d="M604.34 406.11c.51-.08.9.15 1.15.67-.59 3.21-2.23 4.39-4.92 3.54-.49-.74-.92-1.05-1.28-.95 1.67-.13 3.33-1.23 5.05-3.26zM2193.98 422.66c-.23.28-1.84-.6-3.66-1.96-1.82-1.36-3.1-2.69-2.89-2.98.23-.28 1.84.6 3.66 1.96 1.82 1.36 3.1 2.69 2.89 2.98z" style="fill:#acc9b8;stroke-width:0"/><path d="M1846.08 425.44c.32.33-.27 1.39-1.28 2.32-1.03.94-2.11 1.43-2.43 1.07-.32-.33.27-1.39 1.28-2.32 1.03-.94 2.11-1.43 2.43-1.07zM929.54 436.35c.15.84-1.03 1.74-2.61 2.02-1.6.28-3.01-.18-3.15-1.01-.15-.84 1.03-1.74 2.61-2.02 1.6-.28 3.01.18 3.15 1.01z" style="fill:#f9f9f1;stroke-width:0"/><path d="M2402.64 477.89c-4.1.49-7.8-2.44-8.31-6.52l-.1-.9c-1.51-12.75 5.21-24.03 15.03-25.19l.62-.08c9.82-1.18 19 8.21 20.52 20.95l.1.9c.51 4.08-2.41 7.8-6.51 8.29l-21.34 2.54m14.7-19.67c-5.77-6.62-10.75-.8-10.52 5.67.05 1.03.85 1.87 1.87 2 5.82.67 8.93-1.15 9.34-5.49.08-.79-.18-1.56-.69-2.18z" style="fill:#2a3b77;stroke-width:0"/><path d="M2406.82 463.89c-.23-6.46 4.75-12.29 10.52-5.67.51.61.77 1.39.69 2.18-.41 4.33-3.51 6.16-9.34 5.49-1.02-.13-1.82-.98-1.87-2z" style="fill:#f9f9f1;stroke-width:0"/><path d="M2467.48 522.73c7.33 2.64 16.49 4.77 21.62 10.77.59.69.9 1.49.9 2.39.1 6.49-1.08 22.7-10.31 23.36-7.51.54-16.39.23-23.62-1.15-2.98-.59-5.39-3.54-7.21-8.87-3.54-10.29-.82-18.49 8.18-24.65 3.57-2.44 7.05-3.05 10.44-1.85m11.04 17.46c.45-3.1-1.68-5.97-4.79-6.43l-8.68-1.27c-3.09-.46-5.99 1.7-6.43 4.79l-.14.96a5.666 5.666 0 0 0 4.79 6.43l8.68 1.27c3.09.46 5.99-1.7 6.43-4.79l.14-.96zM2354.32 562.33l-5.87-13.52c-.36-.8-.49-1.67-.39-2.51 1.56-14.7 13.93-21.39 27.88-19.49 10.44 1.46 18.16 15.7 22.14 24.24 2.49 5.28 3.64 10.69 3.51 16.23-.08 2.44-2.1 4.39-4.54 4.33l-40.52-.82c-1.23-.03-2.33-.8-2.77-1.95-.44-1.21-.31-2.39.39-3.59.54-.95.62-1.92.18-2.92m5.33-19.93c-2.23 7.21-.72 13.77 4.54 19.75.67.74 1.49 1.13 2.49 1.13l23.16.1c.74.03 1.39-.51 1.51-1.26.21-1.44-.05-2.54-.77-3.31-2.13-6.85-5.49-12.93-10.05-18.24-6.26-7.31-16.75-10.21-20.88 1.82zM2315.74 531.32l11.88 2.21c4.18.77 6.28 5.46 4.1 9.08l-3.49 5.77a6.068 6.068 0 0 1-7.44 2.49l-10.41-4.18c-3.33-1.33-4.8-5.28-3.1-8.46l2.03-3.77c1.23-2.33 3.85-3.59 6.44-3.13z" style="fill:#2a3b77;stroke-width:0"/><path d="M2478.38 541.15c-.44 3.09-3.34 5.25-6.43 4.79l-8.68-1.27a5.666 5.666 0 0 1-4.79-6.43l.14-.96c.44-3.09 3.34-5.25 6.43-4.79l8.68 1.27c3.11.46 5.24 3.33 4.79 6.43l-.14.96zM2390.58 558.81c-1.56-2.49-3.21-4.56-4.9-6.21-1.72-1.67-4-2.74-6.9-3.23-4.28-.74-8.28-1.1-12-1.1-.95 0-1.74-.33-2.41-1-.74-.74-1.62-1.05-2.62-.87-1 .18-1.56-.23-1.72-1.23l-.39-2.77c4.13-12.03 14.62-9.13 20.88-1.82 4.57 5.31 7.93 11.39 10.05 18.24z" style="fill:#d3e3f4;stroke-width:0"/><path d="m2359.65 542.4.39 2.77c.15 1 .72 1.41 1.72 1.23 1-.18 1.87.13 2.62.87.67.67 1.46 1 2.41 1 3.72 0 7.72.36 12 1.1 2.9.49 5.18 1.56 6.9 3.23 1.69 1.64 3.33 3.72 4.9 6.21.72.77.98 1.87.77 3.31-.13.74-.77 1.28-1.51 1.26l-23.16-.1c-1 0-1.82-.39-2.49-1.13-5.26-5.98-6.77-12.54-4.54-19.75z" style="fill:#a3bbe8;stroke-width:0"/><path d="m2428.11 553.02-18.16.72c-2.08.08-3.44-2.1-2.51-3.92l2.05-3.98c.46-.9 1.41-1.46 2.46-1.46l16.65.36c1.67.05 2.9 1.56 2.59 3.21l-.54 2.9a2.678 2.678 0 0 1-2.54 2.18m-6.21-4.77a4.47 4.47 0 0 0-1.46 0c-1 .15-1.13.56-.33 1.21 1.08.92 2.26 1.08 3.54.44.62-.31.49-1.21-.18-1.33-.54-.1-1.05-.21-1.57-.31z" style="fill:#130d14;stroke-width:0"/><path d="M2421.9 548.25c.51.1 1.03.2 1.56.31.67.13.79 1.03.18 1.33-1.28.64-2.46.49-3.54-.44-.79-.64-.67-1.05.33-1.21.49-.08.98-.08 1.46 0z" style="fill:#f9f9f1;stroke-width:0"/><path d="M1374.53 549.97c2.59 3.85 5.9 5.72 9.95 5.64 65.53-1.18 129.6.44 194.41-.46 10.52-.13 20.26-.08 29.21.15 9.41.26 19.16.49 29.26.72-15.26 7.72-28.57 11.7-39.98 11.88-22.01.36-42.53.62-61.58.8-57.27.54-114.55-.39-171.84.15-44.04.44-88.05.41-132.09-.03-49.12-.49-99.87.51-146.2-.03-30.01-.36-57.48.05-86.46.1-78.69.15-157.38 0-236.07-.44-9.98-.05-18.7-1.64-26.16-4.77-2.26-.95-3.33-2.13-3.23-3.59.1-1.44.85-3.26 2.23-5.46 71.25.64 142.94.97 215.03 1 35.57.03 65.28-.39 89.13-1.23 2.51-.08 4.05-1.44 4.64-4.05 3.13.77 6.23.87 9.34.28 1 2.44 2.97 3.67 5.9 3.69 6.23.08 10.49.1 12.82.13 112.01 1.05 206.26 1.26 282.77.56 2.69-.03 4.54-1.26 5.49-3.72 1.67.56 3.26.44 4.8-.39.72-.39 1.49-.61 2.33-.64l6.29-.31zM338.29 551.61c3.26 2.39 6.1 3.59 8.54 3.59 90.69-.1 181.38.67 272.05-.1 18.13-.15 36.24-.05 54.37.31.08.67.23 1.23.46 1.67.39.69.28 1.33-.28 1.9-.28.28-.64.54-1.05.77-20.98 10.85-45.29 8.87-66.99 8.98-96.9.41-204.06.36-321.47-.15-30.78-.13-64.22.74-96.33.26-29.57-.44-57.2.51-85.46.03-9.98-.18-22.49-1-37.55-2.46-10.57-1.03-20.06-3.64-30.24-5.67-.87-.18-1.46-.67-1.77-1.46-.36-1 0-2.31 1.1-3.97 78.51.03 157.12-.03 235.81-.15 14.57-.03 30.16 1.03 45.71-1.74-.54 1.62.74 1.97 3.82 1.03 3.33-1.03 5.67-4.03 9.41-3.41 4.69.77 8 .97 9.87.62zM1703.03 555.3l182.46.28c-17.98 7.82-33.03 11.98-45.11 12.41-34.65 1.26-70.12 1.56-106.41.87-9.16-.15-21.08-.92-28.98-5.87-2.77-1.72-5.54-2.85-8.34-3.33-.31-.05-.44-.23-.41-.54l.08-.69c.03-.1.1-.15.2-.13 2.67.56 5.49.36 8.46-.62.28-.1.49-.26.67-.49.62-.8.44-1.18-.56-1.18-.95 0-1.64-.23-2.05-.72z" style="fill:#d3e3f4;stroke-width:0"/><path d="M2113.99 562.61c.02 2.57-2.05 4.65-4.61 4.68l-50.52.35c-2.57.03-4.65-2.05-4.68-4.61v-.36c-.03-2.57 2.05-4.65 4.61-4.68l50.53-.35c2.57-.03 4.65 2.05 4.67 4.61v.36z" style="fill:#2a3b77;stroke-width:0"/><path d="M2190.66 569.12c-.33-2.54.69-3.97 3.1-4.31 1.26-.18 2.33.2 3.23 1.1l4.87 4.87c1.49 1.46 1.18 2.21-.9 2.18l-10.44-.15c-1.36-.03-1.69-.61-1-1.77.13-.23.33-.44.56-.62.41-.28.62-.79.56-1.31z" style="fill:#f9f9f1;stroke-width:0"/><path d="M1938.28 575.87c12.93 2.56 24.57 8.77 15.39 22.13-.49.69-1.13 1.05-1.95 1.1-7 .49-14.39.33-22.16-.49-6.72-.69-9.31-4.33-7.8-10.93.36-1.56.92-3.08 1.67-4.59 3.1-6.18 8.05-8.59 14.85-7.23m.69 16.24 1.44.44c1.51.44 1.67.15.49-.87-2.72-2.39-5.08-.64-8.13-.8-.46-.03-.67.18-.64.64l.08.82c.03.33.21.49.54.51 1.18.08 2.33-.1 3.46-.59.9-.39 1.82-.44 2.77-.15zM2242.82 580.28c9.57 4 13.75 10.36 12.57 19.08-.39 2.9-1.92 4.82-4.64 5.74-8.95 3.08-23.26 7.41-30.11-1.28-2.85-3.62-3.26-8-1.23-13.21 4.33-11.05 12.54-14.85 23.42-10.34m1.31 15.67c1.05-.28 1.36-.92.9-1.9-1.62-3.36-4.08-5.82-7.39-7.39-2.62-1.23-5.72.08-6.64 2.82l-1.74 5.28c-.36 1.08.36 2.18 1.49 2.31 4.23.49 8.69.13 13.39-1.13zM2316.29 585.1c.25 3.82-3.8 7.21-9.07 7.55-5.27.35-9.73-2.5-9.97-6.32-.25-3.82 3.8-7.21 9.07-7.55 5.27-.35 9.73 2.5 9.97 6.32z" style="fill:#2a3b77;stroke-width:0"/><path d="M2244.13 595.95c-4.69 1.26-9.16 1.62-13.39 1.13-1.13-.13-1.85-1.23-1.49-2.31l1.74-5.28c.92-2.74 4.03-4.05 6.64-2.82 3.31 1.56 5.77 4.03 7.39 7.39.46.98.15 1.62-.9 1.9z" style="fill:#f9f9f1;stroke-width:0"/><path d="M1936.2 592.26c-1.13.49-2.28.67-3.46.59-.33-.03-.51-.18-.54-.51l-.08-.82c-.03-.46.18-.67.64-.64 3.05.15 5.41-1.59 8.13.8 1.18 1.03 1.03 1.31-.49.87l-1.44-.44a4 4 0 0 0-2.77.15z" style="fill:#acc9b8;stroke-width:0"/></g></svg>