<svg xmlns="http://www.w3.org/2000/svg" viewBox="0 0 3228.28 699.34" xmlns:v="https://vecta.io/nano"><style><![CDATA[.B{stroke-linecap:round}.C{stroke-width:14.76}.D{stroke-width:1.23}.E{stroke-linejoin:round}.F{stroke-width:9.84}]]></style><g fill="none" stroke="#8be8a9"><path d="m458.5 216.05.05-.05c5.26-24.25 9.15-50.67 5.21-64.99-4.58-16.68-79.26-20.76-148.33-53.58-39.21-18.65-76.7-50.33-97.85-69.91-4.48-4.13-11.46.05-10.13 5.95 7.08 31.68 1.43 60.81-3.94 73.35-1.92 4.38-6.89 6.69-11.46 5.12-45.21-15.79-73.94-77.34-82.6-99.08-1.48-3.64-6.15-4.67-9-1.92-47.88 46.35-70.02 147.45-75.72 178.84-.98 5.51.39 11.22 3.98 15.5C126.17 321.93 54 397.39 26.45 421.6c-5.61 4.92-6.05 13.53-.79 18.84 69.17 69.32 149.17 57.41 149.17 57.41" stroke-miterlimit="10" stroke-width="4.92"/><g class="B E F"><path d="M1003.58 275.09c-15.2-168.59-115.5-249.85-137.14-266-2.37-1.77-5.84-2.22-8.05-.26-12.19 10.82-54.05 42.66-89.22 54.69-3.94 1.35-6.15 5.59-6.8 9.71-4.27 27.44-25.71 130.01-101.59 75.66-3.68-2.64-8.87-1.33-10.7 2.81-13.68 30.89-56.81 145.41-1.41 256.49 3.06 6.13 8.84 10.46 15.61 11.51l19.68 3.05c1.46.23 2.47 1.59 2.27 3.06l-3.41 24.06c-.22 1.53-.09 3.09.45 4.54 2.3 6.15 10.72 22.69 36.94 31.92m813.23-274.15s62.55-111.56 50-150.68c-.94-2.93-4.97-3.31-6.58-.68-16.87 27.61-103.02 143.29-351.36 121.3-4.25-.38-8.51.76-11.93 3.31-12.77 9.51-43.62 35.79-50.07 71.9-6.54 36.65 24.26 88.65 36.84 107.99 3.82 5.86 4.03 13.36.46 19.38-4.51 7.6-13.15 17-29.45 22.09-5.44 1.7-8.91 7.04-8.31 12.71 2.23 20.93 14.29 67.24 76.26 85.96m882.75-180.34h.05c54.61-5.71 110.2-4.13 162.06 9.79 90.38 24.25 152.86 25.83 195.12 19.24 14.07-2.16 25.93-5.26 35.82-8.71"/><use href="#B"/></g></g><g fill="#8be8a9"><path d="M462.97 196.32c2.46.2 4.03 1.23 2.8 3.49-2.9 5.17-6.3 9.99-9.4 15.01-3.1 4.97-5.46 10.23-7.53 15.64-4.28 11.32-7.87 22.88-11.76 34.29-.49 1.48-1.87 2.51-3.39 3.25.25 0 .54-.05.79-.05 2.21-.15 5.41.84 3.69 3.44-1.82 2.76-6.49 3.49-9.5 3.69-4.92.3-10.28.93-15.4 2.21l-1.53-5.85c4.08-1.08 8.27-1.87 12.45-2.46-1.03-.39-1.72-1.08-1.33-2.31 3.98-11.76 7.67-23.76 12.15-35.37 2.26-5.71 4.92-11.27 8.12-16.48 3.1-5.02 6.54-9.84 9.45-15.01 0-.05.05-.05.05-.1-2.07-.15-3.54-.89-3.3-2.46 1.38-7.92 1.08-15.55.05-23.47-.54-3.89-.34-7.48-.05-11.41.05-.69-.05-1.43-.1-2.12-1.28-.2-2.36-.74-2.85-1.57-.98-1.72-1.33-3.64-2.21-5.41-.93-1.77-2.66-2.41-4.38-3.3-4.08-1.97-8.17-3.89-12.5-5.26-7.13-2.36-16.68-1.53-22.38-6.99-1.77.39-3.69.44-5.36.1-2.9-.49-5.66-1.48-8.51-2.26-1.38-.39-2.85-.74-4.28-1.03-.15-.05-1.72-.3-1.72-.3-.54-.1-1.13-.15-1.67-.25-3.25-.39-6.49-.74-9.74-1.28-3.05-.44-6.25-.98-8.95-2.51-1.53-.84-1.72-2.07-1.33-3.25-.59-.05-1.18-.1-1.72-.3-5.36-2.07-10.92-3.54-16.38-5.21-5.46-1.72-10.77-3.89-16.04-6.15-5.36-2.21-10.72-4.33-16.24-6.3l-3.74-1.38c-.84 0-1.62-.05-2.36-.3-6.15-1.82-11.07-5.26-14.96-10.18-1.87.34-3.74.25-5.26-.44-8.02-3.64-14.37-9.79-21.55-14.71-1.38-.98-2.8-1.92-4.23-2.85-2.12.3-4.13.15-5.31-.34-5.17-2.26-9.4-6.99-13.48-10.77-1.13-1.08-2.16-2.26-3.3-3.35-2.71.49-5.41.25-6.44-1.13l-6.2-7.77c0 .05 0 .1-.05.15a3.04 3.04 0 0 1 .15 1.33v.84c-.05.1-.05.15-.1.2.1.15.2.15.25.3v.25c.1.59-.05 1.13-.34 1.67.15.34.2.69.1 1.13v.79c-.05.2-.15.34-.2.54.05.1.1.15.15.25.39.54.49 1.08.34 1.72v.3c-.1.44-.3.89-.49 1.28 0 .25 0 .49-.05.69.15.25.39.34.49.64.15.64.1 1.23-.2 1.77-.15.44-.49.84-.79 1.23.15.2.3.44.39.74.39.59.54 1.33.44 2.07v1.08a5.352 5.352 0 0 1-1.23 2.8c-.39.39-.84.79-1.23 1.18h-.05c.64.64.89 1.53.2 2.8 0 .05-.1.15-.15.2.15.15.34.25.44.39.34.44.44.93.25 1.48v.3c-.15.54-.44 1.03-.79 1.48.1.69-.05 1.38-.54 1.97 0 0-.05.05-.05.1s0 .05-.05.05c-.1.2-.15.39-.25.54-.34.74-.84 1.33-1.53 1.77a3.46 3.46 0 0 0-.39.25c.84.74 1.28 1.82 1.03 3.05a1.28 1.28 0 0 1 .1 1.13c-.15.54-.34 1.08-.49 1.62-.3.84-.74 1.53-1.43 2.07-.1.05-.25.15-.34.25 0 .2 0 .44-.05.69.05.05.1.05.15.1v.3c0 .54-.2.98-.69 1.33a9.7 9.7 0 0 0-.93.69h-.05c.39.84.39 1.82-.1 2.9-.15.34-.34.64-.54.93-.59 1.48-1.23 2.95-2.07 4.28-.98 1.53-2.12 2.95-3.25 4.33-.89 1.03-1.87 2.07-2.8 3.1-.59.64-1.23 1.13-1.92 1.62.25.34.25.79-.2 1.33-37.78 46.54-82.21 87.28-131.65 121.07-1.38.93-3.44 1.77-5.51 2.31l-2.66-4.87a612.513 612.513 0 0 0 126.88-117.53c.2-.25.54-.49.93-.74-.15-.1-.3-.15-.39-.25-.44.15-.84.3-1.28.39l2.76-6.25c.2.1.39.15.59.25.34-.25.69-.49 1.03-.69l1.08-1.08a30.02 30.02 0 0 0 1.53-1.82c1.18-1.53 2.26-3.15 3-4.92.15-.39.39-.74.64-1.03.05-.49.1-1.03.34-1.57.3-.69.79-1.23 1.28-1.67-.39-.89-.39-1.92.1-3 .39-.89 1.03-1.57 1.77-2.16 0-.05 0-.1.05-.15.05-.15.15-.3.2-.44-.3-.79-.3-1.67.15-2.66.25-.54.59-.93.93-1.38-.05-.05-.2-.05-.25-.2-.34-.3-.39-.69-.2-1.13.1-.2.2-.39.3-.54.1-.25.34-.39.49-.59v-.49c-.15-.79 0-1.43.49-2.02.1-.1.2-.2.25-.3 0-.2 0-.44.05-.64v-.3c.15-.44.39-.84.64-1.23-.3-.34-.49-.79-.44-1.28-.3-.59-.34-1.23-.3-1.87-.3-1.62.3-3.44 1.67-4.87 0-.15-.05-.25-.05-.44v-1.08c.1-.69.34-1.28.69-1.87-.2-.25-.49-.44-.54-.79-.2-.59-.15-1.18.2-1.72.1-.39.39-.64.59-.93-.05-.25-.15-.44-.1-.64-.05-.1-.15-.15-.15-.25-.39-.49-.49-1.08-.34-1.72v-.3c.05-.15.15-.34.2-.49-.05-.1-.1-.15-.15-.25-.34-.49-.44-1.03-.3-1.62v-.84c.05-.25.2-.49.3-.74v-.05c-.05-.39 0-.79.1-1.13 0-.05-.05-.1-.05-.1-.39-.64-.54-1.33-.44-2.07v-.84c.05-.2.15-.34.2-.54-.1-.3-.15-.64-.15-.93-.15-.74-.05-1.48.34-2.16.1-.2.15-.34.25-.54.05-.1.1-.15.15-.25s.05-.15.1-.3c-.15-.25-.34-.54-.44-.84-.39-.64-.54-1.33-.44-2.07v-.84c.05-.15.15-.3.15-.49-.05-.25-.15-.54-.25-.84-.05-.15 0-.3 0-.49h-.05v-.74c.05-.44.15-.84.34-1.23-.25-.25-.49-.39-.59-.79v-.25c-.05-.1 0-.2 0-.3-.1-.1-.25-.1-.34-.25-.1-.64-.15-1.28-.25-1.92-.05-.39.1-.69.3-.98-.34-.25-.34-.59-.1-1.03-.1-.25-.25-.49-.25-.79-.25-.3-.44-.59-.54-.98-.05-.3-.15-.59-.25-.84-.05-.15 0-.3 0-.44-.3-.49-.39-.98-.25-1.53v-.3c0-.15.1-.25.15-.34-.05-.39-.05-.74.05-1.13-.54-.1-1.08-.2-1.53-.44-2.12-.05-2.36-.74-1.53-1.72-.1-.54 0-1.13.34-1.87 1.43-2.95 6.59-3.89 9.45-3.89 2.36 0 4.67 1.03 4.13 3.3.64.3 1.13.64 1.53 1.08h.39c.74.2 1.33.54 1.82 1.08.59.34.93.89 1.08 1.53l.3 1.13c.2.89.05 1.72-.39 2.51 0 .05-.05.1-.1.15 1.97-.15 3.79.2 4.62 1.33l7.72 9.74c1.72-.15 3.49.1 4.53 1.23 3.39 3.59 6.89 7.08 10.43 10.48 1.23.15 2.36.44 3.35 1.18 6.69 5.61 14.32 9.89 21.5 14.86 6.79 4.72 12.89 10.53 20.47 14.02a2.64 2.64 0 0 1 1.08.79c2.46-.49 4.72-.39 5.61.93 1.48 2.12 3.25 3.94 5.21 5.51 1.87-.2 3.44 0 4.08.59 3.74 3.49 8.41 4.82 13.14 6.54 5.07 1.82 10.04 3.89 15.01 5.95 10.18 4.33 20.81 6.89 31.09 10.82 1.13-.15 2.36-.15 3.3.2l4.82 1.77c.98.34 1.82.89 2.36 1.57l6.94.89c3.05.44 6.05.93 9 1.77 2.85.84 5.61 1.77 8.51 2.31.49.1.98.3 1.48.59 2.95-.79 6-.79 7.04.64 2.8 3.94 6.89 4.62 11.36 5.26 4.82.69 9.45 1.77 13.97 3.54 4.23 1.62 8.51 3.54 12.5 5.76.25.15.44.34.69.49 1.57-.3 6.4-.93 6.64 1.38.44 4.08 2.02 7.82 1.82 12-.25 4.13-.39 7.82.2 12 1.08 8.02 1.08 16.04-.3 24.06-.05.39-.3.79-.54 1.13z"/><path d="M452.64 199.72s-.05.05-.05.1c-2.9 5.17-6.35 9.99-9.45 15.01-3.2 5.21-5.85 10.77-8.12 16.48-4.48 11.61-8.17 23.61-12.15 35.37-.39 1.23.3 1.92 1.33 2.31-4.18.59-8.36 1.38-12.45 2.46-5.02 1.28-9.89 2.95-14.56 5.12-10.68 4.87-20.37 13.92-27.6 23.12-6.94 8.86-10.48 19.68-13.04 30.5-.59 2.71-1.43 5.46-1.48 8.22-.05 3.15 1.23 5.9 2.02 8.9 1.28 4.97 1.57 10.09 1.72 15.2-2.46-.15-4.92-.25-7.38-.2-4.08.1-8.56.25-12.3 1.92-4.03 1.82-6.15 5.31-8.61 8.81-4.33 6.15-9.2 12.2-12.69 18.89-3.44 6.49-4.92 13.78-8.41 20.22-.1.2-.15.34-.2.54-10.87.84-21.3 4.53-27.06 14.86-1.62 2.9-2.8 6-4.08 9.1-.64 1.53-1.97 3.74-2.36 5.31-.1.15-.2.2-.25.3-.39 0-.93 0-1.57.1-8.46-1.67-18.5-2.36-27.16-2.16a39.25 39.25 0 0 0-8.81 1.28c-5.02 1.28-9.69 3.44-14.46 6.05l-22.43 11.76c-14.37 7.82-26.96 17.76-36.01 31.54-9.64-.3-19.09-2.36-28.53-4.28-4.97-.98-9.99-1.77-15.01-2.66-4.43-.84-8.71-1.97-12.1-5.07-1.97-1.82-5.21-1.62-7.77-.84-.44-.2-.93-.34-1.33-.44 0 0-1.18-.49-1.62-.64l-2.51-1.18c-1.57-.74-3.1-1.53-4.72-2.21-2.95-1.18-6.1-1.87-9-3.1-1.18-.49-2.46-1.08-3.39-1.77-1.23-.98-2.31-2.16-3.59-3.05-2.61-1.92-4.97-2.85-6.94-5.41-.79-.93-2.8-1.18-3.84-1.18-.25 0-.49.05-.74.05.15-.3.25-.64.15-.98-.25-.84-1.18-1.18-2.02-1.38-.1-.25-.54-.54-.74-.74-.49-.49-.93-1.03-1.53-1.48-1.33-1.03-3-1.57-4.58-2.21-2.76-1.08-4.92-3.98-7.04-6.3-2.41-2.66-5.12-5.21-7.13-8.22-1.72-2.61-3.49-6.49-2.85-9.74.25-1.43-.89-2.02-2.31-2.21a1.63 1.63 0 0 1-.05-.84c1.87-.44 3.79-1.13 5.26-2.21 5.61-4.23 10.09-9.64 14.51-15.01 1.38-1.67 2.71-3.44 3.94-5.21.05 0 .15-.05.15-.05 2.36-.39 7.28-1.48 8.31-4.13 3.64-9.25 7.48-18.6 12.5-27.26 2.21-3.84 3.3-8.41 4.82-12.55l5.31-14.37c2.41-.89 4.33-2.51 4.43-4.48.39-6.59 2.07-12.89 3.05-19.33 1.08-6.99.49-13.73-.34-20.66-.84-6.54-.79-13.14-1.77-19.63-1.03-6.4-3.69-12.4-6.05-18.45-1.38-3.44-7.18-3.25-11.02-1.38-.84-1.87-1.92-3.69-3.05-5.61-.93-1.57-1.48-3.39-2.31-5.12a66.231 66.231 0 0 0-3.44-6.35v-.05c2.07-.54 4.13-1.38 5.51-2.31 49.44-33.8 93.87-74.53 131.65-121.07.44-.54.44-.98.2-1.33.69-.49 1.33-.98 1.92-1.62l2.8-3.1c1.13-1.38 2.26-2.8 3.25-4.33.84-1.33 1.48-2.8 2.07-4.28.2-.3.39-.59.54-.93.49-1.08.49-2.07.1-2.9h.05a13.07 13.07 0 0 1 .93-.69c.49-.34.69-.79.69-1.33v-.3s-.1-.05-.15-.1c.05-.25.05-.49.05-.69.1-.1.25-.2.34-.25.69-.54 1.13-1.23 1.43-2.07.15-.54.34-1.08.49-1.62a1.28 1.28 0 0 0-.1-1.13c.25-1.23-.2-2.31-1.03-3.05.15-.1.3-.2.39-.25.69-.44 1.18-1.03 1.53-1.77.1-.15.15-.34.25-.54l.05-.05.05-.1c.49-.59.64-1.28.54-1.97.34-.44.64-.93.79-1.48v-.3c.2-.54.1-1.03-.25-1.48-.1-.15-.3-.25-.44-.39.05-.05.15-.15.15-.2.69-1.28.44-2.16-.2-2.8h.05c.39-.39.84-.79 1.23-1.18.69-.84 1.08-1.72 1.23-2.8v-1.08c.1-.74-.05-1.48-.44-2.07-.1-.3-.25-.54-.39-.74.3-.39.64-.79.79-1.23.3-.54.34-1.13.2-1.77-.1-.3-.34-.39-.49-.64.05-.2.05-.44.05-.69.2-.39.39-.84.49-1.28v-.3c.15-.64.05-1.18-.34-1.72-.05-.1-.1-.15-.15-.25.05-.2.15-.34.2-.54v-.79c.1-.44.05-.79-.1-1.13.3-.54.44-1.08.34-1.67v-.25c-.05-.15-.15-.15-.25-.3.05-.05.05-.1.1-.2v-.84a3.04 3.04 0 0 0-.15-1.33c.05-.05.05-.1.05-.15l6.2 7.77c1.03 1.38 3.74 1.62 6.44 1.13 1.13 1.08 2.16 2.26 3.3 3.35 4.08 3.79 8.31 8.51 13.48 10.77 1.18.49 3.2.64 5.31.34 1.43.93 2.85 1.87 4.23 2.85 7.18 4.92 13.53 11.07 21.55 14.71 1.53.69 3.39.79 5.26.44 3.89 4.92 8.81 8.36 14.96 10.18.74.25 1.53.3 2.36.3 1.28.44 2.51.93 3.74 1.38 5.51 1.97 10.87 4.08 16.24 6.3 5.26 2.26 10.58 4.43 16.04 6.15 5.46 1.67 11.02 3.15 16.38 5.21.54.2 1.13.25 1.72.3-.39 1.18-.2 2.41 1.33 3.25 2.71 1.53 5.9 2.07 8.95 2.51 3.25.54 6.49.89 9.74 1.28.54.1 1.13.15 1.67.25l1.72.3c1.43.3 2.9.64 4.28 1.03 2.85.79 5.61 1.77 8.51 2.26 1.67.34 3.59.3 5.36-.1 5.71 5.46 15.25 4.62 22.38 6.99 4.33 1.38 8.41 3.3 12.5 5.26 1.72.89 3.44 1.53 4.38 3.3.89 1.77 1.23 3.69 2.21 5.41.49.84 1.57 1.38 2.85 1.57.05.69.15 1.43.1 2.12-.3 3.94-.49 7.53.05 11.41 1.03 7.92 1.33 15.55-.05 23.47-.25 1.57 1.23 2.31 3.3 2.46z"/><path d="M411.76 271.45l1.53 5.85c-5.17 1.33-10.09 3.25-14.17 6.2-7.63 5.51-15.3 13.14-19.97 21.25-4.77 8.22-7.48 17.91-9.25 27.16-1.08 5.61 1.43 10.18 2.31 15.64.79 4.97.84 9.99.93 15.01 0 .69-.3 1.33-.79 1.92.98.2 1.97.39 2.95.64 2.46.59 3.69 3.3 2.66 5.51-1.28 2.71-4.67 4.13-7.48 4.38l-26.66 2.31c-.44.05-.93.05-1.48 0l-2.9 4.08c-3.54 5.02-7.23 9.89-9.64 15.6-2.26 5.41-3.79 11.02-6.54 16.24 4.18 1.82-4.03 7.23-8.46 6.99-6.94-.44-13.82-1.48-18.1 5.07-3.35 5.17-4.48 11.46-7.77 16.68-7.48 11.76-24.11 7.63-35.57 6.54-4.03-.34-8.22-1.08-12.3-.79-.54.05-1.08.15-1.57.25l-1.53-6.49c2.8-.74 5.71-1.18 8.81-1.28 8.66-.2 18.69.49 27.16 2.16.64-.1 1.18-.1 1.57-.1.05-.1.15-.15.25-.3.39-1.57 1.72-3.79 2.36-5.31 1.28-3.1 2.46-6.2 4.08-9.1 5.76-10.33 16.19-14.02 27.06-14.86.05-.2.1-.34.2-.54 3.49-6.44 4.97-13.73 8.41-20.22 3.49-6.69 8.36-12.74 12.69-18.89 2.46-3.49 4.58-6.99 8.61-8.81 3.74-1.67 8.22-1.82 12.3-1.92 2.46-.05 4.92.05 7.38.2-.15-5.12-.44-10.23-1.72-15.2-.79-3-2.07-5.76-2.02-8.9.05-2.76.89-5.51 1.48-8.22 2.56-10.82 6.1-21.65 13.04-30.5 7.23-9.2 16.92-18.25 27.6-23.12 4.67-2.16 9.54-3.84 14.56-5.12zM237.95 441.47l1.53 6.49c-3.64.79-6.79 3-10.04 4.77l-18.74 9.69c-13.33 7.18-24.45 15.99-32.77 28.78-.98 1.53-4.03 2.66-6.99 3.1-.1.3-.2.59-.39.93-1.72 2.9-6.25 3.94-9.4 3.94-11.66-.1-23.07-2.66-34.49-4.97-10.13-2.02-21.84-2.26-29.96-9.4-1.48.39-3.74.79-5.21.3-3.89-1.18-7.38-3.1-11.17-4.67-3-1.28-6.25-1.97-9.3-3.25-1.67-.69-3.3-1.62-4.77-2.71-1.33-.98-2.46-2.26-3.84-3.25-2.07-1.53-5.26-3.1-7.18-5.51-.64-.84-.59-1.62-.25-2.36-.89.05-1.72.05-2.56-.05-2.21-.34-3.49-1.23-5.02-2.8-.54-.54-1.13-1.03-1.57-1.23-.69-.34-1.43-.59-2.16-.89-3.79-1.48-6.1-4.33-8.81-7.23-5.02-5.46-11.91-12.05-10.87-20.17-1.08-.15-2.02-.49-2.31-1.38-.89-2.26.84-4.38 2.26-5.95l5.07-5.71c1.97-2.16 5.71-3.05 8.51-3.39 1.72-2.02 3.44-4.13 5.07-6.15 3.89-4.67 7.28-9.64 9.05-15.5.34-1.18 1.92-1.92 2.85-2.46 1.33-.69 2.76-1.08 4.18-1.43 2.31-5.31 4.82-10.58 7.72-15.6 2.21-3.84 3.3-8.41 4.82-12.59 1.72-4.87 3.54-9.69 5.41-14.51-.59-.15-1.13-.39-1.53-.79-.74-.79-.54-1.87.05-2.71.3-.39.54-.84.84-1.28 2.02-4.33 1.92-9.1 2.12-13.78-.15-.49-.25-.93-.15-1.53.44-4.62.89-9.25.64-13.92-.2-1.92-.49-3.79-.98-5.61-.3-1.13-.05-2.12.39-2.95-.3-.2-.54-.39-.69-.74v-.44c-.05-.49.05-.89.3-1.33-.39-.49-.49-1.03-.34-1.72v-.69c.1-.3.2-.59.34-.84-.25-.15-.49-.25-.59-.54-.05-.3-.1-.59-.1-.89-.05-.59.15-1.08.64-1.48.1-.1.25-.2.34-.3-.15-.05-.3-.05-.44-.15-.49-.2-.79-.54-.93-1.08-.1-.39-.25-.84-.44-1.23-.05-.3 0-.54.05-.84-.05-.05-.1-.05-.15-.1-.25-.44-.44-.89-.64-1.28-.05-.05-.05-.1-.1-.15 0-.1-.05-.2-.05-.25v-.15c-.1-.49-.1-.93-.1-1.38 0-.05-.05-.05-.05-.05 0-.15-.05-.25-.1-.39 0-.3.15-.59.3-.79-.15-.3-.34-.59-.44-.89 0 0-.05-.05-.05-.1v-.1c0-.39-.05-.79-.05-1.18v-.15c.1-.3.2-.49.3-.74-.34-.15-.64-.39-.74-.79v-.54c-.05-.1-.2-.15-.2-.25-.2-.54-.34-1.03-.54-1.57v-.44c-.15-.44-.25-.89-.2-1.43-.15-.25-.25-.49-.34-.74l-.15-.74a2.79 2.79 0 0 1-.05-1.43c-.15-.05-.25 0-.39-.05a1 1 0 0 1-.79-.59l-.3-.59a.86.86 0 0 1 .1-.39c-.1-.05-.25 0-.34-.05a1 1 0 0 1-.79-.59c-.1-.1-.15-.2-.2-.3-.2-.05-.44-.05-.59-.1-1.13-.39-2.9-1.53-3.05-2.85-.2-2.07-.59-4.13-1.48-6-.84-1.67-2.02-3.2-2.9-4.87-.93-1.87-1.57-3.79-2.46-5.71-.84-1.72-1.92-3.44-2.9-5.12-2.21-3.64-4.18-7.43-5.66-11.46-1.38-3.74-2.51-7.67-4.58-11.17-.25-.44-.44-.89-.49-1.38-.64.1-1.23.2-1.82.15-1.03-.05-3.25-.44-3.89-1.53l-7.33-12.5c-2.31-4.03-4.43-8.17-5.9-12.59-.39-.1-.84-.15-1.18-.39-.44-.2-.74-.54-.93-1.03v-.54c-.05-.44.05-.79.15-1.18 0-.05-.1-.1-.15-.2s-.1-.2-.1-.3c-.15-.59-.05-1.23.2-1.77-.3-.44-.39-.93-.25-1.48.15-.69.3-1.38.39-2.02.05-.2.15-.34.25-.49-.05-.1.05-.25.05-.34-.2-.39-.25-.79-.15-1.28v-1.08l.05-.05v-1.03c-.05-.39.1-.74.34-1.08-.15-.34-.25-.74-.1-1.23l.15-1.08c.05-.3.2-.59.34-.89v-.1c-.15-.74 0-1.43.34-2.12.05-.1.1-.2.15-.25.15-.3.34-.59.49-.84.05-.05 0-.1 0-.2.59-2.76 1.18-5.56 1.57-8.41.44-2.71.54-5.46.89-8.22.34-2.71 1.48-5.07 2.36-7.63.89-2.51 1.57-5.12 2.02-7.77.2-1.08 1.28-1.87 2.21-2.51-.59-.44-.93-1.08-.64-2.02l5.12-16.83c.79-2.61 2.36-4.97 3.15-7.53.84-2.51.93-5.21 1.92-7.72.69-1.72 2.21-2.85 3.98-3.64.98-4.43 2.07-8.86 3.35-13.18-1.43-.39-2.31-1.28-1.33-3.15.84-1.57 3.1-2.56 5.36-3.1 1.33-4.77 2.51-9.54 3.05-14.46.25-1.77 2.8-2.8 4.82-3.39l9.2 1.28c-1.23 8.95-3.94 17.56-6.69 26.12-.25.69-1.23 1.33-2.56 1.92-1.03 4.23-1.97 8.46-2.66 12.79-.25 1.48-1.97 2.41-3.74 3.05-.15.64-.3 1.33-.54 1.97-.89 2.56-2.31 4.67-3.1 7.23l-5.12 16.83c-.3 1.13-1.08 1.97-2.07 2.66.44.44.64 1.03.49 1.77-.44 2.66-1.13 5.26-2.02 7.77-.89 2.56-2.02 4.92-2.36 7.63-.34 2.76-.44 5.51-.89 8.22-.39 2.85-.98 5.66-1.53 8.41-.15.59-.44 1.08-.89 1.57a3.76 3.76 0 0 1 .15 1.08c.15.74 0 1.43-.34 2.12l-.15.3c-.05.1-.1.2-.2.3 0 .15 0 .25-.05.39-.05.25-.2.44-.3.64v.59c.05.3 0 .59-.15.84.25.39.34.89.2 1.38v1.08c-.05.2-.15.34-.2.49.1.49.15.98.05 1.53l-.39 2.02c-.1.25-.25.49-.34.69.1.2.25.25.3.44.05.1.1.2.15.25.05.34 0 .59 0 .89.89.39 1.62 1.03 1.92 2.02 1.03 3.25 2.46 6.35 4.08 9.35 2.61 4.82 5.46 9.5 8.22 14.22.1.1.05.15.1.25 2.36-.25 4.92.2 6.05 2.07 2.31 3.94 3.79 8.22 5.36 12.5.74 2.07 1.57 3.98 2.56 5.9l2.66 4.87v.05c1.28 2.07 2.41 4.18 3.44 6.35.84 1.72 1.38 3.54 2.31 5.12 1.13 1.92 2.21 3.74 3.05 5.61 3.84-1.87 9.64-2.07 11.02 1.38 2.36 6.05 5.02 12.05 6.05 18.45.98 6.49.93 13.09 1.77 19.63.84 6.94 1.43 13.68.34 20.66-.98 6.44-2.66 12.74-3.05 19.33-.1 1.97-2.02 3.59-4.43 4.48l-5.31 14.37c-1.53 4.13-2.61 8.71-4.82 12.55-5.02 8.66-8.86 18.01-12.5 27.26-1.03 2.66-5.95 3.74-8.31 4.13 0 0-.1.05-.15.05a79.066 79.066 0 0 1-3.94 5.21c-4.43 5.36-8.9 10.77-14.51 15.01-1.48 1.08-3.39 1.77-5.26 2.21a1.63 1.63 0 0 0 .05.84c1.43.2 2.56.79 2.31 2.21-.64 3.25 1.13 7.13 2.85 9.74 2.02 3 4.72 5.56 7.13 8.22 2.12 2.31 4.28 5.21 7.04 6.3 1.57.64 3.25 1.18 4.58 2.21.59.44 1.03.98 1.53 1.48.2.2.64.49.74.74.84.2 1.77.54 2.02 1.38.1.34 0 .69-.15.98.25 0 .49-.05.74-.05 1.03 0 3.05.25 3.84 1.18 1.97 2.56 4.33 3.49 6.94 5.41 1.28.89 2.36 2.07 3.59 3.05.93.69 2.21 1.28 3.39 1.77 2.9 1.23 6.05 1.92 9 3.1 1.62.69 3.15 1.48 4.72 2.21l2.51 1.18c.44.15 1.62.64 1.62.64.39.1.89.25 1.33.44 2.56-.79 5.81-.98 7.77.84 3.39 3.1 7.67 4.23 12.1 5.07l15.01 2.66c9.45 1.92 18.89 3.98 28.53 4.28 9.05-13.78 21.65-23.71 36.01-31.54 7.43-4.08 15.01-7.72 22.43-11.76 4.77-2.61 9.45-4.77 14.46-6.05z"/><path d="m196.37 113.87-2.76 6.25c-2.07.59-4.18.89-5.9.34-6.2-1.92-11.71-5.17-17.51-7.97-2.16-1.08-4.38-2.07-6.54-3.1-1.38.2-2.8.15-3.94-.39-4.18-1.97-7.33-4.13-10.28-7.67-2.8-3.35-5.66-6.64-8.95-9.59-.34-.3-.39-.69-.3-1.03-.84-.2-1.62-.54-2.31-1.13-4.48-4.08-8.95-8.22-12.1-13.43-1.03-1.72-1.87-3.54-2.8-5.36-1.53.1-2.95-.1-3.94-.59-3.84-2.02-5.56-6.79-6.54-11.27-.05-.1-.15-.15-.2-.3-1.23-3.49-2.56-6.94-4.03-10.33-1.87.05-3.54-.34-4.53-1.48-4.43-5.07-5.46-11.32-5.36-17.66-.84 1.18-1.67 2.36-2.41 3.64-1.28 2.16-2.12 4.58-3.44 6.74-1.38 2.31-3.35 4.18-4.82 6.4-1.43 2.07-2.41 4.48-3.69 6.64-1.23 2.02-2.95 3.79-3.69 6.1-.69 2.16-1.18 4.18-2.61 6.1-.79 1.03-2.07 1.77-3.39 2.36 0 .05.05.1.05.15-.05.59-.15 1.13-.25 1.72l-9.2-1.28c-.89-.54-1.33-1.43-.34-2.71 1.33-1.72 1.33-4.18 2.31-6.1 1.13-2.26 2.9-4.13 4.13-6.4 1.23-2.21 2.31-4.62 3.79-6.74 1.43-2.02 3.25-3.74 4.53-5.85 1.38-2.31 2.26-4.92 3.69-7.23 1.33-2.07 2.9-4.03 4.13-6.2 2.66-4.72 6.59-8.27 10.38-12.15 2.36-2.46 6.1-3.69 9.45-3.69 1.77-.05 5.71.89 3.69 3.35.1.44-.05.93-.59 1.53-.05.05-.1.15-.15.2 2.07.25 3.54 1.23 3.35 3.2-.25 2.02-.44 4.08-.54 6.15 1.72.2 3.05.89 3.3 2.36.39 4.87 3.05 9.15 5.02 13.53 1.23 2.76 2.36 5.56 3.49 8.41.69.34 1.23.89 1.48 1.62.3.74.44 1.48.54 2.16.93.25 1.72.64 2.12 1.28 1.77 2.8 4.08 5.17 5.95 7.87 1.72 2.56 2.8 5.46 4.38 8.17 3 5.26 7.67 9.4 12.1 13.43.89.84.84 1.72.34 2.56.89 0 2.02.05 2.51.49 3.25 2.9 6.15 6.2 8.95 9.54.49.64.98 1.13 1.53 1.67 1.33-.15 2.61-.1 3.59.49 1.43.84 2.9 1.87 3.98 3.15 3.39 2.16 7.13 3.69 10.87 5.46 4.48 2.16 8.81 4.72 13.48 6.59z"/></g><path d="M194.9 119.72c.1.1.25.15.39.25-.39.25-.74.49-.93.74A612.24 612.24 0 0 1 67.48 238.24c-.98-1.92-1.82-3.84-2.56-5.9-1.57-4.28-3.05-8.56-5.36-12.5-1.13-1.87-3.69-2.31-6.05-2.07-.05-.1 0-.15-.1-.25l-8.22-14.22c-1.62-3-3.05-6.1-4.08-9.35-.3-.98-1.03-1.62-1.92-2.02 0-.3.05-.54 0-.89-.05-.05-.1-.15-.15-.25-.05-.2-.2-.25-.3-.44.1-.2.25-.44.34-.69l.39-2.02c.1-.54.05-1.03-.05-1.53.05-.15.15-.3.2-.49v-1.08c.15-.49.05-.98-.2-1.38.15-.25.2-.54.15-.84v-.59c.1-.2.25-.39.3-.64.05-.15.05-.25.05-.39.1-.1.15-.2.2-.3l.15-.3c.34-.69.49-1.38.34-2.12a3.76 3.76 0 0 0-.15-1.08c.44-.49.74-.98.89-1.57.54-2.76 1.13-5.56 1.53-8.41.44-2.71.54-5.46.89-8.22.34-2.71 1.48-5.07 2.36-7.63.89-2.51 1.57-5.12 2.02-7.77.15-.74-.05-1.33-.49-1.77.98-.69 1.77-1.53 2.07-2.66l5.12-16.83c.79-2.56 2.21-4.67 3.1-7.23.25-.64.39-1.33.54-1.97 1.77-.64 3.49-1.57 3.74-3.05.69-4.33 1.62-8.56 2.66-12.79 1.33-.59 2.31-1.23 2.56-1.92 2.76-8.56 5.46-17.17 6.69-26.12.1-.59.2-1.13.25-1.72 0-.05-.05-.1-.05-.15 1.33-.59 2.61-1.33 3.39-2.36 1.43-1.92 1.92-3.94 2.61-6.1.74-2.31 2.46-4.08 3.69-6.1 1.28-2.16 2.26-4.58 3.69-6.64 1.48-2.21 3.44-4.08 4.82-6.4 1.33-2.16 2.16-4.58 3.44-6.74.74-1.28 1.57-2.46 2.41-3.64-.1 6.35.93 12.59 5.36 17.66.98 1.13 2.66 1.53 4.53 1.48 1.48 3.39 2.8 6.84 4.03 10.33.05.15.15.2.2.3.98 4.48 2.71 9.25 6.54 11.27.98.49 2.41.69 3.94.59.93 1.82 1.77 3.64 2.8 5.36 3.15 5.21 7.63 9.35 12.1 13.43.69.59 1.48.93 2.31 1.13-.1.34-.05.74.3 1.03 3.3 2.95 6.15 6.25 8.95 9.59 2.95 3.54 6.1 5.71 10.28 7.67 1.13.54 2.56.59 3.94.39l6.54 3.1c5.81 2.8 11.32 6.05 17.51 7.97 1.72.54 3.84.25 5.9-.34.44-.1.84-.25 1.28-.39z" fill="#c9f1d3"/><g fill="#8be8a9"><path d="M1002.81 266.68c2.56.15 4.18 1.18 2.71 3.35-2.16 3.1-3.49 6.2-4.38 9.89-.84 3.39-7.13 4.97-9.94 4.82-6.99-.39-14.51-1.38-20.32 3.25-5.56 4.43-10.63 10.09-15.35 15.4-10.13 11.32-15.79 23.22-18.89 38.08-2.51 12.2-5.21 23.81-11.02 34.98-5.41 10.38-12.79 19.73-21.5 27.55-8.36 7.48-18.1 13.23-27.4 19.43-9.79 6.54-17.61 13.73-24.11 23.57-6.49 9.89-15.25 15.35-27.11 16.68-12.99 1.48-26.62-1.08-39.6-1.77-6.64-.39-13.33-.64-20.02-.84-5.07 2.61-10.33 4.77-15.69 6.79-.59.25-1.18.49-1.82.69-9.69 7.18-21.2 11.02-32.52 14.81-1.77.59-7.28 1.28-8.02-1.48-.05-.2 0-.34-.05-.54-2.66-.34-5.36-.93-7.72-2.31-2.85-1.62-4.87-4.33-7.23-6.54-4.92-4.48-7.28-9.05-7.58-15.74-.15-3.39.3-6.79.44-10.18.2-3.64-.44-7.38.05-10.97.44-2.9 1.72-5.61 2.46-8.46.44-1.77.64-2.95-.2-4.33-.64-1.08-2.41-1.92-3.25-3-.05-.1-.1-.25-.2-.34-6.59-.74-13.28-1.48-19.83-2.8-7.18-1.43-13.48-4.82-17.17-11.36-3.69-6.44-6.59-13.97-8.46-21.15-1.72-6.54-1.48-14.17-5.41-19.92-1.03-1.43-.79-2.85.1-4.08-.1-.2-.2-.34-.3-.54l-3.54-11.91c-.34-1.38.25-2.51 1.23-3.44L626.05 333c-.54-1.18.54-2.61 1.28-3.49.2-.2.44-.3.64-.44l-5.61-44.33c-1.28-13.58.84-26.32 3.94-39.55 6.54-27.94 11.12-57.66 22.38-84.23.34-.93.98-1.67 1.72-2.31-.15-.25-.3-.54-.44-.84-2.07-3.98 11.76-8.61 14.27-3.84l1.92 3.84c1.67-.25 3.39-.15 4.77.64 6.64 3.89 13.68 6.89 21.11 9.05a86.1 86.1 0 0 0 3.84.98c.05-.1.1-.2.2-.3 2.07-2.36 6.44-3.49 9.5-3.54 3.39-.05 7.82-.79 11.07.3 3 1.03 3.2 4.03 1.13 6.2-3.05 3.15-8.22 4.43-12.35 5.12-3.64.59-7.33.54-10.97.1-7.53-1.03-14.86-3.05-21.94-5.76 7.82 16.38 14.96 33.06 22.04 49.74 8.51 19.92 17.02 39.9 26.96 59.13 10.04 19.43 21.7 37.93 33.5 56.28 21.75 33.8 48.66 70.16 43.88 112.56-.49 4.72-14.37 7.28-14.22 2.07a116.12 116.12 0 0 0-6.05 3.25l17.76.84c7.04.39 14.07.98 21.11 1.53 5.71.39 12.59 1.48 17.12-2.71 4.43-4.03 6.89-10.13 10.72-14.66 3.39-4.13 7.33-7.77 11.51-11.12 9.05-7.13 19.24-12.69 28.49-19.53 9.74-7.18 17.91-16.04 24.16-26.42 6.94-11.51 10.09-23.96 12.74-37.05 2.61-12.94 6.74-24.45 14.86-34.98 7.08-9.15 15.84-19.24 25.43-25.78 7.77-5.36 16.87-6.84 26.03-6.94.15-.39.34-.79.49-1.13 2.56-.1 5.17-.93 6.59-2.71 1.23-1.48 2.16-3.05 2.95-4.67 1.53-.3 3.05-.79 4.23-1.57zM782.07 440.34c.84-.34 1.87-.69 3-.84-.39-20.12-7.97-39.41-17.66-56.97-20.56-37.29-46.54-71.04-65.24-109.46-15.94-32.77-28.73-67.01-44.47-99.82-7.33 21.99-11.36 45.46-16.58 67.84-3.35 14.07-5.85 27.45-4.28 41.97 1.57 14.46 3.69 28.83 5.56 43.24.2 1.33-.54 2.51-1.77 3.49l6.49 14.27c1.03 2.21 2.26 4.48 3 6.84.98 2.85.34 5.61-1.77 7.82-.25.25-.59.34-.89.59 3.39 5.56 3.94 11.86 5.21 18.2 1.38 6.79 4.13 13.53 7.04 19.83 1.13 2.46 2.61 5.02 4.67 6.84 2.26 2.07 5.41 2.95 8.36 3.49 7.04 1.38 14.27 1.97 21.35 2.85 2.26.25 4.82 1.57 4.58 3.89 1.48 1.48 3.25 2.41 3.98 4.67.89 2.71.34 5.66-.44 8.31-.84 2.85-1.97 5.56-2.16 8.56-.15 2.85.25 5.71.1 8.61-.2 5.56-1.82 12.55 1.62 17.51 1.62 2.36 4.23 4.08 6.25 6.15 2.12 2.16 3.59 2.76 6.64 3 3.35.3 5.07-1.28 7.97-2.8 2.66-1.43 5.41-2.71 8.17-3.84 5.36-2.26 10.87-4.18 16.33-6.3 1.08-.79 2.16-1.53 3.39-2.12 1.87-.93 3.79-1.53 5.76-2.02 8.66-4.48 16.68-10.13 25.78-13.82z"/><path d="M1004.73 261.61c.84 2.26-.15 3.98-1.92 5.07-3.59-.3-9.05 1.03-10.53 3.2-1.28 1.87-2.36 3.74-3.25 5.76-4.67.15-9.05-2.41-5.36-6.94 1.82-2.16 2.31-4.38 2.31-7.18 0-1.77.98-3.05 2.41-3.94-1.18-5.51-1.67-11.12-2.12-16.78l14.41-1.23c.64 7.48 1.53 14.96 4.03 22.04z"/><path d="M992.28 269.87c1.48-2.16 6.94-3.49 10.53-3.2-1.18.79-2.71 1.28-4.23 1.57-.79 1.62-1.72 3.2-2.95 4.67-1.43 1.77-4.03 2.61-6.59 2.71.89-2.02 1.97-3.89 3.25-5.76zm4.09-58.74c3.1 9.2 3.54 18.84 4.33 28.44l-14.41 1.23c-.69-8.17-1.28-16.38-3.69-24.3-.89-3-2.21-5.81-3.59-8.56l13.68-5.26c1.33 2.71 2.66 5.51 3.69 8.46zm-3.69-8.46L979 207.93c-2.31-4.58-4.82-9.05-6.15-14.12-1.87-7.18-2.56-14.71-7.82-20.37-4.82-5.21 8.66-11.02 13.09-6.25 5.46 5.9 6.79 13.78 8.66 21.35 1.23 5.12 3.59 9.54 5.9 14.12zM785.07 439.5c-1.13.15-2.16.49-3 .84-9.1 3.69-17.12 9.35-25.78 13.82-1.97.49-3.89 1.08-5.76 2.02-1.23.59-2.31 1.33-3.39 2.12-5.46 2.12-10.97 4.03-16.33 6.3a86.558 86.558 0 0 0-8.17 3.84c-2.9 1.53-4.62 3.1-7.97 2.8-3.05-.25-4.53-.84-6.64-3-2.02-2.07-4.62-3.79-6.25-6.15-3.44-4.97-1.82-11.95-1.62-17.51.15-2.9-.25-5.76-.1-8.61.2-3 1.33-5.71 2.16-8.56.79-2.66 1.33-5.61.44-8.31-.74-2.26-2.51-3.2-3.98-4.67.25-2.31-2.31-3.64-4.58-3.89-7.08-.89-14.32-1.48-21.35-2.85-2.95-.54-6.1-1.43-8.36-3.49-2.07-1.82-3.54-4.38-4.67-6.84-2.9-6.3-5.66-13.04-7.04-19.83-1.28-6.35-1.82-12.64-5.21-18.2.3-.25.64-.34.89-.59 2.12-2.21 2.76-4.97 1.77-7.82-.74-2.36-1.97-4.62-3-6.84l-6.49-14.27c1.23-.98 1.97-2.16 1.77-3.49l-5.56-43.24c-1.57-14.51.93-27.89 4.28-41.97 5.21-22.38 9.25-45.85 16.58-67.84 15.74 32.81 28.53 67.06 44.47 99.82 18.69 38.42 44.67 72.17 65.24 109.46 9.69 17.56 17.27 36.85 17.66 56.97z"/><path d="M996.37 258.75c2.16 3.69-2.61 6.94-7.04 7.67 1.03-6.15-1.03-12.64-6.3-18.25-10.48-11.07-27.85-11.95-41.52-16.68-15.25-5.26-29.52-12.94-44.03-19.83-53.97-25.73-112.91-32.47-171.89-34.83 2.56-1.23 5.07-2.8 7.43-4.53 4.67.69 9.4 1.72 14.12 2.51 11.12 1.87 22.34 3.2 33.55 4.48 20.17 2.31 40.39 4.48 60.27 8.86 19.83 4.43 37.68 12.05 55.59 21.5 9.45 4.92 18.84 8.76 29.27 11.12 10.04 2.26 20.27 3.64 30.16 6.64 9.64 2.95 18.4 7.72 25.88 14.02.59-4.28.2-8.66-1.33-12.89-2.31-6.44-7.77-11.22-8.17-18.35-.2-3.89.3-7.72-.39-11.56-.59-3.35-1.77-6.54-3.05-9.69-1.62-3.98-3.39-7.92-4.82-12-1.67 0-2.9-.2-2.85-.74 1.08-10.43-4.58-21.35-8.56-30.75-4.13-9.69-8.81-19.14-14.02-28.29-2.56-4.43-5.85-8.81-7.38-13.73-1.48-4.72-1.82-7.58-5.9-10.92-3-2.41-5.46-4.67-7.43-8.02-1.53-2.56-2.8-5.17-4.82-7.18-1.77.1-3.3-.2-3.98-1.08-14.02-16.53-27.75-33.55-43.34-48.56 1.72-.98 3.49-1.87 5.21-2.76 8.71-4.48.84-10.38-5.85-6.99C839.2 31.2 814.95 47 791.09 63.62c-.69-.34-1.43-.64-2.21-.89-1.97-.64-4.48-.44-6.64.44l-.3-.84c.39-.2.69-.3.84-.34 1.23-.44 3.35-1.13 5.31-1.43.05 0 .1-.05.15-.1l5.12-2.95 10.09-6.2 19.09-11.91c12-7.53 24.89-14.51 34.68-24.94 2.07-2.21 6.74-3.15 9.54-3.39 1.43-.1 5.46-.05 3.35 2.21-.49.54-1.03.98-1.53 1.53 1.53-.05 2.95.25 3.98 1.18 11.91 10.68 22.53 22.58 32.91 34.73 2.61-.34 5.07.05 6.05 1.72l10.43 17.51c.74.05 1.43.2 2.02.54 3.69 1.97 5.56 5.41 7.58 8.95 2.21 3.94 5.02 6.25 8.36 9.15 3.54 3 4.18 5.85 5.41 10.18 1.33 4.67 4.28 8.76 6.69 12.94 5.56 9.64 10.53 19.63 14.91 29.86 3.05 7.04 6.94 14.91 8.27 22.83.69.3 1.18.74 1.28 1.38 1.13 7.28 4.58 13.73 7.23 20.52 1.28 3.35 2.41 6.74 2.85 10.33.39 3.69-.25 7.43.2 11.12.89 7.18 6.99 12.4 8.81 19.43 1.72 6.74.98 14.02-1.92 20.37-.54 1.23-1.72 2.16-3.05 2.85 2.12 2.61 4.08 5.31 5.81 8.31z"/><path d="M983.04 248.18c5.26 5.61 7.33 12.1 6.3 18.25-2.61.39-5.07-.05-6.1-1.77-10.72-18.5-27.65-27.4-48.11-31.63-9.05-1.92-18.2-3.3-27.11-6-8.95-2.76-17.32-7.04-25.58-11.41-17.32-9.2-34.98-15.69-54.17-19.68-8.61-1.77-17.32-3.1-26.03-4.28-16.73-2.95-33.65-4.82-50.62-6.15l-8.41-1.28c-8.86-1.43-19.58-5.46-28.44-2.8-2.31.69-7.38.84-8.22-2.31-.05-.2-.05-.34-.05-.54h-11.66c-7.28-.15-14.51-.74-21.65-1.97 1.97-.69 4.08-.98 5.46-.93l30.9.69c0 3 4.03 3.59 6.35 3.35 3.39-.3 6.59-1.38 9.64-2.85h.05c58.99 2.36 117.93 9.1 171.89 34.83 14.51 6.89 28.78 14.56 44.03 19.83 13.68 4.72 31.04 5.61 41.52 16.68z"/><path d="M983.23 264.66c1.03 1.72 3.49 2.16 6.1 1.77-.79 4.97-3.54 9.69-8.27 13.58-4.92 4.08-10.77 6.74-16.19 10.13-6.05 3.84-11.36 8.81-15.5 14.71-9.94 14.07-8.66 31.54-13.87 47.33-2.71 8.22-6.4 16.09-10.13 23.86-3.05 6.25-6.44 11.51-12.25 15.5-6.94 4.77-14.66 8.46-21.99 12.5-3.84 2.12-10.48 4.33-12.69 8.31-1.53 2.66-1.43 6.15-1.82 9.05-1.87 13.33-9.15 25.34-19.73 33.6-10.77 8.36-24.7 12.64-38.32 12.45-7.38-.1-14.86-1.53-21.55-4.58-5.12-2.26-12.84-5.85-13.18-12.3-.15-3.39 1.67-7.04 2.56-10.23 1.13-4.23 1.97-8.56 2.31-12.94.69-8.02-.25-16.24-2.95-23.81-5.71-15.94-17.86-29.81-27.35-43.64-37-54.07-76.3-110.4-88.55-176.08-.1-.54.05-1.08.34-1.62-1.23-.39-1.97-1.23-1.03-2.95.69-1.28 2.26-2.16 4.03-2.71 7.13 1.23 14.37 1.82 21.65 1.97 3.89.1 7.77.05 11.66 0 0 .2 0 .34.05.54.84 3.15 5.9 3 8.22 2.31 8.86-2.66 19.58 1.38 28.44 2.8l8.41 1.28c-22.29-1.67-44.67-2.26-66.91-2.66 13.58 68.43 56.13 127.32 95.15 183.6 8.31 12 18.2 24.06 21.75 38.52 1.77 7.33 1.97 15.01 1.08 22.48-.44 3.64-1.18 7.23-2.12 10.72-.84 3.05-3.1 7.13-2.26 10.33 1.77 6.69 14.12 10.18 19.97 11.27 6.49 1.18 13.33 1.03 19.48-1.48 12.05-4.97 20.66-17.07 23.71-29.47 1.57-6.3.79-13.23 5.56-18.25 4.58-4.87 11.86-7.63 17.66-10.77 6.94-3.89 16.09-7.23 21.5-13.23 4.87-5.41 7.58-13.58 10.48-20.17 3.2-7.28 5.9-14.76 7.48-22.58 1.48-7.43 2.07-15.05 4.13-22.34 3.59-12.35 11.86-22.88 22.09-30.5 9.1-6.74 26.91-11.66 25.19-25.93-1.87-15.3-18.79-20.02-31.29-23.17-30.26-7.67-56.48-24.99-85.65-35.52-18.4-6.64-37.24-11.36-56.38-14.71 8.71 1.18 17.42 2.51 26.03 4.28 19.19 3.98 36.85 10.48 54.17 19.68 8.27 4.38 16.63 8.66 25.58 11.41 8.9 2.71 18.06 4.08 27.11 6 20.47 4.23 37.39 13.14 48.11 31.63zm-2.7-36.11c1.53 4.23 1.92 8.61 1.33 12.89-7.48-6.3-16.24-11.07-25.88-14.02-9.89-3-20.12-4.38-30.16-6.64-10.43-2.36-19.83-6.2-29.27-11.12-17.91-9.45-35.77-17.07-55.59-21.5-19.88-4.38-40.1-6.54-60.27-8.86-11.22-1.28-22.43-2.61-33.55-4.48-4.72-.79-9.45-1.82-14.12-2.51 3.84-2.71 7.48-5.76 11.12-8.41a66.39 66.39 0 0 0 20.76-25.53c8.31-18.15 15.01-37.05 21.45-55.99 1.28-3.84 4.08-6.79 7.43-9.1 23.32-16.38 46.84-32.32 72.02-45.61 15.6 15.01 29.32 32.03 43.34 48.56.69.89 2.21 1.18 3.98 1.08 2.02 2.02 3.3 4.62 4.82 7.18 1.97 3.35 4.43 5.61 7.43 8.02 4.08 3.35 4.43 6.2 5.9 10.92 1.53 4.92 4.82 9.3 7.38 13.73 5.21 9.15 9.89 18.6 14.02 28.29 3.98 9.4 9.64 20.32 8.56 30.75-.05.54 1.18.74 2.85.74 1.43 4.08 3.2 8.02 4.82 12 1.28 3.15 2.46 6.35 3.05 9.69.69 3.84.2 7.67.39 11.56.39 7.13 5.85 11.91 8.17 18.35z"/><path d="M975.56 265.05c1.72 14.27-16.09 19.19-25.19 25.93-10.23 7.63-18.5 18.15-22.09 30.5-2.07 7.28-2.66 14.91-4.13 22.34-1.57 7.82-4.28 15.3-7.48 22.58-2.9 6.59-5.61 14.76-10.48 20.17-5.41 6-14.56 9.35-21.5 13.23-5.81 3.15-13.09 5.9-17.66 10.77-4.77 5.02-3.98 11.95-5.56 18.25-3.05 12.4-11.66 24.5-23.71 29.47-6.15 2.51-12.99 2.66-19.48 1.48-5.85-1.08-18.2-4.58-19.97-11.27-.84-3.2 1.43-7.28 2.26-10.33.93-3.49 1.67-7.08 2.12-10.72.89-7.48.69-15.15-1.08-22.48-3.54-14.46-13.43-26.52-21.75-38.52-39.01-56.28-81.57-115.17-95.15-183.6 22.24.39 44.62.98 66.91 2.66 6.84.98 13.73 1.82 20.56 2.61l30.06 3.54c19.14 3.35 37.98 8.07 56.38 14.71 29.17 10.53 55.4 27.85 85.65 35.52 12.5 3.15 29.42 7.87 31.29 23.17zM865.16 17.93c6.69-3.39 14.56 2.51 5.85 6.99-1.72.89-3.49 1.77-5.21 2.76-1.87-1.87-3.74-3.64-5.66-5.36-10.28 8.12-22.19 14.51-33.11 21.35l-24.11 14.91c-3.89 2.26-7.82 4.87-12.05 6.54-2.07.79-5.17 1.92-8.02 2.02-.25.74-.74 1.38-1.23 1.92l-.89.89c-.25.49-.74.98-1.03 1.43-.64.98-1.13 2.02-1.62 3.05-1.03 2.66-1.53 5.36-1.57 8.17.1 1.33.2 2.61.49 3.89.34 1.33-.49 2.41-1.33 3.3-.44.44-1.03.79-1.62 1.13a.38.38 0 0 1 .1.2c1.08.44 1.67 1.28.79 2.85-.39.79-1.18 1.38-2.07 1.92 0 .05.05.05.1.1.98 3.05-.74 5.95-1.82 8.71-.59 1.43-.84 2.66-.74 4.23.15 1.77.34 3.49-.2 5.26-.59 1.72-1.48 3.25-1.82 5.07-.34 1.67-.39 3.39-.79 5.07-1.03 4.18-4.53 6.69-8.46 8.07-.44.2-.89.3-1.38.39-1.03 1.18-2.16 2.26-3.3 3.39-.39.34-.79.74-1.18 1.13-.15.15-.2.2-.25.2 0 .1-.05.15-.15.34-.59.93-.69 1.13-.93 2.07-.59 2.51-1.43 4.58-3.05 6.59-1.67 2.02-3.44 3.98-5.17 5.9-6.94 7.67-14.66 14.71-24.25 18.84-.59.25-1.33.49-2.12.74 2.95-.49 5.9-.54 8.86-.39 1.13-.1 2.61-.1 3.59.3 1.08.1 2.12.25 3.2.44-2.36 1.72-4.87 3.3-7.43 4.53h-.05l-15.99-.49c0-.15.05-.25.05-.39.1-1.28.93-2.21 1.97-3 1.77-1.33 4.38-2.02 6.05-2.16 3.74-.39 8.31-5.46 11.32-7.67 4.13-3 8.56-5.85 12.25-9.45 6.74-6.59 10.33-16.04 13.92-24.6 8.46-20.02 15.4-40.78 22.34-61.4.69-2.07 2.56-3.64 4.77-4.48 2.16-.89 4.67-1.08 6.64-.44.79.25 1.53.54 2.21.89 23.86-16.63 48.11-32.42 74.09-45.7z"/><path d="M860.14 22.31l5.66 5.36c-25.19 13.28-48.71 29.22-72.02 45.61-3.35 2.31-6.15 5.26-7.43 9.1-6.44 18.94-13.14 37.83-21.45 55.99a66.39 66.39 0 0 1-20.76 25.53c-3.64 2.66-7.28 5.71-11.12 8.41-1.08-.2-2.12-.34-3.2-.44-.98-.39-2.46-.39-3.59-.3-2.95-.15-5.9-.1-8.86.39.79-.25 1.53-.49 2.12-.74 9.59-4.13 17.32-11.17 24.25-18.84l5.17-5.9c1.62-2.02 2.46-4.08 3.05-6.59.25-.93.34-1.13.93-2.07.1-.2.15-.25.15-.34.05 0 .1-.05.25-.2a24.64 24.64 0 0 1 1.18-1.13c1.13-1.13 2.26-2.21 3.3-3.39.49-.1.93-.2 1.38-.39 3.94-1.38 7.43-3.89 8.46-8.07.39-1.67.44-3.39.79-5.07.34-1.82 1.23-3.35 1.82-5.07.54-1.77.34-3.49.2-5.26-.1-1.57.15-2.8.74-4.23 1.08-2.76 2.8-5.66 1.82-8.71-.05-.05-.1-.05-.1-.1.89-.54 1.67-1.13 2.07-1.92.89-1.57.3-2.41-.79-2.85a.38.38 0 0 0-.1-.2c.59-.34 1.18-.69 1.62-1.13.84-.89 1.67-1.97 1.33-3.3-.3-1.28-.39-2.56-.49-3.89.05-2.8.54-5.51 1.57-8.17.49-1.03.98-2.07 1.62-3.05.3-.44.79-.93 1.03-1.43l.89-.89c.49-.54.98-1.18 1.23-1.92 2.85-.1 5.95-1.23 8.02-2.02 4.23-1.67 8.17-4.28 12.05-6.54 8.12-4.82 16.09-9.89 24.11-14.91 10.92-6.84 22.83-13.23 33.11-21.35zm-78.22 40.05l.3.84c-2.21.84-4.08 2.41-4.77 4.48-6.94 20.61-13.87 41.37-22.34 61.4-3.59 8.56-7.18 18.01-13.92 24.6-3.69 3.59-8.12 6.44-12.25 9.45-3 2.21-7.58 7.28-11.32 7.67-1.67.15-4.28.84-6.05 2.16v-.89h.25c-.69-.25-1.38-.64-1.82-1.18-2.16-2.51 1.67-5.26 3.69-6.15.54-.25 1.13-.49 1.67-.74.05-.05.34-.2.59-.3.89-.54 1.77-1.03 2.61-1.57.98-.64 1.92-1.33 2.85-2.02.15-.15.44-.34.54-.49a25.49 25.49 0 0 0 1.18-.98c3.39-2.9 6.44-6.15 9.45-9.5 1.38-1.53 3.1-3.35 3.84-4.43 1.18-1.67 1.28-3.74 2.12-5.71.93-2.02 2.41-3.74 3.98-5.31.69-.69 1.43-1.33 2.16-2.02.34-.3.64-.64.98-.93 0-.05.25-.34.49-.54.93-1.13 2.07-1.92 3.3-2.56.05-1.23.15-2.46.3-3.69.15-1.08 2.07-1.92 2.9-2.36.59-.34 1.23-.54 1.87-.74a7.94 7.94 0 0 1 .49-1.72c.54-1.38 1.33-2.61 1.38-4.13 0-1.53-.34-2.95-.25-4.48.15-1.43.54-2.66 1.08-3.94.93-2.21 2.26-4.38 1.48-6.79-.3-.93.98-1.87 1.62-2.31.49-.34.98-.59 1.53-.84 0 0-.05 0-.05-.05-1.43-.74-2.16-2.12-1.28-3.98.44-.98 1.28-1.72 2.26-2.31v-.05c-2.07-8.71.98-17.81 7.28-24.01 2.31-2.31 6.35-3.3 9.59-2.76.74-.49 1.62-.89 2.26-1.13zm20.32 129.29c-9.99-1.33-20.07-2.41-30.06-3.54l-20.56-2.61c16.97 1.33 33.9 3.2 50.62 6.15zm-92.69-15.3l15.99.49c-3.05 1.48-6.25 2.56-9.64 2.85-2.31.25-6.35-.34-6.35-3.35z"/><path d="M711.57 172.07v.89c-1.03.79-1.87 1.72-1.97 3 0 .15-.05.25-.05.39l-30.9-.69c-1.38-.05-3.49.25-5.46.93l-5.56-1.08c-3.35-.74.34-3.69 1.57-4.33 3-1.57 6.69-2.36 10.04-1.67 7.77 1.72 15.74 2.36 23.71 2.56 2.85.1 5.76.05 8.61 0zm566.89 293.02c5.21-1.72 12.2 3.15 5.85 7.38l-40.34 26.91c-2.26 1.53-11.02 2.66-12-.69-14.71-.89-24.45-10.97-34.44-20.56-2.95.49-6.05.1-7.43-1.33-12.2-12.79-23.96-30.6-27.01-48.41-.89-5.12.74-8.71 3.49-11.66-2.36-2.9.84-8.17 6.59-8.17 1.28 0 2.31.2 3.15.49l25.98-18.6c-.84-3.74 1.67-7.08 5.07-9.3.3-2.07.3-4.13-.2-6.25-1.33-5.46-5.61-6.69-8.76-10.63-2.95-3.64-3.54-8.46-5.12-12.74-2.12-5.66-5.71-10.48-8.9-15.55-12.45-19.78-17.12-42.65-18.45-65.68 0-.34.05-.69.15-1.03-1.82 0-3.1-.34-3.05-1.13 1.53-18.4 8.02-35.62 18.94-50.57 9-12.35 22.98-26.27 38.28-30.21 8.9-2.26 18.89-.98 28.04-.89l32.03.25c43.49.15 86.44-3.15 129.04-12.2.69-.15 2.31-.34 3.64-.2l6.49-2.16 35.82-11.95c.49-.2 1.62-.54 2.9-.89 3.94-4.43 9.84-6.59 15.64-7.87.3-.1.64-.15.98-.2l23.17-12.55c5.36-3.05 10.23-6.54 14.66-10.77 4.77-4.48 9.54-8.36 15.99-10.13.49-.15 1.13-.25 1.72-.3 1.92-2.21 3.84-4.38 5.9-6.49 1.57-1.67 3.98-2.76 6.4-3 8.17-9.25 15.5-19.29 21.75-29.86 1.38-2.31 3.89-3.74 6.54-4.18.15-.54.64-1.18 1.38-1.72.1-.1.25-.15.34-.25-3.79-2.71-.69-9.25 5.76-9.25 5.9 0 7.13 3.94 5.36 6.94 1.08.34 1.03 1.13.44 1.97.05.05.15.05.2.05.44.15.74.44.89.89v.84c.05.54-.1 1.03-.49 1.48.05.1.25.1.3.2a1.11 1.11 0 0 1 .2 1.23c-.3.54-.54 1.08-.84 1.62-.15.39-.49.59-.74.89.25.44.39.89.34 1.38.15.74.05 1.43-.34 2.07-.15.3-.25.54-.39.84-.3.59-.69 1.08-1.08 1.53-.15.3-.25.64-.34.93a1.83 1.83 0 0 1-.44.44c.64.74.98 1.62.69 2.76-8.76 35.62-20.61 70.35-35.67 103.86-1.38 3.1-5.76 4.53-9.3 4.13-5.46 11.22-9.94 22.83-13.23 34.88-.54 2.02-2.95 3.94-5.66 5.02-.44 11.17-2.21 22.63-6.4 32.47-5.07 11.86-20.22 11.02-30.6 14.96-11.17 4.23-19.78 11.61-23.12 23.42-3.69 13.14-5.56 26.96-8.41 40.29-2.61 12.05-6.4 23.12-14.22 32.77-7.48 9.15-17.12 16.19-24.94 24.99-14.02 15.64-22.83 36.21-42.41 46.1-11.22 5.71-24.25 6.59-36.5 4.58-5.02-.79-13.73-2.41-17.86-6.59-11.22 5.41-23.17 9.2-34.34 14.81-.39.25-.74.39-1.08.64zm256.52-279.54c12.4-28.29 22.68-57.46 30.5-87.32a213.476 213.476 0 0 1-34.19 36.26c-2.41 2.02-6.74 2.61-9.54 1.28-.2-.1-.3-.25-.49-.39-.54.54-1.08 1.08-1.62 1.57-4.92 4.28-10.58 7.67-16.28 10.82-12.4 6.94-25.04 13.48-37.59 20.22-2.76 1.48-9.54 1.08-10.48-2.26l-38.77 12.99-21.94 7.33c-4.87 1.62-11.17 4.72-16.38 2.61a1.66 1.66 0 0 1-1.28-.98l-.1-.79c-.05-.44.1-.79.3-1.13-38.96 5.9-78.12 7.53-117.78 7.18l-17.86-.2c-6.15-.05-12.84-.84-18.94-.15-3.98.44-8.07 4.33-11.27 6.94-3.98 3.2-7.67 6.89-11.07 10.77-13.09 15.01-21.2 34.19-22.88 54.07 0 .05-.05.1-.05.2 1.67.15 2.9.74 2.95 1.92 1.43 25.09 7.18 48.16 20.91 69.37 3.15 4.87 5.9 9.74 7.53 15.3.69 2.26 1.23 4.62 2.46 6.69 1.43 2.36 3.59 3.39 5.61 5.21 8.02 7.28 5.17 18.6.98 27.11-.49.98-1.72 2.02-3.2 2.9-.39 1.03-1.18 1.97-2.16 2.66l-23.07 16.53c-3.39 2.41-8.27 4.67-10.92 7.82-2.36 2.8-.49 6.84.49 9.99 3.54 11.17 9 21.45 15.94 30.75 1.67-.1 3.2.15 4.03.84 10.48 8.02 18.55 20.32 30.9 25.58 2.66 1.13 5.07 1.53 7.38 1.48 1.48-2.21 3.05-4.38 4.72-6.44-.93-1.48-.69-3.44 1.92-5.36 2.26-1.62 4.67-3.05 7.08-4.38a92.88 92.88 0 0 1 15.69-11.86c15.2-9.1 33.01-12.79 48.02-22.24 3.15-1.97 14.27-3.39 11.41 3.54-1.43 3.39 15.74 5.31 17.46 5.41 6.44.44 12.94-.3 18.74-3.35 8.76-4.58 15.1-13.09 20.76-20.96 5.36-7.43 10.43-15.1 16.63-21.89 6.84-7.48 14.91-13.73 21.75-21.3 15.4-17.12 16.43-43 21.06-64.6 2.12-9.84 5.36-19.09 12.74-26.22 6.69-6.49 15.01-10.82 23.76-13.92 4.58-1.62 9.25-2.76 13.97-3.79 3.2-.69 4.38-.79 5.76-3.89 1.03-2.41 1.53-5.36 2.12-7.87 2.8-11.81 3.84-23.91 3.3-36.01-.15-3.64 6.1-6.1 10.33-5.51 3.44-9.84 7.53-19.43 12.45-28.68 1.23-2.36 4.92-3.69 8.22-3.84z"/><path d="M1565.48 98.22c-7.82 29.86-18.1 59.04-30.5 87.32-3.3.15-6.99 1.48-8.22 3.84-4.92 9.25-9 18.84-12.45 28.68-4.23-.59-10.48 1.87-10.33 5.51.54 12.1-.49 24.2-3.3 36.01-.59 2.51-1.08 5.46-2.12 7.87-1.38 3.1-2.56 3.2-5.76 3.89-4.72 1.03-9.4 2.16-13.97 3.79-8.76 3.1-17.07 7.43-23.76 13.92-7.38 7.13-10.63 16.38-12.74 26.22-4.62 21.6-5.66 47.48-21.06 64.6-6.84 7.58-14.91 13.82-21.75 21.3-6.2 6.79-11.27 14.46-16.63 21.89-5.66 7.87-12 16.38-20.76 20.96-5.81 3.05-12.3 3.79-18.74 3.35-1.72-.1-18.89-2.02-17.46-5.41 2.85-6.94-8.27-5.51-11.41-3.54-15.01 9.45-32.81 13.14-48.02 22.24a91.96 91.96 0 0 0-15.69 11.86c-2.41 1.33-4.82 2.76-7.08 4.38-2.61 1.92-2.85 3.89-1.92 5.36a87.112 87.112 0 0 0-4.72 6.44c-2.31.05-4.72-.34-7.38-1.48-12.35-5.26-20.42-17.56-30.9-25.58-.84-.69-2.36-.93-4.03-.84-6.94-9.3-12.4-19.58-15.94-30.75-.98-3.15-2.85-7.18-.49-9.99 2.66-3.15 7.53-5.41 10.92-7.82l23.07-16.53c.98-.69 1.77-1.62 2.16-2.66 1.48-.89 2.71-1.92 3.2-2.9 4.18-8.51 7.04-19.83-.98-27.11-2.02-1.82-4.18-2.85-5.61-5.21-1.23-2.07-1.77-4.43-2.46-6.69-1.62-5.56-4.38-10.43-7.53-15.3-13.73-21.2-19.48-44.28-20.91-69.37-.05-1.18-1.28-1.77-2.95-1.92 0-.1.05-.15.05-.2 1.67-19.88 9.79-39.06 22.88-54.07 3.39-3.89 7.08-7.58 11.07-10.77 3.2-2.61 7.28-6.49 11.27-6.94 6.1-.69 12.79.1 18.94.15l17.86.2c39.65.34 78.81-1.28 117.78-7.18-.2.34-.34.69-.3 1.13l.1.79a1.64 1.64 0 0 0 1.28.98c5.21 2.12 11.51-.98 16.38-2.61l21.94-7.33 38.77-12.99c.93 3.35 7.72 3.74 10.48 2.26l37.59-20.22c5.71-3.15 11.36-6.54 16.28-10.82.54-.49 1.08-1.03 1.62-1.57.2.15.3.3.49.39 2.8 1.33 7.13.74 9.54-1.28a213.103 213.103 0 0 0 34.19-36.26zm948.42 241.61c-21.01 14.22-47.23 13.53-71.53 13.58-26.52.05-53.08-.93-79.5-3.64-.54.1-1.03.2-1.48.25-13.48 1.18-26.62-1.13-38.52-7.63-1.08-.64-1.57-1.28-1.67-1.92l-51.21-10.87c-2.76-.59-3.25-1.72-2.61-3-27.45-2.16-54.9-3.74-82.36-4.58-29.32-.89-58.69-1.03-88.01-.39-14.17.3-28.63.15-42.8 1.92-13.73 1.67-25.73 7.87-38.23 13.38-49.98 21.94-103.46 34.88-152.61 58.84-.84.39-3.64.74-6.15.54a401.89 401.89 0 0 1-25.14 13.73c-1.72.89-5.31 1.18-7.67.49l-24.3 14.71c-2.41 1.48-7.43 3.1-10.09 1.28-1.33-.93-1.62-2.02-1.28-3.05-1.57-.74-2.71-2.02-2.8-4.03-.93-16.58 4.77-30.55 10.28-45.75 2.8-7.72 4.38-15.94 6.35-23.91l5.95-23.96c-4.08.49-7.77-.44-5.71-3.49 7.67-11.51 6-24.4 9.1-37.29 2.85-12.1 6.35-22.88 14.12-32.72 3.79-4.77 5.41-9.99 8.17-15.35 1.33-2.61 3.15-4.82 4.53-7.33 1.67-3.1 2.16-6.64 3.49-9.84 2.26-5.56 6.59-9.84 10.43-14.32l13.73-15.99c.59-.69 1.28-1.28 2.02-1.77a25.21 25.21 0 0 1 1.33-5.26c.59-1.57 3.15-2.76 5.95-3.39 13.28-24.2 33.36-44.33 52.05-64.35.25-.3.64-.49.98-.74-1.28-2.61 1.67-5.02 3.84-6.05 25.48-11.91 46.69-31.14 72.12-43.2.79-.39 1.62-.69 2.46-1.03a19.55 19.55 0 0 1 1.72-1.82c5.31-4.87 12.2-7.08 18.5-10.38 8.22-4.28 15.15-8.66 24.2-11.22l17.96-5.02c3.94-1.53 8.07-2.76 12.5-3.3.2 0 .3.05.44 0 1.38-2.26 5.46-3.35 7.63-3.64 11.56-1.72 22.98-4.18 34.19-7.33 9.79-2.8 19.38-5.71 29.52-6.99 22.53-2.85 45.31-4.62 67.89-6.94 1.57-.15 4.43-.1 5.66 1.23 1.48-.3 3-.44 4.23-.25 21.3 3.15 42.65.15 64.05-.39 10.04-.2 20.02.1 29.91 1.62 5.02.79 9.94 1.77 14.86 2.85 3.15.69 8.31.93 10.77 3.3s2.26 8.95 1.97 12.1c-.39 4.18-3.49 5.21-5.51 8.51-4.48 7.53-1.38 20.37-.79 28.53.59 7.82 2.51 15.3-2.56 20.96 1.57 13.87 3.69 29.72 14.61 39.51 5.31 4.72 12.25 7.97 19.58 9.69 1.53-2.61 6.69-3.59 9.35-3.59 2.41 0 5.07.79 3.69 3.49 2.71-2.26 6.1-3.49 9.45-4.62l18.89-6.35c.3-.1 3.49-.69 6.15-.84l4.67-3.3c1.82-1.53 3.54-3.1 5.21-4.87 2.21-1.97 6.05-2.95 9-3.25l5.95-5.61 17.81-16.58c1.87-1.72 5.12-2.71 7.82-3.1.2-.2.34-.39.49-.59 5.26-6.54 10.38-13.14 15.4-19.88.74-1.03 3.59-2.12 6.54-2.8.1-.1.2-.2.34-.3 0-.1-.05-.15-.05-.2.49-7.67 9.84-11.32 16.33-12.1 9.35-1.08 15.79 4.97 23.52 8.95 7.63 3.98 15.69 6.74 22.98 11.41 8.07 5.26 15.74 11.22 23.52 16.87 3.69 2.66 7.08 6.1 10.87 8.41 3.44 2.07 7.28 3.49 10.77 5.61 6.44 3.94 12.3 8.66 17.37 14.27 11.76 12.94 16.87 28.93 22.14 45.26 3.05 9.45 6 18.99 8.46 28.63 1.67 6.35 3.94 13.43-2.12 18.1-.05 0-.1 0-.1.05.15 6 .49 12.25-.59 17.91-1.13 6.1-5.95 8.61-10.04 12.64-7.58 7.48-11.81 17.61-18.4 25.88-6.35 7.92-14.27 13.04-24.06 15.74-6.54 1.82-13.09 3-19.43 5.51-5.66 2.26-11.12 4.92-16.53 7.67-11.41 5.85-20.96 11.41-28.44 22.09-6.4 9.15-12.15 18.15-21.55 24.55zm628.25-125.8c1.13 9.45-3.94 18.74-7.38 27.21-6.44 16.04-10.77 34.83-28.98 40.78-2.07.69-4.43.93-6.79 1.33l-.64-3.79c3.39-.98 6.54-2.41 8.86-5.56 4.97-6.64 7.48-15.1 10.53-22.68 3.64-9 9.05-18.69 10.18-28.39 1.08-9.15-4.48-18.01-8.22-25.98l-13.28-28.39c-6.74-14.46-13.23-29.27-21.55-43-2.46.54-4.72.49-5.51-.64a292.286 292.286 0 0 0-40.1-46c-1.28-1.18 2.9-3.3 6.99-4.43-.89 0-1.62-.15-1.92-.49-5.81-5.9-11.32-12.1-16.58-18.45-1.23 2.26-2.51 4.58-3.35 7.33-1.77 5.71-1.38 12.1-2.85 17.96-3.25 13.28-9.59 25.58-11.81 39.16-.3 1.72-1.92 3.25-3.94 4.28-2.16 8.12-5.76 16.28-9.89 22.38-3.2 4.77-7.04 8.9-9.84 13.92-2.66 4.67-5.17 8.51-9.35 11.95-1.43 1.18-3.39 1.72-5.31 1.77-.79.74-1.77 1.33-2.61 1.72-14.12 6.89-27.65 12.94-42.85 17.22-6.94 1.92-13.82 4.13-20.86 5.61-6.54 1.43-13.28 1.87-19.68 3.94-12 3.89-22.53 11.51-33.55 17.46-5.51 3.05-11.12 5.71-17.07 7.77-5.12 1.77-12.69 1.62-16.92 4.92-.93.69-2.12 1.18-3.35 1.43-.39 2.12 4.38 4.33 5.61 5.07 3.3 2.02 6.4 4.33 9.3 6.89 5.76 5.17 9.94 11.66 15.3 17.22 2.71 2.8 5.95 4.97 8.61 7.77 2.9 3 5.56 6.4 8.07 9.74 2.61 3.54 2.46 6.3.49 10.13-1.72 3.39-4.23 6.3-6.94 8.9-2.12 1.97-5.46 2.95-8.31 2.9-4.77 5.02-11.02 8.76-16.97 12.25-1.43.84-3.05 1.28-4.67 1.57l-3.1-5.21c1.43-.79 2.8-1.62 4.23-2.51.1-.05.2-.15.3-.2.39-.25.84-.54 1.23-.84.79-.54 1.57-1.08 2.31-1.67.79-.59 1.53-1.18 2.31-1.82.15-.15.3-.3.49-.44.25-.3.54-.54.79-.79 1.38-1.43 2.61-2.95 3.69-4.58.79-1.28 2.56-1.97 3.89-2.51.79-.34 1.57-.54 2.41-.74.89-2.66 1.62-5.31 2.12-8.12.1-.79.64-1.57 1.38-2.21l-1.08-1.23-4.18-5.17c-2.61-3.05-5.76-5.26-8.66-8.02-2.8-2.56-5.12-5.61-7.53-8.56-4.82-6-10.13-11.66-16.78-15.74-3-1.82-6.94-3.3-8.22-6.89-1.18-3.35.54-6.79 3.1-8.95 1.28-1.03 2.85-1.87 4.53-2.36.2-.15.34-.34.54-.49 5.21-4.03 11.36-4.58 17.56-6.05 6.4-1.57 12.35-4.38 18.1-7.53 11.07-6 21.55-13.23 33.36-17.71 6.49-2.46 12.99-3.89 19.83-4.92 7.38-1.13 14.51-3.25 21.7-5.26 7.97-2.26 16.14-4.13 23.76-7.53 6.69-3 13.23-6.4 19.83-9.64a13.73 13.73 0 0 1 3.44-.98c.34-.39.74-.74 1.18-1.13 3.64-3 5.26-8.36 7.87-12.15 1.48-2.16 3.15-4.13 4.72-6.2-.54-.98-.34-1.97.05-3.1 1.38-3.44 3.79-6.35 6.05-9.25 1.28-1.72 2.51-3.54 3.3-5.61.15-.39.34-.69.54-1.03 1.57-4.58 2.71-9.3 3.2-13.78-.1-1.28-.05-2.61.25-3.98.44-2.21 2.8-3.94 5.51-4.82 2.51-7.63 5.51-15.05 7.63-22.83 1.67-6 1.77-12.1 2.95-18.15 1.23-6.1 7.43-11.95 6.69-18.06-.2-1.72.74-3.2 2.21-4.33-.64-.89-1.28-1.72-1.92-2.56-.93-1.28 11.86-7.13 14.27-3.84 2.66 3.69 5.46 7.33 8.31 10.87 2.8-.79 5.46-1.08 6.35-.1.15.15.25.3.39.44.05.05.05.1.1.1 3.54 4.03 6.49 8.36 8.81 13.09l19.73 29.47c8.9 8.41 16.78 17.91 23.27 28.39 12.99 20.71 22.29 43.83 32.57 65.87 4.13 8.86 10.58 18.69 11.76 28.53z"/><path d="M3119.71 196.96c3.74 7.97 9.3 16.83 8.22 25.98-1.13 9.69-6.54 19.38-10.18 28.39-3.05 7.58-5.56 16.04-10.53 22.68-2.31 3.15-5.46 4.58-8.86 5.56-4.43 1.28-9.3 1.67-13.58 3.69-7.04 3.3-10.43 8.71-12.4 15.99-5.51 20.27-9.99 40.88-14.96 61.35-2.41 9.74-4.18 19.97-7.28 29.52-2.85 8.71-11.07 11.27-18.55 15.2-6.59 3.49-13.28 7.33-18.69 12.59-2.26 2.16-4.38 4.62-6.05 7.28-2.16 3.49-2.85 7.53-4.82 11.07-2.8 4.97-9.79 6.84-14.66 9.15l-15.1 7.13-31.19 14.76c-7.08 3.35-13.92 6.54-21.11 8.61-4.48 1.28-9.05 2.07-13.92 2.26-8.76.34-17.42-.54-26.07-1.72.79-1.67.2-3.44-2.26-3.69-7.72-.79-16.24 1.62-23.57-1.43-6.74-2.8-13.28-6.84-18.6-11.86-5.66-5.26-9.05-11.66-11.22-19.09-2.21-7.72-4.13-15.94-4.72-24.01.59-.64.93-1.43.98-2.26.15-4.23-.49-8.41-.54-12.59-.05-4.23.79-8.46-.3-12.59-.89-3.49-2.8-6.69-4.03-10.04-1.33-3.69-2.26-7.53-2.9-11.36-1.28-7.92-1.03-16.04.34-23.96.74-4.28 2.46-7.82 4.38-11.66 1.92-3.98 3.59-8.71 6.3-12.25.79-1.08 1.13-1.97 1.18-2.8 1.62-.3 3.25-.74 4.67-1.57 5.95-3.49 12.2-7.23 16.97-12.25 2.85.05 6.2-.93 8.31-2.9 2.71-2.61 5.21-5.51 6.94-8.9 1.97-3.84 2.12-6.59-.49-10.13-2.51-3.35-5.17-6.74-8.07-9.74-2.66-2.8-5.9-4.97-8.61-7.77-5.36-5.56-9.54-12.05-15.3-17.22-2.9-2.56-6-4.87-9.3-6.89-1.23-.74-6-2.95-5.61-5.07 1.23-.25 2.41-.74 3.35-1.43 4.23-3.3 11.81-3.15 16.92-4.92 5.95-2.07 11.56-4.72 17.07-7.77 11.02-5.95 21.55-13.58 33.55-17.46 6.4-2.07 13.14-2.51 19.68-3.94 7.04-1.48 13.92-3.69 20.86-5.61 15.2-4.28 28.73-10.33 42.85-17.22.84-.39 1.82-.98 2.61-1.72 1.92-.05 3.89-.59 5.31-1.77 4.18-3.44 6.69-7.28 9.35-11.95 2.8-5.02 6.64-9.15 9.84-13.92 4.13-6.1 7.72-14.27 9.89-22.38 2.02-1.03 3.64-2.56 3.94-4.28 2.21-13.58 8.56-25.88 11.81-39.16 1.48-5.85 1.08-12.25 2.85-17.96.84-2.76 2.12-5.07 3.35-7.33 5.26 6.35 10.77 12.55 16.58 18.45.3.34 1.03.49 1.92.49-4.08 1.13-8.27 3.25-6.99 4.43a292.286 292.286 0 0 1 40.1 46c.79 1.13 3.05 1.18 5.51.64 8.31 13.73 14.81 28.53 21.55 43l13.28 28.39z"/><path d="M3098.36 279.56l.64 3.79c-2.31.39-4.58.89-6.4 1.92-3.69 2.07-5.17 7.53-6.2 11.36-2.85 10.58-5.21 21.3-7.77 31.93l-8.31 34.09-4.03 16.43c-1.08 4.53-1.82 9.69-4.48 13.58-4.38 6.4-12.74 9.3-19.33 12.74-7.63 4.03-15.5 8.56-20.61 15.74-4.58 6.44-4.87 14.46-12.1 18.84-9.2 5.56-19.68 9.5-29.37 14.07-19.24 9.1-38.57 20.32-59.18 26.07l-1.23-4.23c7.18-2.07 14.02-5.26 21.11-8.61l31.19-14.76 15.1-7.13c4.87-2.31 11.86-4.18 14.66-9.15 1.97-3.54 2.66-7.58 4.82-11.07 1.67-2.66 3.79-5.12 6.05-7.28 5.41-5.26 12.1-9.1 18.69-12.59 7.48-3.94 15.69-6.49 18.55-15.2 3.1-9.54 4.87-19.78 7.28-29.52l14.96-61.35c1.97-7.28 5.36-12.69 12.4-15.99 4.28-2.02 9.15-2.41 13.58-3.69zm-178.39 196.35l1.23 4.23c-20.02 5.61-40.54 3.44-60.81.49-1.43.1-2.8.2-4.23.2-4.62-.05-9.1-.89-13.38-2.66-7.08-2.95-14.07-7.28-19.78-12.45-6-5.41-10.04-12.3-12.45-19.97-2.61-8.22-4.62-17.17-5.21-25.78-.1-1.03.39-1.97 1.23-2.8-.25-.49-.39-1.03-.34-1.67.15-4.58-.64-9.15-.54-13.73.05-4.87.25-8.61-1.72-13.23-3.3-7.77-5.61-15.35-6.15-23.86-.54-8.07-.34-16.92 2.12-24.65 1.38-4.33 3.69-8.36 5.71-12.45 1.92-3.98 3.74-7.82 6.44-11.36 1.43-1.87 4.48-2.76 7.23-2.8.59-.49 1.33-.93 1.82-1.28.25-.15.54-.3.79-.49l3.1 5.21c-.05.84-.39 1.72-1.18 2.8-2.71 3.54-4.38 8.27-6.3 12.25-1.92 3.84-3.64 7.38-4.38 11.66-1.38 7.92-1.62 16.04-.34 23.96.64 3.84 1.57 7.67 2.9 11.36 1.23 3.35 3.15 6.54 4.03 10.04 1.08 4.13.25 8.36.3 12.59.05 4.18.69 8.36.54 12.59-.05.84-.39 1.62-.98 2.26.59 8.07 2.51 16.28 4.72 24.01 2.16 7.43 5.56 13.82 11.22 19.09 5.31 5.02 11.86 9.05 18.6 11.86 7.33 3.05 15.84.64 23.57 1.43 2.46.25 3.05 2.02 2.26 3.69 8.66 1.18 17.32 2.07 26.07 1.72a58.86 58.86 0 0 0 13.92-2.26z"/></g><g fill="#c9f1d3"><path d="M434.43 138.55c-9.83-2.23-19.52-4.88-29.11-7.85-1.25-.51-2.58-.92-3.96-1.27-28.46-9.09-56.03-20.9-83.28-33.2-17.76-8.02-35.58-16.16-51.8-27.04C250.3 58.48 236.1 45.35 224 30.41c-.98-1.21-3.39-1.08-5.95-.4-4.17-4.08-15.62 1.12-12.2 7.49 2.3 4.28 2.5 9.94 3.15 14.7.72 5.3 1.24 10.64 1.53 15.98.52 9.79 1.53 20.98-1.91 30.33-1.31 3.56-3.1 8.75-5.89 11.41-2.91 2.78-7.09 2.65-10.84 2.2-2.26-.27-5.02-.54-7.71-.98a5.664 5.664 0 0 0-2.19-1.69c-7.88-3.58-13.39-10.33-21.07-14.06-1.44-.7-2.89-1.28-4.29-1.92-3.2-6.24-6.47-12.5-10.79-18.05-4.56-5.85-10.25-9.61-15.91-14.22-6.1-4.97-9.34-12.92-12.27-20.01-3.27-7.92-5.75-16.1-7.61-24.45-1.54-6.92-15.82-3.2-14.26 3.82.08.35.18.7.26 1.05-2.21.57-4.66 1.48-5.43 3.02-1.59 3.18-3.61 5.88-6.15 8.35-2.69 2.62-4.27 5.06-5.49 8.61-.11.33-.25.65-.36.98-.09.08-.22.13-.31.21-5.15 4.86-8.31 11.14-8.86 18.08l-2.68 3.25c-2.22 2.59-4.46 5.26-5.8 8.43-1.29 3.04-1.11 6.5-2.44 9.46-.34.37-.64.76-.81 1.21-7.95 20.88-14.96 41.97-20.94 63.5-.14.51-.01.92.31 1.23-.53.56-.91 1.18-1.06 1.85l-6.84 30.36c-1.99 8.85-4.39 16.31 1.32 24.22 5.09 7.06 11.07 13.42 16.03 20.61 5.39 7.81 10.18 16 14.4 24.49.49.99 1.41 1.62 2.55 1.97l.94 2.56c3.61 9.95 8.14 19.58 10.59 29.9 2.52 10.61 3.2 21.49 2.31 32.35-.04.46.93.7 2.36.73-.29 6.28-.83 12.59-1.69 18.85-.79 2.61-1.57 5.25-2.2 8-.81 4.15-1.46 8.32-2.01 12.5-.45 1.37-.97 2.72-1.56 4.03a24.383 24.383 0 0 0-4.21 8.61l-.49.99c-2.68 5.79-5.67 10.72-9.73 15.64-.82.99-.75 1.8-.25 2.42-.04.22-.06.44 0 .68.78 2.87 2.17 5.52 3.93 7.92.11.24.23.49.43.73 8 9.84 16.57 19.37 27.2 26.45 10.34 6.89 22.39 10.6 34.77 10.25.45.12.92.21 1.41.22 29.64.69 57.49-9.59 83.37-23.26 26.3-13.89 52.18-29.56 75.9-47.53 24.57-18.62 45.01-40.68 63.93-64.92 17.71-22.69 35.53-45.48 50.96-69.81 16.85-26.57 30.48-55.39 36.06-86.54.15-.84.02-1.52-.31-2.07.6-.63.7-1.27-.75-1.6zm-271.14 4.44c-9.12 7.73-14.86 16.88-25.67 22.49-13.06 6.78-24.45 10.99-34.91 22.01-4.07 4.28-6.49 8.9-7.59 13.56-13.8.93-25.96 10.24-24 28.09.13 1.2.32 2.34.52 3.47-1.43-2.99-2.97-5.93-4.82-8.69-5.54-8.23-14-13.59-19.86-21.49-.17-.23-.4-.41-.66-.56-2.38-2.81-4.99-5.81-5.34-9.63-.43-4.69 1.71-10.14 2.73-14.68l6.63-29.42c.2-.91-.02-1.59-.5-2.12.55-.47.95-.98 1.11-1.53 2.21-7.95 4.6-15.81 7.08-23.65l-.35 5.66c-.29 3.19 3.87 3.66 6.23 3.33 1.86-.26 3.82-.78 5.39-1.85 1.03-.7 2.55-1.78 2.67-3.14 1.11-12.34 1.43-24.72 1.06-37.1-.03-1.16-2-1.92-2.81-2.12h-.04l1.7-4.62c.07-.19.04-.34.05-.5.09-.11.2-.21.27-.34 1.79-3.06 1.36-6.7 2.63-9.94.96-2.45 2.5-4.61 4.15-6.65 2.28-.8 4.17-1.76 4.53-2.52 3.4-7.14 6.75-14.3 9.34-21.78 7.31 15.69 16.39 30.5 27.25 44 1.46 1.82 5.79.48 7.64-.02a37.02 37.02 0 0 0 4.44-1.74c-.92 1.43-1.2 3.13-.22 4.94 3.42 6.35 6.97 11.1 12.4 14.69.28.23.52.47.8.69.63.49 1.36.83 2.15 1.04.67.35 1.34.71 2.06 1.03 3.47 1.55 6.59 3.64 9.65 5.85 3.08 3.4 4.24 7.58 9.04 9.35 5.68 2.1 13.05 3.09 19.04 3.84 1.12.14 2.24.19 3.35.25-9 6.05-18.88 12.8-27.14 19.8zm148.46 181.93c.27-.65.48-1.33.71-2 4.91-3.39 8.34-8.27 10.24-13.77 1.67-.69 3.31-1.48 4.89-2.51-5.12 6.24-10.39 12.35-15.84 18.28zM849.47 19.78s.08-.05.12-.09c.34-.28.53-.47-.12.09zM671.21 158.57c-.24-.61-.48-.99-.68-1.19l.53 1.15.16.03z"/><path d="M959.31 128.63c-.03-.08-.02-.15-.05-.23l-8.14-21.92c-.85-2.75-1.85-5.46-3.15-8.07-1.66-3.35-5.06-5.29-8.65-5.81-.6-1.35-1.15-2.72-1.8-4.05-5.06-10.29-11.85-19.75-19.62-28.17-2.14-2.32-5.31-3.49-8.49-3.54-1.25-2.76-2.54-5.51-4.07-8.2-5.36-9.46-12.57-17.81-19.61-26.04-2.91-3.4-6.77-4.23-10.4-3.44l-4-4.67c-4.24-5.12-13.01-4.39-17.39 0a11.934 11.934 0 0 0-2.66 3.98 16.42 16.42 0 0 0-1.69 1.22 6.14 6.14 0 0 1-.53.4c-.68.44-1.37.88-2.08 1.28-1.42.82-2.9 1.54-4.38 2.25-3.16 1.5-6.4 2.86-9.41 4.65-6.48 3.84-11.57 10.18-17.12 14.13-12.77 9.07-26.27 16.32-40.53 21.06-5.35 1.78-9.56 7.05-9.07 12.75-.73 1.08-1.3 2.27-1.51 3.62l-.89 5.75-.34.27a12.23 12.23 0 0 0-3.16 5.43l-.4 1.23c-.51 1.63-.59 3.27-.22 4.9.06 1.38.49 2.67 1.14 3.89-.05.21-.12.42-.18.63-.12.11-.27.18-.38.29l-.82.82a9.104 9.104 0 0 0-2.54 3.96c-.57 1.08-.83 2.24-.95 3.45-.33.68-.68 1.36-.89 2.11l-1.23 3.68a9.355 9.355 0 0 0-.24 4.72c-5.34 9.87-12.93 18.49-20.36 26.8-7.76 8.68-16.14 15.1-28.15 15.91-6.5.44-12.92-.17-19.29-1.44-3.7-.74-7.38-1.64-11.03-2.6-1.17-.31-2.48-.88-3.68-1.02-.06 0-.1-.02-.16-.03.34.86.69 2.19.96 4.23-.2-1.49-.59-2.92-1.12-4.27-1.52-.37-1.25-1.84-.53-1.15-1.97-4-5.51-6.88-10.65-6.88-5.96 0-13.18 5.67-12.3 12.3.12.89.31 1.71.5 2.53-3.28 1.86-5.64 5.25-5.61 10.19.01 1.78-.07 3.53-.14 5.29-2.6 1.48-4.64 3.82-5.28 6.86-5.09 1-9.47 4.84-9.32 11.58.74 34.38-2.59 68.74-5.11 102.99-.24 3.3 1.24 6.35 3.57 8.59l-2.07 30.33c-.08 1.2.13 2.35.46 3.46l.13.44c.13.39.26.78.44 1.15.15.39.25.78.45 1.18 15.11 30.37 45.02 49.95 76.14 61.14 17.87 6.43 37.45 9.34 55.98 3.89 16.5-4.85 31.19-15.09 43.03-27.39 5.98-6.21 10.83-13.66 17.39-19.29 6.24-5.34 14.42-6.65 22.23-8.26 16.29-3.36 31.84-9.27 45.9-18.24 27.32-17.45 48.78-43.77 62.1-73.19 17.88-39.48 23.31-82.73 24.46-125.7.23-8.57-6.86-12.44-13.49-11.73zm234.05 170.26c17.09 27.51 72.62 77.08 106.76 97.8 5.86 3.56 13.31 3.1 18.77-1.05 2.8-2.12 5.45-4.31 7.39-5.79 33.95-25.77 54.1-36.5 81.39-65.03 21.71-22.7 38.2-54.03 57.01-80.83 31.68-45.13 59.28-90.92 73.92-145.44-.9.73-1.66 1.6-1.94 2.78-.74 3.15-1.29 6.33-1.65 9.54-.04.32 0 .59.05.87-.52.52-.87 1.08-.98 1.68 0 .04-.02.07-.02.11-2.89-.21-6.11.93-7.83 3.13-.52.66-.59.77-1.7 1.56-.86.61-1.75 1.17-2.63 1.74-2.23 1.44-4.89 2.98-7.67 4.08-4.47 1.78-8.71 4.11-12.71 6.77l-9.88 6.67a70.44 70.44 0 0 0-8.84 6.72c-7.47.97-13.55 3.91-18.25 8.11-7.89 2.31-15.65 5.01-22.45 9.55-11.42 7.61-27.18 7.98-40.35 10.22l-68.54 12.6-18.42 2.23c-.9-.74-2.41-1.21-4.78-1.08-16.7.91-33.42 1.85-50.16 1.46-8.64-.2-17.28-.72-25.87-1.75-7.83-.93-13.33-.89-20.14 3.52-11 7.12-22.05 15.34-29.16 26.56-3.68 5.81-5.54 12.57-9.31 18.32-2.96 4.52-6.55 7.91-7.26 12.94-.22.12-.4.25-.6.38 2.67 7.29 5.91 14.36 9.42 21.32 5.17 10.23 10.39 20.56 16.44 30.3zm629.9-25.75l-.31.72.17-.38.14-.35z"/><path d="M2616.52 110.05c-.54-8.74-8.39-12.64-15.08-11.67-.82-2.48-2.43-4.81-5.06-6.6-4.82-3.29-9.71-6.53-14.19-10.27-4.63-3.87-8.84-8.18-13.73-11.74-10.28-7.49-22.45-13.68-34.46-17.78-3.6-1.23-6.7-.77-9.14.67a12.98 12.98 0 0 0-1.68-.81c-2.32-.92-4.61-1.63-7.04-2.19-6.91-1.6-13.99 3.31-15.47 9.63-1.53 1.32-2.99 2.74-4.44 4.06l-18.18 16.41c-9.66 8.37-20.41 15.31-28.21 25.38-1.73.6-3.4 1.5-4.89 2.73-4.24 3.5-9.26 9.39-14.35 11.57-4.57 1.96-12.17.57-17.13 1.17-7.38.89-13.39 3.49-20.25 6.13-6.03 2.33-11.76 2.14-18.03.92-8.61-1.68-19.43-3.26-23.94-11.73-5.78-10.85-8.03-24.57-8.82-36.7-.11-1.77-.57-3.45-1.27-5 3.27-5.79 6.33-11.68 9.15-17.71 2.56-5.49 1.81-11.97-2.97-15.78 2.78-5.13 5.31-10.45 5.61-16.34.6-11.61-8.66-16.04-18.68-16.88-9.22-.78-18.48-1.13-27.72-1.33-37.46-.82-74.9 1.68-112.37.76-1.27-.03-2.4.15-3.46.41-.79-.21-1.61-.36-2.45-.46-21.61-2.58-42.53 5.66-63.41 9.84-9.83 1.97-19.52 3.95-28.85 7.73-8.74 3.54-17.52 8.28-27.17 8.02-6.87-.19-10.75 4.34-11.66 9.57l-38.01 14.88c-12.35 5.12-23.5 12.57-35.75 18-12.3 5.46-23.31 11.56-33.87 19.96-11.4 9.08-22.41 18.69-33.57 28.06-2.02 1.7-3.1 4.1-3.43 6.65-4.99 3.81-9.27 8.24-12.97 13.49-3.62 5.15-6.09 11.52-10.67 15.92-5.2 5-11.78 7.82-16.46 13.61-4.98 6.16-8.51 13.31-9.84 21.16-.13.74-.19 1.51-.21 2.27-3.27 3.51-6.55 6.99-9.03 11.17-3.5 5.9-5.36 12.47-9.59 17.98-4.57 5.96-9.84 11.28-13.21 18.08-1.64 3.3-1.9 7.02-.82 10.29-1.29 1.34-2.26 2.98-2.58 4.96-.71 4.41-1.79 8.74-3.3 12.94-.18.51-.37 1.02-.57 1.52-.03.07-.03.08-.06.14.07-.15.13-.29.23-.45-.14.25-.24.53-.37.8-.12.29-.18.43-.17.38a47.65 47.65 0 0 1-.81 1.77 73.802 73.802 0 0 1-3.32 6.04c-2.23 3.62-4.95 6.9-7.28 10.45-3.27 4.97-5.04 10.29-5.64 16.18-4.96 4.02-5.61 9.96-3.12 15.83-.98-2.3.48 1.94.6 2.39.28 1.09.48 2.18.7 3.29-.55-2.73.15 1.77.19 2.33.07 1.14.11 2.28.13 3.42.09 5.39-.31 10.78-.42 16.16-.25 11.99 1.55 24.08 5.67 35.36 2.2 6.03 8.45 10.75 15.13 8.59 1.03-.33 2.01-.86 2.95-1.45 1.92-.53 3.82-1.62 5.54-3.55 18.38-20.69 42.9-33.53 67.35-45.68 27.46-13.65 54.97-27.25 82.99-39.73 55.6-24.75 113.46-43.04 174.23-49.05 62.09-6.14 124.66-2.4 186.57 3.98l90.52 10.2c29.23 2.7 59.02 3.31 87.83-3.22 31.2-7.07 62.55-23.12 76.41-53.43 14.58-31.89 19.54-68.91 17.37-103.7zm516.91 95.37c.86-2.78.75-5.96-.93-9.24a2486.541 2486.541 0 0 1-41.04-84.2c-.96-2.06-2.63-3.56-4.6-4.56-10.07-21.71-22.92-41.38-40.72-58.12-2.2-2.07-4.71-3.05-7.22-3.28-2-2.53-4.13-4.95-6.52-7.14-11.48-10.52-28.52 6.15-17.83 16.9-4.1 1.6-7.34 5.21-7.4 10.92-.09 9.16-2.84 17.76-5.65 26.4l-9.17 28.07c-1.27 3.88-2.27 7.87-4.42 11.38-2.22 3.62-5.01 6.83-7.05 10.57-1.74 3.2-3.18 6.68-4.33 10.18-2.37.33-4.62 1.46-6.37 3.66a78.206 78.206 0 0 0-5.57 7.99c-.32.52-.71 1.28-1.11 1.91-.12-.02-.29 0-.62.06-3.63.76-7 .83-10.45 2.36-3.43 1.53-6.27 3.82-9.08 6.29-3.59 3.15-7.71 5.38-11.9 7.48-2.89-.54-6.04-.08-8.99 1.19-10.38 4.43-20.82 8.75-31.66 11.95-9.82 2.9-19.86 5-29.54 8.37-17.52 6.11-34.29 18.31-53.18 19.66-6.63.47-12.3 5.31-12.3 12.3 0 6.29 5.64 12.77 12.3 12.3 1.61-.11 3.16-.39 4.72-.61 1.33 1.63 2.85 3.05 4.5 4.32.54.94 1.19 1.82 2.08 2.54.82.66 1.68 1.26 2.5 1.91 0 0 0 .01-.01.02.09.05.12.07.2.12l4.3 3.28c1.46 1.32 2.89 2.68 4.27 4.09 2.97 3.02 6.85 6.95 8.97 9.7 2.4 3.1 3.61 5.61 4.42 9.68.09.43.13.58.15.64l.12 1.04.38 3.61.11 1.05c-.16.08-.32.13-.49.21-3.15 1.57-5.82 3.96-8.37 6.36l-14.85 14.04c-1.15 1.09-1.99 2.39-2.58 3.79-7.28.27-14.33 6.11-11.47 15.02 10.5 32.61 21.34 66.28 41.44 94.45 4.95 6.94 10.17 14.46 17.17 19.5 8.34 6.01 17.62 5.58 27.32 4.3 19.17-2.53 38.03-6.81 57.1-9.99 17.52-2.92 35.44-3.8 52.71-8.09 17.51-4.35 32-13.02 45.67-24.6 13.53-11.46 26.85-23.32 35.65-38.96 8.84-15.72 13.39-33.26 15.72-51.02 1.04-7.88.92-14.85 6.39-21.04 6.63-7.5 11.63-15.09 15.26-24.44 6.2-15.96 6.86-33.91 14.88-49.17 3.14-5.98 1.05-11.67-2.94-15.14zm-57.67 105.7c-.86 7.09-2.28 14.14-4.19 21.02-.08.28-.17.54-.25.82.53-7.56-.67-14.69-4.32-20.71 4.9-5.19 8.28-11.17 10.29-17.65.35-.09.7-.21 1.06-.31-1.48 5.45-1.89 11.16-2.58 16.83z"/></g><path d="M236.69 44.14c-.17-.61-.8-.97-1.72-1.14l-.66-.85a21.07 21.07 0 0 1-1.7-2.91c-.41-1.01-.93-1.96-1.68-2.78-.33-.5-.73-.93-1.14-1.35-1.27-4.71-5.03-8.64-11.35-8.64-11.77 0-14.78 13.59-9.05 20.56.01.05 0 .1.02.14.61 1.57 1.25 3.14 2 4.65.29.59.62 1.17.96 1.74a19.41 19.41 0 0 0 1.09 1.59c.57.75 1.18 1.48 1.76 2.22-3.52 3.36-4.51 8.85-3.03 13.44-3.84 2.99-5.22 8.29-4.18 12.96-3.82 1.65-4.83 6.87-3.52 10.8.56 1.68 1.45 3.27 2.59 4.69-4.67 1.75-6.22 7.23-1.5 8.87-.57.5-1.1 1.04-1.66 1.53-.17.15-.41.32-.64.49-.02-.02-.05-.03-.06-.05-.74-.71-2.28-.62-4.09-.1l-12.43-2.34c-.66-2.84-8.72-8.73-11.34-9.28-6.32-1.31-12.68-2.41-19.04-3.43-.24-.64-.39-1.32-.72-1.93-.17-.4-.45-.74-.64-1.12 1.45-.83 2.67-1.83 3.48-3.02 3.03-4.46-2.72-5.23-6.03-5.23-1.05 0-2.29.12-3.58.32-.57-.48-1.15-.96-1.77-1.38l-1.93-1c-.18-.08-.35-.07-.53-.12-.18-5.31-3.29-10.49-9.45-11.54-.23-.46-.46-.92-.78-1.36-2.34-3.21-4.46-6.57-6.17-10.16-.22-.46-.43-.93-.64-1.41l-.99-2.55-4.01-10.91-7.15-19.74c-1.75-6.57-8.41-12.05-15.49-9.76-5.25 1.7-9.75 7.17-9.09 12.9-5.78 1.78-8.43 7.54-7.96 12.97-.08.07-.14.15-.21.23a12.546 12.546 0 0 0-3.69 6.11c-4.58.7-8.83 3.65-10 8.4-.77 1.48-1.55 2.94-2.01 4.6-.43 1.55-.48 3.06-.35 4.53-3.47 3.32-4.47 8.68-3.07 13.23-.09.05-.21.1-.3.15-3.36 2.2-4.24 5.87-5.32 9.52-2.42 8.2-7.31 15.31-9.6 23.57-1.13 4.07-1.85 8.22-2.55 12.38-1.35 2.85-2.55 5.78-3.74 8.69-2.35 5.75-4.55 11.56-6.61 17.42-.57 1.62.59 2.55 2.1 3.06-4.32 10.6-9.09 21-10.66 32.48-.71.72-1.38 1.46-1.85 2.28-1.27 2.18-.61 4.14.14 6.33l4.44 13.05c1.1 2.38 4.01 2.79 6.51 2.45 1.97 7.16 3.29 14.65 9.24 19.81 1.75 1.52 4.23 1.76 6.55 1.35 2.55 9.48 5.54 18.82 8.71 27.84 1.61 4.57 9.39 5.76 7.89 1.5-6.67-18.96-5.29-43.79-8.32-63.67-1.54-10.1-1.98-19.52.67-29.48 2.64-9.93 6.64-19.59 11.47-28.62 3.96-7.39 8.77-14.28 13.92-20.89 2.23-2.86 4.71-6.1 7.41-9.11 3.98-4.44 9.9-6.57 15.8-5.76l10.52 1.47c8.14 1.32 16.11 3.58 24.05 5.77 15.76 4.36 31.65 7.62 47.72 10.52 1.05.38 2.19.53 3.39.51.19 0 .38-.02.58-.03 6.25-.36 13.89-5.15 17.84-8.2 6.19-4.78 12.43-10.42 16.63-17.09 4.44-7.06 6.08-16.05 7.33-24.18 1.34-8.71 1.54-17.47-.78-26.04zm624.79-34.6c-3.32-1.34-7.82 0-10.08 2.7a227.492 227.492 0 0 1-27.48 27.52c-.46-.9-1.69-1.38-2.56-1.52-3.38-.54-7.42.53-10.08 2.7a988.02 988.02 0 0 1-26.5 20.89c-3.13.44-6.57 1.41-7.81 2.97-.52-.08-1.09-.12-1.72-.12-3.2 0-5.61 1.61-6.73 3.53-.82.57-1.39 1.22-1.51 1.92-1.78 10.14-3.57 20.29-5.96 30.31-1.13 4.74-2.26 9.57-4.02 14.13-1.69 4.4-4.63 7.93-6.68 12.11-1.35 2.78-2.02 5.8-2.94 8.73-1.13.47-2.04.93-2.5 1.23-6.86 4.46-12.05 10.66-14.94 18.33a.85.85 0 0 0 .03.72c-5.38 4.02-10.72 7.82-17.02 10.41-.58.24-1.65.67-2.61 1.24a50.43 50.43 0 0 0-4.11-.95c-6.06-1.11-12.25-1.98-18.34-1.64l-2.79-2.68c-1.11-1.09-5.59-.56-9.16.68-.61-.82-1.26-1.6-1.89-2.34-2.99-3.53-6.45-6.55-10.27-9.15-2.72-1.85-16.16 1.08-13.37 5.1.33.48 1.86 1.25 1.97 1.66.21.81-1.55 1.76-2.21 2.26-2.35 1.77-4.49 3.65-5.63 6.44-2.5 6.11-2.85 13.06-5.15 19.3-2.14 5.82-5.69 10.93-8.18 16.58-2.81 6.36-2.3 13.33-4.76 19.73-.77 2 2.27 2.2 4.32 2.09-4.63 5.9-6.78 18.87-7.45 26.65-.12 1.36 9.4-7.63 12.59-10.43 8.29-7.27 9.23-19.97 16.37-27.76 4.28-4.67 9-9.01 15.36-10.39 5.41-1.18 11.16-1.1 16.67-1.42 20.28-1.2 39.99-6.91 56.55-19 17.45-12.74 27.67-31.59 34.21-51.78 5.6-17.3 10.25-35.38 13.39-53.49 28.62-14.88 54.18-35.33 74.94-60.06 2.2-2.62 1.14-5.96-1.93-7.2zm633.03 129.71c-2.99 1.44-7.69-.38-10.14 1.17l-32.24 20.99c-1.87-.86-4.43-.69-6.22-.38-2.65.47-5.23 1.44-7.56 2.79-.96.56-1.85 1.19-2.74 1.84-3.33-.49-6.7.12-9.62 1.81-1 .58-1.86 1.27-2.69 2.03l-.44-.06c-2.72-.35-6.05.63-7.99 2.65-3.67-2.17-10.09-.34-11.78 3.46 0 0 0 .02-.01.03a44.5 44.5 0 0 1-1.99-1.67c-3.87-3.46-13.1.71-12.6 5.36-.67.2-1.34.4-2 .66a5.69 5.69 0 0 1-.48-.02c-1.69-.03-3.58.33-5.19.78a36.16 36.16 0 0 0-1.68.53c-3.56-1.64-8.92-.64-12.06.06-2.57.57-5.03 1.56-7.62 2.03-2.97.53-6.05.51-9.05.49-6.49-.04-12.96-.49-19.44-.1-2.98.18-5.97.8-8.72 2.02-.28.12-2.8 1.5-3.11 2.37-4.47-.33-8.93-.87-13.35-1.85-3.09-.69-7.14.7-9.93 1.95-.05.02-.13.06-.2.09-2.79-.58-5.57-1.22-8.29-2-2.25-.65-4.83-.34-7.17.42-1.01-.5-2.04-.96-3.04-1.49-1.46-.78-3.95-.59-5.45-.18-1.63.44-3.61 1.48-4.63 2.89-.15.21-.29.45-.43.68-.46-.04-.92-.11-1.38-.15-3.86-.27-7.73-.28-11.6-.4-4.17-.14-8.11-.89-12.22-1.53-3.81-.6-7.64-.36-11.36.51a75.72 75.72 0 0 0-4.57-2.12c-1.18-.5-3.4-.15-4.55.04-1.8.3-3.8.86-5.43 1.71-.98.51-2.49 1.19-2.89 2.3-.25.7.09 1.07.59 1.35-1.4.62-2.76 1.31-4 2.15-2.1 1.42-4.03 3.18-5.74 5.05-1.07 1.16-2 2.46-2.8 3.83-2.98.02-7.27 1.38-8.49 4.07-1.41 3.11 1.23 4.53 4.03 4.8 41.32 3.95 82.91 7.72 124.36 3.42 39.27-4.07 80.31-13.11 115.15-32.24 19.83-10.89 38.63-23.85 57.7-35.99 2.38-1.52 10.09-10.52 1.09-6.17zm855.68-125.28c-2.72-1.38-6.19-.94-9.11.18a12.27 12.27 0 0 0-6.96-2.29l-6.8-.14c-.78-.3-1.55-.61-2.21-.79-3.09-.87-6.29-1.3-9.48-1.63-6.22-.64-12.5-.14-18.73.12l-20.11.6c-16.66-1.16-33.35-4.59-50.03-4.34-8.43.13-16.98 1.45-24.91 4.38l-1.99.75-30.5-.47c-4.75-.12-8.04 2.02-9.94 5.07-7.79-.45-16.46 2.2-23.25 4.2-6.71 1.97-13.46 3.1-20.34 4.33-6.66 1.2-13 3.26-19.42 5.35-13 4.23-26.9 4.14-39.74 8.67-2.01.71-3.78 1.87-5.23 3.29-.11-.03-.22-.07-.34-.1-7.76-1.78-15.66-1.76-22.86 1.94-4.62 2.38-8.92 5.99-13.18 8.97-5.22 3.66-11.65 8.69-15.89 14.59-2.81 1.11-5.42 3.34-7 6.1-3.76-.23-8.62 1.81-9.71 4.57-14.58 8.5-30.51 16.51-41.99 29.17-.07.08-.15.17-.23.25l-13.31 7.49c-4.6 2.69-8.71 6.05-9.7 11.1-3.35.41-7.17 2.11-8.31 3.8-8.12 12.1-19.12 21.84-27.69 33.59-4.38 6-7.5 12.77-11.77 18.83-4.03 5.72-9.22 10.53-11.86 17.16-.64 1.61 1.09 2.13 2.88 2.26-5.37 4.04-10.79 8.26-16.41 12.87-2.48 2.03-4.54 5.16-1.87 5.94 3.36.99 2.21 1.4 4.78-.71 50.02-41 113.27-86.4 171.05-113.61 65.99-31.08 132.03-50.11 199.87-56.44 40.9-3.82 112.78 2.45 126.41 19.46 1.85 2.31-.94-2.53.5-5.61.13-.27.19-.53.25-.78 1.13-.72 1.97-1.65 2.08-2.81l2.06-21.54c.32-3.44.58-6.88.55-10.35-.01-1.62-.07-3.23-.24-4.84-.04-.36-.1-.71-.15-1.07.85-.54 1.62-1.17 2.2-1.96 1.44-1.98.83-4.45-1.37-5.57zm224.26 58.47c-6.02-.95-12.1-1.62-18.2-2.04 1.89-1.56 2.85-3.72 1.53-6.05-3.58-6.31-13.47-4.45-19.44-5.67-7.67-1.57-12.44-8.68-20.71-8.11-8.35.57-15.88 6.22-22.28 11.19a110.038 110.038 0 0 0-17.42 16.96c-1.08 1.31-1.36 2.78-.97 4.06-9.21 4.04-18.05 9.07-26.3 15.28-2.39 1.79-3.67 4.92-.87 6.98 2.75 2.03 5.29-4.51 7.79-6.4 31.49-23.69 76.55-25.33 114.52-19.36 6.7 1.05 11.9-5.34 2.35-6.84zM3041.9 48.7c-2.08-4.59-5.32-8.46-9.67-11.38-3.37-2.27-12.4-.68-13.75 3.68-3.51 11.37-5.14 23.07-9.19 34.33-4.22 11.74-9.04 23.31-13.87 34.81a799.2 799.2 0 0 1-15.56 34.73l-8.39 17.08-.29.61-.09.06c-2.81.52-5.57 1.65-6.45 3.11-.66 1.1-1.24 2.24-1.86 3.36l-6.38 5.44c-5.24 1.18-10.36 2.98-15.42 4.92-9.3 3.57-18.95 4.63-28.37 7.67-9.63 3.11-18.75 8.1-27.78 12.61-1.08.54-2.13 1.13-3.21 1.67-2.79.24-5.52 1-8.07 2.37-.52.28-1.08.6-1.61.95-5.78 1.5-11.62 2.78-17.45 4.04-1.42.3-4.18.82-6.1 1.88-9.12 1.51-20.38 8.99-24.91 12.34-.28.2-.39.37-.59.55-5.7 1.53-11.32 3.3-16.75 5.63-.81.35-2.09.86-3.07 1.54-2.5.67-5.63 1.9-5.68 3.58-.05 1.81 1.79 2.11 3.54 2.04-.47.25-.97.48-1.36.78-1.95 1.52-2.25 2.75.77 2.87 48.99 1.91 99.08 3.37 146.47-11.34 21.03-6.53 39.11-16.71 53.05-34.02 14.02-17.4 27.81-37.34 32.79-59.43 2.96-13.15 3.45-26.74 5.33-40.06 2.14-15.13 5.14-30.11 8.14-45.09.22-1.1-1.71-1.46-4.2-1.3z" fill="#e4ffec"/><g fill="none" stroke="#8be8a9" class="B E F"><path d="M458.5 216.05l.05-.05c5.26-24.25 9.15-50.67 5.21-64.99-4.58-16.68-79.26-20.76-148.33-53.58-39.21-18.65-76.7-50.33-97.85-69.91-4.48-4.13-11.46.05-10.13 5.95 7.08 31.68 1.43 60.81-3.94 73.35-1.92 4.38-6.89 6.69-11.46 5.12-45.21-15.79-73.94-77.34-82.6-99.08-1.48-3.64-6.15-4.67-9-1.92-47.88 46.35-70.02 147.45-75.72 178.84-.98 5.51.39 11.22 3.98 15.5C126.17 321.93 54 397.39 26.45 421.6c-5.61 4.92-6.05 13.53-.79 18.84 69.17 69.32 149.17 57.41 149.17 57.41m828.75-222.76c-15.2-168.59-115.5-249.85-137.14-266-2.37-1.77-5.84-2.22-8.05-.26-12.19 10.82-54.05 42.66-89.22 54.69-3.94 1.35-6.15 5.59-6.8 9.71-4.27 27.44-25.71 130.01-101.59 75.66-3.68-2.64-8.87-1.33-10.7 2.81-13.68 30.89-56.81 145.41-1.41 256.49 3.06 6.13 8.84 10.46 15.61 11.51l19.68 3.05c1.46.23 2.47 1.59 2.27 3.06l-3.41 24.06c-.22 1.53-.09 3.09.45 4.54 2.3 6.15 10.72 22.69 36.94 31.92m813.23-274.15s62.55-111.56 50-150.68c-.94-2.93-4.97-3.31-6.58-.68-16.87 27.61-103.02 143.29-351.36 121.3-4.25-.38-8.51.76-11.93 3.31-12.77 9.51-43.62 35.79-50.07 71.9-6.54 36.65 24.26 88.65 36.84 107.99 3.82 5.86 4.03 13.36.46 19.38-4.51 7.6-13.15 17-29.45 22.09-5.44 1.7-8.91 7.04-8.31 12.71 2.23 20.93 14.29 67.24 76.26 85.96m882.75-180.34h.05c54.61-5.71 110.2-4.13 162.06 9.79 90.38 24.25 152.86 25.83 195.12 19.24 14.07-2.16 25.93-5.26 35.82-8.71"/><use href="#B"/></g><g fill="#5ba7fa"><path d="M3180.96 306.52c57.76 61.45-12.59 89.74-12.59 89.74-39.9 16.09-71.29 4.48-71.29 4.48s-48.07-15.89-45.16-64.35c2.9-48.46 45.16-55.64 45.16-55.64 8.76-2.07 17.02-2.66 24.65-2.21 10.33.59 19.58 3.15 27.5 6.44 20.07 8.31 31.73 21.55 31.73 21.55zm-28.24 28.39c0-9-7.63-16.33-17.02-16.33s-17.02 7.33-17.02 16.33 7.63 16.33 17.02 16.33 17.02-7.33 17.02-16.33zm-104.98 44.13c20.96 0 37.93 17.46 37.93 39.06 0 11.17-4.53 21.25-11.86 28.34-6.74 6.64-15.94 10.72-26.07 10.72-1.97 0-3.89-.15-5.81-.44-16.48-2.61-29.42-16.04-31.78-33.01-.25-1.82-.39-3.69-.39-5.61 0-15.2 8.41-28.39 20.76-34.83a36.955 36.955 0 0 1 17.22-4.23z"/><path d="M3010.15 423.71c2.36 16.97 15.3 30.4 31.78 33.01l-.3.79c.1.98.15 1.97.15 3 0 16.78-11.27 31.04-26.81 35.72a39.278 39.278 0 0 1-11.12 1.62 36.82 36.82 0 0 1-8.46-.98c-1.48-.3-2.95-.74-4.33-1.23-14.66-5.12-25.14-18.94-25.14-35.13a35.78 35.78 0 0 1 .15-3.3c1.67-19.09 17.96-34.04 37.78-34.04 2.16 0 4.23.2 6.3.54zm-366.07-117.19c57.76 61.45-12.59 89.74-12.59 89.74-39.9 16.09-71.34 4.48-71.34 4.48s-48.02-15.89-45.11-64.35 45.11-55.64 45.11-55.64c8.81-2.07 17.07-2.66 24.7-2.21 10.33.64 19.58 3.15 27.5 6.44 20.07 8.31 31.73 21.55 31.73 21.55zm-28.29 28.39c0-9-7.63-16.33-17.02-16.33s-17.02 7.33-17.02 16.33 7.63 16.33 17.02 16.33 17.02-7.33 17.02-16.33zm-104.99 44.13c20.96 0 37.98 17.46 37.98 39.06 0 11.17-4.58 21.25-11.86 28.34-6.79 6.64-15.99 10.72-26.12 10.72-1.97 0-3.89-.15-5.76-.44-16.48-2.61-29.42-16.04-31.78-33.01-.25-1.82-.39-3.69-.39-5.61 0-15.2 8.41-28.39 20.76-34.83a36.753 36.753 0 0 1 17.17-4.23z"/><path d="M2473.26 423.71c2.36 16.97 15.3 30.4 31.78 33.01l-.3.79c.1.98.15 1.97.15 3 0 16.78-11.27 31.04-26.81 35.72a39.278 39.278 0 0 1-11.12 1.62c-2.9 0-5.76-.34-8.46-.98-1.48-.3-2.95-.74-4.33-1.23-14.66-5.12-25.14-18.94-25.14-35.13 0-1.13.05-2.21.15-3.3 1.67-19.09 17.96-34.04 37.78-34.04 2.16 0 4.23.2 6.3.54zM2107.68 306.52c57.76 61.45-12.59 89.74-12.59 89.74-39.9 16.09-71.29 4.48-71.29 4.48s-48.07-15.89-45.16-64.35c2.9-48.46 45.16-55.64 45.16-55.64 8.81-2.07 17.07-2.66 24.7-2.21 10.33.64 19.53 3.15 27.45 6.44 20.07 8.31 31.73 21.55 31.73 21.55zm-28.24 28.39c0-9-7.63-16.33-17.02-16.33s-17.02 7.33-17.02 16.33 7.63 16.33 17.02 16.33 17.02-7.33 17.02-16.33z"/><use href="#C"/><path d="M1936.87 423.71c2.36 16.92 15.25 30.31 31.63 32.96l-.15.84c.1.98.15 1.97.15 3 0 16.78-11.27 31.04-26.81 35.72a39.278 39.278 0 0 1-11.12 1.62c-2.9 0-5.76-.34-8.46-.98-1.48-.3-2.95-.74-4.33-1.23-14.66-5.12-25.14-18.94-25.14-35.13 0-1.13.05-2.21.15-3.3 1.67-19.09 17.96-34.04 37.78-34.04 2.16 0 4.23.2 6.3.54zM1569.86 306.52c57.76 61.45-12.59 89.74-12.59 89.74-39.9 16.09-71.29 4.48-71.29 4.48s-48.07-15.89-45.16-64.35c2.9-48.46 45.16-55.64 45.16-55.64 8.76-2.07 17.02-2.66 24.65-2.21 10.33.59 19.58 3.15 27.5 6.44 20.07 8.31 31.73 21.55 31.73 21.55zm-28.24 28.39c0-9-7.63-16.33-17.02-16.33s-17.02 7.33-17.02 16.33 7.63 16.33 17.02 16.33 17.02-7.33 17.02-16.33z"/><use href="#C" x="-537.82"/><path d="M1399.05 423.71c2.36 16.92 15.25 30.31 31.63 32.96l-.15.84c.1.98.15 1.97.15 3 0 16.78-11.27 31.04-26.81 35.72a39.278 39.278 0 0 1-11.12 1.62c-2.9 0-5.76-.34-8.46-.98-1.48-.3-2.95-.74-4.33-1.23-14.66-5.12-25.14-18.94-25.14-35.13 0-1.13.05-2.21.15-3.3 1.67-19.09 17.96-34.04 37.78-34.04 2.16 0 4.23.2 6.3.54zM1033.61 306.52c57.76 61.45-12.59 89.74-12.59 89.74-39.9 16.09-71.29 4.48-71.29 4.48s-48.07-15.89-45.16-64.35c2.9-48.46 45.16-55.64 45.16-55.64 8.76-2.07 17.02-2.66 24.65-2.21 10.33.59 19.58 3.15 27.5 6.44 20.07 8.31 31.73 21.55 31.73 21.55zm-28.24 28.39c0-9-7.63-16.33-17.02-16.33s-17.02 7.33-17.02 16.33 7.63 16.33 17.02 16.33 17.02-7.33 17.02-16.33zM862.8 423.71c2.36 16.92 15.25 30.31 31.63 32.96l-.15.84c.1.98.15 1.97.15 3 0 16.78-11.27 31.04-26.81 35.72a39.278 39.278 0 0 1-11.12 1.62c-2.9 0-5.76-.34-8.46-.98-1.48-.3-2.95-.74-4.33-1.23-14.66-5.12-25.14-18.94-25.14-35.13 0-1.13.05-2.21.15-3.3 1.67-19.09 17.96-34.04 37.78-34.04 2.16 0 4.23.2 6.3.54z"/><path d="M900.38 379.04c20.96 0 37.93 17.46 37.93 39.06 0 11.17-4.53 21.25-11.86 28.34-6.74 6.64-15.94 10.72-26.07 10.72-2.02 0-4.03-.15-5.95-.49-16.38-2.66-29.27-16.04-31.63-32.96-.25-1.82-.39-3.69-.39-5.61 0-15.2 8.46-28.39 20.76-34.83a36.955 36.955 0 0 1 17.22-4.23zM497.36 306.52c57.76 61.45-12.59 89.74-12.59 89.74-39.9 16.09-71.29 4.48-71.29 4.48s-48.07-15.89-45.16-64.35c2.9-48.46 45.16-55.64 45.16-55.64 8.76-2.07 17.02-2.66 24.65-2.21 10.33.59 19.58 3.15 27.5 6.44 20.07 8.31 31.73 21.55 31.73 21.55zm-28.24 28.39c0-9-7.63-16.33-17.02-16.33s-17.02 7.33-17.02 16.33 7.63 16.33 17.02 16.33 17.02-7.33 17.02-16.33z"/><use href="#C" x="-1610.31"/><path d="M358.18 460.51c0 16.78-11.27 31.04-26.81 35.72a39.278 39.278 0 0 1-11.12 1.62c-2.9 0-5.76-.34-8.46-.98-1.48-.3-2.95-.74-4.33-1.23-14.66-5.12-25.14-18.94-25.14-35.13 0-1.13.05-2.21.15-3.3 1.67-19.09 17.96-34.04 37.78-34.04 2.16 0 4.23.2 6.3.54 2.36 16.92 15.25 30.31 31.63 32.96l-.15.84c.1.98.15 1.97.15 3z"/></g><path d="M452.1 318.58c9.4 0 17.02 7.33 17.02 16.33s-7.63 16.33-17.02 16.33-17.02-7.33-17.02-16.33 7.63-16.33 17.02-16.33zm536.25 0c9.4 0 17.02 7.33 17.02 16.33s-7.63 16.33-17.02 16.33-17.02-7.33-17.02-16.33 7.63-16.33 17.02-16.33zm536.25 0c9.4 0 17.02 7.33 17.02 16.33s-7.63 16.33-17.02 16.33-17.02-7.33-17.02-16.33 7.63-16.33 17.02-16.33zm537.82 0c9.4 0 17.02 7.33 17.02 16.33s-7.63 16.33-17.02 16.33-17.02-7.33-17.02-16.33 7.63-16.33 17.02-16.33zm536.35 0c9.4 0 17.02 7.33 17.02 16.33s-7.63 16.33-17.02 16.33-17.02-7.33-17.02-16.33 7.63-16.33 17.02-16.33zm536.93 0c9.4 0 17.02 7.33 17.02 16.33s-7.63 16.33-17.02 16.33-17.02-7.33-17.02-16.33 7.63-16.33 17.02-16.33zm-140.31 178.29l-.69 3.1c.79 21.25-10.72 44.97-31.88 63.22-1.97 1.77-4.03 3.39-6.15 5.02-36.01 27.16-81.91 27.89-102.48 1.57-20.52-26.27-7.97-69.61 28.09-96.77 27.6-20.81 60.51-26.27 83.78-15.79a35.46 35.46 0 0 0-.15 3.3c0 16.19 10.48 30.01 25.14 35.13 1.38.49 2.85.93 4.33 1.23zm-536.89 0l-.69 3.1c.79 21.25-10.72 44.97-31.88 63.22-1.97 1.77-4.03 3.39-6.15 5.02-36.01 27.16-81.91 27.89-102.48 1.57-20.52-26.27-7.97-69.61 28.09-96.77 27.6-20.81 60.51-26.27 83.78-15.79a35.46 35.46 0 0 0-.15 3.3c0 16.19 10.48 30.01 25.14 35.13 1.38.49 2.85.93 4.33 1.23zm-536.39 0l-.69 3.1c.79 21.25-10.72 44.97-31.88 63.22-1.97 1.77-4.03 3.39-6.15 5.02-36.01 27.16-81.91 27.89-102.48 1.57-20.52-26.27-7.97-69.61 28.09-96.77 27.6-20.81 60.51-26.27 83.78-15.79a35.46 35.46 0 0 0-.15 3.3c0 16.19 10.48 30.01 25.14 35.13 1.38.49 2.85.93 4.33 1.23zm-537.82 0l-.69 3.1c.79 21.25-10.72 44.97-31.88 63.22-1.97 1.77-4.03 3.39-6.15 5.02-36.01 27.16-81.91 27.89-102.48 1.57-20.52-26.27-7.97-69.61 28.09-96.77 27.6-20.81 60.51-26.27 83.78-15.79a35.46 35.46 0 0 0-.15 3.3c0 16.19 10.48 30.01 25.14 35.13 1.38.49 2.85.93 4.33 1.23zm-536.25 0l-.69 3.1c.79 21.25-10.72 44.97-31.88 63.22-1.97 1.77-4.03 3.39-6.15 5.02-36.01 27.16-81.91 27.89-102.48 1.57-20.52-26.27-7.97-69.61 28.09-96.77 27.6-20.81 60.51-26.27 83.78-15.79a35.46 35.46 0 0 0-.15 3.3c0 16.19 10.48 30.01 25.14 35.13 1.38.49 2.85.93 4.33 1.23zm-536.25 0l-.69 3.1c.79 21.25-10.72 44.97-31.88 63.22-1.97 1.77-4.03 3.39-6.15 5.02-36.01 27.16-81.91 27.89-102.48 1.57-20.52-26.27-7.97-69.61 28.09-96.77 27.6-20.81 60.51-26.27 83.78-15.79a35.46 35.46 0 0 0-.15 3.3c0 16.19 10.48 30.01 25.14 35.13 1.38.49 2.85.93 4.33 1.23z" fill="#293974"/><g fill="none" class="E"><g stroke="#293974"><g class="C"><path d="M413.47 280.76s-42.24 7.17-45.15 55.62 45.15 64.34 45.15 64.34 31.39 11.63 71.31-4.46c0 0 70.34-28.29 12.6-89.72 0 0-33.33-37.79-83.91-25.77z"/><use href="#D" class="B"/></g><ellipse cx="452.09" cy="334.9" rx="17.02" ry="16.32" class="D"/><g class="C"><ellipse cx="364.12" cy="418.1" rx="37.95" ry="39.07"/><g class="B"><use href="#E"/><use href="#F"/><use href="#G"/><use href="#D" x="536.25"/></g></g><ellipse cx="988.34" cy="334.9" rx="17.02" ry="16.32" class="D"/><g class="C"><ellipse cx="900.36" cy="418.1" rx="37.95" ry="39.07"/><g class="B"><use href="#E" x="536.24"/><use href="#F" x="536.25"/><use href="#G" x="536.25"/><use href="#D" x="1072.5"/></g></g><ellipse cx="1524.58" cy="334.9" rx="17.02" ry="16.32" class="D"/><g class="C"><ellipse cx="1436.61" cy="418.1" rx="37.95" ry="39.07"/><g class="B"><use href="#E" x="1072.49"/><use href="#H"/><path d="M1351.72 563.19v30.94c0 18.74-6.89 36.85-19.33 50.87l-32.86 36.9m104.34-185.67l41.67 62.33c11.22 16.68 17.17 36.36 17.17 56.43v66.89m561.08-401.12s-42.24 7.17-45.15 55.62 45.15 64.34 45.15 64.34 31.39 11.63 71.31-4.46c0 0 70.34-28.29 12.6-89.72 0 0-33.33-37.79-83.91-25.77z"/><use href="#D" x="1610.32"/></g></g><ellipse cx="2062.41" cy="334.9" rx="17.02" ry="16.32" class="D"/><g class="C"><ellipse cx="1974.44" cy="418.1" rx="37.95" ry="39.07"/><g class="B"><use href="#E" x="1610.32"/><use href="#F" x="1610.32"/><path d="M1889.54 563.19v30.94c0 18.74-6.89 36.85-19.33 50.87l-32.86 36.9m104.34-185.67l41.67 62.33c11.22 16.68 17.17 36.36 17.17 56.43v66.89m559.64-401.12s-42.24 7.17-45.15 55.62 45.15 64.34 45.15 64.34 31.39 11.63 71.31-4.46c0 0 70.34-28.29 12.6-89.72 0 0-33.33-37.79-83.91-25.77z"/><use href="#D" x="2146.7"/></g></g><ellipse cx="2598.78" cy="334.9" rx="17.02" ry="16.32" class="D"/><g class="C"><ellipse cx="2510.81" cy="418.1" rx="37.95" ry="39.07"/><g class="B"><use href="#E" x="2146.69"/><use href="#H" x="1074.2"/><path d="M2425.92 563.19v30.94c0 18.74-6.89 36.85-19.33 50.87l-32.86 36.9m104.34-185.67l41.67 62.33c11.22 16.68 17.17 36.36 17.17 56.43v66.89m560.16-401.12s-42.24 7.17-45.15 55.62 45.15 64.34 45.15 64.34 31.39 11.63 71.31-4.46c0 0 70.34-28.29 12.6-89.72 0 0-33.33-37.79-83.91-25.77z"/><use href="#D" x="2683.6"/></g></g><ellipse cx="3135.69" cy="334.9" rx="17.02" ry="16.32" class="D"/><g class="C"><ellipse cx="3047.72" cy="418.1" rx="37.95" ry="39.07"/><g class="B"><use href="#E" x="2683.59"/><use href="#F" x="2683.6"/><path d="M2962.82 563.19v30.94c0 18.74-6.89 36.85-19.33 50.87l-32.86 36.9m104.34-185.67l41.67 62.33c11.22 16.68 17.17 36.36 17.17 56.43v66.89"/></g></g></g><path d="M3178.33 691.63l37.65.31m-147.19-.94l71.88.37m-332.03-.66l212.23.13m-515.35-.2l158 .06m-432.79-.01l237-.05m-717.56.18l299.58-.12m-443.65.2l72.04-.04m-529.04.4l388.27-.32m-669.7.64l126.99-.15m-384.39.53l202.49-.3m-805.38.3h445.76" stroke="#d3d3d3" class="B C"/></g><defs ><path id="B" d="M2642.06 245.18c8.61-20.81 11.76-39.85 10.87-57.22-4.13-81.57-97.46-125.4-131.85-138.83-7.33-2.85-15.64-.74-20.81 5.17-23.52 26.81-71.58 74.73-117.63 77.09-51.95 2.66-36.55-76.35-28.88-106.41 1.62-6.25-2.51-12.5-8.86-13.43-77.49-11.76-503.53-54.9-558.63 405.83-.98 8.31 7.82 14.32 15.2 10.33 25.14-13.78 79.01-40 146.61-62.92 10.38-3.49 21.06-6.94 32.03-10.18m888.5 130.6c-17.81-6.89-38.23-16.04-47.03-24.7-17.17-16.87-22.09-96.82-25.34-116.79-2.26-13.58 25.24-36.01 42.95-48.85 6.99-5.07 7.18-15.45.34-20.71l-38.62-29.91c-6.3-4.92-4.82-14.86 2.71-17.66l152.12-55.94c23.52-8.31 52.89-103.22 61.4-132.29 1.38-4.62 6.74-6.64 10.87-4.13 57.66 35.03 113.6 182.72 113.6 182.72"/><path id="C" d="M1974.45 379.04c20.96 0 37.93 17.46 37.93 39.06 0 11.17-4.53 21.25-11.86 28.34-6.74 6.64-15.94 10.72-26.07 10.72-2.02 0-4.03-.15-5.95-.49-16.38-2.66-29.27-16.04-31.63-32.96-.25-1.82-.39-3.69-.39-5.61 0-15.2 8.46-28.39 20.76-34.83a36.955 36.955 0 0 1 17.22-4.23z"/><path id="D" d="M438.15 278.55s2.3-23.05 13.28-48.41c14.2-32.83 34.56-48.26 60.74-40.9m-46.52 95.73s2.32-13 9.08-22.97c8.75-12.89 22.18-22.09 37.43-16.07"/><path id="E" d="M358.04 457.51c.1.98.15 1.97.15 3 0 16.78-11.27 31.04-26.81 35.72a39.278 39.278 0 0 1-11.12 1.62c-4.48 0-8.81-.79-12.79-2.21-14.66-5.12-25.14-18.94-25.14-35.13 0-20.61 16.97-37.34 37.93-37.34 2.16 0 4.23.2 6.3.54"/><path id="F" d="M282.47 457.22c-23.27-10.48-56.18-5.02-83.78 15.79-36.06 27.16-48.61 70.5-28.09 96.77 20.56 26.32 66.47 25.58 102.48-1.57 2.12-1.62 4.18-3.25 6.15-5.02 21.15-18.25 32.67-41.97 31.88-63.22m35.81-116.7l-25.34-51.31c-4.08-8.22-3.25-18.01 2.07-25.48l52.94-73.5m13.62 213.46l35.82 38.03c6.4 6.84 16.04 9.54 25.04 7.08l86.23-23.66"/><path id="G" d="M279.22 563.19v30.94c0 18.74-6.89 36.85-19.33 50.87l-32.86 36.9m104.34-185.67l41.67 62.33c11.22 16.68 17.17 36.36 17.17 56.43v66.89m559.51-401.12s-42.24 7.17-45.15 55.62 45.15 64.34 45.15 64.34 31.39 11.63 71.31-4.46c0 0 70.34-28.29 12.6-89.72 0 0-33.33-37.79-83.91-25.77z"/><path id="H" d="M1354.97 457.22c-23.27-10.48-56.18-5.02-83.78 15.79-36.06 27.16-48.61 70.5-28.09 96.77 20.56 26.32 66.47 25.58 102.48-1.57 2.12-1.62 4.18-3.25 6.15-5.02 21.15-18.25 32.67-41.97 31.88-63.22m35.8-116.7l-25.34-51.31c-4.08-8.22-3.25-18.01 2.07-25.48l52.94-73.5m13.63 213.46l35.82 38.03c6.4 6.84 16.04 9.54 25.04 7.08l86.23-23.66"/></defs></svg>