<?xml version="1.0" encoding="utf-8"?>
<!-- Generator: Adobe Illustrator 27.9.0, SVG Export Plug-In . SVG Version: 6.00 Build 0)  -->
<svg version="1.1" id="Layer_1" xmlns="http://www.w3.org/2000/svg" xmlns:xlink="http://www.w3.org/1999/xlink" x="0px" y="0px"
	 viewBox="0 0 24 24" style="enable-background:new 0 0 24 24;" xml:space="preserve">
<style type="text/css">
	.st0{fill:#227BF8;stroke:#227BF8;stroke-width:0.2462;stroke-miterlimit:10;}
</style>
<path class="st0" d="M13.2,23.8c-0.1-0.1-0.3-0.1-1.6-0.1h-1.2l0-0.1l-0.1-0.4c0-0.1-0.1-0.2-0.1-0.3c0,0,0-0.1,0-0.1l0-0.1
	l-0.5,0.1c-0.3,0-0.6,0.1-0.6,0.1c-0.1,0-0.1,0-0.1,0c0-0.1,0-0.2,0-0.3c0-0.1,0-0.1,0.2-0.6c0.3-0.6,0.3-0.6,0.2-0.6
	c0,0,0,0-0.3,0.1c-0.2,0-0.3,0.1-0.3,0.1C8.8,21.3,9,21,9.1,20.8c0.4-0.8,0.6-1,0.6-1c0,0-0.1-0.1-0.3-0.3c-0.1-0.2-0.3-0.3-0.4-0.4
	C9,19.1,9,19,8.9,19c0,0-0.3-0.2-0.7-0.7c-0.2-0.2-0.3-0.4-0.5-0.5c-0.1,0-0.1-0.1-0.1-0.2c-0.1-0.2-0.2-0.5-0.3-0.7l-0.1-0.2v-0.2
	c0-0.3-0.1-0.5-0.3-1.3L6.9,15l-0.1,0c-0.2,0-0.3-0.1-0.4-0.5c-0.1-0.2-0.1-0.3-0.2-0.5c-0.1-0.2-0.2-0.4-0.3-0.5l-0.1-0.2l-0.1,0
	c-0.1,0-0.2,0-0.4,0c-0.1,0-0.3,0.1-0.6,0l-0.4,0l-0.2,0l-0.1-0.2c-0.2-0.3-0.2-0.3-0.2-0.3c-0.1,0-0.2,0-0.6,0l-0.3,0l-0.2,0
	c-0.6-0.1-0.8-0.2-0.8-0.4c0,0,0-0.3-0.1-0.5c-0.1-0.5-0.2-1.1-0.2-1.3c0-0.3,0.3-1,0.6-1.8l0.1-0.3l0-0.5c0.1-3.2,0.2-3.7,0.3-3.9
	c0-0.1,0.5-0.4,0.6-0.5c0.3-0.2,1.5-0.8,2.8-1.4L6.5,2l0.2,0l0.2,0l0.5,0.3l0.5,0.3l0.4-0.2l0.6-0.3C9.2,2,9.2,2,9.3,1.9
	c0.2-0.2,0.5-0.6,0.6-0.7C10,1,10.3,0.8,10.7,0.5c0.1-0.1,0.2-0.1,0.6-0.3l0.2-0.1H12c0.4,0,0.5,0,0.6,0c0.4,0.1,0.6,0.2,0.7,0.3
	c0,0,0.1,0.1,0.2,0.1c0.1,0,0.3,0.2,1.2,0.8c0.5,0.4,0.5,0.4,1.5,0.7l0.3,0.1l0.2,0.2C16.8,2.7,17,2.9,17,2.9c0.1,0,0.5-0.1,1-0.2
	c0.3-0.1,0.3-0.1,0.3-0.1c0,0,0.2,0,0.3,0c0.3,0,0.5,0,1.1,0.1c0.2,0,0.3,0,0.3,0c0,0,0.2,0.4,0.5,0.9c0.3,0.5,0.6,1,0.7,1.2
	c0.2,0.2,0.2,0.3,0.2,0.4c0,0.2,0.1,1,0.1,1.3l0,0.9c0,0.8,0,1,0.1,1.1c0.1,0.2,0.3,0.7,0.6,1.7l0.1,0.4l0,0.9l-0.1,0.7L22.1,13
	l0,0.1l-0.4,0.3l-0.4,0.3l-0.3,0c-0.2,0-0.3,0-0.3,0c0,0-0.1,0.1-0.1,0.4c0,0.2,0,0.2-0.1,0.2l-0.7,0.1c-0.9,0.1-1,0.2-1.3,0.4
	c-0.3,0.2-0.3,0.2-0.5,1.7c-0.1,0.3-0.1,0.6-0.2,0.8c-0.1,0.3-0.9,1.7-1.2,2l-0.2,0.2l0.1,0.2c0,0.1,0.1,0.3,0.1,0.3
	c0,0.1,0.3,1.2,0.4,1.6l0,0.1l-0.2-0.1l-0.3-0.1c0,0-0.1,0-0.1,0c0,0,0,0.1,0.1,0.3c0.1,0.3,0.2,0.8,0.2,0.8c0,0-0.1,0-0.3,0
	c-0.1,0-0.2,0-0.4,0l-0.1,0l-0.2,0.7c-0.1,0.4-0.2,0.7-0.2,0.7c0,0-0.5,0-1,0c-0.5,0-0.7,0-0.8,0C13.4,23.8,13.3,23.8,13.2,23.8
	C13.2,23.8,13.2,23.8,13.2,23.8z M15.1,23.5c0,0,0-0.2,0-0.3c0-0.2,0-0.3,0-0.4c0-0.1,0-0.1,0-0.2c0,0,0-0.1,0-0.1
	c0,0-0.4,0-0.8-0.1c-0.6,0-0.8-0.1-1-0.1l-0.2,0l-0.6,0.1c-0.4,0-0.6,0.1-0.6,0.1c0,0-0.2,0-0.7,0.1c-0.4,0-0.7,0.1-0.7,0.1l-0.1,0
	l0,0.1c0,0.1,0,0.1,0.1,0.2c0.1,0.1,0.1,0.2,0.1,0.3c0,0.1,0,0.2,0,0.2c0,0,1,0,2.1,0C14.9,23.5,15,23.5,15.1,23.5
	C15.1,23.5,15.1,23.5,15.1,23.5C15.1,23.5,15.1,23.5,15.1,23.5z M10.4,22.3c0.9-0.1,1.2-0.2,1.5-0.2c0.4,0,0.9-0.1,1.2-0.1
	c0.1,0,0.2,0,0.4,0l0.3,0l0.4,0.1l0.4,0.1l0.7,0c0.4,0,0.7,0,0.7,0c0-0.1,0-0.2-0.1-0.2c0-0.1-0.1-0.3-0.2-0.5l-0.1-0.2l-0.2-0.1
	l-0.2-0.1l-0.2,0.1L15,21.2l-1.7,0.1l-1.7,0.1l-0.1-0.1l-0.1-0.1H9.8l-0.3,0.6c-0.1,0.3-0.3,0.6-0.3,0.6
	C9.3,22.5,9.2,22.5,10.4,22.3z M16.4,21.3c0,0-0.4-1.4-0.4-1.4c0,0,0,0-0.1,0.1L15.8,20l0.2,0.6l0.2,0.6l0.2,0.1
	C16.4,21.3,16.5,21.3,16.4,21.3L16.4,21.3z M9.8,20.6l0.2-0.3l-0.1-0.1c0,0-0.1-0.1-0.1-0.1c0,0-0.1,0.2-0.3,0.5
	c-0.2,0.3-0.3,0.5-0.3,0.5c0,0,0.1,0,0.2-0.1l0.2-0.1C9.6,20.9,9.8,20.6,9.8,20.6z M12.7,20.5c0.1-0.3,0.2-0.6,0.2-0.6
	c-0.1,0-0.1-0.1-0.2-0.1c-0.1,0-0.1,0-0.2-0.1c0,0,0-0.1,0.1-0.1l0.1-0.1l0.4,0c0.7,0,1.1-0.2,1.5-0.4c0.1-0.1,0.2-0.1,0.3-0.1
	c0.1,0,0.1,0.1,0.1,0.2c0,0,0,0.1-0.2,0.2c-0.2,0.1-0.9,0.4-1.1,0.5c-0.1,0-0.3,0.1-0.3,0.2c0,0.1-0.2,0.9-0.1,0.9
	c0,0,1.1,0,1.3-0.1c0.1,0,0.1,0,0.2-0.1c0,0,0.1-0.2,0.2-0.3c0.1-0.1,0.3-0.3,0.4-0.5c0.1-0.2,0.3-0.4,0.4-0.5
	c0.2-0.2,0.3-0.3,0.6-0.8c0.9-1.3,0.9-1.4,1-1.9c0-0.4,0.1-0.4,0.2-0.7c0.1-0.2,0.3-1,0.2-1c-0.1-0.1-0.2,0-0.4,0.1
	c-0.5,0.3-1,0.8-1.1,1c0,0.1-0.2,0.4-0.3,0.4l-0.5,0.4c-0.6,0.4-0.5,0.3-0.8,0.9l-0.1,0.2l-0.3,0.2l-0.3,0.2l-0.6,0
	c-1.2,0-1.3,0-1.9-0.2l-0.4-0.2l-0.3-0.3c-0.2-0.2-0.5-0.5-0.7-0.7l-0.4-0.4l-0.1-0.3c-0.2-0.4-0.3-0.8-0.5-1.1
	c-0.1-0.2-0.1-0.2-0.3-0.4c-0.3-0.4-0.5-0.7-0.7-1.6c0-0.2-0.1-0.3-0.1-0.3c0,0,0,0,0,0c0,0,0,0,0,0.1c-0.2,0.4-0.2,0.8-0.2,1.5
	c0,0.4,0,0.3,0.1,1c0.2,1.2,0.3,1.5,0.4,1.5c0,0,0.2,0.1,0.3,0.3c0.3,0.4,0.4,0.5,0.6,0.6c0.3,0.2,0.7,0.7,0.9,0.9
	c0,0.1,0.1,0.1,0.1,0.2c0.1,0.2,0.5,0.6,0.9,1.2l0.3,0.5l0.1,0c0.1,0,0.3,0,0.7,0.1c0.3,0,0.6,0.1,0.7,0.1h0.1
	C12.5,21,12.7,20.5,12.7,20.5z M10.4,20.9c0-0.1-0.1-0.1-0.1-0.2c-0.1-0.1-0.1-0.2-0.1-0.2c0,0-0.1,0.3-0.2,0.4
	C10,21,10.3,21,10.4,20.9z M13.2,18.2c0,0,0.1-0.1,0.4-0.1c0.3-0.1,0.4-0.1,0.6-0.2c0,0,0.1-0.1,0.1-0.1c0,0,0.1-0.1,0.1-0.1
	c0,0,0.1-0.1,0.1-0.1c0-0.1,0.2-0.3,1.1-0.9c0.1-0.1,0.2-0.2,0.2-0.3c0.1-0.1,0.2-0.2,0.3-0.3c0.1-0.1,0.3-0.3,0.5-0.4
	c0.2-0.2,0.4-0.4,0.5-0.5c0.1-0.1,0.2-0.1,0.2-0.2c0,0,0.2-0.1,0.3-0.2c0.2-0.1,0.3-0.2,0.3-0.2c0,0,0.1-0.1,0.5-0.2
	c0.9-0.3,1.5-0.5,1.8-0.5c0.1,0,0.1-0.1,0.1-0.2c-0.1-0.4-0.3-0.5-0.8-0.5h-0.2l-0.1-0.1C19,13,19,13,19,12.8
	c-0.1-0.5-0.2-0.5-0.7-0.5c-0.4,0-0.5,0.1-1.7,0.7c-0.6,0.3-1,0.7-1.5,1.3c0,0-0.1,0.1-0.1,0.1c-0.3,0-0.3-0.5,0-0.9l0.1-0.2l-0.1,0
	c-0.2-0.1-0.5-0.1-0.7,0c-0.3,0.1-1,0.5-1.1,0.6c-0.1,0.1-0.2,0.1-0.2,0c0-0.1,0.1-0.3,0.3-0.4c0,0,0.1-0.1,0.2-0.1
	c0.1-0.1,0.3-0.2,0.4-0.3c0.1-0.1,0.1-0.1,0.1-0.1c-0.1-0.3-0.5-0.5-0.9-0.7c0,0-0.2-0.1-0.3-0.1C12.5,12,12.4,12,12,12
	c-0.2,0-0.3,0-0.3,0c0.1-0.1,0.3-0.1,0.8-0.1l0.4,0l0.2,0.1c0.7,0.3,0.9,0.5,1.1,0.6c0.1,0.1,0.1,0.1,0.2,0.1c0.3,0,0.5,0,0.8,0.2
	c0.1,0.1,0.2,0.1,0.3,0.1c0.1-0.1,0.2-0.3,0.3-0.5c0-0.3-0.1-1.1-0.2-1.4c-0.1-0.2-0.1-0.2,0.1,0c0.2,0.2,0.2,0.2,0.3-0.1
	c0-0.1,0.1-0.2,0.1-0.2c0.3-0.4,0.3-1,0-1.3c-0.1-0.1-0.4-0.3-0.8-0.4c-0.4-0.2-0.5-0.2-0.8-0.6c-0.4-0.5-0.4-0.6-0.7-0.7
	c-0.6-0.3-2.1-0.6-2.5-0.5c-0.4,0.1-1,0.4-1.3,0.8C9.8,8.2,9.3,8.4,8.7,8.4c-0.8,0.1-1.2,0.8-1,1.8c0,0.2,0,0.2,0.2,0
	c0.4-0.5,1.2-1,1.9-1.1c0.6-0.1,1.5-0.1,2,0l0.1,0h-0.1c-0.7,0-1.9,0.3-2.7,0.6L8.8,9.8l0,0.1c0,0.1,0,0.1-0.3,0.3
	C8,10.8,7.9,11,7.8,11.5c0,0.2,0,0.6,0.1,0.7c0,0,0,0,0,0.1c0,0.1,0,0.1,0,0.2c-0.1,0.8,0.3,1.8,0.9,2.4L9,15l0.1-0.1
	c0.3-0.3,0.8-0.6,0.9-0.6c0,0,0,0.1,0,0.2c-0.1,0.1-0.2,0.2-0.5,0.6l-0.3,0.4l0,0.1c0,0.1,0.1,0.3,0.1,0.4c0,0,0.1,0.1,0.1,0.2
	c0.2,0.3,0.3,0.5,0.4,0.6c0.1,0.1,0.2,0.2,0.3,0.4c0,0,0,0.1,0.1,0.1c0,0,0.1,0,0.3,0.2c0.2,0.2,0.1,0.1,0.8,0.4
	c0.8,0.3,1.1,0.4,1.4,0.3c0.1,0,0.1,0,0.2,0C13.1,18.3,13.1,18.3,13.2,18.2C13.2,18.2,13.2,18.2,13.2,18.2z M6.9,14.5
	c0,0,0-0.1,0-0.2C7,14.1,7,14,7,13.9l0.2-0.6c0.2-0.6,0.2-0.5,0.2-0.5c0,0,0,0,0-0.1c0-0.1,0-0.1-0.1-0.2l0-0.1l0-0.6l0-0.6
	l-0.1-0.4c0-0.1,0-0.3-0.1-0.4c0,0-0.5,0.1-0.6,0.2c-0.2,0.1-0.4,0.7-0.5,1.2c-0.1,0.7,0,1.6,0.2,1.9c0.1,0.1,0.2,0.4,0.4,0.7l0,0.1
	L6.9,14.5C6.9,14.5,6.9,14.5,6.9,14.5z M21.5,13.2c0.1-0.1,0.2-0.2,0.2-0.2c0,0,0.2-1.1,0.3-1.5l0-0.3l0-0.4l0-0.4l-0.1-0.5
	c-0.1-0.5-0.1-0.5-0.3-0.7c-0.2-0.4-0.2-0.2-0.4-3.3l0-0.6l-0.1-0.1c-0.1-0.1-0.3-0.5-0.9-1.4c-0.2-0.3-0.3-0.5-0.5-0.8
	C19.3,3,19.1,3,18.8,2.9c-0.4-0.1-0.7,0-1,0.1c-0.1,0-0.1,0-0.2,0c-0.1,0-0.3,0-0.6,0.2l-0.1,0.1l-0.2-0.2c-0.2-0.2-0.2-0.3-0.6-0.5
	c-0.6-0.4-0.7-0.4-1.6-0.7c-0.3-0.1-0.3-0.1-1-0.7L13,0.7l-0.6,0c-1,0-1.5,0.1-1.6,0.1c-0.7,0.5-1.1,0.9-1.5,1.5L9.3,2.5L8.9,2.6
	C8.5,2.8,7.9,3,7.7,3C7.6,3,7.3,2.8,7,2.7C6.6,2.4,6.3,2.4,6,2.5C5.7,2.7,5.5,2.8,4.7,3.2c-0.8,0.4-1,0.5-1.2,0.7L3.3,4L3.2,4.3
	C2.9,4.9,2.9,4.9,2.9,5.7c0,1.5,0,2,0,2.1c0,0.2,0,0.4,0,0.5c0,0.2-0.4,1.4-0.6,1.9c-0.1,0.2-0.1,0.5-0.2,0.7c0,0.1,0,0.2,0,0.4
	c0,0.2,0.1,0.4,0.1,0.6c0.1,0.5,0.1,0.6,0.4,0.6c0.2,0.1,0.3,0.1,0.7,0c0.8-0.2,0.8-0.2,1.1,0.4c0.1,0.1,0.1,0.2,0.1,0.2
	c0.1,0,0.7,0,0.9,0l0.2,0l0.1,0l0-0.1c0-0.2,0-0.4,0-0.6c0-0.3,0.1-0.5,0.2-0.9c0,0,0,0,0,0l0,0.1l0-0.2c-0.1-0.2-0.1-0.5-0.3-0.7
	C5.3,10.5,5.1,10.2,5,9.9L4.9,9.6l0-0.2c0-0.7,0.2-1.2,0.6-1.6c0.2-0.2,0.3-0.3,0.3-0.5C5.9,7.3,5.9,6.6,6,6l0.1-0.5l0.2-0.7
	c0.1-0.4,0.2-0.7,0.2-0.7C6.3,4,6.1,3.8,5.8,3.7c-0.1,0-0.4,0-0.6,0C4.5,3.9,4,4.3,4,4.7c0,0.1-0.4,0.8-0.4,0.8c0,0-0.1-0.1-0.1-0.2
	c0-0.1,0-0.1,0.1-0.3c0-0.1,0.1-0.3,0.1-0.5C3.8,4,3.9,4,4.1,3.9l0.5-0.2c0.7-0.3,1.6-0.6,1.9-0.5c0.1,0,0.4,0.2,0.5,0.4l0.1,0.1
	L7,4C6.5,5.2,6.4,5.6,6.4,5.8c-0.1,0.5-0.1,1.4,0,1.7c0.1,0.2,0.1,0.2-0.2,0.4C5.7,8.1,5.2,8.7,5.2,9c0,0.2,0.1,0.6,0.2,0.9
	C5.5,10,6,10.8,6,10.8c0,0,0,0,0.1-0.1c0.2-0.3,0.4-0.6,0.7-0.8c0.3-0.2,0.3-0.2,0.3-0.3C7.3,8.9,7.5,8.5,8,8.3l0.2-0.1l-0.1,0
	C7.9,8.1,7.8,8,7.7,7.8C7,7.1,6.7,6.3,7,5.7c0,0,0.1-0.1,0.1-0.2C7.3,4.8,8,4.4,8.9,4.5c0.9,0.1,1.3,0.3,1.6,0.9
	c0.3,0.6,0.3,1.2-0.1,1.7l-0.1,0.1l0.1-0.1c0.1-0.1,0.8-0.4,0.9-0.4c0.3-0.1,0.6,0,1.9,0.2C13.7,7,13.8,7.1,14,7.3
	c0,0,0.1,0.1,0.1,0.1c0,0,0-0.1,0-0.2c-0.1-0.6,0-1.4,0.3-1.8c0.3-0.5,1.4-0.9,1.9-0.7c0.3,0.1,0.8,0.3,1,0.6c0,0,0.1,0.1,0.1,0
	c0,0,0-0.3,0-0.7c0-0.2,0-0.5,0-0.7c0,0,0.1-0.1,0.3-0.2l0.3-0.2l0.1,0c0,0,0.2,0.1,0.8,0.2L19.4,4c0,0,0.1,0.1,0.2,0.3
	c0.1,0.2,0.3,0.4,0.4,0.6c0.4,0.7,0.5,0.8,0.4,0.9c-0.1,0.1-0.1,0.1-0.2,0c0,0-0.2-0.3-0.4-0.6c-0.1-0.2-0.2-0.4-0.3-0.5
	c0,0-1-0.3-1.5-0.5c-0.2-0.1-0.5,1.1-0.4,2.1c0,0.3,0,0.3,0.3,0.6c0.2,0.2,0.8,1.1,1,1.4L19,8.4l0,0.8l0,0.8l-0.1,0.2
	c-0.4,0.7-0.7,1-1,1.1c-0.2,0-0.3,0.2-0.3,0.2c0,0,0,0.2,0,0.3c0,0.2,0,0.2,0,0.2c0,0,0.1,0,0.1,0c0.4-0.1,0.9-0.1,1.2,0.1
	c0.1,0,0.1,0.1,0.1,0.3c0,0.4,0,0.4,0.3,0.5c0.3,0.1,0.5,0.1,0.7,0.3l0.1,0.1l0.5,0l0.5,0C21.2,13.3,21.5,13.2,21.5,13.2z M10,3.9
	C9.7,3.8,9.4,3.6,9.2,3.4C8.8,3.3,8.8,3.2,9,3.1C9.4,3,9.5,3,9.9,3.5c0.2,0.2,0.4,0.3,0.4,0.4c0.2,0.1,0.3,0.3,0.3,0.3
	c0,0-0.1,0.1-0.1,0.1C10.4,4.2,10.2,4.1,10,3.9z M13.9,4.1c-0.1,0-0.2-0.1-0.2-0.2l0-0.1l0-0.1c0-0.1,0.1-0.1,0.2-0.2
	c0.1,0,0.2-0.1,0.2-0.1c0.2-0.1,1.2-0.5,1.3-0.5c0.1,0,0.1,0,0.2,0.1c0,0,0,0.1,0.1,0.1c0,0.1-0.1,0.1-0.3,0.2
	c-0.1,0-0.5,0.2-0.8,0.3l-0.3,0.1l-0.1,0.2C14,4.1,14,4.1,13.9,4.1L13.9,4.1C13.9,4.1,13.9,4.1,13.9,4.1z M16.1,12.6
	c0.1-0.1,0.6-0.3,0.9-0.4c0.1,0,0.2-0.3,0.2-0.7v-0.2l-0.1-0.2c-0.1-0.2-0.2-0.4-0.2-0.4c0,0-0.2,0.2-0.4,0.5L16,11.8l0,0.2l0,0.4
	C16,12.7,16,12.7,16.1,12.6C16.1,12.6,16.1,12.6,16.1,12.6z M17.7,10.8l0.3-0.1l0.1-0.2c0.4-0.6,0.5-0.9,0.5-1.4l0-0.3l-0.2-0.4
	c-0.4-0.6-0.6-1-0.7-1.2c0,0,0-0.1-0.1-0.1c-0.1,0-0.2,0.1-0.5,0.4c-0.1,0.2-0.2,0.3-0.7,0.5c-0.6,0.3-0.9,0.3-1.3,0.2
	c-0.2-0.1-0.4-0.1-0.5-0.2c0,0,0.1,0.2,0.3,0.3c0.1,0.1,0.2,0.2,0.3,0.2c0.2,0,0.5,0.2,1.1,0.6c0.3,0.2,0.3,0.1,0.3,0.5l0,0.3
	l0.1,0.1c0.1,0.1,0.2,0.2,0.4,0.5c0.1,0.1,0.1,0.2,0.1,0.2C17.4,11,17.7,10.8,17.7,10.8z M16,7.8c0.4-0.2,0.7-0.7,0.5-1
	c-0.2-0.4-0.6-0.7-1-0.7c-0.4,0-1,0.5-1,0.8c0,0,0.1,0,0.1-0.1c0.3-0.3,0.7-0.3,1-0.1C16.2,6.9,16.2,7.4,16,7.8
	C15.9,7.8,15.9,7.8,16,7.8L16,7.8z M8.5,7.6c0-0.1,0-0.3,0-0.4c0.1-0.8,1.1-1,1.5-0.4L10,6.9l0-0.1c-0.1-1-1.1-1.2-1.7-0.4
	C7.9,6.8,8,7.5,8.5,7.6C8.5,7.7,8.5,7.7,8.5,7.6C8.5,7.6,8.5,7.6,8.5,7.6z M17.2,7.1c0.3-0.4,0.2-1-0.1-1.5C16.7,4.9,16,4.7,15.3,5
	c-0.6,0.2-0.8,0.5-0.8,1.1c0,0.2,0,0.3,0.1,0.2c0.2-0.3,0.6-0.5,1.1-0.5c0.7,0,1.2,0.5,1.4,1.3l0,0.2l0,0l0,0
	C17.1,7.2,17.2,7.1,17.2,7.1C17.2,7.1,17.2,7.1,17.2,7.1z M15.8,7.2C15.8,7.1,15.8,7.1,15.8,7.2c0-0.1,0-0.2,0-0.2c0,0-0.1,0-0.1,0
	c0,0-0.1,0-0.1,0c0,0,0,0.1,0,0.1C15.6,7.2,15.7,7.3,15.8,7.2C15.8,7.2,15.8,7.2,15.8,7.2z M7.7,7c0.1-0.8,0.7-1.3,1.5-1.3
	c0.5,0,0.8,0.3,1,0.8c0.1,0.1,0.1,0.1,0.1,0c0.1-0.3,0-0.8-0.2-1.1c-0.3-0.5-1-0.8-1.7-0.6C8,4.9,7.5,5.4,7.4,5.9
	C7.3,6.3,7.4,6.7,7.6,7C7.7,7.1,7.7,7.1,7.7,7C7.7,7,7.7,7,7.7,7z M9.6,7C9.6,6.9,9.6,6.9,9.6,7c0-0.1,0-0.2,0-0.2c0,0-0.1,0-0.1,0
	s-0.1,0-0.1,0c0,0,0,0.1,0,0.1C9.4,6.9,9.4,7,9.6,7C9.5,7,9.6,7,9.6,7z"/>
</svg>
