<svg xmlns="http://www.w3.org/2000/svg" viewBox="0 0 412.71 412.71"><circle cx="206.35" cy="206.35" r="206.35" transform="rotate(315 206.351 206.346)" fill="#e5d6e3"/><path d="M278.21 197.88l-47.8 5.04c-.89.44-2.36 104.3-2.36 105.48s89.7 21.83 89.99 23.02c.29 1.18 25.67-16.23 20.36-50.16s-62.26-60.19-60.19-83.38z" fill="#293549"/><g fill="#212b3a"><path d="M283.69 303.95l-.05.24c.02-.06.04-.15.05-.24z"/><path d="M294.26 258.11c-4.35-3.62-9.28-7.72-14.48-12.84-13.83-13.6-12-44.06-11.98-44.37l-5.12-.34c-.09 1.34-2.01 33.11 13.5 48.37 5.36 5.27 10.38 9.44 14.8 13.12 7.71 6.41 13.28 11.04 15.1 16.81 2.33 7.38 1.96 22.46 1.67 28.9-10.1-2.37-20.42-4.94-24.01-6.07-.2-6.36-2.52-22.83-10.01-33.6-3.2-4.6-6.98-8.17-10.62-11.61-9.7-9.17-18.08-17.08-14.69-42.04l-5.08-.69c-3.75 27.57 6.42 37.18 16.25 46.47 3.46 3.27 7.04 6.65 9.94 10.81 7.74 11.12 9.19 29.38 9.15 31.85l-.26.81.56.99c.66 1.18 1.09 1.95 30.61 8.78l2.93.68.21-3c.07-.95 1.55-23.41-1.74-33.82-2.28-7.2-8.65-12.5-16.71-19.21zm-15.52 44.53s.01-.05.02-.07c0 .02-.02.05-.02.07zm4.89 1.55c.03-.08.03-.16.05-.24.03-.2.06-.47.07-.82.03.26 0 .54-.07.82-.02.1-.03.18-.05.24z"/></g><path d="M111.665 141.35l.504-5.105 17.336 1.712-.504 5.105z" fill="#e7eaf0"/><path d="M217.83 54.41c-61.42-7.75-78.7 33.42-81.79 43.91-8.92 30.22-16.65 118.24-3.16 134.31s27.26 16.65 28.99 21.24c1.72 4.59-12.34 133.74-12.34 133.74s87.53 2.01 87.53 0 4.02-121.97 6.03-138.62 30.71-100.45 31-102.46 5.17-84.38-56.25-92.13z" fill="#ffa286"/><path d="M148.99 135.46c-1.46.05-3.13 4.61-3.73 10.18-.59 5.57.11 10.05 1.58 9.99 1.46-.05 3.13-4.61 3.73-10.18.59-5.57-.11-10.05-1.58-9.99zm73.89 5.93c-1.46.05-3.13 4.61-3.73 10.18-.59 5.57.11 10.05 1.58 9.99 1.46-.05 3.13-4.61 3.73-10.18.59-5.57-.11-10.05-1.58-9.99z" fill="#293549"/><g fill="#e7eaf0"><path d="M249.58 135.22c-3.03-2.76-20.11-4.5-25.27-4.97-10.26-.93-23.24-1.51-26.83.98-3.89 2.7-6.05 16.54-6.44 19.28-.89 6.23-2.4 21.41 2.82 27.88 5 6.19 19.27 8.47 31.14 8.47 7.93 0 14.79-1.02 17.08-2.56 7.05-4.76 9.13-32.05 9.21-33.21.98-13.41-.9-15.13-1.7-15.87zm-4.41 24.64c-1.89 13.12-4.6 19.26-5.96 20.18-3.53 2.38-34.68 3.39-41.35-4.88-5.84-7.23-.37-36.58 2.6-39.74 4.49-2.54 40.38.96 45.53 3.53.66 1.97.75 10.09-.81 20.91z"/><path d="M183.18 135.94c-9.14-.44-14.02 5.52-14.23 5.77l4 3.22c.14-.17 3.56-4.18 9.98-3.86 6.28.31 9.14 5.76 9.25 5.98l4.6-2.28c-.17-.34-4.26-8.37-13.6-8.83z"/></g><path d="M160.8 110.23c-4.24-.58-8.47-1.01-12.75-1.17-6.6-.25-6.59 10.01 0 10.26 3.35.13 6.7.36 10.02.81 2.74.37 5.51-.66 6.31-3.58.66-2.39-.82-5.94-3.58-6.31zm70.37 4.96c-5.77-.98-11.57-1.67-17.41-2-6.6-.38-6.58 9.89 0 10.26 4.93.28 9.81.81 14.68 1.64 2.73.47 5.53-.72 6.31-3.58.68-2.47-.84-5.84-3.58-6.31z" fill="#293549"/><path d="M203.23 197.93c-6.41-.81-15.27 7.84-19.96 8.76-4.68.92-16.6-8.96-20.87 2.34 0 0-1.83 16.9 26.37 13.85s22.08-17.53 22.08-17.53-1.21-6.6-7.62-7.41z" fill="#ff7c76"/><path d="M246.48 202.37c-.07.32-7.36 32.34-36.13 45.51-23.93 10.96-55.16 1.07-55.45.96l-.08.2c3.75 1.8 6.37 2.99 7.05 4.83.29.78.13 5.18-.35 11.93 7.04 1.72 16.56 3.33 25.67 2.6 55.35-4.44 62.03-61.49 63.4-61.58.88-.06 2.23.57 3.6 1.39l2.23-7.11-8.22-3.23-1.72 4.49z" fill="#c3735b"/><path d="M215.17 37.06c-109.87-7.16-85.98 98-85.98 98s4.14-74.4 70.75-75.54c73.03-1.25 61.28 104.62 61.28 104.62l26.9.78s42.21-120.37-72.94-127.87z" fill="#293549"/><path d="M242.28 41.59c-14.08 6.29-30.45 9.24-45.65 5.95-6.08-1.32-11.63-4.38-15.25-8.62-13.96 2.87-24.44 8.36-32.27 15.32.12.61.26 1.21.45 1.81 1.91 6.11 6.76 11.38 11.49 15.57 9.72-7.03 22.39-11.81 38.89-12.1 19.06-.33 32.65 6.5 42.35 16.74 11.55-4.15 22.74-9.55 33.61-15.25-7.95-8.31-18.84-15.15-33.6-19.43z" fill="#bbb4ff" opacity=".08"/><path d="M197.57 59.6l2.37-.08 2.71.01c.7-6.93 3.27-17.03 11.93-22.51-2.63-.16-5.18-.25-7.66-.29-6.56 6.86-8.71 16.29-9.36 22.86z" fill="#404f66"/><path d="m249.15 145.43-.5 5.11 5.49.53 18.47 10.79 5.37-2.44-22.22-13.34-6.61-.65z" fill="#e7eaf0"/><path d="M276.19 158.81c-10.93-.07-21.84 10.75-24.36 24.15-2.52 13.41 4.29 24.33 15.22 24.4s21.84-10.75 24.36-24.15c2.52-13.41-4.29-24.33-15.22-24.4z" fill="#ffa286"/><path d="m283.46 173.55.31-5.12c-15.47-.93-23.45 26.02-23.52 26.3l4.97 1.28c.44-1.56 1.94-5.7 4.24-10.01l9.88 1.64.84-5.06-7.86-1.31c3.04-4.4 6.88-7.96 11.15-7.71z" fill="#c3735b"/><path d="M159.5 207.24h-.02l-1.61 4.86c1.63.55 10.13 3.2 21.77 3.2 10.61 0 23.83-2.2 36.87-10.2l-2.68-4.37c-25.8 15.82-53.17 6.89-54.32 6.51z" fill="#ed6565"/><path d="M172.11 128.59c-4.14-3.78-46.21-7.45-52.38-3.16-3.96 2.75-6.11 16.83-6.51 19.63-.86 6.16-2.31 21.17 2.89 27.54 4.54 5.56 19 7.6 27.22 8.33 1.48.13 5.84.48 10.33.48 2.04 0 4.11-.07 5.95-.27-.84-1.52-1.34-3.22-1.38-4.95-9.84.7-33.92-1.66-38.15-6.83-5.88-7.19-.37-36.57 2.61-39.73 4.53-2.61 40.47.22 45.78 2.7 1.16 3.71-.75 20.08-3.11 31.67h.05c1.75-.18 3.45-.12 5.11.12 1.95-9.68 3.25-21.27 3.33-27.1.08-5.57-.64-7.39-1.75-8.4z" fill="#e7eaf0"/><g fill="#c3735b"><path d="M174.38 144.69c.11 3.87 0 14.42-4.09 20.55l4.27 2.85c4.82-7.23 5.07-18.66 4.96-23.26-1.71-.1-3.42-.13-5.14-.13z"/><path d="M162.3 180.24c-2.52-2.92-2.9-6.44-.99-9.19 3.02-4.34 7.76-4.73 14.09-1.17.29.16.49.26.57.3l1.32-3.15.8-1.52-.18-.1c-8.66-4.86-16.24-3.87-20.82 2.72-3.26 4.69-2.74 10.77 1.32 15.47 2.87 3.32 7.85 6.11 14.34 6.11 3.78 0 8.07-.94 12.75-3.27l-2.28-4.6c-10.09 5.01-17.58 2.27-20.92-1.6z"/></g><path d="M137.15 134.28c-.44-.7-1.03-1.31-1.78-1.77-2.15-1.33-4.63-.98-6.75.19-1.39.76-2.9 2.08-3.67 3.49-1.34 2.43-1.14 5.64.99 7.56 3.13 2.82 8.75 1.59 11.52-1.27 2.28-2.36 2.04-6.11-.31-8.21zm76.41 3.3c-1.04-.46-2.22-.58-3.43-.32-3.11.68-6.42 2.79-7.33 6.01-.59 2.11 0 4.53 1.65 6.02 1.47 1.33 3.41 1.84 5.35 1.63 3.15-.34 6.46-1.52 8.02-4.53 1.21-2.34 1.01-5.48-1.06-7.3a6.236 6.236 0 0 0-3.21-1.51z" fill="#fff"/><path d="M206.35 412.71c11.94 0 23.64-1.03 35.02-2.97l-.08-37.16s-21.17 10.59-56.02 10.14c-34.85-.44-46.75-15.44-46.75-15.44l-1.81 33.36c21.76 7.8 45.2 12.06 69.64 12.06z" fill="#ecf5ff"/><path d="M47 331.47c-.28.73-.74 2.2-1.35 4.32 26.41 32.74 62.6 57.25 104.15 69.07l11.18-132.11S52.48 317.48 47 331.47z" fill="#eb6085"/><path d="M136.42 372.22l-9.53-1.93-8.5-1.73c.78-8.96 6.4-49.91 9.22-70.43l1.61-11.75-5.51 2.45-1.18 8.61-6.26 46.24c-3.6 27.36-3.52 27.43-2.26 28.63.81.77 1.32.95 11.9 3.02l6.15 1.22c-14.92 5.56-17.82 7.32-18.67 9.19-.22.48-.27 2.17-.18 4.79a180.01 180.01 0 0 0 5.23 2.55c-.16-2.42-.24-4.19-.24-5.13 2.79-1.89 14.69-6.25 18.75-7.74l4.54-1.74c1.03-.52 1.62-1.61 1.47-2.74-.29-2.14-2.25-2.57-6.54-3.52z" fill="#d14c75"/><path d="M229.37 411.42c58.45-6.49 109.52-37.38 142.82-82.26-21.9-17.64-130.67-56.41-130.67-56.41s-6.66 64.05-12.15 138.67z" fill="#eb6085"/><path d="M267.28 294.35l-.99 75.66-8.72.97-9.66 1.06c-4.36.56-6.34.81-6.83 2.91-.25 1.1.24 2.25 1.22 2.86.49.3 1.62.84 4.36 2.13 3.92 1.85 15.37 7.27 17.98 9.4-.18 2.02-1.05 7.69-2.52 15.73l5.52-1.62c1.55-8.79 2.36-14.86 2-15.88-.68-1.94-3.41-3.96-17.77-10.83l6.23-.66c10.73-1.11 11.25-1.24 12.12-1.93 1.3-1.03 1.4-1.12 1.77-31.3l.42-48.46.07-10.19-5.12-1.93-.09 12.08z" fill="#d14c75"/></svg>