<svg data-name="Layer 2" xmlns="http://www.w3.org/2000/svg" viewBox="0 0 412.71 412.71"><g data-name="—ÎÓÈ_1"><g data-name="F"><circle cx="206.35" cy="206.35" r="206.35" style="fill:#e5d6e3;stroke-width:0"/><path d="M116.43 145.54c8.35-.09 16.24 9.41 17.63 21.22 1.39 11.81-4.25 21.46-12.6 21.56-8.35.09-16.24-9.41-17.63-21.22-1.39-11.81 4.25-21.46 12.6-21.56zM290.01 140.83c8.84-.27 15.54 8.59 14.98 19.78-.56 11.19-8.19 20.47-17.02 20.74-8.84.27-15.54-8.59-14.98-19.78.56-11.19 8.19-20.47 17.02-20.74z" style="fill:#a9573d;stroke-width:0"/><path d="M247.15 75.63c32.61 33.01 83.3 175.65-34.56 181.18-122.47 5.74-78.5-152.79-78.5-152.79 22.38-51.26 80.46-61.39 113.06-28.38z" style="fill:#a9573d;stroke-width:0"/><path d="M148.92 264.42c6.16-7.36 2.56-38.28 2.56-38.28l97.01 3.99s-1.13 26.12 3.92 32.44c6.81 8.54 42.14 11.54 42.14 11.54l-85.84 62.14-98.32-62.23s32.16-1.99 38.53-9.6z" style="fill:#a9573d;stroke-width:0"/><path d="m123.74 178.7-2.93-.43c2.76-19.57-6.26-22.74-6.65-22.87l.86-3.21c.49.15 11.9 3.89 8.71 26.51z" style="fill:#823f2c;stroke-width:0"/><path d="M122.29 163.5c.81.64 1.78 1.9 1.83 4.24l-2.97.17c-.02-1.08-.31-1.64-.62-1.68-2.46-.26-3.83-.35-4.53-.36l-.74-2.87c.46-.16 4.51-1.51 7.02.49zM286.17 161.14c.62-11.43 8.02-13.96 8.42-14.08l1.16 2.99c-.25.09-4 1.45-5.67 6.97 2.27-.45 4.72.15 5.08.25l-.62 3.02c-.86-.23-3.56-.67-4.7.24-.19.15-.41.4-.5.93-.01.18-.02.31-.03.49v.08c-.08 2.31.23 5.91 1.17 9.8l-3.07.55c-1.02-4.24-1.36-7.76-1.25-10.73 0-.17 0-.34.02-.5z" style="fill:#823f2c;stroke-width:0"/><path d="M256.46 144.25c2.97.92 2.85 6.13-.64 5.8-1.88-.18-3.81-.23-5.65.23-1.91.48-3.44 1.6-5.27 2.25-3.07 1.1-4.71-2.77-3.04-4.93 3.09-3.97 10.11-4.74 14.6-3.36zM160.86 146.2c4.35-1.47 9.85-.27 13.81 1.79 2.95 1.54 1.11 6.58-2.17 5.53-1.73-.55-3.5-1.08-5.3-1.31-1.8-.23-3.6-.01-5.39-.14-3.28-.24-4.31-4.73-.94-5.87z" style="fill:#b25b44;stroke-width:0"/><path d="M200.47 223.88c4.51-.37 9.38-.19 13.75 1.06 3 .86 2.77 5.85-.63 5.69-4.35-.2-8.6-.49-12.96-.29-4.18.19-4.29-6.13-.16-6.47z" style="fill:#ffa88b;stroke-width:0"/><path d="M371.31 319.96c-34.25-37.3-71.37-50.17-116.75-57.08 0 0-3.76 29.88-42.64 29.88-47.44 0-65.54-28.14-65.54-28.14s-56.8-.57-103.67 51.76c36.88 56.11 91.47 96.33 163.63 96.33s127.94-37.43 164.96-92.75z" style="fill:#eaeef9;stroke-width:0"/><path d="M197.8 213.59c6.24.56 12.16.72 18.39.12 1.65-.16 2.31 2.5.63 2.93-6.32 1.62-13.31 1.78-19.6-.1-1.86-.55-1.36-3.12.57-2.95z" style="fill:#e8685d;stroke-width:0"/><path d="M171.49 129.22c3.98.82 6.58 4.82 5.82 8.94a7.471 7.471 0 0 1-1.67 3.5c-4.25-.7-8.43-1.58-12.53-2.78a7.718 7.718 0 0 1-.2-3.68c.76-4.12 4.6-6.8 8.58-5.98zM180.27 186.12c1.62-1.01 15.84 4.2 29.3 3.89 13.46-.3 26.16-6.12 28.27-3.67 4.81 5.59.77 20.16-28.63 21.05-26.27.79-37.37-16-28.94-21.27z" style="fill:#431b06;stroke-width:0"/><path d="M209.57 190.01c9.17-.21 17.97-2.96 23.33-3.93-.19 1.75-.61 4.47-1.45 5.18-4.31 3.63-40.98 5.29-45.54 1.42-.56-.47-.87-3.75-1.05-6.09 5.6 1.17 15.34 3.63 24.71 3.42z" style="fill:#fff;stroke-width:0"/><g style="opacity:.22"><path d="M209.57 190.01c9.17-.21 17.97-2.96 23.33-3.93-.19 1.75-.61 4.47-1.45 5.18-.52.44-1.52.85-2.86 1.22-4.39-3.21-9.17-1.71-14.39-1.33-5.69.41-12.36.2-17.95-1.03-3.37-.74-5.8 1.33-6.67 3.87-1.73-.34-3.02-.77-3.66-1.31-.56-.47-.87-3.75-1.05-6.09 5.6 1.17 15.34 3.63 24.71 3.42z" style="fill:#b39e8f;stroke-width:0"/></g><path d="M207.16 203.32c8.85-4.17 16.23-1.25 20.04 1.03-4.5 1.67-10.39 2.81-17.98 3.04-7.77.23-14.2-1.08-19.2-3.17 9.33-5.44 17.15-.91 17.15-.91z" style="fill:#7f3311;stroke-width:0"/><path d="M244.38 128.66c3.8-.23 7.07 2.72 7.3 6.6.08 1.24-.18 2.42-.68 3.46-3.89.5-7.9.7-11.86.94a7.033 7.033 0 0 1-1.22-3.57c-.24-3.88 2.65-7.21 6.45-7.44z" style="fill:#431b06;stroke-width:0"/><path d="M126.4 150.1s5.97 23.31 1.3 36.58c0 0-.06 70.46 79.87 70.3 79.89-.16 86.13-47.13 75.27-110.12-.08-14.22-3.86-101.12-83.97-100.57-87.62.6-72.47 103.8-72.47 103.8zm48.79 31.96c4.32-2.2 15.54 4.63 33.69 4.54 15.74-.07 29.74-7.8 34.68-2.94 6.14 6.05-.31 28.41-34.68 29.44-30.71.92-44.06-25.77-33.69-31.05zm-23.1-80.1c.57-4.62.85-9.43 3.04-13.58 2.38-4.5 6.75-7.63 11.34-9.37 9.23-3.51 19.89-3.98 29.46-4.79 1.76-.16 9.23-.47 11-.45 9.61.02 20.27-.38 29.78 2.37 4.73 1.36 9.37 4.12 12.14 8.41 2.56 3.96 4.01 9.59 5.27 14.61.7 2.77 5.79 8.61 8.52 10.41 5.89 3.89 8.27 13.85 10.51 20.6 1.15 3.46 2.84 11.59 4.57 19.73-.31 7.29-2.51 34.43-18.42 40.83 0 0 3.78-24.9-51.83-25.53-55.05-.62-49.02 27.24-49.02 27.24-14.92.52-24.29-24.01-24.88-37.58-.79-7.01.58-15.16 1.49-19.02 1.62-6.91 3.09-17.03 8.61-21.39 2.56-2.02 8.08-9.64 8.43-12.47z" style="fill:#431b06;stroke-width:0"/><path d="M210.67 309.1c.89 0 1.79-.01 2.69-.04 23.11-.63 40.34-8.2 51.2-22.5 6.5-8.56 8.67-17.12 9.28-20.25 1.65.34 3.3.69 4.94 1.06-.72 3.69-3.08 12.77-10.04 22.03-8.13 10.81-24.31 23.87-55.25 24.71-.95.03-1.89.04-2.83.04-29.28 0-51.28-12.46-64.73-23.1-12.31-9.74-19.69-19.51-22.13-23 1.91-.43 3.72-.81 5.43-1.13 7.54 9.97 35.49 42.19 81.43 42.19z" style="fill:#dae1f2;stroke-width:0"/><path d="M224.26 159.9c2.18-2.11 3.01-4.47 2.55-7.24-1.34-7.95-13.13-17.06-17.4-19.78.23-.38.47-.77.69-1.16.08-.08.16-.18.23-.28.1-.15.16-.31.21-.46.24-.42.49-.83.73-1.25 4.89 2.94 14.9 11.14 18.14 18.84 2.24 5.35 1.35 10.18-2.58 13.98-3.82 3.69-9.58 5.07-15.26 5.36-8.97.46-17.75-1.81-18.34-1.97l.94-3.56c.22.06 21.71 5.62 30.1-2.48z" style="fill:#823f2c;stroke-width:0"/><path d="M382.18 314.41C348.37 285.03 281 266.32 281 266.32s-2.97-14.55-6.68-17.97c-3.71-3.42-13.38-3.29-13.38-3.29l-12.1 5.87s8.34 57.6 16.78 153.13c48.98-14.66 90.3-47.01 116.56-89.65z" style="fill:#394c63;stroke-width:0"/><path d="M231.6 110.67c6.93-.6 14.66 1.13 20.13 4.74 2.22 1.46-.33 4.47-2.68 3.66-5.99-2.08-11.37-3.41-17.85-4.08-2.68-.28-2.29-4.09.39-4.32zM185.43 109.74c2.61.42 1.79 4.55-.73 4.5-7.42-.15-12.93 1.88-19.26 5.55-2.34 1.36-4.75-1.96-2.79-3.81 5.94-5.58 14.9-7.51 22.77-6.25z" style="fill:#431b06;stroke-width:0"/><path d="M152.44 239.77s-17.19.24-20.5 2.92c-3.3 2.68-3.3 15.9-3.3 15.9s-66.11 29.07-98.58 55.07c31.47 51.6 84.96 88.28 147.41 97.03-10.05-94.18-25.03-170.91-25.03-170.91z" style="fill:#394c63;stroke-width:0"/><path d="M258.01 326.42c2.72-9.91 6.73-18.03 9.06-18.03s5.31 2.6 7.85 4.9c3.24 2.94 6.6 5.98 10 3.98 1.54-.9 3.64-2.14 2.59-29.12-.3-7.71-.79-15.38-1.13-20.25-2.09-.64-3.64-1.09-4.52-1.35 1.56 20.95 2.16 43 .6 46.91-.94-.16-3.36-2.36-4.57-3.45-3.12-2.83-6.67-6.05-10.82-6.05s-7.75 5.77-10.22 11.89c.38 3.4.77 6.92 1.16 10.56zM165.22 315.76c-3.17-4.2-6.57-7.8-9.4-8.64-4.71-1.39-10.67 3.68-16.43 8.58-2.3 1.96-5.62 4.78-7.25 5.53-1.97-5.65-3.28-34.85-3.5-62.64-.04.02-1.62.72-4.39 1.98.07 6.46.25 17.49.66 28.47.37 9.98.85 17.97 1.44 23.75 1.08 10.63 2.31 12.66 4.49 13.01 2.83.45 6.03-2.13 11.43-6.72 3.94-3.35 9.9-8.43 12.31-7.71 2.74.81 7.81 7.58 12.15 14.47-.5-3.43-1-6.79-1.49-10.07z" style="fill:#2b3e51;stroke-width:0"/></g></g></svg>