<svg xmlns="http://www.w3.org/2000/svg" viewBox="0 0 412.71 412.71"><circle cx="206.35" cy="206.35" r="206.35" transform="rotate(315 206.351 206.346)" fill="#e5d6e3"/><path d="M158.47 195.89c-1.01 3.93-30.83 75.53-30.83 75.53s92.06 39.7 92.4 37.34c.33-2.35 68.29-58.77 68.29-58.77s-13.12-62.28-15.81-62.62-114.04 8.52-114.04 8.52z" fill="#87463f"/><path d="M174.96 214.01c0 .77-1.02 34.76-2.3 37.56-1.28 2.81-38 14.79-38 14.79s44.12 27.03 68.85 24.99c24.74-2.04 66.3-29.33 66.3-29.33s-28.31-9.95-32.39-14.03-1.79-37.82-1.79-37.82L174.94 214z" fill="#ffa488"/><path d="M206.8 239.42c8.52-.52 20.73-10.96 28.34-18.14l.4-9.2c-7.36 2.84-21.62 7.95-30.36 8.49-4.46.27-13.27-.58-30.23-5.95l-.3 8.94c10.63 11.09 22.28 15.86 28.85 15.86.65 0 2.7.04 3.3 0z" fill="#c5735b"/><path d="M152.52 96.22c-.25 1.19-.26 99.42 7.15 109.18 7.4 9.76 31.22 17.48 46.03 15.46s40.2-11.07 44.91-18.81 10.6-105.83 7.24-113.57-28.6-33.31-53.5-33.65-49.8 31.63-51.82 41.39z" fill="#ffa488"/><g fill="#543532"><ellipse cx="173.26" cy="130.29" rx="3.24" ry="10.37"/><ellipse cx="233.16" cy="130.29" rx="3.24" ry="10.37"/></g><path d="M211.43 160.4c-6.37-.46-21.44-2.11-23.85-7.45-2.31-5.13 6.63-23.22 10.59-30.76l4.22 2.21c-5.67 10.81-11.22 24.09-10.45 26.62.92 1.71 10.38 3.93 19.83 4.61l-.34 4.76z" fill="#c5735b"/><path d="M179.34 105.16l-13.56 1.41c-1.31.14-2.6 1.07-2.53 2.53.06 1.25 1.12 2.68 2.53 2.53l13.56-1.41c1.31-.14 2.59-1.07 2.53-2.53-.06-1.25-1.12-2.68-2.53-2.53zm61.69 1.53c-4.95-1.02-9.99-1.55-15.04-1.53-1.32 0-2.59 1.16-2.53 2.53s1.11 2.54 2.53 2.53a65.04 65.04 0 0 1 13.7 1.34c1.29.27 2.79-.37 3.11-1.77.29-1.26-.38-2.83-1.77-3.11z" fill="#87463f"/><path d="M256.31 255.93s-27.64 27.63-54.06 28.27-52.59-25.71-52.59-25.71-85.12 11.4-94.11 19.72c-2.56 2.37-8.12 23.04-14.7 51.42 37.62 50.43 97.75 83.08 165.5 83.08 42.97 0 82.86-13.14 115.9-35.6 6.91-53.28 12.37-99.45 10.96-102.56-3.41-7.57-76.9-18.62-76.9-18.62z" fill="#293549"/><path d="M86.66 374.46l4.45 3.09 5.73-45.39-4.67-.59c-1.15 6.87-2.99 21.24-5.5 42.89z" fill="#1d2735"/><path d="M311.58 383.89a207.232 207.232 0 0 0 51.41-43.19l-29.77-66.15-21.64 109.34z" fill="#293549"/><path d="M102.87 298.66s-20.08-7.53-25.42-37.05c-5.34-29.51 48.04-57.41 47.41-65.72s2.19-90.48 7.38-107.88c7.3-24.45 45.03-48.94 75.75-50.28 38.96-1.7 71.25 27.87 77.37 48.95 4.71 16.21 8.72 113.77 10.92 119.11s40.64 33.19 40.25 50.14-29.56 54.97-29.56 54.97l-47.25 2.74s16.43-52.37 10.12-56.63c-6.32-4.27-14.01-11.46-15-15.18-.34-1.27-12.75-15.48-5.64-37.19 8.29-25.34 8.15-103.78 5.86-109.18-3.47-8.19-21.72-35.87-43.45-34.6s-45.88 33.93-48.36 46.07c-6.2 30.32-8.67 87.17-3 104 5.72 16.97-3.89 25.7-4.28 27.26-1.24 4.96-8.59 9.51-13.53 22.2s13.92 43.94 13.92 43.94-47.24-2.01-53.49-5.67z" fill="#87463f"/><path d="M329.26 249.66c-8.86-15.96-24.08-28.92-34.14-37.49-3.84-3.27-8.18-6.97-8.89-8.3.02-.81.13-3.13.27-6.2 1.73-38.17 2.39-67.74 1.98-89.05-.99-10.2-2.04-18.22-3.12-21.94-.8-2.75-2.06-5.65-3.7-8.61 2.1 12.33 3.53 43.31.08 119.38l-.27 6.65c0 2.57 2.72 5.02 10.57 11.7 9.8 8.35 24.62 20.97 33.07 36.18 11.6 20.89-16.54 51.31-21.8 56.72-2.54-.37-10.08-2.47-13.09-3.31l-1-.28c.87-1.93 2.35-4.99 3.81-7.97 9.17-18.85 18.05-37.97 17.05-46.58-1.06-9.2-14.27-21.33-28.88-33.99-3.94-3.41-7.35-6.37-8.5-7.79-1.99-4.02-1.18-38.72-.59-64.08.52-22.5 1.02-43.75.11-51.11-2.29-18.52-28.45-45.43-64.21-45.43v4.77c35.7 0 57.7 26.85 59.48 41.24.87 7.02.38 28.1-.14 50.42-1.1 47.43-1.03 63.78 1.56 67.07 1.38 1.75 4.65 4.58 9.17 8.51 9.85 8.53 26.33 22.82 27.27 30.93.92 7.95-10.48 31.37-16.6 43.95-5.27 10.83-5.45 11.3-4.73 12.74l.57 1.08 1.14.23c.3.06 1.78.47 3.22.88l5.91 1.62 12.13-.7s16.15-21.06 24.58-38.82c1.83-7.6 1.64-15.36-2.28-22.41zm-59.01-4.22c-.4-2.61-2.87-4.79-6-7.55-3.22-2.84-6.87-6.06-8.33-9.86-1.99-5.17-2.14-24.32-2.22-34.62-.01-1.38-1.2-3.14-1.21-4.1-.73 4.84-1.01 9.32-2.87 13.93-.13.32-1 1.15-1 1.15.24 11.02 1.27 21.23 2.86 25.35 1.88 4.89 6.17 8.68 9.62 11.72 1.82 1.6 4.31 3.8 4.45 4.7.2 1.28-.4 5.73-1.29 10.94 1.59.12 3.14.67 4.73.85.87-5.2 1.56-10.61 1.27-12.52z" fill="#723833"/><path d="M181.8 177.54c1.7-6.68 11.24-6.53 21.71-6.78s19.89-1.28 21.78 6.78c1.73 7.38-10.03 14.05-21.78 14.27-11.9.23-23.79-6.09-21.71-14.27z" fill="#ff6a66"/><path d="M201.69 183.63c-13.8 0-23.16-3.13-23.76-3.34l1.55-4.51-.77 2.25.77-2.26c.22.08 22.2 7.38 48.14-.95l1.46 4.54c-10.04 3.23-19.45 4.26-27.38 4.26z" fill="#e85e56"/><path d="M252.35 165.17c.61.3 10.19 1.98 11.1 0s1.73-16.18 1.73-16.18l-12.84 1.27v14.91z" fill="#ffa488"/><g fill="#723833"><path d="M209.51 37.7c-1.93 6.37-3.69 15.11-2.75 23.94 1.58-.4 3.15-.68 4.72-.78-.84-8.57 1.13-17.18 3.04-23.12-1.65-.07-3.32-.08-5-.05z"/><path d="M207.43 50.54c-1.79.43-44.08 10.92-57.23 48.65-10.12 29.06-4.22 85.62-1.39 112.8.75 7.18 1.4 13.39 1.27 14.88-.44 5.09-5.75 22.52-7.25 32.57 1.62-.21 3.5-.63 5.13-.72 1.51-10.17 6.43-26.35 6.87-31.44.16-1.86-.3-6.43-1.28-15.78-2.8-26.84-8.62-82.68 1.15-110.74 12.27-35.24 53.42-45.48 53.83-45.58l-1.11-4.64zm3.43-11c-2.5.83-61.42 20.52-72.04 47.64-7.67 19.6-3.73 68-1.37 96.92.81 9.95 1.51 18.54 1.23 20.53-.38 2.63-4.27 8.77-8.39 15.27-7.31 11.54-17.33 27.34-20.09 41.91-2.73 14.37 5.86 29.8 13.2 40.32l6.26.54c-7.23-9.8-17.46-25.86-14.78-39.97 2.6-13.68 12.33-29.04 19.44-40.25 4.97-7.84 8.56-13.51 9.08-17.15.34-2.41-.17-9.06-1.2-21.59-2.32-28.51-6.22-76.22 1.06-94.79 9.81-25.04 68.5-44.65 69.09-44.85l-1.49-4.53zM102.37 298.45c-6.29-8.27-13.44-22.12-9.31-42.04 6.72-32.37 28.21-53.89 28.42-54.11l-.49-.5c-3.73 3.71-9.73 8.5-16.12 14.08-6.26 9.72-13.09 23.24-16.48 39.56-3.15 15.18-.16 27.25 4.22 36.19 4.44 4.22 8.4 6.21 9.76 6.82z"/></g><g opacity=".17"><path d="M141.21 103.05c6.22 4.81 13.25 8.41 20.72 11.03.42-2.52.86-4.92 1.32-7.17 1.73-8.46 14-26.9 28.64-37.72-12.34-1.42-24.18-5.25-33.54-12.95-12.77 9.05-22.72 20.41-26.11 31.76-.37 1.23-.72 2.79-1.06 4.61 2.78 3.88 6.13 7.4 10.04 10.43zM78 264.35c3.15.72 6.3 1.29 9.2 1.92 10.77 2.34 21.46 4.81 32.36 6.53a316.64 316.64 0 0 0 23.76 2.82c-1.68-5.86-2.37-11.4-.88-15.24 2.2-5.67 4.89-9.71 7.3-12.89-22.44 1.8-44.83-.42-65.74-9.45-5.05 7.49-8.02 15.47-6.55 23.57a66.32 66.32 0 0 0 .55 2.74zm177.05-168.9c.52 1.23.93 6.29 1.16 13.64 10.6-4.58 20.69-10.41 30.25-17.12-.36-2.22-.73-4.02-1.1-5.3-2.9-10-11.71-21.91-24.31-31.49-2.58 1.61-5.28 3.02-7.98 4.27a111.6 111.6 0 0 1-22 7.52c12.45 8.37 21.62 22.91 23.98 28.47zm13.55 185.19c16.16-2.42 32.18-6.29 47.9-10.17l17.71-4.62c1.39-3.71 2.25-7.1 2.32-9.92.17-7.28-6.82-16.56-15.03-25.21-9.35 4.98-19.15 9.12-29.39 12.26-10.29 3.15-20.84 5.26-31.5 6.49 2.79 2.71 6.16 5.47 9.23 7.54 2.67 1.81 1.27 12.22-1.23 23.64z" fill="#ffd2cf"/></g><path d="M310.93 331.57l-4.67.59 7.35 50.52 4.73-2.98c-2.52-20.88-6.3-41.5-7.41-48.13z" fill="#1d2735"/></svg>