<svg xmlns="http://www.w3.org/2000/svg" viewBox="0 0 412.71 412.71"><circle cx="206.35" cy="206.35" r="206.35" transform="rotate(315 206.351 206.346)" fill="#e5d6e3"/><path d="M146.59 263.48c.48-1.1 8.54-17.56 9.27-19.54s-1.63-134.25 4.18-139.93 61.82-28.31 69.42-28.08c7.61.23 50.63 14.11 51.3 20.86s-.83 151.63-3.87 155.34c-3.04 3.72-27.75 17.32-27.75 17.32l2.9 59.81s-75.55 20-76.64 17.33-28.82-83.11-28.82-83.11z" fill="#f28f73"/><path d="M268.56 403.16l-7.78-117.34c-.02-.73-30 29.3-43.32 32.69s-63.68-34.62-64.16-35.59l2.69 123.59a206.95 206.95 0 0 0 50.37 6.2c21.68 0 42.57-3.35 62.2-9.55z" fill="#d8dfeb"/><path d="M179.22 348.01l.42-.02c5.15-.45 15.02-9.73 28.41-22.8l6.75-6.5c-1.68-.11-3.66-.56-5.86-1.29l-4.36 4.24c-7.55 7.37-21.59 21.08-25.34 21.4-3.68-.18-15.27-18.28-20.22-26.01l-5.15-7.91.2 9.41.76 1.19c12.45 19.43 19.04 28.3 24.4 28.3zm41.83-25.67c8.54 12.95 16.86 24.52 25.2 24.06 6.6-.38 13.08-6.74 17.86-12.92l-.55-7.8c-4.56 6.84-11.62 15.42-17.59 15.76-6.16.36-15.65-14.08-20.76-21.83l-2.26-3.4c-1.67.9-3.23 1.6-4.63 2.04l2.74 4.09z" fill="#bbc6d7"/><path d="M153.29 249.54c-4.34.5-21.45 23.51-22.92 24.98-1.46 1.47-95.86 22.81-104.36 32.08 0 .01-.02.03-.03.04 30.01 53.87 83.45 92.88 146.54 103.29l-19.23-160.39zm116.64 22.88c-2.21-.74-10.5-12.89-10.5-12.89l-11.38 4.6 2.11 41.17 6.23 101.28c48.37-12.05 89.99-41.16 118.1-80.58-.24-4.47-.62-7.65-1.18-8.56-8.43-13.71-101.18-44.29-103.39-45.03z" fill="#293549"/><ellipse cx="148.17" cy="172.22" rx="19.19" ry="24.12" transform="rotate(346.96 148.117 172.182)" fill="#f28f73"/><g fill="#c5735b"><path d="m156.68 187.49-4.94-.54c.75-6.96.84-25.42-7.66-27.22l1.03-4.86c14.37 3.04 11.9 29.6 11.57 32.62z"/><path d="M145.442 175.284l.59-4.935 8.996 1.076-.59 4.935zm85.168 40.906c-11.95 0-20.88-2.24-21.52-2.4l1.24-4.82c.26.07 26.06 6.5 48.12-2.97l1.96 4.57c-10.14 4.35-20.82 5.62-29.8 5.62z"/></g><path d="M202.08 154.98c-.18 6.15-1.71 11.09-3.4 11.04s-2.92-5.07-2.73-11.22c.18-6.15 1.71-11.09 3.4-11.04s2.92 5.07 2.73 11.22zm65.26-.36c-.18 6.15-1.71 11.09-3.4 11.04s-2.92-5.07-2.73-11.22c.18-6.15 1.71-11.09 3.4-11.04s2.92 5.07 2.73 11.22z" fill="#5b312e"/><path d="M281.05 179.02c-.12-20.2 6.79-79.68 2.46-87.22-4.33-7.53-9.04-7.95-9.04-7.95s13.63-8.1 9.51-17.74c-4.13-9.64-11.34-8.79-11.34-8.79s8.85-6.29 1.54-9.25c-7.31-2.97-15.74-3.64-15.74-3.64s-13.38-19-36.02-11.22-29.84 22.36-29.84 22.36-13.19-3.78-21 2.76c-7.81 6.53-6.26 11.02-6.26 11.02s-13.98 6.14-18.65 18.47 1 20.53 1 20.53v40.06s8.11 3.13 9.84 5.33c1.57 2 4.68 4.4 4.68 18.49 0 10.97-3.29 22.62-3.48 20.65 0 0 5.04 54.62 23.02 68.82 20.01 15.8 86.03 7.74 94.25-4.09 11.17-16.07 5.57-64.79 5.07-78.59zm-19.56 49.44c-1.92 4.36-17.99 20.16-26.38 19.22s-31.42-15.57-33.08-20.03c-1.66-4.47 4.3-18.28 5.86-19.34 2.66-1.8 16.48 1.79 28.81 1.21 11.94-.56 22.43-5.33 23.34-4.15 1.86 2.4 3.37 18.72 1.44 23.08zm16.86-13.27c-1.2 1.61-7.71 9.19-7.71 9.19s-1.63-28.47-7.28-33.11c-5.65-4.63-44.39-2.15-57.91 2.4s-13.24 28.36-13.24 28.36-18.76-8.33-22.07-19c-3.32-10.68-.24-69.15.24-72.36s8.63-9.42 8.69-11.32.54-25.71 10-29.54c9.45-3.83 80.9-1.77 84.02 2.51s7.14 38.63 7.14 40.5l-.03 45.14c-.06 3.19-.7 35.69-1.84 37.23z" fill="#87463f"/><path d="M153.64 350.69c-1.38-2.49-5.22-2.74-15.84-2.83-3.46-.03-8.48-.07-10.45-.48-.65-6.82 1.48-44.96 3.33-73.2a2.74 2.74 0 0 1-.3.33c-.19.19-1.92.71-4.8 1.48l-1.83 30.26c-2.34 42.19-1.39 43.33-.47 44.43 1.55 1.87 5.01 2.06 14.48 2.13 3.43.03 8.83.07 11.13.52-.96 2.72-4.89 9.02-7.36 12.97-3.19 5.11-5.18 8.35-5.79 10.25-.3.92-.7 2.19 5.29 24.3l.38 1.4c1.87.62 3.75 1.21 5.64 1.77-3.94-14.32-6.33-24.04-6.48-26.22.64-1.6 3.04-5.45 5.18-8.87 7.39-11.85 9.33-15.68 7.89-18.27zm124.47-75.51c5.48 24.6 12.31 56.96 11.97 60.46-.34 2.35-7.61 7.73-14.17 11.29l-4.3 2.33 4.42 2.1c5.52 2.62 11.97 6.02 13.96 7.51-.42 3.85-3.1 18.65-6.97 39.12 1.85-.74 3.68-1.51 5.5-2.3l1.61-8.57c5.41-29.05 5.18-29.43 4.51-30.54-.89-1.48-5-4.05-12.25-7.66 5.02-3.1 11.96-8.12 12.61-12.56.62-4.21-6.92-39.2-11.37-59.28l-5.52-1.9z" fill="#222c3a"/><path d="M205.17 127.4l-12.22.94c-4.44.34-4.48 7.31 0 6.96l12.22-.94c4.44-.34 4.48-7.31 0-6.96zm65.58.1a114.19 114.19 0 0 0-12.81-.59c-4.48.04-4.49 7.01 0 6.96a114.19 114.19 0 0 1 12.81.59c4.45.46 4.42-6.51 0-6.96z" fill="#5b312e"/><path d="m233.66 193.89-1.32-4.8c5.06-1.39 19.51-6.96 19.59-14.02.09-7.76-12.92-21.91-17.94-26.71l3.43-3.6c2.01 1.92 19.61 19.06 19.48 30.36-.14 12.07-20.88 18.11-23.25 18.76z" fill="#c5735b"/><path d="M229.04 221.87s-4.02 10-2.55 11.47 19.88.13 20.01-.93c.13-1.07-3.2-10.54-3.2-10.54h-14.26z" fill="#87463f"/><g fill="#a45751"><path d="M247.8 43.52c-1.59-1.11-3.69-1.3-5.57-1.18a17.33 17.33 0 0 0-6.01 1.51c-.83.38-1.56.89-2.36 1.32h-.02c-.67-1.22-1.06-2.51-2.1-3.51-1.34-1.3-3.29-1.74-5.1-1.75-3.58-.02-7.21 1.06-10.41 2.62-3.69 1.81-6.78 4.54-9.22 7.83-.8 1.08-.18 2.78.89 3.4 1.27.74 2.6.19 3.4-.89 2.1-2.82 5.07-5.08 8.31-6.45a20.29 20.29 0 0 1 5.01-1.4c1.08-.15 3-.53 3.83.39.73.82 1.05 2.55 1.99 3.53 1.64 1.71 3.96 1.61 5.92.51 1.69-.96 3.28-1.84 5.25-2.1.76-.1 1.62-.16 2.38-.06.38.05.8.14 1.12.37 0-.05.02-.1.03-.18-.01.06-.01.12-.02.18.01 0 .02.01.03.02.05.04-.04.31-.06.24-.05 1.17.57 2.28 1.78 2.61s2.81-.41 3.06-1.74c.4-2.12-.35-4.06-2.14-5.31z"/><path d="M245.11 47.69c-.02.16-.03.24-.02.27 0-.09.02-.18.03-.26zm17.42 11.72c-.14-.37-.29-.76-.52-1.09a6.259 6.259 0 0 0-1.73-1.71c-.19-.13-.39-.24-.6-.34l-1.22-.49c-.5-.16-1.01-.26-1.53-.36-.66-.13-1.32-.1-1.92.25-.52.3-1.01.89-1.14 1.49-.15.64-.11 1.35.25 1.92.34.52.85 1.02 1.49 1.14.61.12 1.21.26 1.79.47l.2.11a1.89 1.89 0 0 1 .2.2c0 .03.02.06.03.09 0 .05.03.09.04.14v.01c.03.12.07.24.13.36.1.31.27.57.51.8.43.43 1.14.76 1.76.73.64-.03 1.31-.24 1.76-.73.42-.45.8-1.12.73-1.76-.05-.42-.08-.84-.23-1.23zm-55.47 4.64c-3.62-1.11-7.59-.95-11.1.49-.82.34-1.61.72-2.36 1.17h-.01c-.03-.05-.06-.08-.07-.1-1.13-1.44-2.29-2.59-4.17-2.96-3.91-.78-7.2 1.7-10.02 4.07-2.93 2.47-5.28 5.45-6.69 9.04-.49 1.25.54 2.73 1.74 3.06 1.41.39 2.57-.48 3.06-1.74 1.1-2.81 3.29-5.07 5.57-6.97 1.37-1.14 4.55-3.99 6.22-1.99.91 1.09 1.59 2.25 3.08 2.67 1.89.53 3.27-.58 4.85-1.38 2.66-1.34 5.77-1.44 8.58-.57 3.07.94 4.38-3.86 1.32-4.79zm37.01 4.64c-4.18-4.19-11.27-5.03-16.24-1.76-1.09.71-1.65 2.23-.89 3.4.7 1.08 2.24 1.65 3.4.89a33.79 33.79 0 0 1 1.31-.73c-.08.03-.13.05.03-.01.07-.03.12-.06.12-.06s-.02.02-.05.03c.02 0 .03-.01.05-.02l.35-.12c.26-.08.53-.16.8-.22.25-.06.51-.1.76-.15h.03c.12 0 .25-.02.37-.03a10.23 10.23 0 0 1 1.75.03c.03 0 .1.01.17.02.08.01.17.03.18.03a11.76 11.76 0 0 1 .81.18c.27.07.53.15.79.24l.34.12c.49.26.98.5 1.44.81a4.85 4.85 0 0 1 .28.2l.02.02c.23.2.46.41.68.63.92.92 2.61.99 3.52 0s.98-2.53 0-3.52z"/><path d="M231.64 70.5l.09-.04c-.02 0-.05.02-.07.02 0 0-.02 0-.03.01z"/></g></svg>