<svg xmlns="http://www.w3.org/2000/svg" viewBox="0 0 412.71 412.71"><circle cx="206.35" cy="206.35" r="206.35" fill="#e5d6e3"/><path d="M194.39 409.24h29.97c22.93-4.65 45.17-12.97 64.81-24.63 9.84-5.84 18.86-12.89 27.96-19.8 8.6-6.53 17.51-12.35 26.51-18.3 8.24-5.45 15.96-11.7 21.86-19.7 2.34-3.17 4.52-6.45 6.65-9.77-.41-1.8-.85-3.03-1.33-3.54-5.14-5.54-117.49-42.72-121.05-47.07s.4-38.6.4-38.6h-80.16c0 1.33.22 33.59-2.43 36.02-2.55 2.34-113.53 33.99-128.83 45.93 18.78 27.51 46.49 46.72 73.76 65.19 24.8 16.8 52.67 28.23 81.9 34.27z" fill="#f6987c"/><path d="M249.57 231.7c-8.91 5.59-26.42 17.25-40.48 17.25h-.61c-16.45-.34-31.62-7.55-38.52-11.37l-.21 8.98c7.78 8.35 21.9 20.76 37.6 21.08h1.11c13.79 0 30.24-14.16 40.32-24.23l.8-11.71z" fill="#c3735b"/><path d="M151.46 90.22c-.39 1.83-9.65 109.94 1.25 129.87s38.62 32.39 57.62 31.14 49.52-25.23 54.19-35.82 14.33-113.68 11.52-123.64-35.5-41.42-57.31-42.98-63.85 25.23-67.27 41.42z" fill="#f6987c"/><path d="M177.77 140.99c-.22 6.02-1.8 10.9-3.52 10.9s-2.93-4.88-2.71-10.9 1.8-10.9 3.52-10.9 2.93 4.88 2.71 10.9zm68.01 3.86c-.22 6.02-1.8 10.9-3.52 10.9s-2.93-4.88-2.71-10.9 1.8-10.9 3.52-10.9 2.93 4.88 2.71 10.9zm-58.17-30.73l-18.47.38c-4.48.09-4.5 7.07 0 6.98l18.47-.38c4.48-.09 4.5-7.07 0-6.98zm62.01 5.12c-6.43-1.2-12.88-2.16-19.38-2.92-4.45-.52-4.42 6.47 0 6.98a252.74 252.74 0 0 1 17.52 2.67c4.39.82 6.27-5.9 1.86-6.73z" fill="#293549"/><path d="M206.28 179.29c-8.23 0-18.81-1.15-20.72-6.83-2.51-7.45 12.6-31.83 17.29-39.12l3.91 2.52c-9.03 14.05-18.02 31.47-16.79 35.12 1.05 3.13 13.39 4.25 24.25 3.32l.39 4.64c-1.81.16-4.86.36-8.33.36z" fill="#c3735b"/><path d="M175.98 192.47l-1.32 7s18.23 14.17 31.7 14.24c11.58.06 30.88-10.27 31.45-11.4s0-7.18 0-7.18-52.19-3.03-61.83-2.65z" fill="#293549"/><path d="M181.51 192.48c.11 2.47.37 5.91.91 6.13.83.33 45.75 2.48 46.58 2.15.58-.23 1.87-3.83 2.61-5.99l-50.1-2.29z" fill="#fff"/><path d="M149.15 138.77c-.63-1.38-11.74-10.14-14.85-9.9s-5.46 7.84-5.46 7.84-2.39 34.61 2.15 37.25c4.55 2.63 16.43-.96 16.43-.96l1.73-34.23zm124.97 11.69c.77-1.3 10.29-16.18 13.36-15.61s6.01 9.15 6.01 9.15-1.26 34.67-6.06 36.81-19.27-2.62-19.27-2.62l5.97-27.73z" fill="#f6987c"/><path d="M138.19 166.5c-.03-.93-1.07-14.85-1.76-23.98l4.64-.35 1.77 24.3h-4.65 2.33l-2.33.03zm139.27 6.212l6.185-26.96 4.532 1.04-6.185 26.96z" fill="#c3735b"/><path d="M186.72 65.76c0 .56 5.83 2.15 6.2 2.89s4.02 18.85 25.2 26.84 30.66 10.78 31.59 7.25-5.02-9.11-5.02-9.11 7.25 6.13 12.45 5.2 5.95-4.83 5.95-4.83l5.39 14.68s-1.86 16.54 0 21.18c1.86 4.65 4.46 12.47 4.46 12.47l-.63 18.96h4.23c-.07-.03 4.22-20.42 4.22-20.42l8.35-6.29s7.63-48.95 2.06-68.84-33.4-40.89-64.25-41.1-47.56 13.49-47.56 13.49-26.49-.64-38.84 20.99-6.21 69.72-6.21 69.72l10.57 8.68 2.55 15.85 4.94-.43 2.78-47.98c0-.64 17.35-13.71 23.56-23.56s8.01-15.66 8.01-15.66z" fill="#293549"/><g opacity=".1"><path d="M160.38 77.55c4.78 3.11 9.75 5.97 14.88 8.47 1.34-1.57 2.52-3.12 3.45-4.59 6.21-9.85 8.01-15.66 8.01-15.66 0 .56 5.83 2.15 6.2 2.89s4.02 18.85 25.2 26.84c26.82-1.66 52.54-17.87 68.65-39.41-6.04-9.67-16.7-18.74-29.7-24.63-5.1 7.78-13.21 14.15-20.56 18.85-12.11 7.74-27.17 11.24-41.46 11.03-11.93-.18-25.1-4.02-33.38-13.03a26.982 26.982 0 0 1-3.72-5.16c-6.33 3.04-12.77 7.94-17.33 15.83 4.23 7.52 11.55 13.24 19.76 18.58z" fill="#6c9be0"/></g><path d="M377.54 311.01c-4.71-8.77-106.83-41.79-106.83-41.79s1.74-13.75-2.91-16.85-19.29-4.68-19.29-4.68-31.49 60.81-42.16 61.87-36.69-61.12-36.69-61.12-14.17.91-17.95 7.05-4.3 12.04-4.3 12.04S40.06 291.3 32.39 309.19c-.59 1.37-1.18 3.19-1.78 5.37 36.34 58.9 101.45 98.16 175.73 98.16s136.14-37.33 172.96-93.78c-.55-3.94-1.14-6.73-1.77-7.92z" fill="#ecf3ff"/><path d="M142.27 268.7c16.76 37.17 26.99 53.96 34.16 56.07 1.58.46 3.09.27 4.37-.56 4.22-2.74 8.33-6.83 12.3-10.79 2.6-2.59 5.25-5.22 7.64-7.14-.96-1-1.96-2.2-2.99-3.56-2.51 2.02-5.13 4.62-7.93 7.41-3.8 3.79-7.74 7.71-11.55 10.18-.06.04-.17.11-.53 0-3.71-1.09-12.07-11.18-30.84-52.67l-4.63 1.06zm68.32 38.46c1.15 1.44 2.33 3.08 3.36 4.51 4.91 6.82 10.88 15.12 18.64 15.12a11.43 11.43 0 0 0 3.16-.45c11.43-3.27 31.97-40.44 39.9-55.51l-4.48-1.47c-11.28 21.36-28.79 50.24-36.69 52.5-6.19 1.77-11.79-6.03-16.74-12.91-1.36-1.89-2.62-3.64-3.85-5.14-1.16 1.32-2.26 2.45-3.29 3.35z" fill="#d3e0f4"/><path d="M206.29 224.7c-4.01 0-6.84-1.1-7.03-1.17l1.72-4.32-.86 2.16.85-2.16c.06.02 6.07 2.29 12.43-.75l2.01 4.19a20.961 20.961 0 0 1-9.13 2.06z" fill="#c3735b"/></svg>