<svg xmlns="http://www.w3.org/2000/svg" viewBox="0 0 412.71 412.71"><circle cx="206.35" cy="206.35" r="206.35" fill="#e5d6e3"/><path d="M238.17 305.42c0-4.29 4.53-60.45 4.53-60.45l-73.86 4.01c0 .7-.94 56.75-4.23 59.81-3.29 3.05-37.59 10.1-37.59 10.1s1.51 39.61 6.56 80.61c22.63 8.53 47.15 13.21 72.77 13.21a207.32 207.32 0 0 0 18.9-.87c24.89-43.62 46.51-89.62 46.51-89.62s-33.59-12.51-33.59-16.8zm-175.76 41.3c-.48 1.49-.7 3.81-.72 6.77a207.026 207.026 0 0 0 37.97 29.53L115 322.49c-1.23 0-47.66 8.84-52.59 24.23z" fill="#ff9a83"/><path d="M182.98 74.14c-1.21-.97-12.85-4.12-13.33-23.27s16.2-31.79 40.47-31.51c24.15.27 41.7 14.54 40.73 29.81s-16.48 24.97-16.48 24.97h-51.39z" fill="#314056"/><path d="M206.18 270.85c-17.78.35-32.94-12.89-37.43-17.25l-.31 11.51c6.83 11.29 19.39 27.38 34.7 27.38 16.39 0 30.52-11.62 37.49-21.39l1.13-14.35c-6.12 4.93-19.34 13.79-35.58 14.11z" fill="#d67363"/><g fill="#ff9a83"><path d="M269.81 107.17c-8.54-17.59-26.65-35.35-60.48-34.1s-60.77 31.01-63.59 53.88c-.35 2.87-5.33 54.82 0 87.08s34.79 56.91 60.48 57.23c25.69.31 53.29-23.46 63-55.41s10.63-88.01.59-108.68z"/><ellipse cx="138" cy="184.6" rx="16.84" ry="23.05" transform="rotate(357.54 138.38 184.93)"/></g><g fill="#d67363"><path d="M135.45 199.5c0-.22-.19-21.97-2.26-29.04l4.89-1.43c2.27 7.75 2.46 29.51 2.47 30.43l-5.1.04z"/><path d="M129.114 186.877l1.326-4.925 8.217 2.213-1.326 4.925z"/></g><ellipse cx="280.49" cy="184.6" rx="23.05" ry="16.84" transform="rotate(272.46 280.47 184.602)" fill="#ff9a83"/><g fill="#d67363"><path d="m283.04 199.5-5.1-.04c0-.92.2-22.69 2.47-30.43l4.89 1.43c-2.07 7.07-2.26 28.82-2.26 29.04z"/><path d="M279.833 184.151l7.57-2.038 1.326 4.925-7.57 2.038z"/></g><path d="M238.81 66.12l3.68 1c1.15-1.27 2.31-2.7 3.38-4.27-19.01-5.69-39.25-7.05-58.61-1.69a87.436 87.436 0 0 0-13.63 5.04c1.06 1.69 2.22 3.02 3.35 4.06 19.29-8.63 41.39-9.25 61.82-4.14z" fill="#293747"/><g fill="#314056"><ellipse cx="175.43" cy="166.32" rx="3.48" ry="10.01"/><ellipse cx="242.69" cy="167.32" rx="3.48" ry="10.01"/></g><path d="m203.28 207.23-.29-5.09c4.57-.27 17.77-2.46 18.49-8.8.84-7.43-10.14-27.58-14.44-34.72l4.37-2.63c1.67 2.78 16.33 27.45 15.14 37.93-1.33 11.71-21.02 13.18-23.26 13.31z" fill="#d67363"/><path d="M186.24 224.17s.02-5.76 22.41-6.06 22.43 6.06 22.43 6.06 2.88 15.41-22.54 16-22.31-16-22.31-16z" fill="#ff6c6c"/><path d="M149.79 180.14s1.69-91.81 63.81-92.69c63.33-.9 56.64 92.79 56.64 92.79l3.4-.23 2.96-11.99 5.07-6.44s16.95-49.39-4.74-72.93c-21.68-23.53-48.84-26.54-68.92-27.09s-63.77 18.61-71.2 42.14.47 57.85.47 57.85l6.85 7.16 1.26 11.42h4.4z" fill="#314056"/><path d="M356.06 348.37c-17.46-8.91-53.63-16.69-54.59-17.16l-43.97 48.61s-1.33 12.07-2.55 27.12c39.29-9.48 74.19-30.2 101.11-58.57z" fill="#ff9a83"/><path d="M308.44 331.2l-44.89-13.08s-33.24 58.52-60.31 94.55l3.11.04c28.17 0 55.01-5.65 79.47-15.87 5.64-27.7 17.43-54.51 21.33-62.93.26-.56 8.35 1.27 8.53.87.4-.84-7.25-3.58-7.25-3.58zm-149.68 75.98c-6.73-33.79-9.34-82.65-9.81-92.5-.02-.48 6.55-2.2 6.55-2.2-.02-.41-6.63.43-6.63.43s-33.97 6.71-36.99 9.34c-1.34 1.17-10.44 26.59-20.38 55.56a205.331 205.331 0 0 0 67.26 29.38z" fill="#eb6085"/><path d="M183.66 141.74c-5.68-.21-11.33-.1-17 .35-4.55.36-4.59 7.5 0 7.14 5.66-.45 11.32-.56 17-.35 4.6.17 4.59-6.97 0-7.14zM252.1 143.56c-6-.94-12.01-1.48-18.09-1.52-4.6-.03-4.6 7.11 0 7.14 5.43.04 10.82.43 16.19 1.27 4.5.7 6.43-6.18 1.9-6.89z" fill="#314056"/><path d="M233.25 222.05c-4.63 1.34-14.48 3.85-24.25 4.2-10.12.37-20.87-2.76-25.34-4.25l-1.39 4.92c4.64 1.54 14.8 4.46 25.05 4.46.62 0 1.24-.01 1.86-.03 10.1-.36 20.04-2.84 25.06-4.27l-1-5.03z" fill="#f46060"/><path d="M152.69 93.64c2.93 6.83 8.09 12.11 14.64 15.57.98.52 1.98.99 2.99 1.43a68.72 68.72 0 0 1 3.23-4.15c-5.46-2.25-10.51-5.45-13.82-10.47-2.81-4.25-4.31-9.12-5.22-14.12a75.454 75.454 0 0 0-4.42 3.56c.63 2.79 1.46 5.53 2.6 8.18zm.39 59.88a167.69 167.69 0 0 1 1.12-5.05c-7.28-.77-14.51-2.58-19.94-7.11a182.69 182.69 0 0 0 .72 6.59c2.24 1.33 4.64 2.41 7.13 3.26 3.56 1.21 7.24 1.9 10.97 2.31zm-17.26-46.21c.87 2.1 1.94 4.11 3.23 6 4.87 7.09 12.33 11.46 20.39 14.06.47.15.94.28 1.42.42a102.69 102.69 0 0 1 2.11-4.67c-3.52-.99-6.93-2.28-10.12-4.07-6.83-3.85-11.46-9.91-13.62-17.43-.22-.78-.41-1.56-.58-2.34-.75 1.46-1.37 2.93-1.84 4.43-.37 1.18-.7 2.39-.99 3.61zm149.34 41.09a310.97 310.97 0 0 0-15.92 3.97c.21 1.76.39 3.48.53 5.14a309.64 309.64 0 0 1 14.1-3.6c.41-1.64.85-3.48 1.28-5.51zM180.43 99.58c1.31-1.11 2.67-2.17 4.09-3.15-7.33-6.19-11.77-15.59-12.2-25.16-1.65.79-3.29 1.62-4.91 2.49 1.02 9.81 5.66 19.17 13.02 25.83zm-23.27 38.24a128.74 128.74 0 0 1 1.72-5c-4.35-.18-8.61-1.06-12.72-2.54-4.07-1.47-8.24-3.52-11.6-6.29-.29-.24-.56-.49-.84-.74a115.44 115.44 0 0 0-.09 6.43c3.82 2.63 8.2 4.56 12.45 5.96 3.58 1.18 7.31 1.91 11.08 2.19zm106.16-11.93c8.57-2.32 16.55-6.91 22.81-13.2.34-.34.65-.7.98-1.05-.33-2.13-.77-4.23-1.33-6.28-6.09 7.72-14.75 13.26-24.29 15.75a83.89 83.89 0 0 1 1.83 4.78zm10.6-40.34c-1.34-1.31-2.7-2.55-4.07-3.72-3.36 9.72-7.85 19.51-15.31 26.36a61.14 61.14 0 0 1 2.79 4.43c7.93-6.98 12.91-16.97 16.59-27.06zm13.39 49.57c.25-2.23.44-4.54.55-6.88-5.98 5.16-13.18 8.89-20.84 10.84.37 1.68.7 3.35.99 5.01a56.806 56.806 0 0 0 19.3-8.96zm-82.87-62.47l-1.65-10.84c-1.59.17-3.26.42-5.01.75l.17 1.03 1.72 11.31c.74 4.65 1.67 9.25 3.03 13.72a53.01 53.01 0 0 1 5.04-.8c-1.56-4.93-2.5-10.08-3.29-15.18zm16.76 15.19c1.73.2 3.4.48 5.01.84.92-5.67 1.5-11.4 1.68-17.14a127.3 127.3 0 0 0 0-8.29c-1.73-.28-3.44-.51-5.13-.7a130.29 130.29 0 0 1 .01 9.48c-.19 5.3-.72 10.58-1.58 15.81zm24.79-5.34c-.95 4.31-2.39 8.72-4.82 12.4 1.43.94 2.8 1.96 4.1 3.04 2.64-3.95 4.36-8.59 5.43-13.18 1.06-4.55 1.79-9.21 2.42-13.84-1.6-.77-3.21-1.48-4.82-2.12-.02.12-.03.25-.05.37-.59 4.46-1.31 8.94-2.28 13.34zm-3.03-32.37c-5.94 4.79-12.83 8.26-20.16 10.08 2.44.97 4.85 2.02 7.24 3.12 7.76-2.93 14.78-7.59 20.74-13.35l.08-.81c.13-2.04-.08-4.05-.58-6.02-2.24 2.5-4.67 4.85-7.31 6.98zm-44-22.3c6.66-.96 14.47-2.48 19-7.85a59.76 59.76 0 0 0-7.21-.59c-2.55 1.43-5.57 2.12-8.37 2.69-4.84.99-9.8 1.51-14.76 1.57-2.9 1.32-5.5 2.93-7.77 4.8 6.36.49 12.74.3 19.1-.62zm-1.81 25.56c12.03-3.77 22.47-11.67 30.16-21.57 1.89-2.43 3.61-4.97 5.2-7.59-1.52-.71-3.13-1.36-4.79-1.93-3.96 6.35-8.8 12.11-14.68 16.85-9.07 7.31-20.37 11.59-32.06 11.54-3.81-.02-7.62-.49-11.32-1.37-.01.52-.02 1.03 0 1.56.03 1.3.12 2.51.25 3.67 8.99 1.92 18.41 1.62 27.25-1.15z" fill="#293747"/><g opacity=".13"><path d="M168.18 94.39c4.21 1.77 8.58 3.28 13.03 4.52 8.37-6.84 18.97-11.28 32.39-11.47 12.52-.18 22.3 3.35 29.93 9.11 4.66-1.92 9.16-4.23 13.43-6.91 4.17-2.61 8.04-5.51 11.51-8.98-8.86-7.22-18.31-11.7-27.61-14.5-1.19.73-2.4 1.44-3.64 2.09-10.03 5.32-21.47 8.15-32.84 7.54-8.9-.48-17.45-3.13-25-7.66-10.19 4.11-20.57 9.92-28.66 16.78 5.5 3.71 11.35 6.89 17.47 9.46z" fill="#67a6f3"/></g></svg>