<svg data-name="Layer 2" xmlns="http://www.w3.org/2000/svg" viewBox="0 0 412.71 412.71"><g data-name="—ÎÓÈ_1"><g data-name="J"><circle cx="206.35" cy="206.35" r="206.35" transform="rotate(-45 206.351 206.346)" style="fill:#e5d6e3;stroke-width:0"/><path d="M158.65 257.28s-1.14 59.13-1.85 66.89c-.13 1.47 94.5 3.19 94.57 1.48.07-1.7-.75-74.64-.75-74.64l-91.97 6.27z" style="fill:#f89876;stroke-width:0"/><path d="M134.89 122c-2.49 35.02-2.12 112.07 12.62 132.38 5.98 8.24 27.63 20.52 55.69 20.02 30.89-.55 55.25-17.12 59-21.54 7.15-8.43 13.16-125.25 10.04-136.53-3.13-11.28-41.29-43.15-69.57-42.66-28.28.49-66.89 36.02-67.77 48.33z" style="fill:#f89876;stroke-width:0"/><path d="M137.66 174.07c-1.72-.25-17.21-9.97-19.67-5.92-2.46 4.05-3.44 38.31 1.48 41.28 4.92 2.97 18.19 0 18.19 0v-35.36zM272.22 174.07c1.72-.25 15.33-8.92 17.79-4.88 2.46 4.05 3.62 38.33-1.48 40.95-6.81 3.5-21.49-1.44-21.36-1.48l5.06-34.6z" style="fill:#f89876;stroke-width:0"/><path d="m126.82 168.94 4.22 1.93s.16 17.5.76 18.08c.6.58 4.73.75 4.73.75s2.36-45 2.77-45.84c.41-.85 7.81-5.93 8.01-7.83s-.41-31.96 9.65-36.83c10.07-4.87 85.34-4.57 92.53 1.35s5.87 38.02 6.69 39.29c.82 1.27 9.45 4.66 10.07 6.35.62 1.69-.21 47.42 1.03 48.47 1.23 1.06 4.96 1.06 4.96 1.06l2.41-22.61 7.49-3.77s3.63-61.59.95-69.73c-2.68-8.14-13.06-11.9-13.06-11.9s7.5-12.44-1.49-19.45c-3.33-2.6-24.28-15.1-42.38-15.73-2.47-.09-4.82-6.9-7.38-6.95-29.36-.56-72.17 16.28-77.38 20.73-9 7.69 2.12 19.69 2.12 19.69s-13.4 5.84-16.69 17.15 0 65.8 0 65.8z" style="fill:#324156;stroke-width:0"/><path d="M243.72 146.85c-7.68-1.74-15.58-2.49-23.45-2.17-1.64.07-3.04 1.35-3.04 3.04 0 1.59 1.39 3.11 3.04 3.04 7.35-.3 14.66.33 21.84 1.95 1.6.36 3.29-.49 3.74-2.12.42-1.53-.51-3.37-2.12-3.74zM153.08 146.85c7.68-1.74 15.58-2.49 23.45-2.17 1.64.07 3.04 1.35 3.04 3.04 0 1.59-1.39 3.11-3.04 3.04-7.35-.3-14.66.33-21.84 1.95-1.6.36-3.29-.49-3.74-2.12-.42-1.53.51-3.37 2.12-3.74z" style="fill:#3a3a3f;stroke-width:0"/><path d="M196.77 204.37c-7.06 0-15.17-1.45-18.77-7.39-6.84-11.28 16.3-30.07 21.01-33.72l2.98 3.84c-10.28 7.98-23.24 21.75-19.84 27.36 4.22 6.96 20.25 5.14 26.07 3.85l1.06 4.74c-.47.11-6.06 1.32-12.51 1.32z" style="fill:#e7685d;stroke-width:0"/><path transform="rotate(-5.17 126.53 188.82)" style="fill:#e7685d;stroke-width:0" d="M124.11 175.67h4.86V202h-4.86z"/><path transform="rotate(-80.56 280.785 188.84)" style="fill:#e7685d;stroke-width:0" d="M267.51 186.41h26.58v4.86h-26.58z"/><g style="opacity:.11"><path d="M226.92 71.69c-6.46 1.24-11.4-8.67-33.41-8.98-15.14-.21-41.88 6.64-55.6 10.19-.48 6.53 5.6 13.11 5.6 13.11s-4.81 2.12-8.92 5.81c11.18-4.51 35.9-14.32 50.54-14.54 20.14-.31 33.44 7.13 37.24 8.8 3.8 1.67 12.92-7.25 36.48-2.29 4.56.96 8.42 1.97 11.69 2.98 1.22-2.43 3.99-9.05 1.23-14.6-3.47-1.7-7.19-3.03-10.98-3.56-15.54-2.17-27.4 1.86-33.86 3.1z" style="fill:#fff;stroke-width:0"/></g><path d="M172.5 182.84c-.56-.51-1.36-.98-2.15-.89-2.38.26-4.78.33-7.18.22-1.59-.08-3.11 1.45-3.04 3.04.08 1.71 1.33 2.96 3.04 3.04 2.4.11 4.79.04 7.18-.22.83-.09 1.54-.28 2.15-.89.53-.53.92-1.39.89-2.15-.03-.79-.29-1.6-.89-2.15zM239.13 181.2l-9.38.61c-.81.05-1.56.3-2.15.89-.53.53-.92 1.39-.89 2.15.07 1.56 1.34 3.15 3.04 3.04l9.38-.61c.81-.05 1.56-.3 2.15-.89.53-.53.92-1.39.89-2.15-.07-1.56-1.34-3.15-3.04-3.04z" style="fill:#ffa78a;stroke-width:0"/><path d="M158.31 273.84c8.12 2.93 32.52 14.74 48.34 14.84 16.09.11 35.85-16.25 44.14-22.64-.02-2.05-.04-3.25-.05-4.97-6.85 3.29-31.62 13.95-46.88 13.95h-.09c-16.73-.05-39.23-9.23-45.23-11.59.01 2.72-.24 6.67-.22 10.41z" style="fill:#e7685d;stroke-width:0"/><path d="M167.78 219.06c-.09-.23 1.94-3.65 1.94-3.65s14.83 4.37 31.52 4.02 33.11-5.67 33.11-5.67l2.77 3.98s-13.24 19.51-35.66 20.06c-22.42.55-33.69-18.74-33.69-18.74z" style="fill:#3f3232;stroke-width:0"/><path d="M177.08 217.14c-.19 2.17-.33 5.64.6 6.74 1.38 1.63 13.58 2.85 25.13 2.77s23.56-2.36 24.47-3.74c.62-.94.39-4.85.19-7.24-6.33 1.57-16.23 3.56-26.23 3.77-9.43.19-18.26-1.12-24.16-2.29z" style="fill:#fff;stroke-width:0"/><path d="M201.25 219.43c-9.43.19-18.26-1.12-24.16-2.29-.19 2.17-.33 5.64.6 6.74.3.35 1.13.68 2.32.99.55-1.75 1.42-4.14 2.37-4.14 1.48 0 16.71 1.65 20.84 1.32 4.12-.33 18.64-3.19 19.63-2.64.58.32 1.06 2.8 1.41 4.77 1.68-.45 2.78-.9 3.03-1.27.62-.94.39-4.85.19-7.24-6.33 1.57-16.23 3.56-26.23 3.77z" style="fill:#d5c8c7;stroke-width:0"/><path d="M200.79 247.83c-4.78 0-8.01-1.1-8.24-1.18l1.6-4.59c.08.03 8.36 2.77 17.59-1.5l2.04 4.41c-4.8 2.22-9.34 2.86-12.99 2.86z" style="fill:#e7685d;stroke-width:0"/><path d="m282.76 398.09-.66-101.26c-6.03-1.55-9.6-2.1-9.6-2.1-1.46-12.97-14.34-16.19-14.34-16.19s-41.44 40.23-51.52 40.58c-10.09.35-53.8-41.4-53.8-41.4-11.54 3.79-11.63 16.87-11.63 16.87-3.75.21-7.58.61-11.47 1.18l.68 102.51c23.51 9.31 49.13 14.43 75.95 14.43s52.77-5.19 76.4-14.61z" style="fill:#cfd6ee;stroke-width:0"/><path d="M206.63 319.12c-.89.03-2.06-.28-3.42-.85-.19 17.71-.12 51.76.06 94.41 1.03.02 2.05.04 3.08.04h.32c-.08-41.45-.07-75.71.1-93.61-.05 0-.1.02-.15.02z" style="fill:#aebadc;stroke-width:0"/><path d="M135.94 295.02c3.58 7.84 23.49 49.92 36.97 49.6 11.12-.28 25.26-18.15 30.77-26.17-1-.42-2.63-1.19-3.83-1.88-6.39 9.22-18.55 24.2-27.16 24.41-8.46.23-24.31-27.53-32.98-46.3-1.25.09-2.5.2-3.77.33zM273.24 294.86c-10.68 20.01-28.88 49.27-36.11 49.27h-.1c-6.99-.26-19.79-15.59-27.38-25.86-1.18.5-2.21.81-3.02.84-.25 0-.54-.03-.83-.07 6.67 9.22 21.65 28.36 31.23 28.72h.18c11.41 0 33.9-41.01 39.79-52.15-1.75-.38-3.03-.63-3.76-.76z" style="fill:#aebadc;stroke-width:0"/><path d="M158.3 266.33c-7 9.47-32.36 25.41-37.99 28.36-10.37 5.44-47.6 23.62-76.45 38.87 29.39 37.48 71.46 64.53 119.76 74.7-2.58-80.88-5.32-141.93-5.32-141.93zM250.81 268.08s-2.93 60.54-5.5 140.94c48.92-9.35 91.71-35.96 121.78-73.27-33.96-17.98-83.55-41.45-86.73-43.84-6.22-4.66-23.97-16.69-29.55-23.84z" style="fill:#324156;stroke-width:0"/><path d="M126.6 356.27c-3.3-.82-8.88-2.08-16.93-3.44-.72-2.69.47-13.74 5.5-31.21 4.68-16.25 10.83-29.78 14.23-32.25l-.07-.08c-3.93 2.64-7.32 4.53-9.02 5.42-.28.15-.58.3-.89.47-8.2 17.07-16.45 50.19-14.42 58.79.64 2.7 2.27 3.36 3.18 3.52 18.79 3.14 26.52 6.02 28.56 7.45-1.84 1.63-7.77 4.56-11.85 6.57-11.94 5.9-19.21 9.82-19.44 14.57v.31c1.68.94 3.37 1.86 5.07 2.75-.18-1.43-.27-2.39-.24-2.82.37-2.39 11.44-7.86 16.76-10.49 9.78-4.83 14.5-7.3 14.89-10.53.44-3.63-3.86-6.16-15.33-9.03zM275.94 288.71l-.16.55c3.4 2.47 9.39 15.64 14.02 32.24 4.98 17.86 6.1 29.12 5.36 31.85-.25.04-.54.09-.86.14-27.67 4.4-32.79 7.67-32.29 11.82.39 3.23 5.11 5.7 14.89 10.53 5.32 2.63 16.39 8.1 16.76 10.47.04.78.02 3.28-.14 7.13 1.6-.75 3.19-1.51 4.76-2.3.17-2.6.23-4.35.2-5.07-.23-4.75-7.5-8.67-19.44-14.57-4.05-2-9.93-4.9-11.81-6.54 1.65-1.09 7.46-3.46 27.83-6.7.66-.11 1.2-.19 1.59-.26.91-.15 2.54-.82 3.19-3.54 2.1-8.92-6.24-42.68-14.48-59.85-2.38-1.2-9.4-5.89-9.41-5.9z" style="fill:#2b3949;stroke-width:0"/><ellipse cx="167.76" cy="170.4" rx="3.58" ry="9.52" style="fill:#3a3a3f;stroke-width:0"/><ellipse cx="232.51" cy="170.4" rx="3.58" ry="9.52" style="fill:#3a3a3f;stroke-width:0"/></g></g></svg>