<svg data-name="Layer 2" xmlns="http://www.w3.org/2000/svg" viewBox="0 0 412.71 412.71"><g data-name="—ÎÓÈ_1"><g data-name="K"><circle cx="206.35" cy="206.35" r="206.35" style="fill:#e5d6e3;stroke-width:0"/><path d="m239.98 325.56 32.8-41.38-35.77-7.98-1.54-25.57s18.6-1.33 33.66-18.95c18-21.06 17.74-141.66 9.36-157.02-8.93-16.38-38.22-34.54-68.22-30.89-40.65 4.95-47.11 24.04-52.58 33.91-4.72 8.52.17 67.7 0 114-.14 38.79-3.09 70.59-6.74 87.47 0 0-63.7 14.34-64.99 16.36-9.77 15.27 74.16 47.04 89.73 49.2 15.57 2.17 64.28-19.15 64.28-19.15z" style="fill:#85463f;stroke-width:0"/><path d="M157.69 188.23c0-2.06-.02-4.13-.04-6.23l3.2.17.58 1.55c.13.36 13.6 36.1 35.89 54.96 14.29 12.09 32.59 12.27 43.91 10.83-3.54.94-5.78 1.1-5.78 1.1l1.33 22.09c-12.65.85-35.42.14-49.11-11.45-19.97-16.89-26.89-62.71-29.99-73.03z" style="fill:#602e2d;stroke-width:0"/><path d="M264.19 142.14c-.13 5.26 1.19 9.45 2.94 9.37 1.75-.08 3.28-4.42 3.41-9.67.13-5.26-1.19-9.45-2.94-9.37-1.75.08-3.28 4.42-3.41 9.67zM208.69 143.25c-.15 5.28 1.26 9.47 3.16 9.38 1.9-.1 3.56-4.45 3.72-9.73.15-5.28-1.26-9.47-3.16-9.38s-3.56 4.45-3.72 9.73z" style="fill:#212a38;stroke-width:0"/><path d="M259.87 114.64c4.21.17 8.4.1 12.6-.21 5.94-.44 6.71 8.79.76 9.23-4.2.31-8.4.38-12.6.21-2.5-.1-4.77-1.52-4.99-4.24-.19-2.26 1.72-5.1 4.24-4.99zM203.39 115.14c5.53-.8 11.08-1.2 16.67-1.2 5.92 0 6.73 9.23.76 9.23-5.59 0-11.13.4-16.67 1.2-5.9.86-6.64-8.38-.76-9.23z" style="fill:#293549;stroke-width:0"/><path d="M206.5 193.62c3.1-.3 13.58 2.59 29.92 2.47 14.95-.12 24.74-.96 28.08-1.28.47 1.59.83 4.11.92 5.14-1.18 3.17-7.74 16.96-28.09 17.58-19.06.58-30.23-15.86-32.66-19.86.39-.78 1.61-3.47 1.83-4.04z" style="fill:#212a38;stroke-width:0"/><path d="M359.66 344.48c-4.38-15.66-10.07-29.99-17.1-36.11-19.14-16.66-88.81-29.16-88.81-29.16-.17-.87-20.14 44.88-41.62 45.8-32.33 1.39-69.69-46.06-69.69-46.06s-102.09 7.97-114.87 29.77c-.07.12-.14.25-.21.37 35.62 61.93 102.44 103.62 179 103.62 60.84 0 115.53-26.34 153.3-68.23z" style="fill:#c4aa60;stroke-width:0"/><path d="M185.87 226.79c-.12 1.28 17.52 27.85 42.39 28.71 24.87.86 37.9-15.2 41.21-19.68 8.47-11.47 5.7-44.7.47-49.4-5.23-4.7-25.69-6.32-25.69-6.32s-32.57-4.13-46.06 6.5c-13.49 10.63-10.68 37.25-10.68 37.25s-1.52 1.66-1.64 2.94zm14.69-28.56c.18-2.44 4.42-6.74 4.42-6.74s18.04 3.88 34.24 3.82c16.19-.05 27.34-2.5 27.34-2.5.32.74 1.86 8.65 1.48 10.21-.38 1.56-5.68 22.51-32.68 22.88-27 .38-34.97-25.24-34.79-27.68z" style="fill:#293549;stroke-width:0"/><path d="M258 195.32c-.09 2.32-.46 6.47-1.97 6.98-2.1.71-39.79.56-40.45-.87-.46-.99-.62-4.69-.67-6.88 5.2.73 12.46 1.59 21.52 1.52 9.29-.07 16.58-.42 21.58-.76z" style="fill:#f3eee8;stroke-width:0"/><path d="M276.22 74.33s2.5 8.31-37.47 7.36c-39.98-.95-54.38-8.84-54.38-8.84s.28 31.21-5.36 36.2c-5.64 5-13.68 6.35-13.68 6.35l1.02 39.98-14.38-13.28s-12.5-73.03 12.31-91.08c24.81-18.06 88.04-14.49 108.42 8.94 15.32 17.61 10.89 48.22 10.89 48.22s-2.36-28.81-7.35-33.85z" style="fill:#293549;stroke-width:0"/><path d="M247.55 185.18c4.86-.4 9.26-2.35 11.24-7.41 5.05-12.92-13.36-39.15-15.48-42.09l-3.96 3.39c7.27 10.13 17.71 28.99 14.78 36.46-2.98 7.63-18.82 3-24.13.78l-1.75 5.17c.65.27 10.69 4.41 19.29 3.71z" style="fill:#602e2d;stroke-width:0"/><ellipse cx="149.75" cy="158.36" rx="18.79" ry="25.42" transform="rotate(-4.69 149.816 158.402)" style="fill:#85463f;stroke-width:0"/><path d="m156.88 176.27 5.03-.57c-.35-3.11-3.84-30.56-17.84-35.37l-1.65 4.78c9.32 3.21 13.59 23.58 14.45 31.15z" style="fill:#602e2d;stroke-width:0"/><path d="M154.9 157.42c-.59-.03-10.2-.26-10.2-.26l-.22 4.51 12.29.61-1.87-4.86z" style="fill:#602e2d;stroke-width:0"/></g></g></svg>