<svg data-name="Layer 2" xmlns="http://www.w3.org/2000/svg" viewBox="0 0 412.71 412.71"><g data-name="—ÎÓÈ_1"><g data-name="N"><circle cx="206.35" cy="206.35" r="206.35" transform="rotate(-45 206.351 206.346)" style="fill:#e5d6e3;stroke-width:0"/><path d="M295.12 286.14s14.63-8.65 12.63-32.95c-2.73-33.23-79.73-42.76-126.3-43.46-39.3-.59-111.82 18.37-119.24 49.46-3.52 14.75 7.08 27.79 7.08 27.79s-20.31 6.74-42.76 20.64c35.4 62.73 102.66 105.1 179.83 105.1 70.32 0 132.42-35.19 169.67-88.9-34.09-23.22-80.91-37.67-80.91-37.67z" style="fill:#7a6faa;stroke-width:0"/><path d="M281.35 79.33c13.36 17.46 11.63 81.42 4.81 120.32-6.82 38.9-20.05 66.18-25.27 71.39-5.21 5.21-8.82 6.42-8.82 6.42v74.6l-108.29 3.21-14.44-43.72 11.21-39.09 13.54-132.78s10.9-65.07 23.12-72.01c12.22-6.94 99.19 5.21 104.13 11.67z" style="fill:#d2726e;stroke-width:0"/><ellipse cx="137.62" cy="177.47" rx="18.92" ry="27.07" transform="rotate(-12.36 137.617 177.431)" style="fill:#d2726e;stroke-width:0"/><path d="m144.91 192.67-5.27-.4c.86-11.27-.38-28.31-5.76-29.08l.75-5.23c12.18 1.74 10.71 29.22 10.29 34.71z" style="fill:#964d4d;stroke-width:0"/><path transform="rotate(-80.38 138.374 178.165)" style="fill:#964d4d;stroke-width:0" d="M135.73 173.98h5.29v8.37h-5.29z"/><path d="M200.85 164.49c-1.09 6.54-3.43 11.77-5.23 11.68-1.81-.09-2.39-5.47-1.3-12.01s3.43-11.77 5.23-11.68c1.81.09 2.39 5.47 1.3 12.01zM270.22 171.52c-1.09 6.54-3.43 11.77-5.23 11.68-1.81-.09-2.39-5.47-1.3-12.01s3.43-11.77 5.23-11.68c1.81.09 2.39 5.47 1.3 12.01zM208.26 135.92c-5.64-.15-11.26-.01-16.88.41-4.72.36-4.76 7.76 0 7.4 5.62-.43 11.24-.56 16.88-.41 4.76.13 4.76-7.27 0-7.4zM276.63 140.56c-5.67-.67-11.34-.9-17.04-.67-4.75.19-4.77 7.59 0 7.4 5.7-.22 11.37 0 17.04.67 4.72.56 4.68-6.84 0-7.4z" style="fill:#513d38;stroke-width:0"/><path d="M234.44 214.43c-7.05 0-13.56-2.16-13.96-2.3l1.7-5.01c.12.04 12.66 4.19 19.97.53 2.17-1.09 3.6-2.75 4.37-5.09 3.47-10.56-6.65-30.16-10.85-36.82l4.47-2.82c.67 1.06 16.34 26.23 11.39 41.29-1.22 3.7-3.58 6.45-7.03 8.17-3.05 1.52-6.62 2.04-10.07 2.04zM230.24 237.26c-23.25 0-36.37-11.16-40.34-15.19l-.15-.16 1.5-1.55 1.74-2.6c.25.17.41.33.68.6 4.34 4.41 20.92 18.31 51.87 12l1.06 5.18c-5.92 1.21-11.37 1.72-16.35 1.72zM217.89 249.34c-7.82 0-12.33-3.33-12.57-3.51l3.17-4.23c.23.16 5.62 3.99 15.09 1.77l1.21 5.15c-2.52.59-4.82.82-6.9.82z" style="fill:#964d4d;stroke-width:0"/><path d="M180.31 271.07c-24.62-17.53-27.35-65.68-27.36-66.17l-2.44-3.21-2.78.52-.61 5.95 1.13-.15c.68 11.44-1.5 58.48 18.6 78.86 10.83 10.97 32.92 19.46 46.52 19.46 14.74 0 29.89-7.73 38.7-12.98v-15.9s2.22-.75 5.69-3.58c-4.06 1.27-51.74 15.51-77.46-2.8z" style="fill:#964d4d;stroke-width:0"/><path d="M295.59 96.39c-2.1-26.99-40.38-56.56-98.01-48.67-63.34 8.66-55.09 105.17-55.09 105.17l9.79 10.36 1.99 16.84 5.61-.13s4.41-47.87 6.08-49.54c1.67-1.67 10-3.96 11.25-6.25s8.12-41.87 10-42.91c1.87-1.04 27.08 14.37 52.5 14.17s44.64-6.62 46.28-6.54 5.67 58.25 4.61 71.69c0 0 6.81-40.76 4.98-64.18z" style="fill:#513d38;stroke-width:0"/><path d="M135.59 266.05c0 1.3 28.25 75.87 62.33 76.85 34.07.98 59.84-61.34 61.46-60.13 1.63 1.2 1.3 93.39-2.28 97.3-3.58 3.91-124.44 5.21-141.71-5.86-17.27-11.08-6.52-73.3-6.19-75.25.33-1.95 26.39-32.9 26.39-32.9z" style="fill:#7a6faa;stroke-width:0"/><path d="M68.91 287.09c-.73.25-2.54.89-5.19 1.92 3.8 6.57 15.8 17.13 53.68 19.94l.39-5.27c-34.23-2.54-45.32-11.51-48.88-16.6zM295.46 286.24c-3.43 2.12-9.33 4.82-19.27 7.25l1.26 5.13c13.91-3.4 20.82-7.48 24.19-10.33-3.22-1.11-5.39-1.8-6.18-2.05z" style="fill:#6a649b;stroke-width:0"/><path d="m145.55 308.42-5.23.74c.09.63 6.98 49.53 9.39 95.67 1.78.51 3.57.99 5.36 1.45-2.35-46.94-9.43-97.22-9.53-97.86zM257.82 312.2l-5.23.74c.09.61 6.64 47.13 9.21 92.23 1.74-.49 3.48-.99 5.21-1.52-2.63-44.99-9.09-90.84-9.18-91.45z" style="fill:#c0ccda;stroke-width:0"/></g></g></svg>