<svg xmlns="http://www.w3.org/2000/svg" viewBox="0 0 412.71 412.71"><circle cx="206.35" cy="206.35" r="206.35" transform="rotate(315 206.351 206.346)" fill="#e5d6e3"/><path d="M140.62 84.3s-8.41 127.4 2.63 145.99c8.66 14.58 28.37 17.75 29.36 20.22s1.48 29.37 0 31.35-47.39 13.08-47.39 13.08 50.85 34.31 85.16 33.08 75.53-36.78 75.53-36.78-35.14-8.56-36.84-10.59c-1.7-2.04 8.83-187.31 3.06-196.34s-42.44-33.14-61.45-31.78-49.8 25.49-50.04 31.78z" fill="#ffa28a"/><path d="M251.64 198.19l.4-10.91-2.53-.81c-.14.43-13.97 43.1-27.35 52.98-13.32 9.83-54.4 7.61-54.76 7.6l.33.88c2.71 1.1 4.59 1.87 4.87 2.59.42 1.06.76 6.63.88 12.8 11.52-.06 40.46-1.87 51.8-10.24 10.92-8.05 21.39-38.7 26.35-54.87z" fill="#c5735b"/><path d="M323.31 278.05c-23.21-.86-59.67 1.97-59.67 1.97s-10.3 34.01-54.27 35.41c-41.15 1.31-68.97-32.07-68.97-32.07s-47.57 1.52-65.58 11.11c-4.87 2.59-18.42 15.43-35.66 32.83 37.5 51.74 98.41 85.41 167.19 85.41 76.41 0 143.12-41.53 178.79-103.25-30.75-18.32-54.97-31.15-61.83-31.41z" fill="#e06486"/><path d="M199.03 34.13s-47.32 5.57-64.72 34.47c-14.1 23.42-15 150.57-14.36 200.62.03 2.24-19.93 10.81-20.43 18.17-.54 7.95 21.93 7.56 22.06 7.56.84 0 51.03-9.88 52.86-12.74 1.01-1.57 1.12-28.27.28-31.64s-22.48-7.66-29.1-20.97c-7.12-14.32-6.6-115.37-2.46-133.13 4.14-17.77 31.22-30.65 44.96-33.14s47.29 16.02 54.47 32.63c7.18 16.6-1.77 298.02-.47 298.46.81.27 27.56.54 48.2.49a204.07 204.07 0 0 0 24.43-12.94c1.47-50.4.98-238.76-9.88-280.34-12.55-48.04-65.89-69.81-105.84-67.49z" fill="#ffc68d"/><g opacity=".31"><path d="M242.59 95.95a7.12 7.12 0 0 1 .34 1.02l5.08-2.04c14.6-6.35 26.43-16.77 38.16-27.25-8.16-8.85-18.11-15.93-28.85-21.26a70.391 70.391 0 0 1-20.39 15.92c-7.04 3.65-14.78 6.35-22.8 8.1 12.35 6.47 24.48 16.28 28.47 25.51zm-97.67-4.33c4.41-9.14 14.59-16.68 24.73-21.74-1.72-.44-3.42-.93-5.09-1.48-7.54-2.48-14.74-6.11-20.86-11.09-3.61 3.3-6.82 7.04-9.38 11.29-1.53 2.54-2.9 6.38-4.13 11.28 4.46 4.58 9.4 8.48 14.73 11.74z" fill="#fff2e6"/></g><path d="M188.12 63.32c.83-.15 1.73-.22 2.7-.22 2.68-8.76 8.13-21.86 21-28.9-3.1-.2-6.17-.28-9.16-.21-11.02 9.18-15.55 22.45-17.68 30.03 1.11-.28 2.16-.52 3.15-.7zM289.66 394.9h.66l4.69-2.16V274.48h-5.35V394.9zm-23.28-198.88l-5.35-.22-4.07 113.82-1.61 78.53-.01 6.58 5.32.06c0-45.07 3.02-134.4 5.72-198.76z" fill="#efb47f"/><g fill="#513d38"><ellipse cx="149.57" cy="145.62" rx="2.84" ry="9.77"/><ellipse cx="208.4" cy="144.64" rx="2.84" ry="9.77"/><path d="M157.69 122l-14.28-.6c-4.06-.17-4.09 6.17 0 6.34l14.28.6c4.06.17 4.09-6.17 0-6.34zm55.01-2.25l-14.28-.6c-4.06-.17-4.09 6.17 0 6.34l14.28.6c4.06.17 4.09-6.17 0-6.34zm-54.4 80.61l52.31-1.51c.14.41.63 3.97.27 4.66s-16.33 12.52-27.94 13.01c-11.56.49-24.65-11.78-24.65-11.78v-4.38z"/></g><path d="M204.61 198.86l-42.17 1.35c.05 2.09.19 4.78.52 5.11.56.56 41.29-1.1 41.29-1.1l.36-5.36z" fill="#fff"/><path d="M182.34 184.93c-2.38-.44-23.26-4.65-24.23-15.92-.91-10.52 16.99-28.28 19.03-30.27l3.73 3.83c-7.02 6.84-17.95 19.93-17.43 25.98.49 5.68 13.61 9.94 19.88 11.12l-.98 5.26z" fill="#c5735b"/><path d="M156.54 252.21c.27 14.92.06 31.59-.7 35.58l5.48-1.32c.89-8.49.71-26 .56-34.36l-5.35.1zm-39.11 37.31l-9.25 4.23c3.64.78 7.64 1.05 10.31 1.15.37-.17.74-.33 1.11-.49 9.3-4.13 16.04-7.16 18.15-8.68 1.68-1.21 3.43-2.45 2.8-55.38l-1.07-51.25-5.35.16c1.09 36.21 2.03 95.1.02 102.43-2.59 1.55-10.69 5.14-16.71 7.82z" fill="#efb47f"/></svg>