<svg xmlns="http://www.w3.org/2000/svg" viewBox="0 0 412.71 412.71"><circle cx="206.35" cy="206.35" r="206.35" transform="rotate(315 206.351 206.346)" fill="#e5d6e3"/><path d="M132.9 156.75L114.21 286.2s40.69 10.7 42.87 9.82 27.42-80.94 28.15-82.69-52.33-56.58-52.33-56.58z" fill="#87463f"/><path d="M132.9 265.05s20.67-.54 21.76-3.52 7.83-35.89 7.23-37.51-14.48-4.84-22.27-28.21c-11.76-35.28 15.79-124.68 30.55-134.16 7.55-4.85 23.59-7.71 38.02-8.65 13.75-.9 26.04 0 27.88.52 3.75 1.08 44.46 16.25 48.67 41.71 4.2 25.46-41.51 115.37-41.51 115.37s-15.13 61.5-12.24 62.86c2.9 1.35 23.92 4.87 23.92 4.87s-18.89 34.39-58.81 34.12-63.19-47.39-63.19-47.39z" fill="#ff9d7d"/><path d="M244.93 190.25l-1.11 1.81c-.12.2-11.77 17.48-27.86 27.21-24.72 14.95-49.94 7.1-54.03 5.09.04 2.53-2.73 16.91-4.9 27.09 6.29 1.25 20.01 3.45 32.12 3.45 9.24 0 20.79-3.55 29.96-11.26 12.96-10.89 24.59-41.55 28.16-46.93l2.39.77 2.35-4.93-7.08-2.28z" fill="#c5735b"/><path d="M313.92 281.66c-17.88-5.65-73.4-13.49-73.4-13.49s-22.15 30.14-52.7 29.48c-30.54-.66-46.11-41.09-46.11-41.09s-34.82-3.76-48.31 0c-6.77 1.89-40.87 20.7-73.18 38.99 33.27 69.31 104.11 117.16 186.13 117.16 71.07 0 133.75-35.93 170.86-90.62-27.62-19.73-55.15-37.86-63.3-40.43z" fill="#ecf3ff"/><path d="M178.21 320.92c-30.91 0-51.5-37.22-52.39-38.88l4.69-2.55c.21.39 21.68 39.19 51.39 35.89 30.89-3.43 65.58-25.54 65.93-25.77l2.89 4.49c-1.46.94-36.11 23.02-68.23 26.58-1.44.16-2.87.24-4.27.24z" fill="#dce7f9"/><path d="M191.06 155.77c-.48-.17-11.75-4.31-15.3-12.11-1.39-3.04-1.46-6.2-.22-9.39 4.76-12.25 26.65-22.82 27.57-23.26l2.3 4.82c-5.8 2.78-21.59 11.85-24.9 20.38-.71 1.82-.67 3.53.1 5.24 2.16 4.77 9.58 8.34 12.26 9.31l-1.81 5.02z" fill="#c5735b"/><path d="M160.75 164.25c4.02-2.82 54.84 9.83 55.28 15.94s-20 20.2-36.43 15.06c-16.43-5.13-22.69-28.31-18.85-31z" fill="#5b3331"/><path d="M183.97 90.79a90.262 90.262 0 0 0-15.71-1.9c-4.18-.13-4.18 6.37 0 6.5 4.72.15 9.36.69 13.99 1.67 4.08.86 5.83-5.41 1.73-6.27zm64.08 19.26c-4.97-3.71-11.21-5.89-16.8-8.49-3.77-1.75-7.08 3.85-3.28 5.61 5.6 2.6 11.84 4.78 16.8 8.49 3.35 2.51 6.6-3.14 3.28-5.61z" fill="#5b322f"/><path d="M167.58 164.19c-.6 3.14-.48 6.89-.06 7.35.77.83 34.34 10.1 35.5 10.13 1.3.02 4.74-3.11 6.59-6.15-10.47-4.67-31.14-9.95-42.03-11.32z" fill="#fff"/><path d="M244.65 34.5c41.31 8.91 65.35 46.47 68.31 85.21s-9.49 159.25-9.49 159.25l-11.34-2.38s-15.65 25.6-18.92 48.45c-3.27 22.86 10.61 62.59 10.61 62.59s-47.79-14.15-65.53-50.89 25.76-140.15 25.76-140.15S281.2 77.64 231.82 57.24c-27.67-11.43-69.72-.77-87.44 64-6.29 22.97-8.04 46.93-5.87 70.47 2.88 31.26 11.12 60.09 9.66 68.29-2.57 14.38-42.69 70.61-25.26 100.01 0 0-88.45-31.22-69.2-90.79s47.09-62.43 59.83-135.27c12.75-72.84 65.54-113.61 131.1-99.47z" fill="#87463f"/><path d="M184.08 201.54l-2.26-.18c-.05 0-.08 0-.1-.01-.02 0-.06 0-.11-.02l-.48-.07-1.12-.2c-1.43-.29-2.84-.69-4.21-1.19-.8-.29-1.82.33-2 1.14-.21.92.28 1.69 1.14 2a30.33 30.33 0 0 0 9.14 1.79c.85.04 1.66-.77 1.63-1.63a1.66 1.66 0 0 0-1.63-1.63z" fill="#c5735b"/><g fill="#753834"><path d="M141.2 200.08c-16.04 23.25-52.01 78.78-50.77 109.08.76 18.59 4.86 31.44 9.01 39.87 3.2 1.8 6.24 3.37 9.01 4.73-4.57-6.48-11.69-20.36-12.69-44.82-1.08-26.51 31.56-78.15 48.23-102.95-.64-1.03-2.09-4.27-2.79-5.91zm-68.78 86.27c1.75-30.45 45.47-92.28 65.27-118.84.08-3.17.23-6.35.46-9.51-16.67 21.82-69.04 92.93-71.06 128.05-1.05 18.28.84 31.94 3.3 41.55 2.51 2.53 5.17 4.91 7.89 7.15-3.26-8.51-7.26-24.25-5.87-48.39zM223.65 54.64c1.75.41 3.47.9 5.15 1.48 1.61-6.16 5.15-16.55 11.69-22.43a133.26 133.26 0 0 0-6.42-1c-5.72 6.81-8.88 16.08-10.42 21.95z"/><path d="M227.91 49.64l1.96-4.97c-1.43-.56-35.38-13.47-70.21 16.3-20.36 17.4-32.69 47.59-42.6 71.85l-6.33 15.14c-1.86 8.1-3.95 15.22-6.19 21.6 5.95-6.55 11.14-19.23 17.47-34.73 9.69-23.72 21.75-53.25 41.13-69.81 32.3-27.61 63.47-15.9 64.78-15.39zm70.7 43.98c-18.58-48.78-65.1-56.78-65.57-56.86l-.85 5.27c.44.07 43.93 7.56 61.43 53.49 11.64 30.55-13.15 112.94-31.24 173.09-9.78 32.52-17.51 58.2-17.16 67.85.53 14.53 4.61 27.7 8.33 37.02 2.63 1.64 5.23 3.12 7.72 4.46-3.95-8.61-10.07-24.17-10.71-41.67-.32-8.76 7.68-35.34 16.94-66.12 18.32-60.89 43.41-144.27 31.12-176.53zm-42.93 110.62c12.53-52.69 23.35-98.2 19.67-115.36-8.57-39.91-45.97-41.85-46.35-41.87l-.22 5.33c1.37.06 33.66 1.86 41.35 37.65 3.43 15.98-7.78 63.11-19.64 113-13.01 54.71-26.36 110.87-25.88 144.32 1.77 2.47 3.66 4.81 5.65 7.02-2.91-31 12.02-93.76 25.42-150.1zm45.29 4.04c.25 20.46-7.66 55.55-12.14 74.14 1.97-3.65 3.3-5.83 3.3-5.83l3.41.71c4.65-19.81 10.91-49.55 10.78-68.63l-5.34-.39z"/></g><path d="M158.11 113.44c-.69-3.89 8.79-7.67 14.01-5.87s4.71 14.66 2.8 14.54-3.23-5.96-6.11-8.03c-3.19-2.3-10.07 2.94-10.71-.63zm79.23 24.12c3.27-2.22-.67-11.65-5.6-14.12-4.94-2.48-13.78 6.89-12.35 8.16 1.43 1.28 6.52-1.86 10.01-1.25 3.88.67 4.95 9.25 7.94 7.21z" fill="#5b322f"/><g opacity=".19"><path d="M152.44 65.33c4.71 3.62 9.8 6.71 15.09 9.42 12.06-13.78 26.14-20.13 39.56-21.28-8.97-3.14-17.17-7.86-21.59-16.05-14.12 5-26.76 13.23-37.47 24.24 1.43 1.27 2.9 2.51 4.42 3.68zm-51.82 244.98l22.28 7.89c4.91-15.36 12.93-30.78 18.65-42.35-25.84-10.63-50.62-23.99-74.14-39.01-4.81 8.96-9.46 19.32-13.69 32.42-2.25 6.96-3.01 13.52-2.64 19.7 15.92 8.38 32.6 15.26 49.54 21.36zM256.03 95.06c2.8-.3 5.61-.7 8.41-1.23 13.23-2.51 26.03-6.75 38.6-11.53-4.57-9.57-10.61-18.37-18.09-25.82-15.13 6.38-31.18 6.38-47.15 4.01 10.47 7.12 15.91 19.76 18.23 34.57zm-34.74 247.21c4.36.43 8.74.76 13.13.97 13.03.62 25.99.23 38.82-1.09-.63-6.12-.75-12.03-.02-17.1 1.76-12.32 7.12-25.43 11.69-34.91-22.78 6.03-46.29 8.16-69.68 5.93-2.03 16.17-1.69 30.83 3.07 40.68.92 1.9 1.92 3.74 2.99 5.53z" fill="#ffb7b2"/></g></svg>