<svg data-name="Layer 2" xmlns="http://www.w3.org/2000/svg" viewBox="0 0 412.71 412.71"><g data-name="—ÎÓÈ_1"><g data-name="U"><circle cx="206.35" cy="206.35" r="206.35" style="fill:#e5d6e3;stroke-width:0"/><path d="M194.39 409.24h29.97c22.93-4.65 45.17-12.97 64.81-24.63 9.84-5.84 18.86-12.89 27.96-19.8 8.6-6.53 17.51-12.35 26.51-18.3 8.24-5.45 15.96-11.7 21.86-19.7 2.34-3.17 4.52-6.45 6.65-9.77-.41-1.8-.85-3.03-1.33-3.54-5.14-5.54-117.49-42.72-121.05-47.07-3.56-4.35.4-38.6.4-38.6h-80.16c0 1.33.22 33.59-2.43 36.02-2.55 2.34-113.53 33.99-128.83 45.93 18.78 27.51 46.49 46.72 73.76 65.19 24.8 16.8 52.67 28.23 81.9 34.27z" style="fill:#f6987c;stroke-width:0"/><path d="M249.57 231.7c-8.91 5.59-26.42 17.25-40.48 17.25h-.61c-16.45-.34-31.62-7.55-38.52-11.37-.04 2.78-.1 5.89-.21 8.98 7.78 8.35 21.9 20.76 37.6 21.08h1.11c13.79 0 30.24-14.16 40.32-24.23.24-3.63.54-8.99.8-11.71z" style="fill:#c3735b;stroke-width:0"/><path d="M151.46 90.22c-.39 1.83-9.65 109.94 1.25 129.87 10.9 19.93 38.62 32.39 57.62 31.14s49.52-25.23 54.19-35.82c4.67-10.59 14.33-113.68 11.52-123.64s-35.5-41.42-57.31-42.98-63.85 25.23-67.27 41.42z" style="fill:#f6987c;stroke-width:0"/><path d="M177.77 140.99c-.22 6.02-1.8 10.9-3.52 10.9s-2.93-4.88-2.71-10.9 1.8-10.9 3.52-10.9 2.93 4.88 2.71 10.9zM245.78 144.85c-.22 6.02-1.8 10.9-3.52 10.9s-2.93-4.88-2.71-10.9c.22-6.02 1.8-10.9 3.52-10.9s2.93 4.88 2.71 10.9zM187.61 114.12c-6.16.13-12.31.25-18.47.38-4.48.09-4.5 7.07 0 6.98 6.16-.13 12.31-.25 18.47-.38 4.48-.09 4.5-7.07 0-6.98zM249.62 119.24c-6.43-1.2-12.88-2.16-19.38-2.92-4.45-.52-4.42 6.47 0 6.98 5.87.68 11.71 1.58 17.52 2.67 4.39.82 6.27-5.9 1.86-6.73z" style="fill:#293549;stroke-width:0"/><path d="M206.28 179.29c-8.23 0-18.81-1.15-20.72-6.83-2.51-7.45 12.6-31.83 17.29-39.12l3.91 2.52c-9.03 14.05-18.02 31.47-16.79 35.12 1.05 3.13 13.39 4.25 24.25 3.32l.39 4.64c-1.81.16-4.86.36-8.33.36z" style="fill:#c3735b;stroke-width:0"/><path d="m175.98 192.47-1.32 7s18.23 14.17 31.7 14.24c11.58.06 30.88-10.27 31.45-11.4.57-1.13 0-7.18 0-7.18s-52.19-3.03-61.83-2.65z" style="fill:#293549;stroke-width:0"/><path d="M181.51 192.48c.11 2.47.37 5.91.91 6.13.83.33 45.75 2.48 46.58 2.15.58-.23 1.87-3.83 2.61-5.99-11.84-.66-37.62-2.04-50.1-2.29z" style="fill:#fff;stroke-width:0"/><path d="M149.15 138.77c-.63-1.38-11.74-10.14-14.85-9.9-3.11.24-5.46 7.84-5.46 7.84s-2.39 34.61 2.15 37.25c4.55 2.63 16.43-.96 16.43-.96l1.73-34.23zM274.12 150.46c.77-1.3 10.29-16.18 13.36-15.61 3.07.57 6.01 9.15 6.01 9.15s-1.26 34.67-6.06 36.81c-4.8 2.14-19.27-2.62-19.27-2.62l5.97-27.73z" style="fill:#f6987c;stroke-width:0"/><path d="M138.19 166.5c-.03-.93-1.07-14.85-1.76-23.98l4.64-.35c.42 5.47 1.77 23.4 1.77 24.3h-4.65 2.33l-2.33.03z" style="fill:#c3735b;stroke-width:0"/><path transform="rotate(-77.08 282.816 159.766)" style="fill:#c3735b;stroke-width:0" d="M269 157.44h27.66v4.65H269z"/><path d="M186.72 65.76c0 .56 5.83 2.15 6.2 2.89.37.74 4.02 18.85 25.2 26.84s30.66 10.78 31.59 7.25c.93-3.53-5.02-9.11-5.02-9.11s7.25 6.13 12.45 5.2c5.2-.93 5.95-4.83 5.95-4.83l5.39 14.68s-1.86 16.54 0 21.18c1.86 4.65 4.46 12.47 4.46 12.47l-.63 18.96s4.3.03 4.23 0c-.07-.03 4.22-20.42 4.22-20.42l8.35-6.29s7.63-48.95 2.06-68.84-33.4-40.89-64.25-41.1c-30.85-.21-47.56 13.49-47.56 13.49s-26.49-.64-38.84 20.99c-12.35 21.63-6.21 69.72-6.21 69.72l10.57 8.68 2.55 15.85 4.94-.43s2.78-47.34 2.78-47.98 17.35-13.71 23.56-23.56 8.01-15.66 8.01-15.66z" style="fill:#293549;stroke-width:0"/><g style="opacity:.1"><path d="M160.38 77.55c4.78 3.11 9.75 5.97 14.88 8.47 1.34-1.57 2.52-3.12 3.45-4.59 6.21-9.85 8.01-15.66 8.01-15.66 0 .56 5.83 2.15 6.2 2.89.37.74 4.02 18.85 25.2 26.84 26.82-1.66 52.54-17.87 68.65-39.41-6.04-9.67-16.7-18.74-29.7-24.63-5.1 7.78-13.21 14.15-20.56 18.85-12.11 7.74-27.17 11.24-41.46 11.03-11.93-.18-25.1-4.02-33.38-13.03a26.982 26.982 0 0 1-3.72-5.16c-6.33 3.04-12.77 7.94-17.33 15.83 4.23 7.52 11.55 13.24 19.76 18.58z" style="fill:#6c9be0;stroke-width:0"/></g><path d="M377.54 311.01c-4.71-8.77-106.83-41.79-106.83-41.79s1.74-13.75-2.91-16.85c-4.65-3.1-19.29-4.68-19.29-4.68s-31.49 60.81-42.16 61.87c-10.67 1.06-36.69-61.12-36.69-61.12s-14.17.91-17.95 7.05c-3.78 6.14-4.3 12.04-4.3 12.04S40.06 291.3 32.39 309.19c-.59 1.37-1.18 3.19-1.78 5.37 36.34 58.9 101.45 98.16 175.73 98.16s136.14-37.33 172.96-93.78c-.55-3.94-1.14-6.73-1.77-7.92z" style="fill:#ecf3ff;stroke-width:0"/><path d="M142.27 268.7c16.76 37.17 26.99 53.96 34.16 56.07 1.58.46 3.09.27 4.37-.56 4.22-2.74 8.33-6.83 12.3-10.79 2.6-2.59 5.25-5.22 7.64-7.14-.96-1-1.96-2.2-2.99-3.56-2.51 2.02-5.13 4.62-7.93 7.41-3.8 3.79-7.74 7.71-11.55 10.18-.06.04-.17.11-.53 0-3.71-1.09-12.07-11.18-30.84-52.67-.76.17-2.35.53-4.63 1.06zM210.59 307.16c1.15 1.44 2.33 3.08 3.36 4.51 4.91 6.82 10.88 15.12 18.64 15.12 1.02 0 2.08-.14 3.16-.45 11.43-3.27 31.97-40.44 39.9-55.51-2.22-.73-3.77-1.23-4.48-1.47-11.28 21.36-28.79 50.24-36.69 52.5-6.19 1.77-11.79-6.03-16.74-12.91-1.36-1.89-2.62-3.64-3.85-5.14-1.16 1.32-2.26 2.45-3.29 3.35z" style="fill:#d3e0f4;stroke-width:0"/><path d="M206.29 224.7c-4.01 0-6.84-1.1-7.03-1.17l1.72-4.32-.86 2.16.85-2.16c.06.02 6.07 2.29 12.43-.75l2.01 4.19a20.961 20.961 0 0 1-9.13 2.06z" style="fill:#c3735b;stroke-width:0"/></g></g></svg>